<svg width="64" height="64" viewBox="0 0 64 64" fill="none" xmlns="http://www.w3.org/2000/svg">
<path opacity="0.5" fill-rule="evenodd" clip-rule="evenodd" d="M9.35321 9.35321H20.4876L16.532 13.3089L15.9891 13.8517L16.5351 14.3915L28.8617 26.578V28.8617H26.578L14.3915 16.5351L13.8517 15.9891L13.3089 16.532L9.35321 20.4876V9.35321ZM30.3884 8.58984V25.9405L32 27.5337L33.6116 25.9405V8.58984V7.82646H34.3749H39.8265L32 0L24.1735 7.82646H29.6251H30.3884V8.58984ZM35.1383 28.8617V26.578L47.465 14.3915L48.0109 13.8517L47.468 13.3089L43.5124 9.35321H54.6468V20.4876L50.6912 16.532L50.1483 15.9891L49.6085 16.5351L37.422 28.8617H35.1383ZM35.1383 9.35321H41.3532L45.8456 13.8456L35.1383 24.4311V9.35321ZM50.1544 18.1544L54.6468 22.6468V28.8617H39.569L50.1544 18.1544ZM36.4663 32L38.0595 30.3884H55.4102H56.1735V29.6251V24.1735L64 32L56.1735 39.8265V34.3749V33.6116H55.4102H38.0595L36.4663 32ZM54.6468 35.1383V41.3532L50.1544 45.8456L39.569 35.1383H54.6468ZM35.1383 35.1383H37.422L49.6085 47.465L50.1483 48.0109L50.6912 47.468L54.6468 43.5124V54.6468H43.5124L47.468 50.6912L48.0109 50.1483L47.465 49.6085L35.1383 37.422V35.1383ZM45.8456 50.1544L41.3532 54.6468H35.1383V39.569L45.8456 50.1544ZM32 36.4663L33.6116 38.0595V55.4102V56.1735H34.3749H39.8265L32 64L24.1735 56.1735H29.6251H30.3884V55.4102V38.0595L32 36.4663ZM28.8617 54.6468H22.6468L18.1544 50.1544L28.8617 39.569V54.6468ZM28.8617 35.1383V37.422L16.5351 49.6085L15.9891 50.1483L16.532 50.6912L20.4876 54.6468H9.35321V43.5124L13.3089 47.468L13.8517 48.0109L14.3915 47.465L26.578 35.1383H28.8617ZM13.8456 45.8456L9.35321 41.3532V35.1383H24.4311L13.8456 45.8456ZM27.5337 32L25.9405 33.6116H8.58984H7.82646V34.3749V39.8265L0 32L7.82646 24.1735V29.6251V30.3884H8.58984H25.9405L27.5337 32ZM9.35321 28.8617V22.6468L13.8456 18.1544L24.4311 28.8617H9.35321ZM18.1544 13.8456L28.8617 24.4311V9.35321H22.6468L18.1544 13.8456Z" fill="url(#paint0_linear_956_3351)"/>
<defs>
<linearGradient id="paint0_linear_956_3351" x1="33.0016" y1="0" x2="33.0016" y2="64" gradientUnits="userSpaceOnUse">
<stop stop-color="white"/>
<stop offset="1" stop-color="white" stop-opacity="0.5"/>
</linearGradient>
</defs>
</svg>
