<svg width="52" height="64" viewBox="0 0 52 64" fill="none" xmlns="http://www.w3.org/2000/svg">
<g opacity="0.5">
<path d="M31.0772 33.8129C30.0047 33.8276 31.2801 34.3593 32.6803 34.5724C33.0671 34.2738 33.418 33.9716 33.7308 33.6777C32.8588 33.889 31.9713 33.8937 31.0772 33.8129Z" fill="url(#paint0_linear_956_3314)"/>
<path d="M36.8332 32.3946C37.4718 31.523 37.9374 30.5687 38.1015 29.582C37.9582 30.2855 37.5721 30.8927 37.2086 31.5336C35.2038 32.7818 37.02 30.7924 37.2074 30.0364C35.0516 32.7192 36.9114 31.6452 36.8332 32.3946Z" fill="url(#paint1_linear_956_3314)"/>
<path d="M38.9577 26.9275C39.0872 25.0178 38.5775 25.6215 38.4062 26.3503C38.6062 26.453 38.7644 27.6964 38.9577 26.9275Z" fill="url(#paint2_linear_956_3314)"/>
<path d="M27.0117 0.825195C27.5841 0.926699 28.2484 1.0046 28.1553 1.13974C28.7814 1.00401 28.9234 0.878898 27.0117 0.825195Z" fill="url(#paint3_linear_956_3314)"/>
<path d="M28.1527 1.13965L27.748 1.22227L28.1247 1.18922L28.1527 1.13965Z" fill="url(#paint4_linear_956_3314)"/>
<path d="M46.0014 27.6514C46.0652 29.3664 45.494 30.1985 44.979 31.6715L44.0521 32.1294C43.2935 33.5859 44.1255 33.0542 43.5824 34.2126C42.3982 35.2536 39.9888 37.4702 39.2176 37.6726C38.6548 37.6602 39.599 37.0158 39.7226 36.7632C38.1374 37.8396 38.4507 38.379 36.0263 39.0329L35.9553 38.8771C29.9761 41.6584 21.6705 36.1465 21.7797 28.6258C21.7158 29.1032 21.5982 28.984 21.4657 29.1769C21.1572 25.3074 23.273 21.4207 26.8415 19.8339C30.3318 18.1254 34.4238 18.8265 36.924 21.1304C35.5506 19.3517 32.8171 17.4662 29.5774 17.6427C26.404 17.6922 23.4353 19.6863 22.4446 21.851C20.8188 22.863 20.6302 25.7524 19.9217 26.2811C18.9686 33.2076 21.7146 36.2002 26.3599 39.7204C27.091 40.2078 26.5658 40.2816 26.6648 40.6528C25.1214 39.9381 23.7081 38.8594 22.546 37.5386C23.1626 38.4309 23.828 39.2984 24.6881 39.98C23.233 39.4926 21.2891 36.4935 20.7215 36.3713C23.23 40.8121 30.8988 44.1594 34.9144 42.4987C33.0564 42.5666 30.6959 42.5365 28.6082 41.7735C27.7314 41.3273 26.5389 40.4032 26.752 40.2303C32.2322 42.2544 37.8932 41.7634 42.6352 38.0048C43.8414 37.076 45.1592 35.4956 45.54 35.4737C44.9664 36.3265 45.6379 35.8839 45.1974 36.6369C46.3995 34.7201 44.6752 35.8567 46.44 33.3268L47.0918 34.2144C46.8495 32.6234 49.09 30.6912 48.8626 28.1749C49.3765 27.4053 49.4362 29.0029 48.8907 30.7733C49.6475 28.8093 49.09 28.4936 49.2846 26.873C49.4947 27.4177 49.7704 27.9967 49.9119 28.5715C49.4189 26.6736 50.418 25.3753 50.6651 24.2723C50.4216 24.1655 49.9041 25.1115 49.7859 22.8695C49.8032 21.8958 50.0599 22.3591 50.159 22.1195C49.9656 22.0097 49.4583 21.2632 49.1497 19.8315C49.3735 19.4951 49.7477 20.7037 50.0521 20.7533C49.8564 19.6149 49.5191 18.7468 49.5054 17.8734C48.6161 16.0357 49.1909 18.1183 48.4693 17.0844C47.5227 14.165 49.2547 16.4069 49.3717 15.0803C50.8065 17.1357 51.6248 20.3213 52.0002 21.6409C51.7137 20.0322 51.2506 18.4736 50.6854 16.9658C51.1211 17.147 49.9835 13.6557 51.2518 15.9679C49.8969 11.039 45.4535 6.43357 41.3657 4.27248C41.8658 4.72512 42.4973 5.29343 42.2705 5.38254C40.2376 4.18573 40.5952 4.09249 40.3039 3.58674C38.6477 2.92048 38.539 3.64045 37.442 3.58792C34.3205 1.95088 33.7189 2.12497 30.8463 1.09931L30.977 1.70302C28.909 1.022 28.5676 1.9615 26.3324 1.70538C26.1963 1.60033 27.0486 1.32533 27.7499 1.22442C25.7505 1.48526 25.8442 0.834924 23.8877 1.29641C24.37 0.961804 24.8797 0.740502 25.3942 0.456055C23.7636 0.554018 21.5016 1.39438 22.1999 0.630146C19.5403 1.80334 14.8169 3.45042 12.1663 5.90776L12.0828 5.35716C10.8682 6.79887 6.78639 9.66282 6.46112 11.53L6.13643 11.605C5.50438 12.6631 5.09554 13.8622 4.59419 14.9511C3.76756 16.3438 3.3826 15.4869 3.50018 15.7053C1.87438 18.9646 1.06685 21.7034 0.369141 23.9495C0.866311 24.6842 0.381077 28.3726 0.569083 31.3245C-0.247398 45.9033 10.9171 60.0583 23.1208 63.3265C24.9095 63.9592 27.5697 63.935 29.8323 63.9999C27.1626 63.2451 26.8176 63.5998 24.2172 62.7033C22.3413 61.8299 21.9301 60.8326 20.6015 59.6924L21.1273 60.6113C18.5215 59.6995 19.6119 59.4829 17.492 58.819L18.0536 58.0938C17.2091 58.0306 15.8166 56.6863 15.4358 55.9421L14.5119 55.9781C13.4018 54.6237 12.8103 53.6477 12.8533 52.8917L12.5549 53.4175C12.2165 52.8433 8.47069 48.3382 10.414 49.3868C10.0529 49.0605 9.57305 48.8557 9.05261 47.9209L9.44831 47.4736C8.51306 46.2839 7.72702 44.759 7.7867 44.2509C8.28566 44.9171 8.63183 45.0417 8.97442 45.1556C6.61271 39.3616 6.48021 44.8363 4.69148 39.2577L5.06987 39.2276C4.77981 38.7956 4.60374 38.3265 4.37037 37.8662L4.5351 36.2433C2.8347 34.2994 4.05942 27.9778 4.30472 24.5107C4.47482 23.1009 5.72401 21.6001 6.67419 19.2467L6.09525 19.1481C7.2018 17.2396 12.4134 11.4834 14.8271 11.7796C15.9963 10.3273 14.5949 11.7743 14.3663 11.4084C16.9345 8.78056 17.742 9.55187 19.4753 9.07917C21.3446 7.9821 17.871 9.50702 18.7573 8.66076C21.9886 7.8446 21.0474 6.80536 25.2629 6.39108C25.7075 6.6413 24.2309 6.77762 23.8603 7.1022C26.5526 5.79976 32.3802 6.09601 36.1654 7.82512C40.5576 9.85461 45.4922 15.854 45.6868 21.4986L45.9082 21.5577C45.796 23.8014 46.2556 26.3962 45.4594 28.7798L46.0014 27.6514Z" fill="url(#paint5_linear_956_3314)"/>
<path d="M19.3692 35.2686L19.2188 36.0121C19.9236 36.9587 20.4829 37.9844 21.3829 38.7244C20.7353 37.4745 20.2543 36.9581 19.3692 35.2686Z" fill="url(#paint6_linear_956_3314)"/>
<path d="M21.0363 35.2044C20.6632 34.7966 20.4424 34.3056 20.1953 33.8164C20.4317 34.6762 20.9157 35.4151 21.3663 36.1663L21.0363 35.2044Z" fill="url(#paint7_linear_956_3314)"/>
<path d="M50.5224 28.8672L50.3648 29.2579C50.0759 31.2868 49.4522 33.2944 48.4961 35.1557C49.5525 33.1917 50.2359 31.0436 50.5224 28.8672Z" fill="url(#paint8_linear_956_3314)"/>
<path d="M27.223 0.316905C27.9481 0.0542928 29.0057 0.172911 29.7751 0C28.7724 0.0832096 27.7745 0.132781 26.7891 0.258481L27.223 0.316905Z" fill="url(#paint9_linear_956_3314)"/>
<path d="M1.76513 13.7021C1.93225 15.2318 0.60129 15.8255 2.05997 14.8169C2.84184 13.0754 1.75439 14.336 1.76513 13.7021Z" fill="url(#paint10_linear_956_3314)"/>
<path d="M0.0490062 20.782C0.385029 19.7623 0.445907 19.1497 0.574228 18.5596C-0.35446 19.7334 0.146888 19.9836 0.0490062 20.782Z" fill="url(#paint11_linear_956_3314)"/>
</g>
<defs>
<linearGradient id="paint0_linear_956_3314" x1="32.252" y1="33.6777" x2="32.252" y2="34.5724" gradientUnits="userSpaceOnUse">
<stop stop-color="white"/>
<stop offset="1" stop-color="white" stop-opacity="0.5"/>
</linearGradient>
<linearGradient id="paint1_linear_956_3314" x1="37.1622" y1="29.582" x2="37.1622" y2="32.3946" gradientUnits="userSpaceOnUse">
<stop stop-color="white"/>
<stop offset="1" stop-color="white" stop-opacity="0.5"/>
</linearGradient>
<linearGradient id="paint2_linear_956_3314" x1="38.7014" y1="25.6494" x2="38.7014" y2="27.1771" gradientUnits="userSpaceOnUse">
<stop stop-color="white"/>
<stop offset="1" stop-color="white" stop-opacity="0.5"/>
</linearGradient>
<linearGradient id="paint3_linear_956_3314" x1="27.8172" y1="0.825195" x2="27.8172" y2="1.13974" gradientUnits="userSpaceOnUse">
<stop stop-color="white"/>
<stop offset="1" stop-color="white" stop-opacity="0.5"/>
</linearGradient>
<linearGradient id="paint4_linear_956_3314" x1="27.9567" y1="1.13965" x2="27.9567" y2="1.22227" gradientUnits="userSpaceOnUse">
<stop stop-color="white"/>
<stop offset="1" stop-color="white" stop-opacity="0.5"/>
</linearGradient>
<linearGradient id="paint5_linear_956_3314" x1="26.9927" y1="0.456055" x2="26.9927" y2="63.9999" gradientUnits="userSpaceOnUse">
<stop stop-color="white"/>
<stop offset="1" stop-color="white" stop-opacity="0.5"/>
</linearGradient>
<linearGradient id="paint6_linear_956_3314" x1="20.3347" y1="35.2686" x2="20.3347" y2="38.7244" gradientUnits="userSpaceOnUse">
<stop stop-color="white"/>
<stop offset="1" stop-color="white" stop-opacity="0.5"/>
</linearGradient>
<linearGradient id="paint7_linear_956_3314" x1="20.7991" y1="33.8164" x2="20.7991" y2="36.1663" gradientUnits="userSpaceOnUse">
<stop stop-color="white"/>
<stop offset="1" stop-color="white" stop-opacity="0.5"/>
</linearGradient>
<linearGradient id="paint8_linear_956_3314" x1="49.5409" y1="28.8672" x2="49.5409" y2="35.1557" gradientUnits="userSpaceOnUse">
<stop stop-color="white"/>
<stop offset="1" stop-color="white" stop-opacity="0.5"/>
</linearGradient>
<linearGradient id="paint9_linear_956_3314" x1="28.3288" y1="0" x2="28.3288" y2="0.316905" gradientUnits="userSpaceOnUse">
<stop stop-color="white"/>
<stop offset="1" stop-color="white" stop-opacity="0.5"/>
</linearGradient>
<linearGradient id="paint10_linear_956_3314" x1="1.87129" y1="13.7021" x2="1.87129" y2="15.3162" gradientUnits="userSpaceOnUse">
<stop stop-color="white"/>
<stop offset="1" stop-color="white" stop-opacity="0.5"/>
</linearGradient>
<linearGradient id="paint11_linear_956_3314" x1="0.296101" y1="18.5596" x2="0.296101" y2="20.782" gradientUnits="userSpaceOnUse">
<stop stop-color="white"/>
<stop offset="1" stop-color="white" stop-opacity="0.5"/>
</linearGradient>
</defs>
</svg>
