<svg width="64" height="64" viewBox="0 0 64 64" fill="none" xmlns="http://www.w3.org/2000/svg">
<g opacity="0.5">
<path fill-rule="evenodd" clip-rule="evenodd" d="M0.00595228 31.9857C0.0372159 14.3139 14.3453 0 32.017 0L31.9889 0.0286721C49.6763 0.0286721 64 14.3426 64 32.0143C64 49.6765 49.695 63.9885 32.0202 64H7.27722C3.26645 64 0.0141721 60.7537 0.00595228 56.7459H0V31.9857H0.00595228ZM25.8432 21.8458C26.4537 16.9174 30.8637 13.1615 35.856 13.1615L35.8526 13.1709C41.2263 13.1709 46.3 17.284 46.3 22.9579L46.3 23.0134C46.3001 23.5213 46.3002 24.0316 46.217 24.6074C46.0681 26.1168 44.6882 27.2016 43.1855 26.9888C41.6828 26.7735 40.6629 25.3473 40.9408 23.855C40.9663 23.6847 40.9755 23.4171 40.9755 22.9574C40.9755 19.7397 38.3418 18.4974 35.8519 18.4974C33.3625 18.4974 31.119 20.5897 31.1157 22.9574C31.1443 24.782 31.1348 26.5972 31.1252 28.4143C31.1204 29.3236 31.1157 30.2334 31.1157 31.145L35.7361 31.1106C39.3437 31.0359 39.3842 36.4659 35.7777 36.4404L31.1167 36.475C31.1103 37.7019 31.1163 38.1216 31.121 38.4445C31.1247 38.7012 31.1275 38.8967 31.1225 39.3878C31.1225 39.3878 31.1617 42.0811 31.0813 44.1219C30.5236 50.1176 25.4167 54.909 19.2802 54.909C12.7748 54.909 7.41667 49.5952 7.41667 43.077C7.61199 36.3741 12.9592 31.1016 19.696 31.1621L23.4535 31.1338V36.4541L19.696 36.4887H19.6762C15.9749 36.5981 12.8018 39.1113 12.7424 43.0738C12.7424 46.6833 15.6603 49.5761 19.2821 49.5761C22.899 49.5761 25.7938 46.9454 25.7938 43.08L25.788 22.9298C25.7903 22.5558 25.8021 22.2584 25.8432 21.8458Z" fill="url(#paint0_linear_956_3339)"/>
</g>
<defs>
<linearGradient id="paint0_linear_956_3339" x1="33.0016" y1="0" x2="33.0016" y2="64" gradientUnits="userSpaceOnUse">
<stop stop-color="white"/>
<stop offset="1" stop-color="white" stop-opacity="0.5"/>
</linearGradient>
</defs>
</svg>
