<svg width="64" height="64" viewBox="0 0 64 64" fill="none" xmlns="http://www.w3.org/2000/svg">
<path d="M32 0C23.5131 0 15.3737 3.37142 9.37258 9.37258C3.37142 15.3737 0 23.5131 0 32C0 40.4869 3.37142 48.6263 9.37258 54.6274C15.3737 60.6286 23.5131 64 32 64C40.4869 64 48.6263 60.6286 54.6274 54.6274C60.6286 48.6263 64 40.4869 64 32C64 23.5131 60.6286 15.3737 54.6274 9.37258C48.6263 3.37142 40.4869 0 32 0ZM42.9819 8.88333C43.6974 8.90063 44.3971 9.09739 45.0167 9.45556C45.5025 9.73615 45.9283 10.1097 46.2697 10.5548C46.6112 11 46.8616 11.5081 47.0067 12.05C47.1518 12.5919 47.1887 13.1571 47.1153 13.7133C47.042 14.2696 46.8598 14.8059 46.5792 15.2917C46.0127 16.2727 45.0798 16.9885 43.9856 17.2818C42.8915 17.5751 41.7256 17.4218 40.7444 16.8556C40.2585 16.5751 39.8326 16.2016 39.491 15.7565C39.1494 15.3114 38.8989 14.8034 38.7537 14.2614C38.6084 13.7195 38.5714 13.1542 38.6446 12.598C38.7179 12.0417 38.9 11.5053 39.1806 11.0194C39.5383 10.3996 40.0459 9.87953 40.657 9.50702C41.2681 9.13451 41.9629 8.92148 42.6778 8.8875C42.7791 8.8825 42.8805 8.88111 42.9819 8.88333ZM32 13.4403C33.7181 13.4403 35.3811 13.6807 36.9625 14.1222C37.1054 14.9992 37.4413 15.8336 37.9459 16.565C38.4506 17.2964 39.1114 17.9065 39.8806 18.3514C40.6471 18.793 41.5019 19.0596 42.3836 19.1321C43.2653 19.2046 44.1521 19.0812 44.9806 18.7708C48.1585 21.8912 50.229 26.1365 50.5208 30.8486H44.4236C43.8477 24.4673 38.5396 19.5194 32 19.5194C30.1314 19.5194 28.3684 19.9339 26.7819 20.6597L23.7417 15.3931C26.2324 14.1462 29.0364 13.4403 32 13.4403ZM21.7486 16.5486L24.7847 21.8069C21.5957 24.0606 19.5194 27.7697 19.5194 32C19.5194 36.2303 21.5957 39.9394 24.7847 42.1931L21.7486 47.4514C17.9953 44.9491 15.1962 41.1191 14.0333 36.6444C14.7224 36.0822 15.2779 35.3739 15.6596 34.5706C16.0412 33.7674 16.2396 32.8893 16.2403 32C16.2396 31.1107 16.0412 30.2326 15.6596 29.4294C15.2779 28.6261 14.7224 27.9178 14.0333 27.3556C15.1962 22.8809 17.9953 19.0509 21.7486 16.5486ZM10.2403 27.7278C10.8013 27.7277 11.3569 27.8382 11.8752 28.0529C12.3936 28.2676 12.8646 28.5823 13.2613 28.979C13.658 29.3757 13.9727 29.8467 14.1874 30.3651C14.4021 30.8834 14.5125 31.439 14.5125 32C14.5125 32.561 14.4021 33.1166 14.1874 33.6349C13.9727 34.1533 13.658 34.6243 13.2613 35.021C12.8646 35.4177 12.3936 35.7324 11.8752 35.9471C11.3569 36.1618 10.8013 36.2723 10.2403 36.2722C9.67923 36.2723 9.12367 36.1618 8.60533 35.9471C8.08698 35.7324 7.616 35.4177 7.21929 35.021C6.82257 34.6243 6.50788 34.1533 6.29319 33.6349C6.0785 33.1166 5.96802 32.561 5.96806 32C5.96802 31.439 6.0785 30.8834 6.29319 30.3651C6.50788 29.8467 6.82257 29.3757 7.21929 28.979C7.616 28.5823 8.08698 28.2676 8.60533 28.0529C9.12367 27.8382 9.67923 27.7277 10.2403 27.7278ZM44.4236 33.1514H50.5208C50.2291 37.8628 48.1591 42.1075 44.9819 45.2278C44.2655 44.9586 43.5041 44.8289 42.7389 44.8458C41.7339 44.8698 40.751 45.1458 39.8806 45.6486C39.1111 46.0933 38.45 46.7034 37.9451 47.4348C37.4403 48.1662 37.1041 49.0006 36.9611 49.8778C35.3801 50.319 33.7177 50.5597 32 50.5597C29.0364 50.5597 26.2324 49.8538 23.7417 48.6069L26.7819 43.3403C28.3684 44.0661 30.1314 44.4806 32 44.4806C38.5396 44.4806 43.8477 39.5327 44.4236 33.1514ZM42.7792 46.5736C43.5459 46.5556 44.3033 46.7443 44.9719 47.1199C45.6405 47.4955 46.1957 48.0442 46.5792 48.7083C46.8598 49.1941 47.042 49.7304 47.1153 50.2867C47.1887 50.8429 47.1518 51.4081 47.0067 51.95C46.8616 52.4919 46.6112 53 46.2697 53.4452C45.9283 53.8903 45.5025 54.2638 45.0167 54.5444C44.5308 54.825 43.9944 55.0071 43.4381 55.0804C42.8819 55.1536 42.3166 55.1166 41.7747 54.9714C41.2327 54.8261 40.7247 54.5756 40.2796 54.234C39.8345 53.8924 39.461 53.4665 39.1806 52.9806C38.9 52.4947 38.7179 51.9583 38.6446 51.402C38.5714 50.8458 38.6084 50.2805 38.7537 49.7386C38.8989 49.1966 39.1494 48.6886 39.491 48.2435C39.8326 47.7984 40.2585 47.4249 40.7444 47.1444C41.3642 46.7868 42.0638 46.5905 42.7792 46.5736Z" fill="url(#paint0_linear_956_3357)"/>
<defs>
<linearGradient id="paint0_linear_956_3357" x1="33.0016" y1="0" x2="33.0016" y2="64" gradientUnits="userSpaceOnUse">
<stop stop-color="white"/>
<stop offset="1" stop-color="white" stop-opacity="0.5"/>
</linearGradient>
</defs>
</svg>
