<svg width="136" height="281" viewBox="0 0 136 281" fill="none" xmlns="http://www.w3.org/2000/svg">
<circle cx="26" cy="159" r="2" transform="rotate(90 26 159)" fill="white" fill-opacity="0.08"/>
<circle cx="26" cy="171" r="2" transform="rotate(90 26 171)" fill="white" fill-opacity="0.08"/>
<circle cx="26" cy="183" r="2" transform="rotate(90 26 183)" fill="white" fill-opacity="0.08"/>
<circle cx="26" cy="195" r="2" transform="rotate(90 26 195)" fill="white" fill-opacity="0.08"/>
<circle cx="14" cy="159" r="2" transform="rotate(90 14 159)" fill="white" fill-opacity="0.08"/>
<circle cx="14" cy="171" r="2" transform="rotate(90 14 171)" fill="white" fill-opacity="0.08"/>
<circle cx="14" cy="183" r="2" transform="rotate(90 14 183)" fill="white" fill-opacity="0.08"/>
<circle cx="14" cy="195" r="2" transform="rotate(90 14 195)" fill="white" fill-opacity="0.08"/>
<circle cx="2" cy="159" r="2" transform="rotate(90 2 159)" fill="white" fill-opacity="0.08"/>
<circle cx="2" cy="171" r="2" transform="rotate(90 2 171)" fill="white" fill-opacity="0.08"/>
<circle cx="2" cy="183" r="2" transform="rotate(90 2 183)" fill="white" fill-opacity="0.08"/>
<circle cx="2" cy="195" r="2" transform="rotate(90 2 195)" fill="white" fill-opacity="0.08"/>
<circle cx="26" cy="207" r="2" transform="rotate(90 26 207)" fill="white" fill-opacity="0.08"/>
<circle cx="26" cy="219" r="2" transform="rotate(90 26 219)" fill="white" fill-opacity="0.08"/>
<circle cx="26" cy="231" r="2" transform="rotate(90 26 231)" fill="white" fill-opacity="0.08"/>
<circle cx="26" cy="243" r="2" transform="rotate(90 26 243)" fill="white" fill-opacity="0.08"/>
<circle cx="14" cy="207" r="2" transform="rotate(90 14 207)" fill="white" fill-opacity="0.08"/>
<circle cx="14" cy="219" r="2" transform="rotate(90 14 219)" fill="white" fill-opacity="0.08"/>
<circle cx="14" cy="231" r="2" transform="rotate(90 14 231)" fill="white" fill-opacity="0.08"/>
<circle cx="14" cy="243" r="2" transform="rotate(90 14 243)" fill="white" fill-opacity="0.08"/>
<circle cx="2" cy="207" r="2" transform="rotate(90 2 207)" fill="white" fill-opacity="0.08"/>
<circle cx="2" cy="219" r="2" transform="rotate(90 2 219)" fill="white" fill-opacity="0.08"/>
<circle cx="2" cy="231" r="2" transform="rotate(90 2 231)" fill="white" fill-opacity="0.08"/>
<circle cx="2" cy="243" r="2" transform="rotate(90 2 243)" fill="white" fill-opacity="0.08"/>
<circle cx="38" cy="159" r="2" transform="rotate(90 38 159)" fill="white" fill-opacity="0.08"/>
<circle cx="38" cy="171" r="2" transform="rotate(90 38 171)" fill="white" fill-opacity="0.08"/>
<circle cx="38" cy="183" r="2" transform="rotate(90 38 183)" fill="white" fill-opacity="0.08"/>
<circle cx="38" cy="195" r="2" transform="rotate(90 38 195)" fill="white" fill-opacity="0.08"/>
<circle cx="38" cy="207" r="2" transform="rotate(90 38 207)" fill="white" fill-opacity="0.08"/>
<circle cx="38" cy="219" r="2" transform="rotate(90 38 219)" fill="white" fill-opacity="0.08"/>
<circle cx="38" cy="231" r="2" transform="rotate(90 38 231)" fill="white" fill-opacity="0.08"/>
<circle cx="38" cy="243" r="2" transform="rotate(90 38 243)" fill="white" fill-opacity="0.08"/>
<circle cx="26" cy="255" r="2" transform="rotate(90 26 255)" fill="white" fill-opacity="0.08"/>
<circle cx="26" cy="267" r="2" transform="rotate(90 26 267)" fill="white" fill-opacity="0.08"/>
<circle cx="26" cy="279" r="2" transform="rotate(90 26 279)" fill="white" fill-opacity="0.08"/>
<circle cx="14" cy="255" r="2" transform="rotate(90 14 255)" fill="white" fill-opacity="0.08"/>
<circle cx="14" cy="267" r="2" transform="rotate(90 14 267)" fill="white" fill-opacity="0.08"/>
<circle cx="14" cy="279" r="2" transform="rotate(90 14 279)" fill="white" fill-opacity="0.08"/>
<circle cx="2" cy="255" r="2" transform="rotate(90 2 255)" fill="white" fill-opacity="0.08"/>
<circle cx="2" cy="267" r="2" transform="rotate(90 2 267)" fill="white" fill-opacity="0.08"/>
<circle cx="2" cy="279" r="2" transform="rotate(90 2 279)" fill="white" fill-opacity="0.08"/>
<circle cx="38" cy="255" r="2" transform="rotate(90 38 255)" fill="white" fill-opacity="0.08"/>
<circle cx="38" cy="267" r="2" transform="rotate(90 38 267)" fill="white" fill-opacity="0.08"/>
<circle cx="38" cy="279" r="2" transform="rotate(90 38 279)" fill="white" fill-opacity="0.08"/>
<circle cx="74" cy="159" r="2" transform="rotate(90 74 159)" fill="white" fill-opacity="0.08"/>
<circle cx="74" cy="171" r="2" transform="rotate(90 74 171)" fill="white" fill-opacity="0.08"/>
<circle cx="74" cy="183" r="2" transform="rotate(90 74 183)" fill="white" fill-opacity="0.08"/>
<circle cx="74" cy="195" r="2" transform="rotate(90 74 195)" fill="white" fill-opacity="0.08"/>
<circle cx="62" cy="159" r="2" transform="rotate(90 62 159)" fill="white" fill-opacity="0.08"/>
<circle cx="62" cy="171" r="2" transform="rotate(90 62 171)" fill="white" fill-opacity="0.08"/>
<circle cx="62" cy="183" r="2" transform="rotate(90 62 183)" fill="white" fill-opacity="0.08"/>
<circle cx="62" cy="195" r="2" transform="rotate(90 62 195)" fill="white" fill-opacity="0.08"/>
<circle cx="50" cy="159" r="2" transform="rotate(90 50 159)" fill="white" fill-opacity="0.08"/>
<circle cx="50" cy="171" r="2" transform="rotate(90 50 171)" fill="white" fill-opacity="0.08"/>
<circle cx="50" cy="183" r="2" transform="rotate(90 50 183)" fill="white" fill-opacity="0.08"/>
<circle cx="50" cy="195" r="2" transform="rotate(90 50 195)" fill="white" fill-opacity="0.08"/>
<circle cx="74" cy="207" r="2" transform="rotate(90 74 207)" fill="white" fill-opacity="0.08"/>
<circle cx="74" cy="219" r="2" transform="rotate(90 74 219)" fill="white" fill-opacity="0.08"/>
<circle cx="74" cy="231" r="2" transform="rotate(90 74 231)" fill="white" fill-opacity="0.08"/>
<circle cx="74" cy="243" r="2" transform="rotate(90 74 243)" fill="white" fill-opacity="0.08"/>
<circle cx="62" cy="207" r="2" transform="rotate(90 62 207)" fill="white" fill-opacity="0.08"/>
<circle cx="62" cy="219" r="2" transform="rotate(90 62 219)" fill="white" fill-opacity="0.08"/>
<circle cx="62" cy="231" r="2" transform="rotate(90 62 231)" fill="white" fill-opacity="0.08"/>
<circle cx="62" cy="243" r="2" transform="rotate(90 62 243)" fill="white" fill-opacity="0.08"/>
<circle cx="50" cy="207" r="2" transform="rotate(90 50 207)" fill="white" fill-opacity="0.08"/>
<circle cx="50" cy="219" r="2" transform="rotate(90 50 219)" fill="white" fill-opacity="0.08"/>
<circle cx="50" cy="231" r="2" transform="rotate(90 50 231)" fill="white" fill-opacity="0.08"/>
<circle cx="50" cy="243" r="2" transform="rotate(90 50 243)" fill="white" fill-opacity="0.08"/>
<circle cx="86" cy="159" r="2" transform="rotate(90 86 159)" fill="white" fill-opacity="0.08"/>
<circle cx="86" cy="171" r="2" transform="rotate(90 86 171)" fill="white" fill-opacity="0.08"/>
<circle cx="86" cy="183" r="2" transform="rotate(90 86 183)" fill="white" fill-opacity="0.08"/>
<circle cx="86" cy="195" r="2" transform="rotate(90 86 195)" fill="white" fill-opacity="0.08"/>
<circle cx="86" cy="207" r="2" transform="rotate(90 86 207)" fill="white" fill-opacity="0.08"/>
<circle cx="86" cy="219" r="2" transform="rotate(90 86 219)" fill="white" fill-opacity="0.08"/>
<circle cx="86" cy="231" r="2" transform="rotate(90 86 231)" fill="white" fill-opacity="0.08"/>
<circle cx="86" cy="243" r="2" transform="rotate(90 86 243)" fill="white" fill-opacity="0.08"/>
<circle cx="74" cy="255" r="2" transform="rotate(90 74 255)" fill="white" fill-opacity="0.08"/>
<circle cx="74" cy="267" r="2" transform="rotate(90 74 267)" fill="white" fill-opacity="0.08"/>
<circle cx="74" cy="279" r="2" transform="rotate(90 74 279)" fill="white" fill-opacity="0.08"/>
<circle cx="62" cy="255" r="2" transform="rotate(90 62 255)" fill="white" fill-opacity="0.08"/>
<circle cx="62" cy="267" r="2" transform="rotate(90 62 267)" fill="white" fill-opacity="0.08"/>
<circle cx="62" cy="279" r="2" transform="rotate(90 62 279)" fill="white" fill-opacity="0.08"/>
<circle cx="50" cy="255" r="2" transform="rotate(90 50 255)" fill="white" fill-opacity="0.08"/>
<circle cx="50" cy="267" r="2" transform="rotate(90 50 267)" fill="white" fill-opacity="0.08"/>
<circle cx="50" cy="279" r="2" transform="rotate(90 50 279)" fill="white" fill-opacity="0.08"/>
<circle cx="86" cy="255" r="2" transform="rotate(90 86 255)" fill="white" fill-opacity="0.08"/>
<circle cx="86" cy="267" r="2" transform="rotate(90 86 267)" fill="white" fill-opacity="0.08"/>
<circle cx="86" cy="279" r="2" transform="rotate(90 86 279)" fill="white" fill-opacity="0.08"/>
<circle cx="122" cy="159" r="2" transform="rotate(90 122 159)" fill="white" fill-opacity="0.08"/>
<circle cx="122" cy="171" r="2" transform="rotate(90 122 171)" fill="white" fill-opacity="0.08"/>
<circle cx="122" cy="183" r="2" transform="rotate(90 122 183)" fill="white" fill-opacity="0.08"/>
<circle cx="122" cy="195" r="2" transform="rotate(90 122 195)" fill="white" fill-opacity="0.08"/>
<circle cx="110" cy="159" r="2" transform="rotate(90 110 159)" fill="white" fill-opacity="0.08"/>
<circle cx="110" cy="171" r="2" transform="rotate(90 110 171)" fill="white" fill-opacity="0.08"/>
<circle cx="110" cy="183" r="2" transform="rotate(90 110 183)" fill="white" fill-opacity="0.08"/>
<circle cx="110" cy="195" r="2" transform="rotate(90 110 195)" fill="white" fill-opacity="0.08"/>
<circle cx="98" cy="159" r="2" transform="rotate(90 98 159)" fill="white" fill-opacity="0.08"/>
<circle cx="98" cy="171" r="2" transform="rotate(90 98 171)" fill="white" fill-opacity="0.08"/>
<circle cx="98" cy="183" r="2" transform="rotate(90 98 183)" fill="white" fill-opacity="0.08"/>
<circle cx="98" cy="195" r="2" transform="rotate(90 98 195)" fill="white" fill-opacity="0.08"/>
<circle cx="122" cy="207" r="2" transform="rotate(90 122 207)" fill="white" fill-opacity="0.08"/>
<circle cx="122" cy="219" r="2" transform="rotate(90 122 219)" fill="white" fill-opacity="0.08"/>
<circle cx="122" cy="231" r="2" transform="rotate(90 122 231)" fill="white" fill-opacity="0.08"/>
<circle cx="110" cy="207" r="2" transform="rotate(90 110 207)" fill="white" fill-opacity="0.08"/>
<circle cx="110" cy="219" r="2" transform="rotate(90 110 219)" fill="white" fill-opacity="0.08"/>
<circle cx="110" cy="231" r="2" transform="rotate(90 110 231)" fill="white" fill-opacity="0.08"/>
<circle cx="98" cy="207" r="2" transform="rotate(90 98 207)" fill="white" fill-opacity="0.08"/>
<circle cx="98" cy="219" r="2" transform="rotate(90 98 219)" fill="white" fill-opacity="0.08"/>
<circle cx="98" cy="231" r="2" transform="rotate(90 98 231)" fill="white" fill-opacity="0.08"/>
<circle cx="134" cy="159" r="2" transform="rotate(90 134 159)" fill="white" fill-opacity="0.08"/>
<circle cx="134" cy="171" r="2" transform="rotate(90 134 171)" fill="white" fill-opacity="0.08"/>
<circle cx="134" cy="183" r="2" transform="rotate(90 134 183)" fill="white" fill-opacity="0.08"/>
<circle cx="134" cy="195" r="2" transform="rotate(90 134 195)" fill="white" fill-opacity="0.08"/>
<circle cx="134" cy="207" r="2" transform="rotate(90 134 207)" fill="white" fill-opacity="0.08"/>
<circle cx="134" cy="219" r="2" transform="rotate(90 134 219)" fill="white" fill-opacity="0.08"/>
<circle cx="134" cy="231" r="2" transform="rotate(90 134 231)" fill="white" fill-opacity="0.08"/>
<circle cx="110" cy="146" r="2" transform="rotate(-90 110 146)" fill="white" fill-opacity="0.08"/>
<circle cx="110" cy="134" r="2" transform="rotate(-90 110 134)" fill="white" fill-opacity="0.08"/>
<circle cx="110" cy="122" r="2" transform="rotate(-90 110 122)" fill="white" fill-opacity="0.08"/>
<circle cx="110" cy="110" r="2" transform="rotate(-90 110 110)" fill="white" fill-opacity="0.08"/>
<circle cx="110" cy="98" r="2" transform="rotate(-90 110 98)" fill="white" fill-opacity="0.08"/>
<circle cx="110" cy="86" r="2" transform="rotate(-90 110 86)" fill="white" fill-opacity="0.08"/>
<circle cx="122" cy="146" r="2" transform="rotate(-90 122 146)" fill="white" fill-opacity="0.08"/>
<circle cx="122" cy="134" r="2" transform="rotate(-90 122 134)" fill="white" fill-opacity="0.08"/>
<circle cx="122" cy="122" r="2" transform="rotate(-90 122 122)" fill="white" fill-opacity="0.08"/>
<circle cx="122" cy="110" r="2" transform="rotate(-90 122 110)" fill="white" fill-opacity="0.08"/>
<circle cx="122" cy="98" r="2" transform="rotate(-90 122 98)" fill="white" fill-opacity="0.08"/>
<circle cx="122" cy="86" r="2" transform="rotate(-90 122 86)" fill="white" fill-opacity="0.08"/>
<circle cx="134" cy="146" r="2" transform="rotate(-90 134 146)" fill="white" fill-opacity="0.08"/>
<circle cx="134" cy="134" r="2" transform="rotate(-90 134 134)" fill="white" fill-opacity="0.08"/>
<circle cx="134" cy="122" r="2" transform="rotate(-90 134 122)" fill="white" fill-opacity="0.08"/>
<circle cx="134" cy="110" r="2" transform="rotate(-90 134 110)" fill="white" fill-opacity="0.08"/>
<circle cx="134" cy="98" r="2" transform="rotate(-90 134 98)" fill="white" fill-opacity="0.08"/>
<circle cx="134" cy="86" r="2" transform="rotate(-90 134 86)" fill="white" fill-opacity="0.08"/>
<circle cx="110" cy="74" r="2" transform="rotate(-90 110 74)" fill="white" fill-opacity="0.08"/>
<circle cx="110" cy="62" r="2" transform="rotate(-90 110 62)" fill="white" fill-opacity="0.08"/>
<circle cx="110" cy="50" r="2" transform="rotate(-90 110 50)" fill="white" fill-opacity="0.08"/>
<circle cx="110" cy="38" r="2" transform="rotate(-90 110 38)" fill="white" fill-opacity="0.08"/>
<circle cx="122" cy="74" r="2" transform="rotate(-90 122 74)" fill="white" fill-opacity="0.08"/>
<circle cx="122" cy="62" r="2" transform="rotate(-90 122 62)" fill="white" fill-opacity="0.08"/>
<circle cx="122" cy="50" r="2" transform="rotate(-90 122 50)" fill="white" fill-opacity="0.08"/>
<circle cx="122" cy="38" r="2" transform="rotate(-90 122 38)" fill="white" fill-opacity="0.08"/>
<circle cx="134" cy="74" r="2" transform="rotate(-90 134 74)" fill="white" fill-opacity="0.08"/>
<circle cx="134" cy="62" r="2" transform="rotate(-90 134 62)" fill="white" fill-opacity="0.08"/>
<circle cx="134" cy="50" r="2" transform="rotate(-90 134 50)" fill="white" fill-opacity="0.08"/>
<circle cx="134" cy="38" r="2" transform="rotate(-90 134 38)" fill="white" fill-opacity="0.08"/>
<circle cx="98" cy="146" r="2" transform="rotate(-90 98 146)" fill="white" fill-opacity="0.08"/>
<circle cx="98" cy="134" r="2" transform="rotate(-90 98 134)" fill="white" fill-opacity="0.08"/>
<circle cx="98" cy="122" r="2" transform="rotate(-90 98 122)" fill="white" fill-opacity="0.08"/>
<circle cx="98" cy="110" r="2" transform="rotate(-90 98 110)" fill="white" fill-opacity="0.08"/>
<circle cx="98" cy="98" r="2" transform="rotate(-90 98 98)" fill="white" fill-opacity="0.08"/>
<circle cx="98" cy="86" r="2" transform="rotate(-90 98 86)" fill="white" fill-opacity="0.08"/>
<circle cx="98" cy="74" r="2" transform="rotate(-90 98 74)" fill="white" fill-opacity="0.08"/>
<circle cx="98" cy="62" r="2" transform="rotate(-90 98 62)" fill="white" fill-opacity="0.08"/>
<circle cx="98" cy="50" r="2" transform="rotate(-90 98 50)" fill="white" fill-opacity="0.08"/>
<circle cx="98" cy="38" r="2" transform="rotate(-90 98 38)" fill="white" fill-opacity="0.08"/>
<circle cx="110" cy="26" r="2" transform="rotate(-90 110 26)" fill="white" fill-opacity="0.08"/>
<circle cx="110" cy="14" r="2" transform="rotate(-90 110 14)" fill="white" fill-opacity="0.08"/>
<circle cx="110" cy="2" r="2" transform="rotate(-90 110 2)" fill="white" fill-opacity="0.08"/>
<circle cx="122" cy="26" r="2" transform="rotate(-90 122 26)" fill="white" fill-opacity="0.08"/>
<circle cx="122" cy="14" r="2" transform="rotate(-90 122 14)" fill="white" fill-opacity="0.08"/>
<circle cx="122" cy="2" r="2" transform="rotate(-90 122 2)" fill="white" fill-opacity="0.08"/>
<circle cx="134" cy="26" r="2" transform="rotate(-90 134 26)" fill="white" fill-opacity="0.08"/>
<circle cx="134" cy="14" r="2" transform="rotate(-90 134 14)" fill="white" fill-opacity="0.08"/>
<circle cx="134" cy="2" r="2" transform="rotate(-90 134 2)" fill="white" fill-opacity="0.08"/>
<circle cx="98" cy="26" r="2" transform="rotate(-90 98 26)" fill="white" fill-opacity="0.08"/>
<circle cx="98" cy="14" r="2" transform="rotate(-90 98 14)" fill="white" fill-opacity="0.08"/>
<circle cx="98" cy="2" r="2" transform="rotate(-90 98 2)" fill="white" fill-opacity="0.08"/>
<circle cx="62" cy="146" r="2" transform="rotate(-90 62 146)" fill="white" fill-opacity="0.08"/>
<circle cx="62" cy="134" r="2" transform="rotate(-90 62 134)" fill="white" fill-opacity="0.08"/>
<circle cx="62" cy="122" r="2" transform="rotate(-90 62 122)" fill="white" fill-opacity="0.08"/>
<circle cx="62" cy="110" r="2" transform="rotate(-90 62 110)" fill="white" fill-opacity="0.08"/>
<circle cx="62" cy="98" r="2" transform="rotate(-90 62 98)" fill="white" fill-opacity="0.08"/>
<circle cx="62" cy="86" r="2" transform="rotate(-90 62 86)" fill="white" fill-opacity="0.08"/>
<circle cx="74" cy="146" r="2" transform="rotate(-90 74 146)" fill="white" fill-opacity="0.08"/>
<circle cx="74" cy="134" r="2" transform="rotate(-90 74 134)" fill="white" fill-opacity="0.08"/>
<circle cx="74" cy="122" r="2" transform="rotate(-90 74 122)" fill="white" fill-opacity="0.08"/>
<circle cx="74" cy="110" r="2" transform="rotate(-90 74 110)" fill="white" fill-opacity="0.08"/>
<circle cx="74" cy="98" r="2" transform="rotate(-90 74 98)" fill="white" fill-opacity="0.08"/>
<circle cx="74" cy="86" r="2" transform="rotate(-90 74 86)" fill="white" fill-opacity="0.08"/>
<circle cx="86" cy="146" r="2" transform="rotate(-90 86 146)" fill="white" fill-opacity="0.08"/>
<circle cx="86" cy="134" r="2" transform="rotate(-90 86 134)" fill="white" fill-opacity="0.08"/>
<circle cx="86" cy="122" r="2" transform="rotate(-90 86 122)" fill="white" fill-opacity="0.08"/>
<circle cx="86" cy="110" r="2" transform="rotate(-90 86 110)" fill="white" fill-opacity="0.08"/>
<circle cx="86" cy="98" r="2" transform="rotate(-90 86 98)" fill="white" fill-opacity="0.08"/>
<circle cx="86" cy="86" r="2" transform="rotate(-90 86 86)" fill="white" fill-opacity="0.08"/>
<circle cx="62" cy="74" r="2" transform="rotate(-90 62 74)" fill="white" fill-opacity="0.08"/>
<circle cx="62" cy="62" r="2" transform="rotate(-90 62 62)" fill="white" fill-opacity="0.08"/>
<circle cx="62" cy="50" r="2" transform="rotate(-90 62 50)" fill="white" fill-opacity="0.08"/>
<circle cx="62" cy="38" r="2" transform="rotate(-90 62 38)" fill="white" fill-opacity="0.08"/>
<circle cx="74" cy="74" r="2" transform="rotate(-90 74 74)" fill="white" fill-opacity="0.08"/>
<circle cx="74" cy="62" r="2" transform="rotate(-90 74 62)" fill="white" fill-opacity="0.08"/>
<circle cx="74" cy="50" r="2" transform="rotate(-90 74 50)" fill="white" fill-opacity="0.08"/>
<circle cx="74" cy="38" r="2" transform="rotate(-90 74 38)" fill="white" fill-opacity="0.08"/>
<circle cx="86" cy="74" r="2" transform="rotate(-90 86 74)" fill="white" fill-opacity="0.08"/>
<circle cx="86" cy="62" r="2" transform="rotate(-90 86 62)" fill="white" fill-opacity="0.08"/>
<circle cx="86" cy="50" r="2" transform="rotate(-90 86 50)" fill="white" fill-opacity="0.08"/>
<circle cx="86" cy="38" r="2" transform="rotate(-90 86 38)" fill="white" fill-opacity="0.08"/>
<circle cx="50" cy="146" r="2" transform="rotate(-90 50 146)" fill="white" fill-opacity="0.08"/>
<circle cx="50" cy="134" r="2" transform="rotate(-90 50 134)" fill="white" fill-opacity="0.08"/>
<circle cx="50" cy="122" r="2" transform="rotate(-90 50 122)" fill="white" fill-opacity="0.08"/>
<circle cx="50" cy="110" r="2" transform="rotate(-90 50 110)" fill="white" fill-opacity="0.08"/>
<circle cx="50" cy="98" r="2" transform="rotate(-90 50 98)" fill="white" fill-opacity="0.08"/>
<circle cx="50" cy="86" r="2" transform="rotate(-90 50 86)" fill="white" fill-opacity="0.08"/>
<circle cx="50" cy="74" r="2" transform="rotate(-90 50 74)" fill="white" fill-opacity="0.08"/>
<circle cx="50" cy="62" r="2" transform="rotate(-90 50 62)" fill="white" fill-opacity="0.08"/>
<circle cx="50" cy="50" r="2" transform="rotate(-90 50 50)" fill="white" fill-opacity="0.08"/>
<circle cx="50" cy="38" r="2" transform="rotate(-90 50 38)" fill="white" fill-opacity="0.08"/>
<circle cx="62" cy="26" r="2" transform="rotate(-90 62 26)" fill="white" fill-opacity="0.08"/>
<circle cx="62" cy="14" r="2" transform="rotate(-90 62 14)" fill="white" fill-opacity="0.08"/>
<circle cx="62" cy="2" r="2" transform="rotate(-90 62 2)" fill="white" fill-opacity="0.08"/>
<circle cx="74" cy="26" r="2" transform="rotate(-90 74 26)" fill="white" fill-opacity="0.08"/>
<circle cx="74" cy="14" r="2" transform="rotate(-90 74 14)" fill="white" fill-opacity="0.08"/>
<circle cx="74" cy="2" r="2" transform="rotate(-90 74 2)" fill="white" fill-opacity="0.08"/>
<circle cx="86" cy="26" r="2" transform="rotate(-90 86 26)" fill="white" fill-opacity="0.08"/>
<circle cx="86" cy="14" r="2" transform="rotate(-90 86 14)" fill="white" fill-opacity="0.08"/>
<circle cx="86" cy="2" r="2" transform="rotate(-90 86 2)" fill="white" fill-opacity="0.08"/>
<circle cx="50" cy="26" r="2" transform="rotate(-90 50 26)" fill="white" fill-opacity="0.08"/>
<circle cx="50" cy="14" r="2" transform="rotate(-90 50 14)" fill="white" fill-opacity="0.08"/>
<circle cx="50" cy="2" r="2" transform="rotate(-90 50 2)" fill="white" fill-opacity="0.08"/>
<circle cx="14" cy="146" r="2" transform="rotate(-90 14 146)" fill="white" fill-opacity="0.08"/>
<circle cx="14" cy="134" r="2" transform="rotate(-90 14 134)" fill="white" fill-opacity="0.08"/>
<circle cx="14" cy="122" r="2" transform="rotate(-90 14 122)" fill="white" fill-opacity="0.08"/>
<circle cx="14" cy="110" r="2" transform="rotate(-90 14 110)" fill="white" fill-opacity="0.08"/>
<circle cx="14" cy="98" r="2" transform="rotate(-90 14 98)" fill="white" fill-opacity="0.08"/>
<circle cx="14" cy="86" r="2" transform="rotate(-90 14 86)" fill="white" fill-opacity="0.08"/>
<circle cx="26" cy="146" r="2" transform="rotate(-90 26 146)" fill="white" fill-opacity="0.08"/>
<circle cx="26" cy="134" r="2" transform="rotate(-90 26 134)" fill="white" fill-opacity="0.08"/>
<circle cx="26" cy="122" r="2" transform="rotate(-90 26 122)" fill="white" fill-opacity="0.08"/>
<circle cx="26" cy="110" r="2" transform="rotate(-90 26 110)" fill="white" fill-opacity="0.08"/>
<circle cx="26" cy="98" r="2" transform="rotate(-90 26 98)" fill="white" fill-opacity="0.08"/>
<circle cx="26" cy="86" r="2" transform="rotate(-90 26 86)" fill="white" fill-opacity="0.08"/>
<circle cx="38" cy="146" r="2" transform="rotate(-90 38 146)" fill="white" fill-opacity="0.08"/>
<circle cx="38" cy="134" r="2" transform="rotate(-90 38 134)" fill="white" fill-opacity="0.08"/>
<circle cx="38" cy="122" r="2" transform="rotate(-90 38 122)" fill="white" fill-opacity="0.08"/>
<circle cx="38" cy="110" r="2" transform="rotate(-90 38 110)" fill="white" fill-opacity="0.08"/>
<circle cx="38" cy="98" r="2" transform="rotate(-90 38 98)" fill="white" fill-opacity="0.08"/>
<circle cx="38" cy="86" r="2" transform="rotate(-90 38 86)" fill="white" fill-opacity="0.08"/>
<circle cx="14" cy="74" r="2" transform="rotate(-90 14 74)" fill="white" fill-opacity="0.08"/>
<circle cx="14" cy="62" r="2" transform="rotate(-90 14 62)" fill="white" fill-opacity="0.08"/>
<circle cx="14" cy="50" r="2" transform="rotate(-90 14 50)" fill="white" fill-opacity="0.08"/>
<circle cx="26" cy="74" r="2" transform="rotate(-90 26 74)" fill="white" fill-opacity="0.08"/>
<circle cx="26" cy="62" r="2" transform="rotate(-90 26 62)" fill="white" fill-opacity="0.08"/>
<circle cx="26" cy="50" r="2" transform="rotate(-90 26 50)" fill="white" fill-opacity="0.08"/>
<circle cx="38" cy="74" r="2" transform="rotate(-90 38 74)" fill="white" fill-opacity="0.08"/>
<circle cx="38" cy="62" r="2" transform="rotate(-90 38 62)" fill="white" fill-opacity="0.08"/>
<circle cx="38" cy="50" r="2" transform="rotate(-90 38 50)" fill="white" fill-opacity="0.08"/>
<circle cx="2" cy="146" r="2" transform="rotate(-90 2 146)" fill="white" fill-opacity="0.08"/>
<circle cx="2" cy="134" r="2" transform="rotate(-90 2 134)" fill="white" fill-opacity="0.08"/>
<circle cx="2" cy="122" r="2" transform="rotate(-90 2 122)" fill="white" fill-opacity="0.08"/>
<circle cx="2" cy="110" r="2" transform="rotate(-90 2 110)" fill="white" fill-opacity="0.08"/>
<circle cx="2" cy="98" r="2" transform="rotate(-90 2 98)" fill="white" fill-opacity="0.08"/>
<circle cx="2" cy="86" r="2" transform="rotate(-90 2 86)" fill="white" fill-opacity="0.08"/>
<circle cx="2" cy="74" r="2" transform="rotate(-90 2 74)" fill="white" fill-opacity="0.08"/>
<circle cx="2" cy="62" r="2" transform="rotate(-90 2 62)" fill="white" fill-opacity="0.08"/>
<circle cx="2" cy="50" r="2" transform="rotate(-90 2 50)" fill="white" fill-opacity="0.08"/>
</svg>
