<svg width="142" height="336" viewBox="0 0 142 336" fill="none" xmlns="http://www.w3.org/2000/svg">
<g clip-path="url(#clip0_65_8985)">
<rect x="-5.25" y="80.75" width="222.5" height="240.5" rx="47.25" stroke="white" stroke-opacity="0.04" stroke-width="1.5"/>
<rect x="-5.25" y="80.75" width="222.5" height="240.5" rx="47.25" stroke="url(#paint0_linear_65_8985)" stroke-opacity="0.08" stroke-width="1.5"/>
<rect x="-29.25" y="56.75" width="270.5" height="288.5" rx="63.25" stroke="url(#paint1_linear_65_8985)" stroke-opacity="0.08" stroke-width="1.5"/>
<rect x="18" y="104" width="176" height="194" rx="32" fill="white" fill-opacity="0.01"/>
<rect x="18.75" y="104.75" width="174.5" height="192.5" rx="31.25" stroke="white" stroke-opacity="0.04" stroke-width="1.5"/>
<rect x="34.75" y="120.75" width="142.5" height="160.5" rx="15.25" stroke="white" stroke-opacity="0.08" stroke-width="1.5"/>
<rect x="46" y="172" width="120" height="58" rx="6" fill="white" fill-opacity="0.02"/>
<rect x="46.75" y="172.75" width="118.5" height="56.5" rx="5.25" stroke="white" stroke-opacity="0.16" stroke-width="1.5"/>
<g filter="url(#filter0_d_65_8985)">
<path d="M97.4247 187.364V199H95.6634V189.125H95.5952L92.8111 190.943V189.261L95.7145 187.364H97.4247ZM104.624 199.193C103.726 199.189 102.959 198.953 102.322 198.483C101.686 198.013 101.199 197.33 100.862 196.432C100.525 195.534 100.357 194.453 100.357 193.188C100.357 191.926 100.525 190.848 100.862 189.955C101.203 189.061 101.692 188.379 102.328 187.909C102.968 187.439 103.733 187.205 104.624 187.205C105.514 187.205 106.277 187.441 106.913 187.915C107.55 188.384 108.036 189.066 108.374 189.96C108.714 190.85 108.885 191.926 108.885 193.188C108.885 194.456 108.716 195.54 108.379 196.438C108.042 197.331 107.555 198.015 106.919 198.489C106.283 198.958 105.518 199.193 104.624 199.193ZM104.624 197.676C105.411 197.676 106.027 197.292 106.47 196.523C106.917 195.754 107.141 194.642 107.141 193.188C107.141 192.222 107.038 191.405 106.834 190.739C106.633 190.068 106.343 189.561 105.964 189.216C105.589 188.867 105.143 188.693 104.624 188.693C103.839 188.693 103.224 189.08 102.777 189.852C102.33 190.625 102.105 191.737 102.101 193.188C102.101 194.157 102.201 194.977 102.402 195.648C102.607 196.314 102.896 196.82 103.271 197.165C103.646 197.506 104.097 197.676 104.624 197.676ZM114.952 199.193C114.054 199.189 113.287 198.953 112.651 198.483C112.014 198.013 111.527 197.33 111.19 196.432C110.853 195.534 110.685 194.453 110.685 193.188C110.685 191.926 110.853 190.848 111.19 189.955C111.531 189.061 112.02 188.379 112.656 187.909C113.296 187.439 114.062 187.205 114.952 187.205C115.842 187.205 116.605 187.441 117.241 187.915C117.878 188.384 118.365 189.066 118.702 189.96C119.043 190.85 119.213 191.926 119.213 193.188C119.213 194.456 119.045 195.54 118.707 196.438C118.37 197.331 117.884 198.015 117.247 198.489C116.611 198.958 115.846 199.193 114.952 199.193ZM114.952 197.676C115.74 197.676 116.355 197.292 116.798 196.523C117.245 195.754 117.469 194.642 117.469 193.188C117.469 192.222 117.366 191.405 117.162 190.739C116.961 190.068 116.671 189.561 116.293 189.216C115.918 188.867 115.471 188.693 114.952 188.693C114.168 188.693 113.552 189.08 113.105 189.852C112.658 190.625 112.433 191.737 112.429 193.188C112.429 194.157 112.529 194.977 112.73 195.648C112.935 196.314 113.224 196.82 113.599 197.165C113.974 197.506 114.425 197.676 114.952 197.676ZM90.7237 207.04C90.6139 206.695 90.4661 206.386 90.2805 206.114C90.0987 205.837 89.8809 205.602 89.6271 205.409C89.3733 205.212 89.0836 205.062 88.7578 204.96C88.4358 204.858 88.0817 204.807 87.6953 204.807C87.04 204.807 86.4491 204.975 85.9226 205.312C85.3961 205.65 84.9794 206.144 84.6726 206.795C84.3696 207.443 84.218 208.237 84.218 209.176C84.218 210.119 84.3714 210.917 84.6783 211.568C84.9851 212.22 85.4055 212.714 85.9396 213.051C86.4737 213.388 87.0817 213.557 87.7635 213.557C88.3961 213.557 88.9472 213.428 89.4169 213.17C89.8904 212.913 90.2559 212.549 90.5135 212.08C90.7749 211.606 90.9055 211.049 90.9055 210.409L91.3601 210.494H88.0305V209.045H92.6044V210.369C92.6044 211.347 92.3961 212.195 91.9794 212.915C91.5665 213.631 90.9946 214.184 90.2635 214.574C89.5362 214.964 88.7029 215.159 87.7635 215.159C86.7105 215.159 85.7862 214.917 84.9908 214.432C84.1991 213.947 83.5817 213.259 83.1385 212.369C82.6953 211.475 82.4737 210.415 82.4737 209.188C82.4737 208.259 82.6025 207.426 82.8601 206.688C83.1177 205.949 83.4794 205.322 83.9453 204.807C84.415 204.288 84.9661 203.892 85.5987 203.619C86.2351 203.343 86.9302 203.205 87.6839 203.205C88.3127 203.205 88.898 203.297 89.4396 203.483C89.9851 203.669 90.4699 203.932 90.8942 204.273C91.3222 204.614 91.6764 205.019 91.9567 205.489C92.237 205.955 92.4264 206.472 92.5249 207.04H90.7237ZM94.8331 215V203.364H99.0945C99.9202 203.364 100.604 203.5 101.146 203.773C101.687 204.042 102.093 204.407 102.362 204.869C102.63 205.328 102.765 205.845 102.765 206.42C102.765 206.905 102.676 207.314 102.498 207.648C102.32 207.977 102.081 208.242 101.782 208.443C101.487 208.64 101.161 208.784 100.805 208.875V208.989C101.191 209.008 101.568 209.133 101.935 209.364C102.307 209.591 102.613 209.915 102.856 210.335C103.098 210.756 103.219 211.267 103.219 211.869C103.219 212.464 103.079 212.998 102.799 213.472C102.522 213.941 102.094 214.314 101.515 214.591C100.935 214.864 100.195 215 99.2933 215H94.8331ZM96.5888 213.494H99.1229C99.9638 213.494 100.566 213.331 100.93 213.006C101.293 212.68 101.475 212.273 101.475 211.784C101.475 211.417 101.382 211.08 101.197 210.773C101.011 210.466 100.746 210.222 100.401 210.04C100.06 209.858 99.6551 209.767 99.1854 209.767H96.5888V213.494ZM96.5888 208.398H98.9411C99.335 208.398 99.6892 208.322 100.004 208.17C100.322 208.019 100.574 207.807 100.759 207.534C100.949 207.258 101.043 206.932 101.043 206.557C101.043 206.076 100.875 205.672 100.538 205.347C100.201 205.021 99.6835 204.858 98.9865 204.858H96.5888V208.398ZM105.302 215V203.364H109.45C110.355 203.364 111.105 203.528 111.7 203.858C112.294 204.187 112.739 204.638 113.035 205.21C113.33 205.778 113.478 206.419 113.478 207.131C113.478 207.847 113.328 208.491 113.029 209.062C112.734 209.631 112.287 210.081 111.688 210.415C111.094 210.744 110.345 210.909 109.444 210.909H106.592V209.42H109.285C109.857 209.42 110.321 209.322 110.677 209.125C111.033 208.924 111.294 208.652 111.461 208.307C111.628 207.962 111.711 207.57 111.711 207.131C111.711 206.691 111.628 206.301 111.461 205.96C111.294 205.619 111.031 205.352 110.671 205.159C110.315 204.966 109.845 204.869 109.262 204.869H107.058V215H105.302ZM119.832 202.818L116.082 216.75H114.565L118.315 202.818H119.832ZM127.758 206.42C127.697 205.883 127.447 205.466 127.008 205.17C126.568 204.871 126.015 204.722 125.349 204.722C124.871 204.722 124.459 204.797 124.11 204.949C123.762 205.097 123.491 205.301 123.298 205.562C123.108 205.82 123.013 206.114 123.013 206.443C123.013 206.72 123.078 206.958 123.207 207.159C123.339 207.36 123.512 207.528 123.724 207.665C123.94 207.797 124.171 207.909 124.417 208C124.663 208.087 124.9 208.159 125.127 208.216L126.263 208.511C126.635 208.602 127.015 208.725 127.406 208.881C127.796 209.036 128.157 209.241 128.491 209.494C128.824 209.748 129.093 210.062 129.298 210.438C129.506 210.812 129.61 211.261 129.61 211.784C129.61 212.443 129.44 213.028 129.099 213.54C128.762 214.051 128.271 214.455 127.627 214.75C126.987 215.045 126.212 215.193 125.303 215.193C124.432 215.193 123.678 215.055 123.042 214.778C122.406 214.502 121.907 214.11 121.548 213.602C121.188 213.091 120.989 212.485 120.951 211.784H122.712C122.746 212.205 122.883 212.555 123.121 212.835C123.364 213.112 123.673 213.318 124.048 213.455C124.426 213.587 124.841 213.653 125.292 213.653C125.788 213.653 126.229 213.576 126.616 213.42C127.006 213.261 127.313 213.042 127.536 212.761C127.76 212.477 127.871 212.146 127.871 211.767C127.871 211.422 127.773 211.14 127.576 210.92C127.383 210.701 127.12 210.519 126.786 210.375C126.457 210.231 126.084 210.104 125.667 209.994L124.292 209.619C123.36 209.366 122.621 208.992 122.076 208.5C121.534 208.008 121.263 207.356 121.263 206.545C121.263 205.875 121.445 205.29 121.809 204.79C122.173 204.29 122.665 203.902 123.286 203.625C123.907 203.345 124.608 203.205 125.388 203.205C126.176 203.205 126.871 203.343 127.474 203.619C128.08 203.896 128.557 204.277 128.906 204.761C129.254 205.242 129.436 205.795 129.451 206.42H127.758Z" fill="white" fill-opacity="0.16" shape-rendering="crispEdges"/>
</g>
<g style="mix-blend-mode:plus-lighter" filter="url(#filter1_f_65_8985)">
<path d="M97.4247 187.364V199H95.6634V189.125H95.5952L92.8111 190.943V189.261L95.7145 187.364H97.4247ZM104.624 199.193C103.726 199.189 102.959 198.953 102.322 198.483C101.686 198.013 101.199 197.33 100.862 196.432C100.525 195.534 100.357 194.453 100.357 193.188C100.357 191.926 100.525 190.848 100.862 189.955C101.203 189.061 101.692 188.379 102.328 187.909C102.968 187.439 103.733 187.205 104.624 187.205C105.514 187.205 106.277 187.441 106.913 187.915C107.55 188.384 108.036 189.066 108.374 189.96C108.714 190.85 108.885 191.926 108.885 193.188C108.885 194.456 108.716 195.54 108.379 196.438C108.042 197.331 107.555 198.015 106.919 198.489C106.283 198.958 105.518 199.193 104.624 199.193ZM104.624 197.676C105.411 197.676 106.027 197.292 106.47 196.523C106.917 195.754 107.141 194.642 107.141 193.188C107.141 192.222 107.038 191.405 106.834 190.739C106.633 190.068 106.343 189.561 105.964 189.216C105.589 188.867 105.143 188.693 104.624 188.693C103.839 188.693 103.224 189.08 102.777 189.852C102.33 190.625 102.105 191.737 102.101 193.188C102.101 194.157 102.201 194.977 102.402 195.648C102.607 196.314 102.896 196.82 103.271 197.165C103.646 197.506 104.097 197.676 104.624 197.676ZM114.952 199.193C114.054 199.189 113.287 198.953 112.651 198.483C112.014 198.013 111.527 197.33 111.19 196.432C110.853 195.534 110.685 194.453 110.685 193.188C110.685 191.926 110.853 190.848 111.19 189.955C111.531 189.061 112.02 188.379 112.656 187.909C113.296 187.439 114.062 187.205 114.952 187.205C115.842 187.205 116.605 187.441 117.241 187.915C117.878 188.384 118.365 189.066 118.702 189.96C119.043 190.85 119.213 191.926 119.213 193.188C119.213 194.456 119.045 195.54 118.707 196.438C118.37 197.331 117.884 198.015 117.247 198.489C116.611 198.958 115.846 199.193 114.952 199.193ZM114.952 197.676C115.74 197.676 116.355 197.292 116.798 196.523C117.245 195.754 117.469 194.642 117.469 193.188C117.469 192.222 117.366 191.405 117.162 190.739C116.961 190.068 116.671 189.561 116.293 189.216C115.918 188.867 115.471 188.693 114.952 188.693C114.168 188.693 113.552 189.08 113.105 189.852C112.658 190.625 112.433 191.737 112.429 193.188C112.429 194.157 112.529 194.977 112.73 195.648C112.935 196.314 113.224 196.82 113.599 197.165C113.974 197.506 114.425 197.676 114.952 197.676ZM90.7237 207.04C90.6139 206.695 90.4661 206.386 90.2805 206.114C90.0987 205.837 89.8809 205.602 89.6271 205.409C89.3733 205.212 89.0836 205.062 88.7578 204.96C88.4358 204.858 88.0817 204.807 87.6953 204.807C87.04 204.807 86.4491 204.975 85.9226 205.312C85.3961 205.65 84.9794 206.144 84.6726 206.795C84.3696 207.443 84.218 208.237 84.218 209.176C84.218 210.119 84.3714 210.917 84.6783 211.568C84.9851 212.22 85.4055 212.714 85.9396 213.051C86.4737 213.388 87.0817 213.557 87.7635 213.557C88.3961 213.557 88.9472 213.428 89.4169 213.17C89.8904 212.913 90.2559 212.549 90.5135 212.08C90.7749 211.606 90.9055 211.049 90.9055 210.409L91.3601 210.494H88.0305V209.045H92.6044V210.369C92.6044 211.347 92.3961 212.195 91.9794 212.915C91.5665 213.631 90.9946 214.184 90.2635 214.574C89.5362 214.964 88.7029 215.159 87.7635 215.159C86.7105 215.159 85.7862 214.917 84.9908 214.432C84.1991 213.947 83.5817 213.259 83.1385 212.369C82.6953 211.475 82.4737 210.415 82.4737 209.188C82.4737 208.259 82.6025 207.426 82.8601 206.688C83.1177 205.949 83.4794 205.322 83.9453 204.807C84.415 204.288 84.9661 203.892 85.5987 203.619C86.2351 203.343 86.9302 203.205 87.6839 203.205C88.3127 203.205 88.898 203.297 89.4396 203.483C89.9851 203.669 90.4699 203.932 90.8942 204.273C91.3222 204.614 91.6764 205.019 91.9567 205.489C92.237 205.955 92.4264 206.472 92.5249 207.04H90.7237ZM94.8331 215V203.364H99.0945C99.9202 203.364 100.604 203.5 101.146 203.773C101.687 204.042 102.093 204.407 102.362 204.869C102.63 205.328 102.765 205.845 102.765 206.42C102.765 206.905 102.676 207.314 102.498 207.648C102.32 207.977 102.081 208.242 101.782 208.443C101.487 208.64 101.161 208.784 100.805 208.875V208.989C101.191 209.008 101.568 209.133 101.935 209.364C102.307 209.591 102.613 209.915 102.856 210.335C103.098 210.756 103.219 211.267 103.219 211.869C103.219 212.464 103.079 212.998 102.799 213.472C102.522 213.941 102.094 214.314 101.515 214.591C100.935 214.864 100.195 215 99.2933 215H94.8331ZM96.5888 213.494H99.1229C99.9638 213.494 100.566 213.331 100.93 213.006C101.293 212.68 101.475 212.273 101.475 211.784C101.475 211.417 101.382 211.08 101.197 210.773C101.011 210.466 100.746 210.222 100.401 210.04C100.06 209.858 99.6551 209.767 99.1854 209.767H96.5888V213.494ZM96.5888 208.398H98.9411C99.335 208.398 99.6892 208.322 100.004 208.17C100.322 208.019 100.574 207.807 100.759 207.534C100.949 207.258 101.043 206.932 101.043 206.557C101.043 206.076 100.875 205.672 100.538 205.347C100.201 205.021 99.6835 204.858 98.9865 204.858H96.5888V208.398ZM105.302 215V203.364H109.45C110.355 203.364 111.105 203.528 111.7 203.858C112.294 204.187 112.739 204.638 113.035 205.21C113.33 205.778 113.478 206.419 113.478 207.131C113.478 207.847 113.328 208.491 113.029 209.062C112.734 209.631 112.287 210.081 111.688 210.415C111.094 210.744 110.345 210.909 109.444 210.909H106.592V209.42H109.285C109.857 209.42 110.321 209.322 110.677 209.125C111.033 208.924 111.294 208.652 111.461 208.307C111.628 207.962 111.711 207.57 111.711 207.131C111.711 206.691 111.628 206.301 111.461 205.96C111.294 205.619 111.031 205.352 110.671 205.159C110.315 204.966 109.845 204.869 109.262 204.869H107.058V215H105.302ZM119.832 202.818L116.082 216.75H114.565L118.315 202.818H119.832ZM127.758 206.42C127.697 205.883 127.447 205.466 127.008 205.17C126.568 204.871 126.015 204.722 125.349 204.722C124.871 204.722 124.459 204.797 124.11 204.949C123.762 205.097 123.491 205.301 123.298 205.562C123.108 205.82 123.013 206.114 123.013 206.443C123.013 206.72 123.078 206.958 123.207 207.159C123.339 207.36 123.512 207.528 123.724 207.665C123.94 207.797 124.171 207.909 124.417 208C124.663 208.087 124.9 208.159 125.127 208.216L126.263 208.511C126.635 208.602 127.015 208.725 127.406 208.881C127.796 209.036 128.157 209.241 128.491 209.494C128.824 209.748 129.093 210.062 129.298 210.438C129.506 210.812 129.61 211.261 129.61 211.784C129.61 212.443 129.44 213.028 129.099 213.54C128.762 214.051 128.271 214.455 127.627 214.75C126.987 215.045 126.212 215.193 125.303 215.193C124.432 215.193 123.678 215.055 123.042 214.778C122.406 214.502 121.907 214.11 121.548 213.602C121.188 213.091 120.989 212.485 120.951 211.784H122.712C122.746 212.205 122.883 212.555 123.121 212.835C123.364 213.112 123.673 213.318 124.048 213.455C124.426 213.587 124.841 213.653 125.292 213.653C125.788 213.653 126.229 213.576 126.616 213.42C127.006 213.261 127.313 213.042 127.536 212.761C127.76 212.477 127.871 212.146 127.871 211.767C127.871 211.422 127.773 211.14 127.576 210.92C127.383 210.701 127.12 210.519 126.786 210.375C126.457 210.231 126.084 210.104 125.667 209.994L124.292 209.619C123.36 209.366 122.621 208.992 122.076 208.5C121.534 208.008 121.263 207.356 121.263 206.545C121.263 205.875 121.445 205.29 121.809 204.79C122.173 204.29 122.665 203.902 123.286 203.625C123.907 203.345 124.608 203.205 125.388 203.205C126.176 203.205 126.871 203.343 127.474 203.619C128.08 203.896 128.557 204.277 128.906 204.761C129.254 205.242 129.436 205.795 129.451 206.42H127.758Z" fill="white" fill-opacity="0.16"/>
</g>
<rect x="46" y="132" width="120" height="32" rx="6" fill="white" fill-opacity="0.02"/>
<rect x="46.75" y="132.75" width="118.5" height="30.5" rx="5.25" stroke="white" stroke-opacity="0.16" stroke-width="1.5"/>
<rect x="46" y="238" width="120" height="32" rx="6" fill="white" fill-opacity="0.02"/>
<rect x="46.75" y="238.75" width="118.5" height="30.5" rx="5.25" stroke="white" stroke-opacity="0.16" stroke-width="1.5"/>
<path d="M70 164L70 172" stroke="white" stroke-opacity="0.16" stroke-width="1.5"/>
<path d="M78 164L78 172" stroke="white" stroke-opacity="0.16" stroke-width="1.5"/>
<path d="M86 164L86 172" stroke="white" stroke-opacity="0.16" stroke-width="1.5"/>
<path d="M94 164L94 172" stroke="white" stroke-opacity="0.16" stroke-width="1.5"/>
</g>
<path d="M16.3137 1.25H132C136.832 1.25 140.75 5.16751 140.75 10V319.686C140.75 322.007 139.828 324.233 138.187 325.873L131.873 332.187C130.233 333.828 128.007 334.75 125.686 334.75H10C5.1675 334.75 1.25 330.832 1.25 326V16.3137C1.25 13.9931 2.17186 11.7675 3.81282 10.1265L10.1265 3.81282C11.7675 2.17187 13.9931 1.25 16.3137 1.25Z" stroke="white" stroke-opacity="0.08" stroke-width="1.5"/>
<defs>
<filter id="filter0_d_65_8985" x="78.4736" y="187.204" width="55.1367" height="37.5459" filterUnits="userSpaceOnUse" color-interpolation-filters="sRGB">
<feFlood flood-opacity="0" result="BackgroundImageFix"/>
<feColorMatrix in="SourceAlpha" type="matrix" values="0 0 0 0 0 0 0 0 0 0 0 0 0 0 0 0 0 0 127 0" result="hardAlpha"/>
<feOffset dy="4"/>
<feGaussianBlur stdDeviation="2"/>
<feComposite in2="hardAlpha" operator="out"/>
<feColorMatrix type="matrix" values="0 0 0 0 0 0 0 0 0 0 0 0 0 0 0 0 0 0 0.25 0"/>
<feBlend mode="normal" in2="BackgroundImageFix" result="effect1_dropShadow_65_8985"/>
<feBlend mode="normal" in="SourceGraphic" in2="effect1_dropShadow_65_8985" result="shape"/>
</filter>
<filter id="filter1_f_65_8985" x="32.4736" y="137.204" width="147.137" height="129.546" filterUnits="userSpaceOnUse" color-interpolation-filters="sRGB">
<feFlood flood-opacity="0" result="BackgroundImageFix"/>
<feBlend mode="normal" in="SourceGraphic" in2="BackgroundImageFix" result="shape"/>
<feGaussianBlur stdDeviation="25" result="effect1_foregroundBlur_65_8985"/>
</filter>
<linearGradient id="paint0_linear_65_8985" x1="142.792" y1="80" x2="142.792" y2="328.204" gradientUnits="userSpaceOnUse">
<stop offset="0.2" stop-color="white" stop-opacity="0"/>
<stop offset="0.495" stop-color="white"/>
<stop offset="1" stop-color="white" stop-opacity="0"/>
</linearGradient>
<linearGradient id="paint1_linear_65_8985" x1="150.676" y1="56" x2="150.676" y2="353.435" gradientUnits="userSpaceOnUse">
<stop offset="0.2" stop-color="white" stop-opacity="0"/>
<stop offset="0.495" stop-color="white"/>
<stop offset="1" stop-color="white" stop-opacity="0"/>
</linearGradient>
<clipPath id="clip0_65_8985">
<rect width="138" height="278" fill="white" transform="translate(2 54)"/>
</clipPath>
</defs>
</svg>
