<svg width="142" height="336" viewBox="0 0 142 336" fill="none" xmlns="http://www.w3.org/2000/svg">
<g clip-path="url(#clip0_65_8904)">
<rect x="-5.25" y="80.75" width="222.5" height="240.5" rx="47.25" stroke="white" stroke-opacity="0.04" stroke-width="1.5"/>
<rect x="-5.25" y="80.75" width="222.5" height="240.5" rx="47.25" stroke="url(#paint0_linear_65_8904)" stroke-opacity="0.08" stroke-width="1.5"/>
<rect x="-29.25" y="56.75" width="270.5" height="288.5" rx="63.25" stroke="url(#paint1_linear_65_8904)" stroke-opacity="0.08" stroke-width="1.5"/>
<rect x="18" y="104" width="176" height="194" rx="32" fill="white" fill-opacity="0.01"/>
<rect x="18.75" y="104.75" width="174.5" height="192.5" rx="31.25" stroke="white" stroke-opacity="0.04" stroke-width="1.5"/>
<rect x="34.75" y="120.75" width="142.5" height="160.5" rx="15.25" stroke="white" stroke-opacity="0.08" stroke-width="1.5"/>
<rect x="46" y="172" width="120" height="58" rx="6" fill="white" fill-opacity="0.02"/>
<rect x="46.75" y="172.75" width="118.5" height="56.5" rx="5.25" stroke="white" stroke-opacity="0.16" stroke-width="1.5"/>
<path d="M96.4766 196.727V195.307L101.505 187.364H102.624V189.455H101.914L98.3175 195.148V195.239H105.21V196.727H96.4766ZM101.994 199V196.295L102.005 195.648V187.364H103.67V199H101.994ZM111.241 199.193C110.343 199.189 109.576 198.953 108.94 198.483C108.303 198.013 107.817 197.33 107.479 196.432C107.142 195.534 106.974 194.453 106.974 193.188C106.974 191.926 107.142 190.848 107.479 189.955C107.82 189.061 108.309 188.379 108.945 187.909C109.585 187.439 110.351 187.205 111.241 187.205C112.131 187.205 112.894 187.441 113.531 187.915C114.167 188.384 114.654 189.066 114.991 189.96C115.332 190.85 115.502 191.926 115.502 193.188C115.502 194.456 115.334 195.54 114.996 196.438C114.659 197.331 114.173 198.015 113.536 198.489C112.9 198.958 112.135 199.193 111.241 199.193ZM111.241 197.676C112.029 197.676 112.644 197.292 113.087 196.523C113.534 195.754 113.758 194.642 113.758 193.188C113.758 192.222 113.656 191.405 113.451 190.739C113.25 190.068 112.96 189.561 112.582 189.216C112.207 188.867 111.76 188.693 111.241 188.693C110.457 188.693 109.841 189.08 109.394 189.852C108.947 190.625 108.722 191.737 108.718 193.188C108.718 194.157 108.818 194.977 109.019 195.648C109.224 196.314 109.513 196.82 109.888 197.165C110.263 197.506 110.714 197.676 111.241 197.676ZM90.7237 207.04C90.6139 206.695 90.4661 206.386 90.2805 206.114C90.0987 205.837 89.8809 205.602 89.6271 205.409C89.3733 205.212 89.0836 205.062 88.7578 204.96C88.4358 204.858 88.0817 204.807 87.6953 204.807C87.04 204.807 86.4491 204.975 85.9226 205.312C85.3961 205.65 84.9794 206.144 84.6726 206.795C84.3696 207.443 84.218 208.237 84.218 209.176C84.218 210.119 84.3714 210.917 84.6783 211.568C84.9851 212.22 85.4055 212.714 85.9396 213.051C86.4737 213.388 87.0817 213.557 87.7635 213.557C88.3961 213.557 88.9472 213.428 89.4169 213.17C89.8904 212.913 90.2559 212.549 90.5135 212.08C90.7749 211.606 90.9055 211.049 90.9055 210.409L91.3601 210.494H88.0305V209.045H92.6044V210.369C92.6044 211.347 92.3961 212.195 91.9794 212.915C91.5665 213.631 90.9946 214.184 90.2635 214.574C89.5362 214.964 88.7029 215.159 87.7635 215.159C86.7105 215.159 85.7862 214.917 84.9908 214.432C84.1991 213.947 83.5817 213.259 83.1385 212.369C82.6953 211.475 82.4737 210.415 82.4737 209.188C82.4737 208.259 82.6025 207.426 82.8601 206.688C83.1177 205.949 83.4794 205.322 83.9453 204.807C84.415 204.288 84.9661 203.892 85.5987 203.619C86.2351 203.343 86.9302 203.205 87.6839 203.205C88.3127 203.205 88.898 203.297 89.4396 203.483C89.9851 203.669 90.4699 203.932 90.8942 204.273C91.3222 204.614 91.6764 205.019 91.9567 205.489C92.237 205.955 92.4264 206.472 92.5249 207.04H90.7237ZM94.8331 215V203.364H99.0945C99.9202 203.364 100.604 203.5 101.146 203.773C101.687 204.042 102.093 204.407 102.362 204.869C102.63 205.328 102.765 205.845 102.765 206.42C102.765 206.905 102.676 207.314 102.498 207.648C102.32 207.977 102.081 208.242 101.782 208.443C101.487 208.64 101.161 208.784 100.805 208.875V208.989C101.191 209.008 101.568 209.133 101.935 209.364C102.307 209.591 102.613 209.915 102.856 210.335C103.098 210.756 103.219 211.267 103.219 211.869C103.219 212.464 103.079 212.998 102.799 213.472C102.522 213.941 102.094 214.314 101.515 214.591C100.935 214.864 100.195 215 99.2933 215H94.8331ZM96.5888 213.494H99.1229C99.9638 213.494 100.566 213.331 100.93 213.006C101.293 212.68 101.475 212.273 101.475 211.784C101.475 211.417 101.382 211.08 101.197 210.773C101.011 210.466 100.746 210.222 100.401 210.04C100.06 209.858 99.6551 209.767 99.1854 209.767H96.5888V213.494ZM96.5888 208.398H98.9411C99.335 208.398 99.6892 208.322 100.004 208.17C100.322 208.019 100.574 207.807 100.759 207.534C100.949 207.258 101.043 206.932 101.043 206.557C101.043 206.076 100.875 205.672 100.538 205.347C100.201 205.021 99.6835 204.858 98.9865 204.858H96.5888V208.398ZM105.302 215V203.364H109.45C110.355 203.364 111.105 203.528 111.7 203.858C112.294 204.187 112.739 204.638 113.035 205.21C113.33 205.778 113.478 206.419 113.478 207.131C113.478 207.847 113.328 208.491 113.029 209.062C112.734 209.631 112.287 210.081 111.688 210.415C111.094 210.744 110.345 210.909 109.444 210.909H106.592V209.42H109.285C109.857 209.42 110.321 209.322 110.677 209.125C111.033 208.924 111.294 208.652 111.461 208.307C111.628 207.962 111.711 207.57 111.711 207.131C111.711 206.691 111.628 206.301 111.461 205.96C111.294 205.619 111.031 205.352 110.671 205.159C110.315 204.966 109.845 204.869 109.262 204.869H107.058V215H105.302ZM119.832 202.818L116.082 216.75H114.565L118.315 202.818H119.832ZM127.758 206.42C127.697 205.883 127.447 205.466 127.008 205.17C126.568 204.871 126.015 204.722 125.349 204.722C124.871 204.722 124.459 204.797 124.11 204.949C123.762 205.097 123.491 205.301 123.298 205.562C123.108 205.82 123.013 206.114 123.013 206.443C123.013 206.72 123.078 206.958 123.207 207.159C123.339 207.36 123.512 207.528 123.724 207.665C123.94 207.797 124.171 207.909 124.417 208C124.663 208.087 124.9 208.159 125.127 208.216L126.263 208.511C126.635 208.602 127.015 208.725 127.406 208.881C127.796 209.036 128.157 209.241 128.491 209.494C128.824 209.748 129.093 210.062 129.298 210.438C129.506 210.812 129.61 211.261 129.61 211.784C129.61 212.443 129.44 213.028 129.099 213.54C128.762 214.051 128.271 214.455 127.627 214.75C126.987 215.045 126.212 215.193 125.303 215.193C124.432 215.193 123.678 215.055 123.042 214.778C122.406 214.502 121.907 214.11 121.548 213.602C121.188 213.091 120.989 212.485 120.951 211.784H122.712C122.746 212.205 122.883 212.555 123.121 212.835C123.364 213.112 123.673 213.318 124.048 213.455C124.426 213.587 124.841 213.653 125.292 213.653C125.788 213.653 126.229 213.576 126.616 213.42C127.006 213.261 127.313 213.042 127.536 212.761C127.76 212.477 127.871 212.146 127.871 211.767C127.871 211.422 127.773 211.14 127.576 210.92C127.383 210.701 127.12 210.519 126.786 210.375C126.457 210.231 126.084 210.104 125.667 209.994L124.292 209.619C123.36 209.366 122.621 208.992 122.076 208.5C121.534 208.008 121.263 207.356 121.263 206.545C121.263 205.875 121.445 205.29 121.809 204.79C122.173 204.29 122.665 203.902 123.286 203.625C123.907 203.345 124.608 203.205 125.388 203.205C126.176 203.205 126.871 203.343 127.474 203.619C128.08 203.896 128.557 204.277 128.906 204.761C129.254 205.242 129.436 205.795 129.451 206.42H127.758Z" fill="white" fill-opacity="0.16"/>
<rect x="46" y="132" width="120" height="32" rx="6" fill="white" fill-opacity="0.02"/>
<rect x="46.75" y="132.75" width="118.5" height="30.5" rx="5.25" stroke="white" stroke-opacity="0.16" stroke-width="1.5"/>
<rect x="46" y="238" width="120" height="32" rx="6" fill="white" fill-opacity="0.02"/>
<rect x="46.75" y="238.75" width="118.5" height="30.5" rx="5.25" stroke="white" stroke-opacity="0.16" stroke-width="1.5"/>
<path d="M70 164L70 172" stroke="white" stroke-opacity="0.16" stroke-width="1.5"/>
<path d="M78 164L78 172" stroke="white" stroke-opacity="0.16" stroke-width="1.5"/>
<path d="M86 164L86 172" stroke="white" stroke-opacity="0.16" stroke-width="1.5"/>
<path d="M94 164L94 172" stroke="white" stroke-opacity="0.16" stroke-width="1.5"/>
</g>
<path d="M16.3137 1.25H132C136.832 1.25 140.75 5.16751 140.75 10V319.686C140.75 322.007 139.828 324.233 138.187 325.873L131.873 332.187C130.233 333.828 128.007 334.75 125.686 334.75H10C5.1675 334.75 1.25 330.832 1.25 326V16.3137C1.25 13.9931 2.17186 11.7675 3.81282 10.1265L10.1265 3.81282C11.7675 2.17187 13.9931 1.25 16.3137 1.25Z" stroke="white" stroke-opacity="0.08" stroke-width="1.5"/>
<defs>
<linearGradient id="paint0_linear_65_8904" x1="142.792" y1="80" x2="142.792" y2="328.204" gradientUnits="userSpaceOnUse">
<stop offset="0.2" stop-color="white" stop-opacity="0"/>
<stop offset="0.495" stop-color="white"/>
<stop offset="1" stop-color="white" stop-opacity="0"/>
</linearGradient>
<linearGradient id="paint1_linear_65_8904" x1="150.676" y1="56" x2="150.676" y2="353.435" gradientUnits="userSpaceOnUse">
<stop offset="0.2" stop-color="white" stop-opacity="0"/>
<stop offset="0.495" stop-color="white"/>
<stop offset="1" stop-color="white" stop-opacity="0"/>
</linearGradient>
<clipPath id="clip0_65_8904">
<rect width="138" height="278" fill="white" transform="translate(2 54)"/>
</clipPath>
</defs>
</svg>
