<svg width="142" height="336" viewBox="0 0 142 336" fill="none" xmlns="http://www.w3.org/2000/svg">
<g clip-path="url(#clip0_65_8943)">
<rect x="-5.25" y="80.75" width="222.5" height="240.5" rx="47.25" stroke="white" stroke-opacity="0.04" stroke-width="1.5"/>
<rect x="-5.25" y="80.75" width="222.5" height="240.5" rx="47.25" stroke="url(#paint0_linear_65_8943)" stroke-opacity="0.08" stroke-width="1.5"/>
<rect x="-29.25" y="56.75" width="270.5" height="288.5" rx="63.25" stroke="url(#paint1_linear_65_8943)" stroke-opacity="0.08" stroke-width="1.5"/>
<rect x="18" y="104" width="176" height="194" rx="32" fill="white" fill-opacity="0.01"/>
<rect x="18.75" y="104.75" width="174.5" height="192.5" rx="31.25" stroke="white" stroke-opacity="0.04" stroke-width="1.5"/>
<rect x="34.75" y="120.75" width="142.5" height="160.5" rx="15.25" stroke="white" stroke-opacity="0.08" stroke-width="1.5"/>
<rect x="46" y="172" width="120" height="58" rx="6" fill="white" fill-opacity="0.02"/>
<rect x="46.75" y="172.75" width="118.5" height="56.5" rx="5.25" stroke="white" stroke-opacity="0.16" stroke-width="1.5"/>
<circle opacity="0.16" cx="106" cy="201" r="6" fill="white"/>
<circle cx="86" cy="201" r="6" fill="white" fill-opacity="0.16"/>
<circle opacity="0.04" cx="126" cy="201" r="6" fill="white"/>
<rect x="46" y="132" width="120" height="32" rx="6" fill="white" fill-opacity="0.02"/>
<rect x="46.75" y="132.75" width="118.5" height="30.5" rx="5.25" stroke="white" stroke-opacity="0.16" stroke-width="1.5"/>
<rect x="46" y="238" width="120" height="32" rx="6" fill="white" fill-opacity="0.02"/>
<rect x="46.75" y="238.75" width="118.5" height="30.5" rx="5.25" stroke="white" stroke-opacity="0.16" stroke-width="1.5"/>
<path d="M70 164L70 172" stroke="white" stroke-opacity="0.16" stroke-width="1.5"/>
<path d="M78 164L78 172" stroke="white" stroke-opacity="0.16" stroke-width="1.5"/>
<path d="M86 164L86 172" stroke="white" stroke-opacity="0.16" stroke-width="1.5"/>
<path d="M94 164L94 172" stroke="white" stroke-opacity="0.16" stroke-width="1.5"/>
</g>
<path d="M16.3137 1.25H132C136.832 1.25 140.75 5.16751 140.75 10V319.686C140.75 322.007 139.828 324.233 138.187 325.873L131.873 332.187C130.233 333.828 128.007 334.75 125.686 334.75H10C5.1675 334.75 1.25 330.832 1.25 326V16.3137C1.25 13.9931 2.17186 11.7675 3.81282 10.1265L10.1265 3.81282C11.7675 2.17187 13.9931 1.25 16.3137 1.25Z" stroke="white" stroke-opacity="0.08" stroke-width="1.5"/>
<defs>
<linearGradient id="paint0_linear_65_8943" x1="142.792" y1="80" x2="142.792" y2="328.204" gradientUnits="userSpaceOnUse">
<stop offset="0.2" stop-color="white" stop-opacity="0"/>
<stop offset="0.495" stop-color="white"/>
<stop offset="1" stop-color="white" stop-opacity="0"/>
</linearGradient>
<linearGradient id="paint1_linear_65_8943" x1="150.676" y1="56" x2="150.676" y2="353.435" gradientUnits="userSpaceOnUse">
<stop offset="0.2" stop-color="white" stop-opacity="0"/>
<stop offset="0.495" stop-color="white"/>
<stop offset="1" stop-color="white" stop-opacity="0"/>
</linearGradient>
<clipPath id="clip0_65_8943">
<rect width="138" height="278" fill="white" transform="translate(2 54)"/>
</clipPath>
</defs>
</svg>
