<svg width="178" height="336" viewBox="0 0 178 336" fill="none" xmlns="http://www.w3.org/2000/svg">
<g clip-path="url(#clip0_65_3170)">
<path d="M112.611 80.173L28.6839 111.889C22.2514 114.325 18 120.423 18 127.233V207.801C18 229.586 26.7521 250.474 42.3383 265.873L108.817 331.584C117.472 340.139 131.493 340.139 140.149 331.584L206.655 265.873C222.241 250.467 231 229.572 231 207.787V127.233C231 120.423 226.749 114.318 220.316 111.889L136.347 80.1662C128.703 77.2779 120.256 77.2779 112.611 80.1662V80.173Z" fill="white" fill-opacity="0.01" stroke="white" stroke-opacity="0.04" stroke-width="1.5"/>
<path d="M115.29 103.74L50.2763 129.136C45.2933 131.087 42 135.97 42 141.423V201.744C42 219.188 48.7798 235.914 60.8536 248.245L112.351 300.862C119.056 307.713 129.917 307.713 136.622 300.862L188.141 248.245C200.215 235.909 207 219.177 207 201.733V141.423C207 135.97 203.707 131.082 198.724 129.136L133.677 103.735C127.756 101.422 121.212 101.422 115.29 103.735V103.74Z" fill="white" fill-opacity="0.01"/>
<path d="M115.29 103.74L50.2763 129.136C45.2933 131.087 42 135.97 42 141.423V201.744C42 219.188 48.7798 235.914 60.8536 248.245L112.351 300.862C119.056 307.713 129.917 307.713 136.622 300.862L188.141 248.245C200.215 235.909 207 219.177 207 201.733V141.423C207 135.97 203.707 131.082 198.724 129.136L133.677 103.735C127.756 101.422 121.212 101.422 115.29 103.735V103.74Z" fill="url(#paint0_radial_65_3170)" fill-opacity="0.5"/>
<path d="M115.563 104.439L116.032 104.256C121.653 102.191 127.814 102.25 133.405 104.433L133.677 103.735L133.405 104.433L198.451 129.835L198.724 129.136L198.451 129.835C203.139 131.665 206.25 136.271 206.25 141.423V201.733C206.25 218.984 199.54 235.526 187.605 247.721L136.086 300.337L136.086 300.338C129.676 306.887 119.298 306.887 112.887 300.338L61.3896 247.721L61.3895 247.721C49.4546 235.532 42.75 218.995 42.75 201.744V141.423C42.75 136.272 45.8608 131.67 50.5497 129.834L115.563 104.439Z" stroke="white" stroke-opacity="0.08" stroke-width="1.5"/>
<path d="M104.105 371.652L17.6512 286.154C-2.61817 266.118 -14 238.939 -14 210.595V110.059C-14 101.198 -8.47117 93.2636 -0.105878 90.0934L109.039 48.8274V48.8185C118.98 45.0605 129.966 45.0605 139.907 48.8185L194.506 69.4559" stroke="url(#paint1_linear_65_3170)" stroke-opacity="0.08" stroke-width="1.5"/>
<path d="M117.97 127.223L71.8686 145.075C68.3353 146.446 66 149.878 66 153.711V200.716C66 212.978 70.8075 224.735 79.3689 233.403L115.885 270.388C120.64 275.204 128.341 275.204 133.096 270.388L169.627 233.403C178.189 224.731 183 212.97 183 200.708V153.711C183 149.878 180.665 146.442 177.131 145.075L131.008 127.219C126.809 125.594 122.169 125.594 117.97 127.219V127.223Z" fill="white" fill-opacity="0.02"/>
<path d="M118.57 127.795L118.24 127.922L72.14 145.774L118.57 127.795ZM118.57 127.795C122.507 126.362 126.822 126.403 130.737 127.919L131.008 127.219L130.737 127.919L176.861 145.774L177.131 145.075L176.861 145.774C180.101 147.028 182.25 150.183 182.25 153.711V200.708C182.25 212.774 177.516 224.345 169.094 232.876C169.094 232.876 169.094 232.876 169.094 232.876L132.562 269.861L132.562 269.862C128.101 274.379 120.88 274.379 116.419 269.862L79.9026 232.876L79.9025 232.876C71.4808 224.349 66.75 212.782 66.75 200.716V153.711C66.75 150.184 68.8986 147.032 72.1395 145.774L118.57 127.795Z" stroke="white" stroke-opacity="0.16" stroke-width="1.5"/>
<g clip-path="url(#clip1_65_3170)">
<path d="M147.911 213.458C146.55 212.375 147.094 209.667 145.461 208.312C147.094 199.104 142.739 191.25 137.839 186.104C133.483 181.771 134.844 177.708 134.844 173.917C134.844 168.229 132.394 162 125.044 162C117.422 162 115.244 168.5 115.244 172.021C114.972 180.958 116.878 183.125 111.706 189.625C105.717 197.208 104.628 204.792 105.989 208.854C105.444 209.667 104.356 210.479 102.722 211.021C98.0944 212.917 101.633 216.167 100.272 218.604C100.272 219.146 100 219.958 100 220.5C100 222.667 101.633 224.292 104.628 224.021C108.711 223.75 112.25 226.458 114.7 226.458C116.878 226.458 118.511 225.375 119.328 223.75C123.139 222.937 127.767 222.937 131.578 224.021C132.122 225.917 134.028 227 136.206 227C140.561 227 141.378 222.125 146.55 220.229C148.456 219.688 149.272 217.792 149.272 216.167C149 215.083 148.728 214.271 147.911 213.458ZM122.867 185.292C122.05 185.292 121.233 184.479 120.144 183.667C118.783 182.583 117.422 182.042 117.422 180.958C117.422 180.146 118.511 179.875 119.872 179.062C121.233 178.25 121.778 177.167 123.139 177.167C124.5 177.167 125.044 177.979 126.95 178.792C128.856 179.604 130.217 179.875 130.217 180.958C130.217 182.042 128.311 182.583 126.95 183.396C125.317 184.208 124.5 185.292 122.867 185.292ZM127.494 171.208C129.944 171.479 130.217 175.812 129.128 177.979L128.039 177.708C128.583 176.354 128.583 173.917 126.95 173.646C125.861 173.646 125.317 175 125.044 176.083C124.5 175.542 124.228 175.542 123.411 175.542C123.683 173.104 125.317 170.667 127.494 171.208ZM118.239 172.021C120.144 171.479 121.233 173.646 121.233 175.812L120.417 176.354C120.417 175.542 119.872 173.917 118.783 174.188C117.694 174.729 117.694 177.167 118.511 177.708L117.694 178.25C116.333 176.354 116.333 172.562 118.239 172.021ZM112.522 224.021C107.078 221.583 105.444 222.125 104.356 222.125C102.178 222.125 101.633 220.5 102.45 219.146C102.994 217.792 102.994 216.437 102.722 215.625C102.45 214 102.45 213.458 104.083 212.646C106.261 211.833 107.35 210.479 107.894 209.667C110.072 207.229 111.978 211.021 113.883 214.812C114.972 217.25 117.15 218.333 117.967 220.771C118.239 223.208 115.789 225.646 112.522 224.021ZM131.578 219.146C127.767 221.042 123.139 221.854 119.328 219.958C118.783 218.333 117.967 217.521 117.15 216.438C118.511 216.167 119.6 214.271 118.511 212.375C117.15 210.479 114.156 209.125 111.433 206.958C108.711 204.792 107.894 199.917 111.433 194.229C109.528 199.375 110.617 203.979 111.706 205.333C111.978 202.625 111.978 198.292 115.789 192.875C117.694 190.167 117.694 186.646 117.694 184.479L119.056 185.021C120.417 185.833 121.233 186.917 122.867 186.917C125.044 186.917 126.406 185.562 128.039 184.479C128.583 184.208 129.672 183.667 130.489 183.125C131.85 189.896 137.839 198.021 138.111 202.625C139.472 199.917 137.839 193.146 137.839 193.146C140.017 196.667 140.289 199.646 140.289 203.167C141.922 203.708 143.556 205.604 143.828 207.771H143.283C143.011 205.333 136.206 201.542 135.661 206.417C132.394 206.958 133.483 212.104 132.939 215.354C132.394 216.708 131.85 217.792 131.578 219.146ZM144.644 218.875C141.922 219.958 140.289 222.125 138.928 223.479C136.478 226.188 133.483 224.833 132.939 222.396C132.667 219.687 134.028 218.333 134.572 215.354C135.117 212.646 134.572 208.583 135.661 208.042C136.478 212.917 141.378 210.75 142.467 209.396C144.372 209.396 144.372 209.937 144.917 211.562C145.189 212.646 145.461 213.458 146.55 214.542C147.639 216.167 147.094 218.062 144.644 218.875ZM122.867 183.667C121.233 183.667 119.872 182.583 118.783 181.771C118.239 181.229 118.783 180.417 119.328 180.688C120.417 181.5 121.506 182.583 122.867 182.583C124.5 182.583 125.861 181.229 128.039 180.417C128.583 180.146 129.128 181.229 128.311 181.5C126.406 182.312 125.044 183.667 122.867 183.667Z" fill="white" fill-opacity="0.16"/>
</g>
</g>
<path d="M16.3137 1.25H168C172.832 1.25 176.75 5.16751 176.75 10V319.686C176.75 322.007 175.828 324.233 174.187 325.873L167.873 332.187C166.233 333.828 164.007 334.75 161.686 334.75H10C5.16751 334.75 1.25 330.832 1.25 326V16.3137C1.25 13.9931 2.17186 11.7675 3.81282 10.1265L10.1265 3.81282C11.7675 2.17187 13.9931 1.25 16.3137 1.25Z" stroke="white" stroke-opacity="0.08" stroke-width="1.5"/>
<defs>
<radialGradient id="paint0_radial_65_3170" cx="0" cy="0" r="1" gradientUnits="userSpaceOnUse" gradientTransform="translate(124.5 199.213) rotate(52.8246) scale(136.531 131.47)">
<stop offset="0.3378" stop-color="white" stop-opacity="0"/>
<stop offset="1" stop-color="#E2E8FF" stop-opacity="0.04"/>
</radialGradient>
<linearGradient id="paint1_linear_65_3170" x1="124.5" y1="46" x2="124.5" y2="380" gradientUnits="userSpaceOnUse">
<stop offset="0.2" stop-color="white" stop-opacity="0"/>
<stop offset="0.495" stop-color="white"/>
<stop offset="1" stop-color="white" stop-opacity="0"/>
</linearGradient>
<clipPath id="clip0_65_3170">
<rect width="174" height="308" fill="white" transform="translate(2 26)"/>
</clipPath>
<clipPath id="clip1_65_3170">
<rect width="49" height="65" fill="white" transform="translate(100 162)"/>
</clipPath>
</defs>
</svg>
