<svg width="178" height="336" viewBox="0 0 178 336" fill="none" xmlns="http://www.w3.org/2000/svg">
<g clip-path="url(#clip0_65_3158)">
<path d="M112.611 80.173L28.6839 111.889C22.2514 114.325 18 120.423 18 127.233V207.801C18 229.586 26.7521 250.474 42.3383 265.873L108.817 331.584C117.472 340.139 131.493 340.139 140.149 331.584L206.655 265.873C222.241 250.467 231 229.572 231 207.787V127.233C231 120.423 226.749 114.318 220.316 111.889L136.347 80.1662C128.703 77.2779 120.256 77.2779 112.611 80.1662V80.173Z" fill="white" fill-opacity="0.01" stroke="white" stroke-opacity="0.04" stroke-width="1.5"/>
<path d="M115.29 103.74L50.2763 129.136C45.2933 131.087 42 135.97 42 141.423V201.744C42 219.188 48.7798 235.914 60.8536 248.245L112.351 300.862C119.056 307.713 129.917 307.713 136.622 300.862L188.141 248.245C200.215 235.909 207 219.177 207 201.733V141.423C207 135.97 203.707 131.082 198.724 129.136L133.677 103.735C127.756 101.422 121.212 101.422 115.29 103.735V103.74Z" fill="white" fill-opacity="0.01"/>
<path d="M115.29 103.74L50.2763 129.136C45.2933 131.087 42 135.97 42 141.423V201.744C42 219.188 48.7798 235.914 60.8536 248.245L112.351 300.862C119.056 307.713 129.917 307.713 136.622 300.862L188.141 248.245C200.215 235.909 207 219.177 207 201.733V141.423C207 135.97 203.707 131.082 198.724 129.136L133.677 103.735C127.756 101.422 121.212 101.422 115.29 103.735V103.74Z" fill="url(#paint0_radial_65_3158)" fill-opacity="0.5"/>
<path d="M115.563 104.439L116.032 104.256C121.653 102.191 127.814 102.25 133.405 104.433L133.677 103.735L133.405 104.433L198.451 129.835L198.724 129.136L198.451 129.835C203.139 131.665 206.25 136.271 206.25 141.423V201.733C206.25 218.984 199.54 235.526 187.605 247.721L136.086 300.337L136.086 300.338C129.676 306.887 119.298 306.887 112.887 300.338L61.3896 247.721L61.3895 247.721C49.4546 235.532 42.75 218.995 42.75 201.744V141.423C42.75 136.272 45.8608 131.67 50.5497 129.834L115.563 104.439Z" stroke="white" stroke-opacity="0.08" stroke-width="1.5"/>
<path d="M104.105 371.652L17.6512 286.154C-2.61817 266.118 -14 238.939 -14 210.595V110.059C-14 101.198 -8.47117 93.2636 -0.105878 90.0934L109.039 48.8274V48.8185C118.98 45.0605 129.966 45.0605 139.907 48.8185L194.506 69.4559" stroke="url(#paint1_linear_65_3158)" stroke-opacity="0.08" stroke-width="1.5"/>
<path d="M117.97 127.223L71.8686 145.075C68.3353 146.446 66 149.878 66 153.711V200.716C66 212.978 70.8075 224.735 79.3689 233.403L115.885 270.388C120.64 275.204 128.341 275.204 133.096 270.388L169.627 233.403C178.189 224.731 183 212.97 183 200.708V153.711C183 149.878 180.665 146.442 177.131 145.075L131.008 127.219C126.809 125.594 122.169 125.594 117.97 127.219V127.223Z" fill="white" fill-opacity="0.02"/>
<path d="M118.57 127.795L118.24 127.922L72.14 145.774L118.57 127.795ZM118.57 127.795C122.507 126.362 126.822 126.403 130.737 127.919L131.008 127.219L130.737 127.919L176.861 145.774L177.131 145.075L176.861 145.774C180.101 147.028 182.25 150.183 182.25 153.711V200.708C182.25 212.774 177.516 224.345 169.094 232.876C169.094 232.876 169.094 232.876 169.094 232.876L132.562 269.861L132.562 269.862C128.101 274.379 120.88 274.379 116.419 269.862L79.9026 232.876L79.9025 232.876C71.4808 224.349 66.75 212.782 66.75 200.716V153.711C66.75 150.184 68.8986 147.032 72.1395 145.774L118.57 127.795Z" stroke="white" stroke-opacity="0.16" stroke-width="1.5"/>
<path opacity="0.16" d="M126.737 176.35C126.737 176.35 121.073 175.971 111.422 179.031C101.589 182.149 96.0116 186.569 96.0116 186.569C96.0116 186.569 110.668 178.273 127.211 177.804L126.737 176.35ZM147.871 185.368L148.609 185.319C148.609 185.319 144.389 180.132 136.31 177.603C140.853 179.474 144.803 181.953 147.871 185.368ZM149.078 187.525C149.19 187.327 149.555 188.157 149.834 188.507C149.846 188.577 149.863 188.62 149.705 188.585C149.69 188.512 149.667 188.492 149.667 188.492C149.667 188.492 149.279 188.259 149.159 188.093C149.041 187.927 149.018 187.635 149.078 187.525ZM158.991 212.232C158.991 212.232 159.888 201.806 143.725 199.402C141.321 199.05 138.897 198.868 136.468 198.857C123.514 199.032 123.042 183.713 132.803 182.941C136.848 182.603 141.678 184.815 146.401 187.044C146.381 187.638 146.407 188.166 146.792 188.652C147.178 189.142 148.655 189.672 149.13 189.949C149.601 190.223 151.116 191.202 152.045 192.426C152.246 192.044 153.925 190.934 153.925 190.934C153.925 190.934 153.523 190.943 152.588 190.587C151.651 190.232 150.539 189.159 150.513 189.098C150.484 189.034 150.47 188.938 150.685 188.894C150.855 188.751 150.478 188.291 150.311 188.122C150.145 187.953 149.032 186.036 149.006 185.995C148.98 185.948 148.972 185.905 148.891 185.849C148.647 185.771 147.569 185.966 147.569 185.966C147.569 185.966 145.916 185.141 145.343 183.364C145.352 183.675 145.059 184.016 145.343 184.73C144.481 184.36 143.739 183.728 143.153 182.166C142.808 183.055 143.153 183.62 143.153 183.62C143.153 183.62 141.12 183.043 140.795 181.143C140.439 181.997 140.795 182.51 140.795 182.51C140.795 182.51 137.48 180.756 131.972 180.732C128.283 180.389 127.516 173.815 127.861 172.708C127.861 172.708 122.542 169.866 112.068 168.611C101.598 167.358 93.013 168.421 93.013 168.421C93.013 168.421 111.557 167.518 126.412 173.617C126.918 175.904 128.436 179.718 129.255 181.551C126.912 183.192 124.273 184.733 123.862 190.205C123.45 195.678 128.094 200.491 133.849 200.637C139.312 200.934 143.09 200.975 147.666 203.382C152.036 205.83 155.619 213.289 155.975 220C156.355 215.02 154.512 204.315 145.913 201.066C157.933 203.199 158.991 212.232 158.991 212.232ZM126.455 175.534L126.024 174.121C126.024 174.121 118.882 172.836 109.285 173.526C99.6887 174.217 90 177.623 90 177.623C90 177.623 109.826 172.568 126.455 175.534Z" fill="white" stroke="white" stroke-linejoin="round"/>
</g>
<path d="M16.3137 1.25H168C172.832 1.25 176.75 5.16751 176.75 10V319.686C176.75 322.007 175.828 324.233 174.187 325.873L167.873 332.187C166.233 333.828 164.007 334.75 161.686 334.75H10C5.16751 334.75 1.25 330.832 1.25 326V16.3137C1.25 13.9931 2.17186 11.7675 3.81282 10.1265L10.1265 3.81282C11.7675 2.17187 13.9931 1.25 16.3137 1.25Z" stroke="white" stroke-opacity="0.08" stroke-width="1.5"/>
<defs>
<radialGradient id="paint0_radial_65_3158" cx="0" cy="0" r="1" gradientUnits="userSpaceOnUse" gradientTransform="translate(124.5 199.213) rotate(52.8246) scale(136.531 131.47)">
<stop offset="0.3378" stop-color="white" stop-opacity="0"/>
<stop offset="1" stop-color="#E2E8FF" stop-opacity="0.04"/>
</radialGradient>
<linearGradient id="paint1_linear_65_3158" x1="124.5" y1="46" x2="124.5" y2="380" gradientUnits="userSpaceOnUse">
<stop offset="0.2" stop-color="white" stop-opacity="0"/>
<stop offset="0.495" stop-color="white"/>
<stop offset="1" stop-color="white" stop-opacity="0"/>
</linearGradient>
<clipPath id="clip0_65_3158">
<rect width="174" height="308" fill="white" transform="translate(2 26)"/>
</clipPath>
</defs>
</svg>
