<svg width="724" height="336" viewBox="0 0 724 336" fill="none" xmlns="http://www.w3.org/2000/svg">
<path d="M16.3137 1.25H714C718.832 1.25 722.75 5.16751 722.75 10V319.686C722.75 322.007 721.828 324.233 720.187 325.873L713.873 332.187C712.233 333.828 710.007 334.75 707.686 334.75H10C5.16754 334.75 1.25 330.832 1.25 326V16.3137C1.25 13.9931 2.17188 11.7675 3.81281 10.1265L10.1265 3.81281C11.7675 2.17187 13.993 1.25 16.3137 1.25Z" stroke="white" stroke-opacity="0.08" stroke-width="1.5"/>
<g clip-path="url(#clip0_65_7757)">
<path d="M414.576 -12.347L277.455 40.9701C266.946 45.0661 260 55.3176 260 66.7657V203.123C260 239.745 274.299 274.86 299.764 300.748L408.377 411.214C422.518 425.596 445.426 425.596 459.567 411.214L568.225 300.748C593.689 274.849 608 239.722 608 203.1V66.7657C608 55.3176 601.054 45.0546 590.545 40.9701L453.356 -12.3585C440.867 -17.2138 427.065 -17.2138 414.576 -12.3585V-12.347Z" fill="white" fill-opacity="0.01"/>
<path d="M414.848 -11.6479L415.326 -11.8339V-11.8427C427.514 -16.4461 440.929 -16.385 453.084 -11.6594L453.355 -12.3566L453.084 -11.6594L590.273 41.6692C600.488 45.6394 607.25 55.6208 607.25 66.7657V203.1C607.25 239.527 593.016 274.465 567.69 300.222L459.032 410.688L459.567 411.214L459.032 410.688C445.185 424.771 422.759 424.771 408.912 410.688L300.299 300.222L299.764 300.748L300.299 300.222C274.973 274.476 260.75 239.55 260.75 203.123V66.7657C260.75 55.6213 267.511 45.6507 277.728 41.6689L414.848 -11.6479Z" stroke="white" stroke-opacity="0.04" stroke-width="1.5"/>
<path d="M409.298 -64.7445L408.818 -64.5595L229.143 4.63128L409.298 -64.7445ZM409.298 -64.7445V-64.7574M409.298 -64.7445V-64.7574M409.298 -64.7574C425.363 -70.8079 443.062 -70.7469 459.093 -64.5744L459.363 -65.2743L459.094 -64.5744L638.858 4.63152L639.127 3.93159L638.858 4.63154C652.337 9.81966 661.25 22.8583 661.25 37.4072V213.927C661.25 261.256 642.576 306.651 609.348 340.12L466.969 483.474L467.501 484.002L466.969 483.474C448.733 501.842 419.193 501.842 400.957 483.474L258.637 340.12L258.105 340.648L258.637 340.119C225.409 306.666 206.75 261.286 206.75 213.957V37.4072C206.75 22.8589 215.663 9.83478 229.142 4.63149L409.298 -64.7574Z" stroke="url(#paint0_linear_65_7757)" stroke-opacity="0.08" stroke-width="1.5"/>
<path d="M419.934 36.6334L320.64 75.0692C313.03 78.022 308 85.4122 308 93.665V196.214C308 222.614 318.355 247.928 336.795 266.591L415.445 346.224C425.685 356.592 442.274 356.592 452.514 346.224L531.197 266.591C549.637 247.92 560 222.598 560 196.197V93.665C560 85.4122 554.97 78.0137 547.36 75.0692L448.016 36.6251C438.972 33.125 428.978 33.125 419.934 36.6251V36.6334Z" fill="white" fill-opacity="0.01"/>
<path d="M419.934 36.6334L320.64 75.0692C313.03 78.022 308 85.4122 308 93.665V196.214C308 222.614 318.355 247.928 336.795 266.591L415.445 346.224C425.685 356.592 442.274 356.592 452.514 346.224L531.197 266.591C549.637 247.92 560 222.598 560 196.197V93.665C560 85.4122 554.97 78.0137 547.36 75.0692L448.016 36.6251C438.972 33.125 428.978 33.125 419.934 36.6251V36.6334Z" fill="url(#paint1_radial_65_7757)" fill-opacity="0.5"/>
<path d="M420.205 37.3329L420.684 37.1473V37.1428C429.427 33.8929 439.035 33.9535 447.746 37.3246L448.016 36.6251L447.746 37.3246L547.089 75.7686L547.36 75.0692L547.089 75.7687C554.406 78.5997 559.25 85.7173 559.25 93.665V196.197C559.25 222.402 548.964 247.534 530.664 266.063C530.664 266.064 530.664 266.064 530.664 266.064L451.98 345.697L452.514 346.224L451.98 345.697C442.034 355.768 425.925 355.768 415.979 345.697L337.328 266.064L337.328 266.063C319.028 247.543 308.75 222.418 308.75 196.214V93.665C308.75 85.7178 313.593 78.6078 320.911 75.7684L420.205 37.3329Z" stroke="white" stroke-opacity="0.08" stroke-width="1.5"/>
<path d="M423.507 71.9723L349.43 100.758C343.752 102.97 340 108.504 340 114.685V191.828C340 211.601 347.725 230.559 361.482 244.536L420.158 304.176C427.797 311.941 440.173 311.941 447.812 304.176L506.512 244.536C520.269 230.553 528 211.588 528 191.816V114.685C528 108.504 524.248 102.963 518.57 100.758L444.457 71.9661C437.71 69.3446 430.254 69.3446 423.507 71.9661V71.9723Z" fill="white" fill-opacity="0.02"/>
<path d="M424.257 72.4855L423.778 72.6713L349.702 101.457L424.257 72.4855ZM424.257 72.4855V72.4842M424.257 72.4855V72.4842M424.257 72.4842C430.702 70.1131 437.772 70.1734 444.185 72.6651L444.457 71.9661L444.185 72.6652L518.298 101.457L518.57 100.758L518.298 101.457C523.682 103.548 527.25 108.808 527.25 114.685V191.816C527.25 211.393 519.595 230.169 505.978 244.01C505.978 244.01 505.978 244.01 505.978 244.01L447.277 303.65L447.277 303.65C439.932 311.117 428.038 311.117 420.692 303.65L362.016 244.01L362.016 244.01C348.399 230.175 340.75 211.406 340.75 191.828V114.685C340.75 108.808 344.317 103.555 349.702 101.457L424.257 72.4842Z" stroke="white" stroke-opacity="0.16" stroke-width="1.5"/>
<g clip-path="url(#clip1_65_7757)">
<path fill-rule="evenodd" clip-rule="evenodd" d="M474 174C474 196.091 456.091 214 434 214C411.909 214 394 196.091 394 174C394 151.909 411.909 134 434 134C456.091 134 474 151.909 474 174ZM433.938 167.93C437.445 167.93 440.266 170.75 440.266 174.258C440.266 176.992 438.555 179.211 436.242 180.156L438.633 193.148H429.234L431.711 180.156C429.32 179.297 427.609 176.992 427.609 174.258C427.609 170.75 430.43 167.93 433.938 167.93ZM434 154.859C445.023 154.859 454 163.75 454 174.688C454 181.945 449.984 188.359 444 191.781L442.719 183.313C444.602 181.18 445.797 178.445 445.797 175.367C445.797 168.875 440.5 163.578 433.914 163.578C427.328 163.578 422.031 168.883 422.031 175.375C422.031 178.359 423.227 181.18 425.109 183.234L423.828 191.695C417.93 188.273 414 181.953 414 174.688C414 163.742 422.977 154.859 434 154.859Z" fill="white" fill-opacity="0.16"/>
</g>
<path d="M426.008 88.1696L425.565 88.3422L364.098 112.33L426.008 88.1696ZM426.008 88.1696C431.313 86.2225 437.128 86.2783 442.404 88.3371L442.676 87.6393L442.404 88.3371L503.903 112.33L504.175 111.632L503.903 112.33C508.319 114.053 511.25 118.388 511.25 123.238V189.513C511.25 205.796 504.91 221.411 493.634 232.922L444.925 282.622L444.925 282.622C438.88 288.793 429.094 288.793 423.049 282.622L374.361 232.922L374.361 232.922C363.085 221.416 356.75 205.807 356.75 189.524V123.238C356.75 118.389 359.681 114.058 364.098 112.33L426.008 88.1696Z" stroke="white" stroke-opacity="0.08" stroke-width="1.5"/>
</g>
<path d="M2 193L260 193" stroke="white" stroke-opacity="0.04" stroke-width="1.5"/>
<path d="M2 145L260 145" stroke="white" stroke-opacity="0.04" stroke-width="1.5"/>
<path d="M2 97L260 97" stroke="white" stroke-opacity="0.04" stroke-width="1.5"/>
<path d="M608 193L722 193" stroke="white" stroke-opacity="0.04" stroke-width="1.5"/>
<path d="M608 145L722 145" stroke="white" stroke-opacity="0.04" stroke-width="1.5"/>
<path d="M608 97L722 97" stroke="white" stroke-opacity="0.04" stroke-width="1.5"/>
<defs>
<linearGradient id="paint0_linear_65_7757" x1="508.897" y1="-68.6604" x2="508.897" y2="512.527" gradientUnits="userSpaceOnUse">
<stop offset="0.05" stop-color="white" stop-opacity="0"/>
<stop offset="0.495" stop-color="white"/>
<stop offset="1" stop-color="white" stop-opacity="0"/>
</linearGradient>
<radialGradient id="paint1_radial_65_7757" cx="0" cy="0" r="1" gradientUnits="userSpaceOnUse" gradientTransform="translate(434 187.196) rotate(53.4435) scale(211.546 202.424)">
<stop offset="0.3378" stop-color="white" stop-opacity="0"/>
<stop offset="1" stop-color="#E2E8FF" stop-opacity="0.04"/>
</radialGradient>
<clipPath id="clip0_65_7757">
<rect width="456" height="332" fill="white" transform="translate(206 2)"/>
</clipPath>
<clipPath id="clip1_65_7757">
<rect width="80" height="80" fill="white" transform="translate(394 134)"/>
</clipPath>
</defs>
</svg>
