<svg width="358" height="334" viewBox="0 0 358 334" fill="none" xmlns="http://www.w3.org/2000/svg">
<path d="M15.3137 0.5H349C353.694 0.5 357.5 4.30558 357.5 9V318.686C357.5 320.941 356.604 323.103 355.01 324.697L348.697 331.01C347.103 332.604 344.941 333.5 342.686 333.5H9C4.30557 333.5 0.5 329.694 0.5 325V15.3137C0.5 13.0594 1.39554 10.8974 2.98959 9.3033L9.30331 2.98959C10.8973 1.39553 13.0594 0.5 15.3137 0.5Z" stroke="#472E21"/>
<g clip-path="url(#clip0_65_4304)">
<path d="M160.773 25.0534L160.292 25.2386L26.3245 76.888L160.773 25.0534ZM160.773 25.0534V25.045M160.773 25.0534V25.045M160.773 25.045C172.674 20.5917 185.773 20.6525 197.641 25.2275L197.911 24.5276L197.641 25.2275L331.676 76.8882C341.652 80.7323 348.25 90.3942 348.25 101.177V232.946C348.25 268.226 334.346 302.064 309.607 327.012L203.446 434.023L203.979 434.551L203.446 434.023C189.924 447.659 168.021 447.659 154.498 434.023L48.3824 327.012L47.8499 327.54L48.3823 327.012C23.643 302.075 9.75 268.248 9.75 232.968V101.177C9.75 90.3949 16.3477 80.7436 26.3239 76.8882L160.773 25.045Z" stroke="url(#paint0_linear_65_4304)" stroke-opacity="0.08" stroke-width="1.5"/>
<path d="M164.488 67.7189L62.0414 107.402C54.1895 110.451 49 118.081 49 126.602V228.091C49 255.349 59.6833 281.485 78.7087 300.753L159.856 382.972C170.421 393.676 187.536 393.676 198.101 382.972L279.283 300.753C298.308 281.476 309 255.332 309 228.074V126.602C309 118.081 303.81 110.442 295.959 107.402L193.461 67.7104C184.13 64.0965 173.819 64.0965 164.488 67.7104V67.7189Z" fill="white" fill-opacity="0.01"/>
<path d="M164.759 68.4183L165.238 68.2327V68.2277C174.268 64.8645 184.193 64.9252 193.19 68.4097L295.688 108.102L295.959 107.402L295.688 108.102C303.246 111.028 308.25 118.386 308.25 126.602V228.074C308.25 255.136 297.635 281.091 278.749 300.226L197.568 382.445L198.101 382.972L197.568 382.445C187.296 392.852 170.661 392.852 160.39 382.445L79.2425 300.226L79.2424 300.226C60.3567 281.1 49.75 255.153 49.75 228.091V126.602C49.75 118.387 54.7533 111.037 62.3129 108.102L164.759 68.4183Z" stroke="white" stroke-opacity="0.04" stroke-width="1.5"/>
<path d="M168.507 106.959L94.4299 135.545C88.7524 137.741 85 143.238 85 149.376V225.646C85 245.282 92.7249 264.109 106.482 277.989L165.158 337.217C172.797 344.928 185.173 344.928 192.812 337.217L251.512 277.989C265.269 264.103 273 245.27 273 225.634V149.376C273 143.238 269.248 137.735 263.57 135.545L189.457 106.952C182.71 104.349 175.254 104.349 168.507 106.952V106.959Z" fill="white" fill-opacity="0.01"/>
<path d="M168.507 106.959L94.4299 135.545C88.7524 137.741 85 143.238 85 149.376V225.646C85 245.282 92.7249 264.109 106.482 277.989L165.158 337.217C172.797 344.928 185.173 344.928 192.812 337.217L251.512 277.989C265.269 264.103 273 245.27 273 225.634V149.376C273 143.238 269.248 137.735 263.57 135.545L189.457 106.952C182.71 104.349 175.254 104.349 168.507 106.952V106.959Z" fill="url(#paint1_radial_65_4304)" fill-opacity="0.5"/>
<path d="M169.257 107.473L168.777 107.658L94.7005 136.245L169.257 107.473ZM169.257 107.473V107.472M169.257 107.473V107.472M169.257 107.472C175.702 105.117 182.773 105.178 189.187 107.652L189.456 106.953L189.187 107.652L263.3 136.245L263.57 135.545L263.3 136.245C268.685 138.322 272.25 143.544 272.25 149.376V225.634C272.25 245.073 264.596 263.716 250.979 277.461L192.279 336.689L192.279 336.689C184.933 344.104 173.036 344.104 165.69 336.689L107.014 277.461L107.014 277.461C93.3976 263.723 85.75 245.085 85.75 225.646V149.376C85.75 143.545 89.3143 138.328 94.7 136.245L169.257 107.472Z" stroke="white" stroke-opacity="0.08" stroke-width="1.5"/>
<path d="M171.186 132.463L116.022 153.812C111.794 155.452 109 159.557 109 164.141V221.356C109 236.021 114.753 250.082 124.997 260.448L168.692 304.681C174.381 310.44 183.597 310.44 189.285 304.681L232.998 260.448C243.243 250.077 249 236.011 249 221.347V164.141C249 159.557 246.206 155.448 241.978 153.812L186.787 132.458C181.762 130.514 176.21 130.514 171.186 132.458V132.463Z" fill="white" fill-opacity="0.02"/>
<path d="M171.457 133.162L171.853 133.009C176.597 131.282 181.798 131.332 186.516 133.158L186.787 132.458L186.516 133.158L241.707 154.512L241.978 153.812L241.707 154.512C245.642 156.034 248.25 159.863 248.25 164.141V221.347C248.25 235.815 242.57 249.691 232.465 259.92C232.465 259.921 232.465 259.921 232.465 259.921L188.752 304.154L188.752 304.154C183.357 309.615 174.621 309.615 169.225 304.154L125.531 259.921L125.53 259.92C115.426 249.696 109.75 235.825 109.75 221.356V164.141C109.75 159.863 112.358 156.038 116.294 154.511L171.457 133.162Z" stroke="white" stroke-opacity="0.16" stroke-width="1.5"/>
<path d="M149 196.322L149.431 181.1L159.126 179L180.023 186.454L209 227.816L208.892 227.921L196.074 220.467L195.643 246.922L195.427 247.027L189.072 234.744L183.901 257H183.686L182.932 213.223L172.16 209.864L164.404 194.327L155.463 187.608L149 196.322Z" fill="#50423B"/>
<g style="mix-blend-mode:plus-lighter" opacity="0.5" filter="url(#filter0_f_65_4304)">
<path d="M149 196.322L149.431 181.1L159.126 179L180.023 186.454L209 227.816L208.892 227.921L196.074 220.467L195.643 246.922L195.427 247.027L189.072 234.744L183.901 257H183.686L182.932 213.223L172.16 209.864L164.404 194.327L155.463 187.608L149 196.322Z" fill="#50423B"/>
</g>
</g>
<defs>
<filter id="filter0_f_65_4304" x="99" y="129" width="160" height="178" filterUnits="userSpaceOnUse" color-interpolation-filters="sRGB">
<feFlood flood-opacity="0" result="BackgroundImageFix"/>
<feBlend mode="normal" in="SourceGraphic" in2="BackgroundImageFix" result="shape"/>
<feGaussianBlur stdDeviation="25" result="effect1_foregroundBlur_65_4304"/>
</filter>
<linearGradient id="paint0_linear_65_4304" x1="234.844" y1="22" x2="234.844" y2="455.844" gradientUnits="userSpaceOnUse">
<stop offset="0.05" stop-color="white" stop-opacity="0"/>
<stop offset="0.495" stop-color="white"/>
<stop offset="1" stop-color="white" stop-opacity="0"/>
</linearGradient>
<radialGradient id="paint1_radial_65_4304" cx="0" cy="0" r="1" gradientUnits="userSpaceOnUse" gradientTransform="translate(179 218.939) rotate(53.3595) scale(157.509 150.85)">
<stop offset="0.3378" stop-color="white" stop-opacity="0"/>
<stop offset="1" stop-color="#E2E8FF" stop-opacity="0.04"/>
</radialGradient>
<clipPath id="clip0_65_4304">
<rect width="340" height="311" fill="white" transform="translate(9 22)"/>
</clipPath>
</defs>
</svg>
