<svg width="178" height="336" viewBox="0 0 178 336" fill="none" xmlns="http://www.w3.org/2000/svg">
<g clip-path="url(#clip0_65_3131)">
<circle cx="124.5" cy="197.5" r="58.5" fill="white" fill-opacity="0.02"/>
<circle cx="124.5" cy="197.5" r="57.75" stroke="white" stroke-opacity="0.16" stroke-width="1.5"/>
<circle cx="124.5" cy="197.5" r="137.75" stroke="url(#paint0_linear_65_3131)" stroke-opacity="0.08" stroke-width="1.5"/>
<circle cx="124.5" cy="197.5" r="106.5" fill="white" fill-opacity="0.01"/>
<circle cx="124.5" cy="197.5" r="105.75" stroke="white" stroke-opacity="0.08" stroke-width="1.5"/>
<circle cx="124.5" cy="197.5" r="82.5" fill="white" fill-opacity="0.01"/>
<circle cx="124.5" cy="197.5" r="82.5" fill="url(#paint1_radial_65_3131)" fill-opacity="0.5"/>
<circle cx="124.5" cy="197.5" r="81.75" stroke="white" stroke-opacity="0.12" stroke-width="1.5"/>
<path d="M124.5 232C143.554 232 159 216.554 159 197.5C159 178.446 143.554 163 124.5 163C105.446 163 90 178.446 90 197.5C90 216.554 105.446 232 124.5 232Z" stroke="white" stroke-opacity="0.16" stroke-width="2.5" stroke-linecap="round" stroke-linejoin="round"/>
<path d="M138.485 176.986L125.431 190.04L138.485 203.094M110.512 191.905L123.566 204.959L110.512 218.013" stroke="white" stroke-opacity="0.16" stroke-width="2.5" stroke-linecap="round" stroke-linejoin="round"/>
<g style="mix-blend-mode:plus-lighter" filter="url(#filter0_f_65_3131)">
<path d="M124.5 232C143.554 232 159 216.554 159 197.5C159 178.446 143.554 163 124.5 163C105.446 163 90 178.446 90 197.5C90 216.554 105.446 232 124.5 232Z" stroke="white" stroke-opacity="0.16" stroke-width="2.5" stroke-linecap="round" stroke-linejoin="round"/>
<path d="M138.485 176.986L125.431 190.04L138.485 203.094M110.512 191.905L123.566 204.959L110.512 218.013" stroke="white" stroke-opacity="0.16" stroke-width="2.5" stroke-linecap="round" stroke-linejoin="round"/>
</g>
</g>
<path d="M16.3137 1.25H168C172.832 1.25 176.75 5.16751 176.75 10V319.686C176.75 322.007 175.828 324.233 174.187 325.873L167.873 332.187C166.233 333.828 164.007 334.75 161.686 334.75H10C5.16751 334.75 1.25 330.832 1.25 326V16.3137C1.25 13.9931 2.17186 11.7675 3.81282 10.1265L10.1265 3.81282C11.7675 2.17187 13.9931 1.25 16.3137 1.25Z" stroke="white" stroke-opacity="0.08" stroke-width="1.5"/>
<defs>
<filter id="filter0_f_65_3131" x="38.75" y="111.75" width="171.5" height="171.5" filterUnits="userSpaceOnUse" color-interpolation-filters="sRGB">
<feFlood flood-opacity="0" result="BackgroundImageFix"/>
<feBlend mode="normal" in="SourceGraphic" in2="BackgroundImageFix" result="shape"/>
<feGaussianBlur stdDeviation="25" result="effect1_foregroundBlur_65_3131"/>
</filter>
<linearGradient id="paint0_linear_65_3131" x1="124.5" y1="59" x2="124.5" y2="336" gradientUnits="userSpaceOnUse">
<stop stop-color="white" stop-opacity="0"/>
<stop offset="0.495" stop-color="white"/>
<stop offset="1" stop-color="white" stop-opacity="0.5"/>
</linearGradient>
<radialGradient id="paint1_radial_65_3131" cx="0" cy="0" r="1" gradientUnits="userSpaceOnUse" gradientTransform="translate(124.5 193.629) rotate(46.8441) scale(120.616 120.367)">
<stop offset="0.3378" stop-color="white" stop-opacity="0"/>
<stop offset="1" stop-color="#E2E8FF" stop-opacity="0.04"/>
</radialGradient>
<clipPath id="clip0_65_3131">
<rect width="175" height="288" fill="white" transform="translate(1 46)"/>
</clipPath>
</defs>
</svg>
