<svg width="360" height="336" viewBox="0 0 360 336" fill="none" xmlns="http://www.w3.org/2000/svg">
<path d="M16.3137 1.25H350C354.832 1.25 358.75 5.16751 358.75 10V319.686C358.75 322.007 357.828 324.233 356.187 325.873L349.873 332.187C348.233 333.828 346.007 334.75 343.686 334.75H10C5.16751 334.75 1.25 330.832 1.25 326V16.3137C1.25 13.9931 2.17188 11.7675 3.81281 10.1265L10.1265 3.81281C11.7675 2.17187 13.9931 1.25 16.3137 1.25Z" stroke="white" stroke-opacity="0.08" stroke-width="1.5"/>
<g clip-path="url(#clip0_65_5449)">
<circle cx="179.5" cy="221.5" r="160.75" stroke="url(#paint0_linear_65_5449)" stroke-opacity="0.08" stroke-width="1.5"/>
<circle cx="179.5" cy="221.5" r="123.5" fill="white" fill-opacity="0.01"/>
<circle cx="179.5" cy="221.5" r="122.75" stroke="white" stroke-opacity="0.04" stroke-width="1.5"/>
<circle cx="179.5" cy="221.5" r="95.5" fill="white" fill-opacity="0.01"/>
<circle cx="179.5" cy="221.5" r="95.5" fill="url(#paint1_radial_65_5449)" fill-opacity="0.25"/>
<circle cx="179.5" cy="221.5" r="94.75" stroke="white" stroke-opacity="0.08" stroke-width="1.5"/>
<circle cx="179.5" cy="221.5" r="67.5" fill="white" fill-opacity="0.02"/>
<circle cx="179.5" cy="221.5" r="66.75" stroke="white" stroke-opacity="0.16" stroke-width="1.5"/>
<path fill-rule="evenodd" clip-rule="evenodd" d="M179.563 246.453V242.755C191.274 242.722 200.757 233.219 200.757 221.499C200.757 209.78 191.274 200.277 179.563 200.244V196.546C193.316 196.581 204.454 207.738 204.454 221.499C204.454 235.261 193.316 246.419 179.563 246.453ZM179.563 233.512C186.168 233.477 191.515 228.114 191.515 221.499C191.515 214.885 186.168 209.522 179.563 209.487V205.791C188.211 205.825 195.212 212.843 195.212 221.499C195.212 230.156 188.211 237.174 179.563 237.208V233.512ZM179.563 215.033C183.106 215.067 185.97 217.947 185.97 221.499C185.97 225.052 183.106 227.932 179.563 227.966V215.033ZM149 221.499C149 238.345 162.655 252 179.5 252C196.345 252 210 238.345 210 221.499C210 204.655 196.345 191 179.5 191C162.655 191 149 204.655 149 221.499Z" fill="white" fill-opacity="0.16"/>
<g style="mix-blend-mode:plus-lighter" opacity="0.5" filter="url(#filter0_f_65_5449)">
<path fill-rule="evenodd" clip-rule="evenodd" d="M179.563 246.453V242.755C191.274 242.722 200.757 233.219 200.757 221.499C200.757 209.78 191.274 200.277 179.563 200.244V196.546C193.316 196.581 204.454 207.738 204.454 221.499C204.454 235.261 193.316 246.419 179.563 246.453ZM179.563 233.512C186.168 233.477 191.515 228.114 191.515 221.499C191.515 214.885 186.168 209.522 179.563 209.487V205.791C188.211 205.825 195.212 212.843 195.212 221.499C195.212 230.156 188.211 237.174 179.563 237.208V233.512ZM179.563 215.033C183.106 215.067 185.97 217.947 185.97 221.499C185.97 225.052 183.106 227.932 179.563 227.966V215.033ZM149 221.499C149 238.345 162.655 252 179.5 252C196.345 252 210 238.345 210 221.499C210 204.655 196.345 191 179.5 191C162.655 191 149 204.655 149 221.499Z" fill="white" fill-opacity="0.16"/>
</g>
</g>
<defs>
<filter id="filter0_f_65_5449" x="99" y="141" width="161" height="161" filterUnits="userSpaceOnUse" color-interpolation-filters="sRGB">
<feFlood flood-opacity="0" result="BackgroundImageFix"/>
<feBlend mode="normal" in="SourceGraphic" in2="BackgroundImageFix" result="shape"/>
<feGaussianBlur stdDeviation="25" result="effect1_foregroundBlur_65_5449"/>
</filter>
<linearGradient id="paint0_linear_65_5449" x1="179.5" y1="60" x2="179.5" y2="383" gradientUnits="userSpaceOnUse">
<stop stop-color="white" stop-opacity="0"/>
<stop offset="0.495" stop-color="white"/>
<stop offset="1" stop-color="white" stop-opacity="0"/>
</linearGradient>
<radialGradient id="paint1_radial_65_5449" cx="0" cy="0" r="1" gradientUnits="userSpaceOnUse" gradientTransform="translate(179.5 217.019) rotate(46.8441) scale(139.623 139.334)">
<stop offset="0.3378" stop-color="white" stop-opacity="0"/>
<stop offset="1" stop-color="#E2E8FF" stop-opacity="0.04"/>
</radialGradient>
<clipPath id="clip0_65_5449">
<rect width="323" height="274" fill="white" transform="translate(18 60)"/>
</clipPath>
</defs>
</svg>
