<svg width="360" height="336" viewBox="0 0 360 336" fill="none" xmlns="http://www.w3.org/2000/svg">
<path d="M16.3137 1.25H350C354.832 1.25 358.75 5.16751 358.75 10V319.686C358.75 322.007 357.828 324.233 356.187 325.873L349.873 332.187C348.233 333.828 346.007 334.75 343.686 334.75H10C5.16751 334.75 1.25 330.832 1.25 326V16.3137C1.25 13.9931 2.17188 11.7675 3.81281 10.1265L10.1265 3.81281C11.7675 2.17187 13.9931 1.25 16.3137 1.25Z" stroke="white" stroke-opacity="0.08" stroke-width="1.5"/>
<g clip-path="url(#clip0_65_5532)">
<circle cx="179.5" cy="221.5" r="160.75" stroke="url(#paint0_linear_65_5532)" stroke-opacity="0.08" stroke-width="1.5"/>
<circle cx="179.5" cy="221.5" r="123.5" fill="white" fill-opacity="0.01"/>
<circle cx="179.5" cy="221.5" r="122.75" stroke="white" stroke-opacity="0.04" stroke-width="1.5"/>
<circle cx="179.5" cy="221.5" r="95.5" fill="white" fill-opacity="0.01"/>
<circle cx="179.5" cy="221.5" r="95.5" fill="url(#paint1_radial_65_5532)" fill-opacity="0.25"/>
<circle cx="179.5" cy="221.5" r="94.75" stroke="white" stroke-opacity="0.08" stroke-width="1.5"/>
<circle cx="179.5" cy="221.5" r="67.5" fill="white" fill-opacity="0.02"/>
<circle cx="179.5" cy="221.5" r="66.75" stroke="white" stroke-opacity="0.16" stroke-width="1.5"/>
<g opacity="0.16">
<path fill-rule="evenodd" clip-rule="evenodd" d="M179.5 191C196.346 191 210 204.654 210 221.5C210 238.346 196.346 252 179.5 252C162.654 252 149 238.346 149 221.5C149 204.654 162.654 191 179.5 191Z" stroke="white" stroke-width="2.5" stroke-linecap="round" stroke-linejoin="round"/>
<path fill-rule="evenodd" clip-rule="evenodd" d="M179.498 191C185.769 191 190.851 204.654 190.851 221.5C190.851 238.346 185.769 252 179.498 252C173.226 252 168.146 238.346 168.146 221.5C168.146 204.654 173.226 191 179.498 191Z" stroke="white" stroke-width="2.5" stroke-linecap="round" stroke-linejoin="round"/>
<path d="M152.438 207.415C157.579 209.001 163.165 210.079 168.908 210.683C175.889 211.415 183.094 211.415 190.107 210.683C195.851 210.079 201.436 209.001 206.577 207.415" stroke="white" stroke-width="2.5" stroke-linecap="round" stroke-linejoin="round"/>
<path d="M206.577 235.576C201.436 233.99 195.851 232.911 190.107 232.308C183.094 231.576 175.889 231.576 168.908 232.308C163.165 232.911 157.579 233.99 152.438 235.576" stroke="white" stroke-width="2.5" stroke-linecap="round" stroke-linejoin="round"/>
</g>
</g>
<defs>
<linearGradient id="paint0_linear_65_5532" x1="179.5" y1="60" x2="179.5" y2="383" gradientUnits="userSpaceOnUse">
<stop stop-color="white" stop-opacity="0"/>
<stop offset="0.495" stop-color="white"/>
<stop offset="1" stop-color="white" stop-opacity="0"/>
</linearGradient>
<radialGradient id="paint1_radial_65_5532" cx="0" cy="0" r="1" gradientUnits="userSpaceOnUse" gradientTransform="translate(179.5 217.019) rotate(46.8441) scale(139.623 139.334)">
<stop offset="0.3378" stop-color="white" stop-opacity="0"/>
<stop offset="1" stop-color="#E2E8FF" stop-opacity="0.04"/>
</radialGradient>
<clipPath id="clip0_65_5532">
<rect width="323" height="274" fill="white" transform="translate(18 60)"/>
</clipPath>
</defs>
</svg>
