<svg width="18" height="18" viewBox="0 0 18 18" fill="none" xmlns="http://www.w3.org/2000/svg">
<path opacity="0.5" d="M13.6061 6.55102H6.39394C5.28937 6.55102 4.39394 7.44645 4.39394 8.55102V11.449M13.6061 6.55102H15C16.1046 6.55102 17 7.44645 17 8.55102V15C17 16.1046 16.1046 17 15 17H6.39394C5.28937 17 4.39394 16.1046 4.39394 15V11.449M13.6061 6.55102V3C13.6061 1.89543 12.7106 1 11.6061 1H3C1.89543 1 1 1.89543 1 3V9.44898C1 10.5535 1.89543 11.449 3 11.449H4.39394" stroke="white" stroke-width="1.5"/>
</svg>
