<svg width="32" height="32" viewBox="0 0 32 32" fill="none" xmlns="http://www.w3.org/2000/svg">
<path d="M19.5915 12.4522C19.6035 12.2424 19.6153 12.0312 19.6153 11.8093C19.6153 7.51752 16.1419 4.04395 11.85 4.04395C7.57014 4.04395 4.08594 7.51752 4.08594 11.8093C4.08594 16.0891 7.57014 19.5734 11.85 19.5734C12.0732 19.5734 12.283 19.5614 12.4929 19.5507" stroke="#FB6306" stroke-width="2" stroke-linecap="round" stroke-linejoin="round"/>
<path fill-rule="evenodd" clip-rule="evenodd" d="M28.0001 20.1924C28.0001 15.9045 24.5252 12.4297 20.2373 12.4297C15.9508 12.4297 12.4746 15.9045 12.4746 20.1924C12.4746 24.4803 15.9508 27.9552 20.2373 27.9552C24.5252 27.9552 28.0001 24.4803 28.0001 20.1924Z" stroke="#FB6306" stroke-width="2" stroke-linecap="round" stroke-linejoin="round"/>
<path d="M4 21.8174C4.55391 24.4727 6.47732 26.6816 9.07155 27.573" stroke="#FB6306" stroke-width="2" stroke-linecap="round" stroke-linejoin="round"/>
<path d="M27.7062 9.95875C27.1524 7.30345 25.2289 5.09443 22.6348 4.20312" stroke="#FB6306" stroke-width="2" stroke-linecap="round" stroke-linejoin="round"/>
</svg>
