<svg width="24" height="24" viewBox="0 0 24 24" fill="none" xmlns="http://www.w3.org/2000/svg">
<g clip-path="url(#clip0_2518_477)">
<path fill-rule="evenodd" clip-rule="evenodd" d="M12.75 3C17.7209 3 21.75 7.02908 21.75 12C21.75 16.9709 17.7209 21 12.75 21C7.77908 21 3.75 16.9709 3.75 12C3.75 7.02908 7.77908 3 12.75 3Z" stroke="black" stroke-width="1.5" stroke-linecap="round" stroke-linejoin="round"/>
<path fill-rule="evenodd" clip-rule="evenodd" d="M12.7484 3C14.599 3 16.0983 7.02908 16.0983 12C16.0983 16.9709 14.599 21 12.7484 21C10.8978 21 9.39844 16.9709 9.39844 12C9.39844 7.02908 10.8978 3 12.7484 3Z" stroke="black" stroke-width="1.5" stroke-linecap="round" stroke-linejoin="round"/>
<path fill-rule="evenodd" clip-rule="evenodd" d="M21.75 11.9984C21.75 13.849 17.7209 15.3483 12.75 15.3483C7.77908 15.3483 3.75 13.849 3.75 11.9984C3.75 10.1478 7.77908 8.64844 12.75 8.64844C17.7209 8.64844 21.75 10.1478 21.75 11.9984Z" stroke="black" stroke-width="1.5" stroke-linecap="round" stroke-linejoin="round"/>
</g>
<defs>
<clipPath id="clip0_2518_477">
<rect width="24" height="24" fill="white"/>
</clipPath>
</defs>
</svg>
