<svg width="32" height="32" viewBox="0 0 32 32" fill="none" xmlns="http://www.w3.org/2000/svg">
<path d="M21.7466 4.65584C22.0234 4.57153 22.3138 4.73919 22.3793 5.02113L23.4422 9.6016C23.4748 9.74222 23.5666 9.86187 23.694 9.92979L27.8433 12.142C28.0987 12.2782 28.1855 12.6021 28.0324 12.8477L25.5451 16.8382C25.4687 16.9607 25.449 17.1102 25.4911 17.2483L26.8608 21.7466C26.9451 22.0234 26.7775 22.3138 26.4955 22.3793L21.9151 23.4422C21.7744 23.4748 21.6548 23.5666 21.5869 23.694L19.3747 27.8433C19.2385 28.0987 18.9146 28.1855 18.669 28.0324L14.6785 25.5451C14.556 25.4687 14.4065 25.449 14.2684 25.4911L9.77011 26.8608C9.49323 26.9451 9.20282 26.7775 9.1374 26.4955L8.07449 21.9151C8.04186 21.7744 7.95004 21.6548 7.82266 21.5869L3.67337 19.3747C3.41797 19.2385 3.33118 18.9146 3.48428 18.669L5.97157 14.6785C6.04793 14.556 6.06761 14.4065 6.02556 14.2684L4.65584 9.77011C4.57153 9.49323 4.73919 9.20282 5.02113 9.1374L9.6016 8.07449C9.74222 8.04186 9.86187 7.95004 9.92979 7.82266L12.142 3.67337C12.2782 3.41797 12.6021 3.33118 12.8477 3.48428L16.8382 5.97157C16.9607 6.04793 17.1102 6.06761 17.2483 6.02556L21.7466 4.65584Z" stroke="#FB6306" stroke-width="2" stroke-linejoin="round"/>
<path d="M12.7578 18.7578L18.7578 12.7578" stroke="#FB6306" stroke-width="2" stroke-linecap="round"/>
<circle cx="19.2578" cy="19.2578" r="1.5" fill="#FB6306"/>
<circle cx="12.2578" cy="12.2578" r="1.5" fill="#FB6306"/>
</svg>
