<svg width="24" height="24" viewBox="0 0 24 24" fill="none" xmlns="http://www.w3.org/2000/svg">
<g clip-path="url(#clip0_2518_482)">
<path d="M18.2988 6.53892L19.4468 5.48438" stroke="black" stroke-width="1.5" stroke-linecap="round" stroke-linejoin="round"/>
<path d="M18.6367 16.9375L19.8098 17.9641" stroke="black" stroke-width="1.5" stroke-linecap="round" stroke-linejoin="round"/>
<path d="M5.35166 6.53103L4.18945 5.49219" stroke="black" stroke-width="1.5" stroke-linecap="round" stroke-linejoin="round"/>
<path d="M6.15089 17.4492L4.98047 18.4788" stroke="black" stroke-width="1.5" stroke-linecap="round" stroke-linejoin="round"/>
<path d="M6.18609 12.5501L9.88937 3.51392C9.97249 3.28734 10.1882 3.13672 10.4295 3.13672H15.3941C15.7911 3.13672 16.0689 3.52943 15.9365 3.90381L13.7411 9.05654C13.6087 9.43092 13.8864 9.82363 14.2835 9.82363H18.9713C19.4658 9.82363 19.7299 10.4062 19.404 10.7781L10.5033 20.9376C10.1022 21.3954 9.35776 20.9983 9.51457 20.4102L11.2113 14.0472C11.3087 13.6819 11.0334 13.3236 10.6554 13.3236H6.72625C6.32628 13.3236 6.04835 12.9256 6.18609 12.5501Z" stroke="black" stroke-width="1.5" stroke-linecap="round" stroke-linejoin="round"/>
</g>
<defs>
<clipPath id="clip0_2518_482">
<rect width="24" height="24" fill="white"/>
</clipPath>
</defs>
</svg>
