<svg width="24" height="24" viewBox="0 0 24 24" fill="none" xmlns="http://www.w3.org/2000/svg">
<path d="M11.988 14.9463L13.6995 11.999H10.2969L12.0065 9.05078" stroke="black" stroke-width="1.5" stroke-linecap="round" stroke-linejoin="round"/>
<path d="M5.01953 15.0835C5.01953 17.3614 6.44501 18.9746 8.72967 18.9746H15.2675C17.5531 18.9746 18.9708 17.3614 18.9708 15.0835V8.92234C18.9708 6.63768 17.5531 5.02344 15.2675 5.02344H8.72967C6.45182 5.02344 5.01953 6.63768 5.01953 8.92234V15.0835Z" stroke="black" stroke-width="1.5" stroke-linecap="round" stroke-linejoin="round"/>
<path d="M9.61328 20.9975V18.9766M14.3872 20.9975V18.9766" stroke="black" stroke-width="1.5" stroke-linecap="round" stroke-linejoin="round"/>
<path d="M5.02097 9.61719H3M5.02097 14.3835H3" stroke="black" stroke-width="1.5" stroke-linecap="round" stroke-linejoin="round"/>
<path d="M9.61328 5.02487V3.00391M14.3872 5.02487V3.00391" stroke="black" stroke-width="1.5" stroke-linecap="round" stroke-linejoin="round"/>
<path d="M20.9976 9.61719H18.9688M20.9976 14.3835H18.9688" stroke="black" stroke-width="1.5" stroke-linecap="round" stroke-linejoin="round"/>
</svg>
