<svg width="32" height="32" viewBox="0 0 32 32" fill="none" xmlns="http://www.w3.org/2000/svg">
<path d="M12.834 19.2689L19.3637 12.7393" stroke="#FB6306" stroke-width="2" stroke-linecap="round" stroke-linejoin="round"/>
<path d="M19.2004 19.1646V19.2287M19.4603 19.1785C19.4603 19.3227 19.3432 19.4398 19.1988 19.4398C19.0544 19.4398 18.9375 19.3227 18.9375 19.1785C18.9375 19.0341 19.0544 18.917 19.1988 18.917C19.3432 18.917 19.4603 19.0341 19.4603 19.1785Z" stroke="#FB6306" stroke-width="2" stroke-linecap="round" stroke-linejoin="round"/>
<path d="M12.8489 12.8101V12.8742M13.1088 12.8239C13.1088 12.9683 12.9916 13.0853 12.8473 13.0853C12.7029 13.0853 12.5859 12.9683 12.5859 12.8239C12.5859 12.6795 12.7029 12.5625 12.8473 12.5625C12.9916 12.5625 13.1088 12.6795 13.1088 12.8239Z" stroke="#FB6306" stroke-width="2" stroke-linecap="round" stroke-linejoin="round"/>
<path d="M25.3853 15.9963C25.3853 15.0075 25.9347 14.1795 26.744 13.7557C27.2933 13.4674 27.5693 13.3233 27.6427 13.2641C27.8987 13.0578 27.9173 13.0258 27.9813 12.7034C28 12.6109 28 12.4557 28 12.1453C28 10.699 28 9.97583 27.8293 9.38556C27.416 7.96516 26.3053 6.85449 24.8853 6.44196C24.2947 6.27049 23.572 6.27051 22.1253 6.27051H9.876C8.43333 6.27051 7.71067 6.27051 7.12267 6.44117C5.69867 6.85384 4.58533 7.96783 4.17333 9.39223C4.004 9.98143 4.004 10.7032 4.00533 12.1466C4.00667 12.4552 4.00667 12.6096 4.024 12.7014C4.088 13.0237 4.10667 13.0548 4.36267 13.2613C4.436 13.3202 4.70933 13.4649 5.25733 13.7539C6.06533 14.1802 6.61333 15.0111 6.612 15.9986V16.0757C6.58 16.9998 6.05467 17.7911 5.29867 18.2053C4.712 18.5269 4.41865 18.6877 4.34665 18.7466C4.08799 18.9621 4.08133 18.9714 4.01733 19.3026C4 19.3931 4 19.5497 4 19.863C4 21.3023 4 22.0221 4.16933 22.6097C4.58133 24.0346 5.696 25.1487 7.12133 25.5605C7.708 25.7303 8.428 25.7303 9.868 25.7303H22.1253C23.5707 25.7303 24.2933 25.7303 24.884 25.559C26.3053 25.1465 27.416 24.0353 27.828 22.6141C28 22.0241 28 21.3011 27.9987 19.8554C27.9987 19.5453 27.9987 19.3903 27.9813 19.2981C27.9173 18.9755 27.8987 18.9449 27.6427 18.7381C27.5693 18.679 27.2947 18.5338 26.744 18.2437C25.9333 17.8171 25.3853 16.9846 25.3853 15.9963Z" stroke="#FB6306" stroke-width="2" stroke-linecap="round" stroke-linejoin="round"/>
</svg>
