<svg width="24" height="24" viewBox="0 0 24 24" fill="none" xmlns="http://www.w3.org/2000/svg">
<path fill-rule="evenodd" clip-rule="evenodd" d="M16.0234 4.93407V6.95713C16.0234 7.66138 16.5222 8.10409 17.2292 8.10409H19.1346C19.8407 8.10409 20.3404 7.66418 20.3404 6.95713V4.93407C20.3404 4.22703 19.8407 3.78711 19.1346 3.78711H17.2292C16.5222 3.78711 16.0234 4.22703 16.0234 4.93407Z" stroke="black" stroke-width="1.44" stroke-linecap="round" stroke-linejoin="round"/>
<path fill-rule="evenodd" clip-rule="evenodd" d="M3.05859 4.93407V6.95713C3.05859 7.66138 3.55735 8.10409 4.26439 8.10409H6.16977C6.87588 8.10409 7.37558 7.66418 7.37558 6.95713V4.93407C7.37558 4.22703 6.87588 3.78711 6.16977 3.78711H4.26439C3.55735 3.78711 3.05859 4.22703 3.05859 4.93407Z" stroke="black" stroke-width="1.44" stroke-linecap="round" stroke-linejoin="round"/>
<path fill-rule="evenodd" clip-rule="evenodd" d="M16.0234 17.897V19.92C16.0234 20.6243 16.5222 21.067 17.2292 21.067H19.1346C19.8407 21.067 20.3404 20.6271 20.3404 19.92V17.897C20.3404 17.1899 19.8407 16.75 19.1346 16.75H17.2292C16.5222 16.75 16.0234 17.1899 16.0234 17.897Z" stroke="black" stroke-width="1.44" stroke-linecap="round" stroke-linejoin="round"/>
<path fill-rule="evenodd" clip-rule="evenodd" d="M3.05859 17.897V19.92C3.05859 20.6243 3.55735 21.067 4.26439 21.067H6.16977C6.87588 21.067 7.37558 20.6271 7.37558 19.92V17.897C7.37558 17.1899 6.87588 16.75 6.16977 16.75H4.26439C3.55735 16.75 3.05859 17.1899 3.05859 17.897Z" stroke="black" stroke-width="1.44" stroke-linecap="round" stroke-linejoin="round"/>
<path d="M7.3953 5.92969H16.0284M7.3953 18.9091H16.0284M5.25 8.10509V16.7512M18.1784 8.10509V16.7512" stroke="black" stroke-width="1.44" stroke-linecap="round" stroke-linejoin="round"/>
<path d="M11.2884 14.8861L9.23919 14.8858L9.23828 12.8359" stroke="black" stroke-width="1.44" stroke-linecap="round" stroke-linejoin="round"/>
<path d="M12.1094 9.96875H14.1593L14.1596 12.018" stroke="black" stroke-width="1.44" stroke-linecap="round" stroke-linejoin="round"/>
</svg>
