<svg width="24" height="24" viewBox="0 0 24 24" fill="none" xmlns="http://www.w3.org/2000/svg">
<path d="M12.006 3.02344V3.0541M5.91564 5.55592L5.93423 5.5745M18.0779 5.57434L18.1216 5.53066M12.006 20.2818V20.2512M5.91564 17.7493L5.93423 17.7307M3.40677 11.6585H3.35938M20.6394 11.6585H20.5985M18.0779 17.7309L18.1216 17.7746" stroke="black" stroke-width="1.44" stroke-linecap="round" stroke-linejoin="round"/>
<path fill-rule="evenodd" clip-rule="evenodd" d="M11.9988 5.89062C15.1803 5.89062 17.7583 8.46974 17.7583 11.65C17.7583 14.8315 15.1803 17.4106 11.9988 17.4106C8.81741 17.4106 6.23828 14.8315 6.23828 11.65C6.23828 8.46974 8.81741 5.89062 11.9988 5.89062Z" stroke="black" stroke-width="1.44" stroke-linecap="round" stroke-linejoin="round"/>
<path d="M11.9887 14.5315L13.8513 11.6523H10.1484L12.0091 8.77148" stroke="black" stroke-width="1.44" stroke-linecap="round" stroke-linejoin="round"/>
</svg>
