<svg width="24" height="24" viewBox="0 0 24 24" fill="none" xmlns="http://www.w3.org/2000/svg">
<path d="M3.67969 17.1122L6.52391 17.7698L7.17774 14.9414" stroke="black" stroke-width="1.44" stroke-linecap="round" stroke-linejoin="round"/>
<path d="M20.959 6.8861L18.1147 6.22852L17.4609 9.05685" stroke="black" stroke-width="1.44" stroke-linecap="round" stroke-linejoin="round"/>
<path d="M6.53218 17.5295C3.5133 14.406 3.53385 9.42656 6.60878 6.32827C8.53388 4.38729 11.2072 3.63912 13.7085 4.08653" stroke="black" stroke-width="1.44" stroke-linecap="round" stroke-linejoin="round"/>
<path d="M18.11 6.46875C21.1289 9.59224 21.1083 14.5717 18.0334 17.67C16.1083 19.611 13.4351 20.3592 10.9336 19.9117" stroke="black" stroke-width="1.44" stroke-linecap="round" stroke-linejoin="round"/>
<path fill-rule="evenodd" clip-rule="evenodd" d="M14.8541 12.9719C14.1657 13.595 13.3064 14.1564 12.3602 14.5374C11.5551 14.855 10.8797 14.459 10.7808 13.665C10.6602 12.4946 10.6631 11.3756 10.7808 10.3295C10.889 9.50471 11.6326 9.15538 12.3602 9.46081C13.2914 9.84284 14.1274 10.3603 14.8541 11.0263C15.4754 11.5886 15.4894 12.3881 14.8541 12.9719Z" stroke="black" stroke-width="1.44" stroke-linecap="round" stroke-linejoin="round"/>
</svg>
