<svg width="24" height="24" viewBox="0 0 24 24" fill="none" xmlns="http://www.w3.org/2000/svg">
<g clip-path="url(#clip0_1014_2747)">
<path d="M5.84077 7.33893L4.42577 8.75393L3.00977 7.33893" stroke="#FB6306" stroke-width="1.5" stroke-linecap="round" stroke-linejoin="round"/>
<path d="M4.42578 8.67382V6.53782C4.42578 4.58382 6.00978 2.99982 7.96378 2.99982" stroke="#FB6306" stroke-width="1.5" stroke-linecap="round" stroke-linejoin="round"/>
<path fill-rule="evenodd" clip-rule="evenodd" d="M20.6475 6.95801C20.6475 4.77201 18.8755 3.00001 16.6895 3C14.5035 3 12.7305 4.772 12.7305 6.958C12.7305 9.144 14.5035 10.916 16.6895 10.916C18.8755 10.916 20.6475 9.14401 20.6475 6.95801Z" stroke="#FB6306" stroke-width="1.5" stroke-linecap="round" stroke-linejoin="round"/>
<path fill-rule="evenodd" clip-rule="evenodd" d="M3.35352 17.042C3.35352 19.228 5.12552 21 7.31152 21C9.49752 21 11.2705 19.228 11.2705 17.042C11.2705 14.856 9.49753 13.084 7.31153 13.084C5.12553 13.084 3.35353 14.856 3.35352 17.042Z" stroke="#FB6306" stroke-width="1.5" stroke-linecap="round" stroke-linejoin="round"/>
<path d="M18.1602 16.6591L19.5752 15.2441L20.9912 16.6591" stroke="#FB6306" stroke-width="1.5" stroke-linecap="round" stroke-linejoin="round"/>
<path d="M19.5751 15.3242V17.4602C19.5751 19.4142 17.9911 20.9982 16.0371 20.9982" stroke="#FB6306" stroke-width="1.5" stroke-linecap="round" stroke-linejoin="round"/>
</g>
<defs>
<clipPath id="clip0_1014_2747">
<rect width="24" height="24" fill="white"/>
</clipPath>
</defs>
</svg>
