<svg width="24" height="24" viewBox="0 0 24 24" fill="none" xmlns="http://www.w3.org/2000/svg">
<path fill-rule="evenodd" clip-rule="evenodd" d="M13.0726 4.40709L14.8463 7.95044C15.0201 8.29829 15.3556 8.5395 15.7447 8.59532L19.7124 9.16644C20.6928 9.30797 21.0829 10.4961 20.3734 11.1768L17.5042 13.9338C17.2223 14.2049 17.0939 14.5946 17.1606 14.9773L17.8377 18.8695C18.0045 19.8324 16.9797 20.567 16.1035 20.1114L12.5572 18.2725C12.2095 18.0921 11.7932 18.0921 11.4445 18.2725L7.89821 20.1114C7.022 20.567 5.99722 19.8324 6.16499 18.8695L6.8411 14.9773C6.9078 14.5946 6.77945 14.2049 6.49748 13.9338L3.62831 11.1768C2.91885 10.4961 3.30895 9.30797 4.28926 9.16644L8.25699 8.59532C8.64608 8.5395 8.98262 8.29829 9.15644 7.95044L10.9291 4.40709C11.3677 3.53097 12.634 3.53097 13.0726 4.40709Z" stroke="black" stroke-width="1.5" stroke-linecap="round" stroke-linejoin="round"/>
</svg>
