<svg width="32" height="32" viewBox="0 0 32 32" fill="none" xmlns="http://www.w3.org/2000/svg">
<path d="M15.9985 3.99219C18.6104 3.99219 21.1446 4.87973 23.1858 6.50926C25.2271 8.13879 26.6539 10.4136 27.2323 12.9606C27.8109 15.5075 27.5067 18.1754 26.3698 20.5269C25.2328 22.8783 23.3306 24.7736 20.975 25.9018C18.6196 27.0301 15.9505 27.3245 13.4056 26.7366C10.8608 26.1488 8.59128 24.7135 6.96927 22.6664C5.34724 20.6193 4.46901 18.0817 4.47859 15.4699C4.48818 12.858 5.38501 10.327 7.02203 8.29187" stroke="#FB6306" stroke-width="1.92" stroke-linecap="round"/>
<path d="M16.0009 8.47168C14.6391 8.47168 13.3065 8.86665 12.1647 9.60872C11.0229 10.3508 10.1207 11.4081 9.56767 12.6525C9.01461 13.897 8.83434 15.2751 9.04872 16.62C9.26309 17.9647 9.8629 19.2185 10.7755 20.2293C11.688 21.2401 12.8742 21.9646 14.1901 22.3148C15.5061 22.6652 16.8955 22.6261 18.1897 22.2028C19.4841 21.7794 20.6278 20.9896 21.4824 19.9294C22.3369 18.8691 22.8656 17.5837 23.0043 16.2289" stroke="#FB6306" stroke-width="1.92" stroke-linecap="round"/>
<path d="M15.9992 18.0722C16.4943 18.0722 16.9789 17.9285 17.3941 17.6587C17.8093 17.3888 18.1374 17.0043 18.3385 16.5518C18.5396 16.0994 18.6051 15.5982 18.5272 15.1092C18.4492 14.6202 18.2311 14.1643 17.8993 13.7966C17.5674 13.4292 17.1361 13.1657 16.6576 13.0382C16.179 12.9109 15.6738 12.9251 15.2031 13.0791" stroke="#FB6306" stroke-width="1.92" stroke-linecap="round"/>
</svg>
