<svg width="24" height="24" viewBox="0 0 24 24" fill="none" xmlns="http://www.w3.org/2000/svg">
<path fill-rule="evenodd" clip-rule="evenodd" d="M7.37808 7.62039C5.23766 7.63984 3.50781 9.07782 3.50781 11.5266C3.50781 13.1106 4.45057 14.4736 5.80584 15.0856C6.37597 15.3171 6.94416 15.4057 7.37516 15.4057H16.613C17.045 15.4057 17.6142 15.321 18.1921 15.0904C19.5464 14.4775 20.4862 13.1106 20.4862 11.5266C20.4862 9.07782 18.7574 7.63984 16.6169 7.62039C16.6169 6.08026 15.4086 3 11.9975 3C8.58644 3 7.37808 6.08026 7.37808 7.62039Z" stroke="black" stroke-width="1.5" stroke-linecap="round" stroke-linejoin="round"/>
<path fill-rule="evenodd" clip-rule="evenodd" d="M13.4782 19.5198C13.4782 20.3381 12.8146 21.0016 11.9964 21.0016C11.1782 21.0016 10.5156 20.3381 10.5156 19.5198C10.5156 18.7016 11.1782 18.0391 11.9964 18.0391C12.8146 18.0391 13.4782 18.7016 13.4782 19.5198Z" stroke="black" stroke-width="1.5" stroke-linecap="round" stroke-linejoin="round"/>
<path d="M17.7557 19.5195H13.4603M10.5328 19.5195H6.24609" stroke="black" stroke-width="1.5" stroke-linecap="round" stroke-linejoin="round"/>
<path d="M12 18.0322V15.4219" stroke="black" stroke-width="1.5" stroke-linecap="round" stroke-linejoin="round"/>
</svg>
