<svg width="24" height="24" viewBox="0 0 24 24" fill="none" xmlns="http://www.w3.org/2000/svg">
<g clip-path="url(#clip0_2709_3957)">
<path fill-rule="evenodd" clip-rule="evenodd" d="M7.802 21H5.198C3.984 21 3 20.016 3 18.802V18.198C3 16.984 3.984 16 5.198 16H7.802C9.016 16 10 16.984 10 18.198V18.802C10 20.016 9.016 21 7.802 21Z" stroke="black" stroke-width="1.5" stroke-linecap="round" stroke-linejoin="round"/>
<path fill-rule="evenodd" clip-rule="evenodd" d="M18.802 8H16.198C14.984 8 14 7.016 14 5.802V5.198C14 3.984 14.984 3 16.198 3H18.802C20.016 3 21 3.984 21 5.198V5.802C21 7.016 20.016 8 18.802 8Z" stroke="black" stroke-width="1.5" stroke-linecap="round" stroke-linejoin="round"/>
<path fill-rule="evenodd" clip-rule="evenodd" d="M18.802 21H16.198C14.984 21 14 20.016 14 18.802V14.198C14 12.984 14.984 12 16.198 12H18.802C20.016 12 21 12.984 21 14.198V18.802C21 20.016 20.016 21 18.802 21Z" stroke="black" stroke-width="1.5" stroke-linecap="round" stroke-linejoin="round"/>
<path fill-rule="evenodd" clip-rule="evenodd" d="M7.802 12H5.198C3.984 12 3 11.016 3 9.802V5.198C3 3.984 3.984 3 5.198 3H7.802C9.016 3 10 3.984 10 5.198V9.802C10 11.016 9.016 12 7.802 12Z" stroke="black" stroke-width="1.5" stroke-linecap="round" stroke-linejoin="round"/>
</g>
<defs>
<clipPath id="clip0_2709_3957">
<rect width="24" height="24" fill="white"/>
</clipPath>
</defs>
</svg>
