<svg width="24" height="24" viewBox="0 0 24 24" fill="none" xmlns="http://www.w3.org/2000/svg">
<path d="M8.78033 10.7197C8.48744 10.4268 8.01256 10.4268 7.71967 10.7197C7.42678 11.0126 7.42678 11.4874 7.71967 11.7803L10.465 14.5256C10.7579 14.8185 11.2328 14.8185 11.5256 14.5256L16.521 9.53033C16.8139 9.23744 16.8139 8.76256 16.521 8.46967C16.2281 8.17678 15.7532 8.17678 15.4603 8.46967L10.9953 12.9347L8.78033 10.7197ZM5.58733 17.2979L5.58721 17.2978C4.41079 16.1208 3.75 14.5242 3.75 12.8586V4.21267C3.75 3.9409 3.91747 3.69738 4.17126 3.59995C4.17133 3.59992 4.17139 3.5999 4.17145 3.59987L11.2633 0.886139C11.2633 0.886134 11.2633 0.886129 11.2634 0.886124C11.7372 0.704846 12.2602 0.704595 12.7332 0.885553L12.7332 0.885563L19.8292 3.60011L19.8292 3.60013C20.0821 3.69684 20.25 3.94034 20.25 4.21267V12.8575C20.25 14.5228 19.5888 16.1201 18.4122 17.2978C18.4122 17.2978 18.4121 17.2979 18.4121 17.2979L12.792 22.9207L12.7918 22.9208C12.3534 23.3597 11.6437 23.3597 11.2052 22.9208L5.58733 17.2979Z" stroke="black" stroke-width="1.5" stroke-linecap="round" stroke-linejoin="round"/>
</svg>
