<svg width="24" height="24" viewBox="0 0 24 24" fill="none" xmlns="http://www.w3.org/2000/svg">
<path d="M10.7734 13.4731C10.7734 12.5196 11.546 11.7461 12.5004 11.7461C13.4539 11.7461 14.2274 12.5196 14.2274 13.4731V19.2739C14.2274 20.2284 13.4539 21.0009 12.5004 21.0009C11.546 21.0009 10.7734 20.2284 10.7734 19.2739V13.4731Z" stroke="black" stroke-width="1.5" stroke-linecap="round" stroke-linejoin="round"/>
<path fill-rule="evenodd" clip-rule="evenodd" d="M5.85591 20.9994C4.90241 20.9994 4.12891 20.2268 4.12891 19.2724V15.9623C4.12891 15.0079 4.90241 14.2344 5.85591 14.2344C6.81039 14.2344 7.58291 15.0079 7.58291 15.9623V19.2724C7.58291 20.2268 6.81039 20.9994 5.85591 20.9994Z" stroke="black" stroke-width="1.5" stroke-linecap="round" stroke-linejoin="round"/>
<path d="M20.8681 17.7702V9.26216C20.8681 8.30866 20.0946 7.53516 19.1411 7.53516C18.1866 7.53516 17.4141 8.30866 17.4141 9.26216V19.2729C17.4141 20.2274 18.1866 20.9999 19.1411 20.9999C20.0946 20.9999 20.8681 20.2274 20.8681 19.2729V17.7702Z" stroke="black" stroke-width="1.5" stroke-linecap="round" stroke-linejoin="round"/>
<path d="M4.13281 10.5696L9.95013 6.41216L12.1325 8.71126L19.1261 3" stroke="black" stroke-width="1.5" stroke-linecap="round" stroke-linejoin="round"/>
</svg>
