<svg width="24" height="24" viewBox="0 0 24 24" fill="none" xmlns="http://www.w3.org/2000/svg">
<path d="M5.42578 5.60352V9.07356C5.42578 9.07356 5.42578 11.6759 12.0012 11.6759C18.5766 11.6759 18.5766 9.07356 18.5766 9.07356V5.60352" stroke="black" stroke-width="1.5" stroke-linecap="round" stroke-linejoin="round"/>
<path d="M5.42578 9.07227V12.5419C5.42578 12.5419 5.42578 15.1456 12.0012 15.1456C18.5766 15.1456 18.5766 12.5419 18.5766 12.5419V9.07227" stroke="black" stroke-width="1.5" stroke-linecap="round" stroke-linejoin="round"/>
<path d="M11.9973 8.1949C15.6288 8.1949 18.5727 7.03198 18.5727 5.59745C18.5727 4.16292 15.6288 3 11.9973 3C8.36578 3 5.42188 4.16292 5.42188 5.59745C5.42188 7.03198 8.36578 8.1949 11.9973 8.1949Z" stroke="black" stroke-width="1.5" stroke-linecap="round" stroke-linejoin="round"/>
<path fill-rule="evenodd" clip-rule="evenodd" d="M13.5954 19.4032C13.5954 20.2847 12.8803 20.9998 11.9989 20.9998C11.1174 20.9998 10.4023 20.2847 10.4023 19.4032C10.4023 18.5217 11.1174 17.8066 11.9989 17.8066C12.8803 17.8066 13.5954 18.5217 13.5954 19.4032Z" stroke="black" stroke-width="1.5" stroke-linecap="round" stroke-linejoin="round"/>
<path d="M18.2021 19.4023H13.5738M10.4193 19.4023H5.80078" stroke="black" stroke-width="1.5" stroke-linecap="round" stroke-linejoin="round"/>
<path d="M12 17.8015V15.1582" stroke="black" stroke-width="1.5" stroke-linecap="round" stroke-linejoin="round"/>
</svg>
