<svg width="24" height="24" viewBox="0 0 24 24" fill="none" xmlns="http://www.w3.org/2000/svg">
<path d="M18.5608 20.8889C19.9901 20.8889 21 19.9986 21 18.5684V16.3879C21 14.9615 19.9901 14.0674 18.5608 14.0674M5.43924 20.8889C4.00995 20.8889 3 19.9986 3 18.5684V16.3879C3 14.9577 4.00995 14.0674 5.43924 14.0674" stroke="#FB6306" stroke-width="1.5" stroke-linecap="round" stroke-linejoin="round"/>
<path d="M10 15.8508L12.0006 14L14 15.8508" stroke="#FB6306" stroke-width="1.5" stroke-linecap="round" stroke-linejoin="round"/>
<path d="M12 14.001V21.2229" stroke="#FB6306" stroke-width="1.5" stroke-linecap="round" stroke-linejoin="round"/>
<path d="M21 5.43187V7.6123C21 9.04257 19.9901 9.93284 18.5608 9.93284H5.43924C4.00995 9.93284 3 9.04257 3 7.6123V5.43187C3 4.0016 4.00995 3.11133 5.43924 3.11133H18.5608C19.9901 3.11133 21 4.00549 21 5.43187Z" stroke="#FB6306" stroke-width="1.5" stroke-linecap="round" stroke-linejoin="round"/>
<path d="M11.2469 6.52246H6.69141" stroke="#FB6306" stroke-width="1.5" stroke-linecap="round" stroke-linejoin="round"/>
</svg>
