<svg width="24" height="24" viewBox="0 0 24 24" fill="none" xmlns="http://www.w3.org/2000/svg">
<path d="M10.7918 10.1259C8.38275 9.57496 7.4546 6.49517 7.4546 6.49517C5.73007 7.65485 1.72003 14.8482 6.92616 18.9886C11.85 22.9045 19.7966 19.4496 18.8296 12.8723C18.2118 8.671 15.8112 7.83443 13.2223 3.35938C10.5904 6.49517 10.7918 10.1259 10.7918 10.1259Z" stroke="black" stroke-width="1.44" stroke-linecap="round" stroke-linejoin="round"/>
<path d="M11.9315 16.1762C13.0215 15.927 13.5192 14.2411 13.5192 14.2411C14.2994 14.7658 16.1137 18.0204 13.7582 19.8937C11.5304 21.6655 7.9349 20.1023 8.37245 17.1264C8.65195 15.2255 9.7382 14.847 10.9095 12.8223C12.1003 14.241 11.9315 16.1762 11.9315 16.1762Z" stroke="black" stroke-width="1.44" stroke-linecap="round" stroke-linejoin="round"/>
</svg>
