<svg width="32" height="32" viewBox="0 0 32 32" fill="none" xmlns="http://www.w3.org/2000/svg">
<path fill-rule="evenodd" clip-rule="evenodd" d="M8.63059 21.5423C11.1641 20.8898 15.1779 20.0998 19.9725 19.9974C21.9859 19.9533 23.3168 17.8971 22.4827 16.0641L18.9347 8.265C17.6569 5.45644 15.2323 5.11006 13.8753 6.60061C10.6452 10.1499 7.40857 12.6575 5.25255 14.1377C3.8593 15.0937 3.70751 16.7607 4.40803 18.2993L4.92952 19.4473C5.63133 20.9898 6.98956 21.9653 8.63059 21.5423Z" stroke="#FB6306" stroke-width="2" stroke-linecap="round" stroke-linejoin="round"/>
<path d="M15.0524 20.3369L16.84 24.2624C17.3551 25.3962 16.8556 26.7532 15.7023 27.2773C14.5595 27.7974 13.2077 27.2837 12.6914 26.1486L10.4043 21.123" stroke="#FB6306" stroke-width="2" stroke-linecap="round" stroke-linejoin="round"/>
<path d="M7.35156 12.6494L9.12102 16.5399" stroke="#FB6306" stroke-width="2" stroke-linecap="round" stroke-linejoin="round"/>
<path d="M27.2021 14.4361C28.1596 12.6225 28.2957 10.4016 27.3812 8.39086C26.4433 6.32953 24.6141 4.95573 22.5566 4.51855" stroke="#FB6306" stroke-width="2" stroke-linecap="round" stroke-linejoin="round"/>
<path d="M24.237 12.9756C24.6185 12.0286 24.6262 10.9337 24.1709 9.93096C23.7273 8.95803 22.9308 8.25621 22.002 7.91113" stroke="#FB6306" stroke-width="2" stroke-linecap="round" stroke-linejoin="round"/>
</svg>
