<svg width="16" height="16" viewBox="0 0 16 16" fill="none" xmlns="http://www.w3.org/2000/svg">
<path fill-rule="evenodd" clip-rule="evenodd" d="M16 8C16 12.4183 12.4183 16 8 16C3.58172 16 0 12.4183 0 8C0 3.58172 3.58172 0 8 0C12.4183 0 16 3.58172 16 8ZM5.43019 8.6782L3.47779 8.04207C3.47779 8.04207 3.24446 7.9474 3.31959 7.73274C3.33506 7.68847 3.36626 7.6508 3.45959 7.58607C3.89219 7.28454 11.4667 4.56207 11.4667 4.56207C11.4667 4.56207 11.6805 4.49 11.8067 4.53794C11.8379 4.54759 11.8659 4.56537 11.888 4.58944C11.9101 4.61351 11.9254 4.64302 11.9323 4.67494C11.946 4.73131 11.9517 4.78932 11.9493 4.84727C11.9489 4.87798 11.9465 4.90732 11.9436 4.9422L11.9436 4.94222C11.9418 4.96427 11.9398 4.98852 11.938 5.01674C11.8919 5.76107 10.5113 11.3163 10.5113 11.3163C10.5113 11.3163 10.4287 11.6413 10.1328 11.6525C10.0601 11.6548 9.98761 11.6425 9.91975 11.6162C9.85189 11.59 9.79001 11.5503 9.73779 11.4997C9.42603 11.2315 8.70316 10.7185 8.0318 10.255C7.82911 10.4254 7.42313 10.7765 7.0045 11.1952C6.4113 11.7885 6.48757 11.1952 6.48757 11.1952L6.66977 9.25878L6.6747 9.2617C6.683 9.24131 6.69773 9.22453 6.69773 9.22453C6.69773 9.22453 10.1928 6.11787 10.2858 5.79174C10.293 5.76647 10.2658 5.754 10.2293 5.76507C9.99735 5.85039 5.98065 8.3869 5.53014 8.6714L5.52886 8.6722C5.49689 8.68187 5.4631 8.68393 5.43019 8.6782Z" fill="black"/>
</svg>
