<svg width="16" height="16" viewBox="0 0 16 16" fill="none" xmlns="http://www.w3.org/2000/svg">
<path fill-rule="evenodd" clip-rule="evenodd" d="M8.01641 14.545V13.5752C11.0883 13.5663 13.5757 11.0739 13.5757 7.99978C13.5757 4.92587 11.0883 2.43344 8.01641 2.42457V1.45479C11.6239 1.46388 14.5452 4.39031 14.5452 7.99978C14.5452 11.6095 11.6239 14.5361 8.01641 14.545ZM8.01641 11.1506C9.74907 11.1415 11.1515 9.73488 11.1515 7.99978C11.1515 6.2649 9.74907 4.85824 8.01641 4.84914V3.87958C10.2849 3.88845 12.1213 5.72933 12.1213 7.99978C12.1213 10.2704 10.2849 12.1113 8.01641 12.1202V11.1506ZM8.01641 6.30371C8.94583 6.31258 9.69696 7.06814 9.69696 7.99978C9.69696 8.93164 8.94583 9.6872 8.01641 9.69607V6.30371ZM0 7.99978C0 12.4183 3.58153 16 8 16C12.4183 16 16 12.4183 16 7.99978C16 3.58153 12.4183 0 8 0C3.58153 0 0 3.58153 0 7.99978Z" fill="black"/>
</svg>
