<svg width="20" height="20" viewBox="0 0 20 20" fill="none" xmlns="http://www.w3.org/2000/svg">
<path d="M14.9062 9.07849C16.0688 8.91516 16.9638 7.91849 16.9663 6.71099C16.9663 5.52099 16.0988 4.53432 14.9612 4.34766" stroke="#FB6306" stroke-width="1.5" stroke-linecap="round" stroke-linejoin="round"/>
<path d="M16.4414 11.875C17.5672 12.0433 18.3531 12.4375 18.3531 13.25C18.3531 13.8092 17.9831 14.1725 17.3847 14.4008" stroke="#FB6306" stroke-width="1.5" stroke-linecap="round" stroke-linejoin="round"/>
<path fill-rule="evenodd" clip-rule="evenodd" d="M9.90724 12.2188C7.22891 12.2188 4.94141 12.6246 4.94141 14.2454C4.94141 15.8654 7.21474 16.2829 9.90724 16.2829C12.5856 16.2829 14.8722 15.8812 14.8722 14.2596C14.8722 12.6379 12.5997 12.2188 9.90724 12.2188Z" stroke="#FB6306" stroke-width="1.5" stroke-linecap="round" stroke-linejoin="round"/>
<path fill-rule="evenodd" clip-rule="evenodd" d="M9.9052 9.90797C11.6627 9.90797 13.0877 8.4838 13.0877 6.72547C13.0877 4.96797 11.6627 3.54297 9.9052 3.54297C8.1477 3.54297 6.72268 4.96797 6.72268 6.72547C6.71604 8.47714 8.1302 9.90214 9.88187 9.90797H9.9052Z" stroke="#FB6306" stroke-width="1.5" stroke-linecap="round" stroke-linejoin="round"/>
<path d="M4.90766 9.07849C3.74432 8.91516 2.85016 7.91849 2.84766 6.71099C2.84766 5.52099 3.71516 4.53432 4.85266 4.34766" stroke="#FB6306" stroke-width="1.5" stroke-linecap="round" stroke-linejoin="round"/>
<path d="M3.3726 11.875C2.24677 12.0433 1.46094 12.4375 1.46094 13.25C1.46094 13.8092 1.83094 14.1725 2.42927 14.4008" stroke="#FB6306" stroke-width="1.5" stroke-linecap="round" stroke-linejoin="round"/>
</svg>
