<svg width="83" height="44" viewBox="0 0 83 44" fill="none" xmlns="http://www.w3.org/2000/svg">
<g clip-path="url(#clip0_65_9959)">
<path d="M27.1139 29.2305H23.4746V43.7169H27.1139V29.2305Z" fill="white"/>
<path d="M56.4596 33.3817C56.3132 33.3053 55.1431 32.6083 53.4024 32.6083C51.045 32.6083 49.4138 34.2536 49.4138 36.4722C49.4138 38.6247 50.977 40.3395 53.4024 40.3395C55.1131 40.3395 56.3028 39.6575 56.4596 39.5707V43.4589C56.0077 43.5874 54.7662 43.9742 53.1407 43.9742C49.0495 43.9742 45.4609 41.1396 45.4609 36.4722C45.4609 32.1463 48.7118 28.9736 53.1407 28.9736C54.8538 28.9736 56.1172 29.3916 56.4596 29.4935V33.3817Z" fill="white"/>
<path d="M18.4713 33.3817C18.3249 33.3053 17.1548 32.6083 15.4141 32.6083C13.0567 32.6083 11.4255 34.2536 11.4255 36.4722C11.4255 38.6247 12.9887 40.3395 15.4141 40.3395C17.1249 40.3395 18.3145 39.6575 18.4713 39.5707V43.4589C18.0194 43.5874 16.7779 43.9742 15.1525 43.9742C11.0613 43.9742 7.47266 41.1396 7.47266 36.4722C7.47266 32.1463 10.7235 28.9736 15.1525 28.9736C16.8655 28.9736 18.1289 29.3916 18.4713 29.4935V33.3817Z" fill="white"/>
<path d="M67.9094 32.6627C65.7502 32.6627 64.1467 34.3694 64.1467 36.4722C64.1467 38.5795 65.7502 40.2851 67.9094 40.2851C70.0662 40.2851 71.6743 38.5795 71.6743 36.4722C71.6743 34.3694 70.0662 32.6627 67.9094 32.6627ZM75.5304 36.4722C75.5304 40.6163 72.3453 43.9742 67.9094 43.9742C63.4735 43.9742 60.293 40.6163 60.293 36.4722C60.293 32.335 63.4735 28.9736 67.9094 28.9736C72.3453 28.9736 75.5304 32.335 75.5304 36.4722Z" fill="white"/>
<path d="M40.9174 32.5243C40.8633 32.5069 39.3312 32.082 38.0724 32.082C36.6141 32.082 35.821 32.5729 35.821 33.2688C35.821 34.1511 36.8908 34.4591 37.4891 34.649L38.4931 34.9698C40.8552 35.7247 41.9319 37.3492 41.9319 39.1139C41.9319 42.7531 38.7456 43.9759 35.9605 43.9759C34.025 43.9759 32.2117 43.6181 32.033 43.5799V40.2463C32.3535 40.3273 33.8797 40.7847 35.4694 40.7847C37.2804 40.7847 38.1127 40.2532 38.1127 39.4323C38.1127 38.6982 37.3922 38.2744 36.4896 37.9895C36.2694 37.9154 35.9386 37.8112 35.7126 37.7371C33.6861 37.0933 31.9961 35.8972 31.9961 33.4992C31.9961 30.7898 34.0158 28.9707 37.3703 28.9707C39.1422 28.9707 40.8091 29.4026 40.9174 29.4315V32.5243Z" fill="white"/>
<path d="M3.61396 13.6629C3.61396 12.6648 2.8024 11.8555 1.80756 11.8555C0.812708 11.8555 0 12.6648 0 13.6629V17.4655C0 18.4694 0.812708 19.2799 1.80756 19.2799C2.8024 19.2799 3.61396 18.4694 3.61396 17.4655V13.6629Z" fill="white"/>
<path d="M13.5378 8.67112C13.5378 7.67301 12.7262 6.86133 11.7314 6.86133C10.7354 6.86133 9.92383 7.67301 9.92383 8.67112V17.4653C9.92383 18.4692 10.7354 19.2786 11.7314 19.2786C12.7262 19.2786 13.5378 18.4692 13.5378 17.4653V8.67112Z" fill="white"/>
<path d="M23.4636 1.84281C23.4636 0.844706 22.652 0.0341797 21.6572 0.0341797C20.6612 0.0341797 19.8496 0.844706 19.8496 1.84281V21.0789C19.8496 22.0828 20.6612 22.8933 21.6572 22.8933C22.652 22.8933 23.4636 22.0828 23.4636 21.0789V1.84281Z" fill="white"/>
<path d="M33.3874 8.67112C33.3874 7.67301 32.5758 6.86133 31.581 6.86133C30.585 6.86133 29.7734 7.67301 29.7734 8.67112V17.4653C29.7734 18.4692 30.585 19.2786 31.581 19.2786C32.5758 19.2786 33.3874 18.4692 33.3874 17.4653V8.67112Z" fill="white"/>
<path d="M43.3016 13.6629C43.3016 12.6648 42.4959 11.8555 41.5056 11.8555C40.5108 11.8555 39.6992 12.6648 39.6992 13.6629V17.4655C39.6992 18.4694 40.5108 19.2799 41.5056 19.2799C42.4959 19.2799 43.3016 18.4694 43.3016 17.4655V13.6629Z" fill="white"/>
<path d="M43.3054 13.6629C43.3054 12.6648 42.4938 11.8555 41.499 11.8555C40.5041 11.8555 39.6914 12.6648 39.6914 13.6629V17.4655C39.6914 18.4694 40.5041 19.2799 41.499 19.2799C42.4938 19.2799 43.3054 18.4694 43.3054 17.4655V13.6629Z" fill="white"/>
<path d="M53.2292 8.67112C53.2292 7.67301 52.4176 6.86133 51.4228 6.86133C50.4268 6.86133 49.6152 7.67301 49.6152 8.67112V17.4653C49.6152 18.4692 50.4268 19.2786 51.4228 19.2786C52.4176 19.2786 53.2292 18.4692 53.2292 17.4653V8.67112Z" fill="white"/>
<path d="M63.155 1.84281C63.155 0.844706 62.3434 0.0341797 61.3486 0.0341797C60.3526 0.0341797 59.541 0.844706 59.541 1.84281V21.0789C59.541 22.0828 60.3526 22.8933 61.3486 22.8933C62.3434 22.8933 63.155 22.0828 63.155 21.0789V1.84281Z" fill="white"/>
<path d="M73.0788 8.67112C73.0788 7.67301 72.2672 6.86133 71.2724 6.86133C70.2764 6.86133 69.4648 7.67301 69.4648 8.67112V17.4653C69.4648 18.4692 70.2764 19.2786 71.2724 19.2786C72.2672 19.2786 73.0788 18.4692 73.0788 17.4653V8.67112Z" fill="white"/>
<path d="M82.9931 13.6629C82.9931 12.6648 82.1873 11.8555 81.197 11.8555C80.2022 11.8555 79.3906 12.6648 79.3906 13.6629V17.4655C79.3906 18.4694 80.2022 19.2799 81.197 19.2799C82.1873 19.2799 82.9931 18.4694 82.9931 17.4655V13.6629Z" fill="white"/>
<path d="M80.9172 41.8096V42.0365H80.274V43.7166H80.01V42.0365H79.3633V41.8096H80.9172Z" fill="white"/>
<path d="M81.0527 41.8096H81.4666L82.0349 43.3739H82.0441L82.594 41.8096H82.9998V43.7166H82.7289V42.1535H82.7197L82.1433 43.7166H81.8931L81.3306 42.1535H81.3179V43.7166H81.0527V41.8096Z" fill="white"/>
</g>
<defs>
<clipPath id="clip0_65_9959">
<rect width="83" height="44" fill="white"/>
</clipPath>
</defs>
</svg>
