<svg width="134" height="44" viewBox="0 0 134 44" fill="none" xmlns="http://www.w3.org/2000/svg">
<g clip-path="url(#clip0_65_10069)">
<path d="M111.27 26.7941C111.482 26.2347 111.557 25.6328 111.488 25.0388C111.419 24.4447 111.208 23.8757 110.873 23.3791C110.529 22.9688 110.107 22.63 109.63 22.3821C109.154 22.1342 108.634 21.982 108.098 21.9344L85.1041 21.6717C84.9719 21.6717 84.8398 21.5403 84.7076 21.5403C84.6768 21.5174 84.6518 21.4876 84.6346 21.4534C84.6174 21.4192 84.6085 21.3815 84.6085 21.3433C84.6085 21.3051 84.6174 21.2674 84.6346 21.2332C84.6518 21.199 84.6768 21.1692 84.7076 21.1463C84.8398 20.8836 84.9719 20.7523 85.2362 20.7523L108.362 20.4896C109.831 20.3276 111.229 19.7799 112.413 18.9027C113.598 18.0255 114.526 16.8505 115.102 15.4985L116.424 12.0836C116.424 11.9523 116.556 11.8209 116.424 11.6896C115.705 8.50899 113.962 5.64844 111.458 3.54261C108.955 1.43678 105.828 0.200779 102.553 0.0224293C99.2781 -0.15592 96.0342 0.733131 93.3141 2.55449C90.594 4.37584 88.5465 7.02993 87.4827 10.1135C86.1017 9.13315 84.4172 8.66809 82.7254 8.80002C81.1727 8.97209 79.7251 9.66394 78.6204 10.7619C77.5157 11.8599 76.8196 13.2986 76.6465 14.8418C76.5585 15.6317 76.6031 16.4306 76.7786 17.206C74.2664 17.275 71.8803 18.3155 70.1281 20.1061C68.3758 21.8967 67.3956 24.2962 67.396 26.7941C67.3743 27.2794 67.4187 27.7654 67.5281 28.2388C67.5342 28.3414 67.5779 28.4381 67.651 28.5107C67.724 28.5834 67.8214 28.6268 67.9246 28.6329H110.345C110.609 28.6329 110.873 28.5015 110.873 28.2388L111.27 26.7941Z" fill="white"/>
<path d="M118.539 12.084H117.878C117.746 12.084 117.614 12.2153 117.482 12.3467L116.557 15.4989C116.344 16.0583 116.269 16.6601 116.338 17.2542C116.407 17.8482 116.618 18.4173 116.953 18.9138C117.297 19.3241 117.72 19.6629 118.196 19.9108C118.672 20.1588 119.193 20.3109 119.728 20.3586L124.618 20.6213C124.75 20.6213 124.882 20.7526 125.014 20.7526C125.045 20.7756 125.07 20.8053 125.087 20.8395C125.104 20.8737 125.113 20.9114 125.113 20.9497C125.113 20.9879 125.104 21.0256 125.087 21.0598C125.07 21.094 125.045 21.1237 125.014 21.1467C124.882 21.4094 124.75 21.5407 124.486 21.5407L119.464 21.8034C117.996 21.9653 116.598 22.5131 115.413 23.3903C114.228 24.2675 113.3 25.4425 112.724 26.7944L112.46 27.9765C112.328 28.1079 112.46 28.3706 112.724 28.3706H130.168C130.222 28.3782 130.277 28.3733 130.329 28.3562C130.38 28.3391 130.427 28.3103 130.465 28.272C130.504 28.2338 130.533 28.1872 130.55 28.1359C130.567 28.0846 130.572 28.03 130.565 27.9765C130.879 26.8637 131.057 25.717 131.093 24.5616C131.072 21.2588 129.743 18.0971 127.393 15.7616C125.043 13.4261 121.862 12.1048 118.539 12.084Z" fill="white"/>
<path d="M132.811 35.7257C132.576 35.7257 132.346 35.6564 132.15 35.5265C131.954 35.3966 131.802 35.212 131.712 34.996C131.622 34.78 131.598 34.5423 131.644 34.313C131.69 34.0837 131.803 33.8731 131.97 33.7078C132.136 33.5425 132.348 33.4299 132.579 33.3843C132.809 33.3387 133.049 33.3621 133.266 33.4515C133.483 33.541 133.669 33.6925 133.8 33.8869C133.93 34.0813 134 34.3098 134 34.5436C134.001 34.6991 133.97 34.8531 133.911 34.9968C133.851 35.1405 133.764 35.2711 133.653 35.381C133.543 35.4909 133.411 35.5779 133.267 35.6371C133.122 35.6962 132.967 35.7264 132.811 35.7257ZM132.811 33.6242C132.628 33.6242 132.449 33.6782 132.297 33.7792C132.145 33.8802 132.026 34.0238 131.956 34.1918C131.886 34.3598 131.868 34.5447 131.903 34.723C131.939 34.9014 132.027 35.0652 132.157 35.1938C132.286 35.3223 132.451 35.4099 132.63 35.4454C132.81 35.4809 132.996 35.4626 133.165 35.3931C133.334 35.3235 133.478 35.2056 133.58 35.0544C133.682 34.9032 133.736 34.7255 133.736 34.5436C133.739 34.4221 133.717 34.3012 133.671 34.1883C133.626 34.0754 133.558 33.9729 133.471 33.8869C133.385 33.801 133.282 33.7333 133.168 33.6882C133.055 33.643 132.933 33.6213 132.811 33.6242ZM133.339 35.2004H133.075L132.811 34.8063H132.546V35.2004H132.282V34.0183H132.943C132.997 34.0106 133.052 34.0155 133.103 34.0326C133.155 34.0497 133.202 34.0785 133.24 34.1168C133.279 34.155 133.308 34.2016 133.325 34.2529C133.342 34.3042 133.347 34.3588 133.339 34.4123C133.339 34.5436 133.207 34.675 133.075 34.8063L133.339 35.2004ZM132.943 34.5436C133.075 34.5436 133.075 34.5436 133.075 34.4123C133.075 34.3949 133.072 34.3777 133.066 34.3616C133.059 34.3455 133.049 34.3309 133.037 34.3186C133.025 34.3063 133.01 34.2967 132.994 34.2902C132.978 34.2837 132.96 34.2806 132.943 34.281H132.546V34.675H132.943V34.5436ZM14.4044 33.3616H17.3117V41.2421H22.3334V43.7377H14.4044V33.3616ZM25.3729 38.4839C25.3729 37.7544 25.5219 37.0324 25.8109 36.3617C26.0999 35.6911 26.5228 35.0857 27.0541 34.5822C27.5854 34.0788 28.2139 33.6877 28.9017 33.4328C29.5894 33.1778 30.3221 33.0642 31.0553 33.0989C31.7817 33.0663 32.5071 33.1824 33.1865 33.4398C33.8659 33.6972 34.485 34.0905 35.0053 34.5953C35.5256 35.1001 35.9361 35.7057 36.2113 36.3746C36.4866 37.0435 36.6208 37.7614 36.6056 38.4839C36.6056 39.2135 36.4565 39.9355 36.1675 40.6061C35.8786 41.2768 35.4556 41.8822 34.9244 42.3856C34.3931 42.8891 33.7646 43.2801 33.0768 43.5351C32.3891 43.7901 31.6564 43.9037 30.9232 43.869C30.1996 43.8904 29.4791 43.7667 28.8047 43.5053C28.1303 43.2439 27.5157 42.8502 26.9977 42.3476C26.4797 41.845 26.0689 41.2439 25.7897 40.5801C25.5106 39.9163 25.3688 39.2034 25.3729 38.4839ZM33.6983 38.4839C33.7242 38.1198 33.6756 37.7543 33.5553 37.4094C33.435 37.0645 33.2457 36.7474 32.9986 36.4773C32.7516 36.2073 32.452 35.9898 32.118 35.838C31.784 35.6862 31.4225 35.6034 31.0553 35.5944C30.3427 35.629 29.6708 35.9346 29.1788 36.4481C28.6868 36.9616 28.4123 37.6435 28.4123 38.3526C28.4123 39.0617 28.6868 39.7436 29.1788 40.2571C29.6708 40.7705 30.3427 41.0762 31.0553 41.1108C32.6411 41.3735 33.6983 40.0601 33.6983 38.4839ZM40.1737 39.1407V33.3616H43.081V39.1407C43.081 40.5854 43.8739 41.3735 45.0632 41.3735C45.341 41.3964 45.6204 41.3567 45.8805 41.2572C46.1406 41.1577 46.3748 41.001 46.5654 40.7989C46.756 40.5968 46.8982 40.3545 46.9813 40.0901C47.0645 39.8257 47.0864 39.546 47.0454 39.272V33.3616H49.9527V39.1407C49.9527 42.5556 47.9705 44.0004 45.0632 44.0004C42.0238 43.869 40.1737 42.4242 40.1737 39.1407ZM54.3137 33.3616H58.4103C62.1105 33.3616 64.3571 35.463 64.3571 38.4839C64.3571 41.5048 62.1105 43.7377 58.4103 43.7377H54.4458V33.3616H54.3137ZM58.4103 41.1108C58.7786 41.1457 59.1501 41.1038 59.5011 40.9877C59.8521 40.8716 60.1748 40.6838 60.4486 40.4365C60.7223 40.1892 60.941 39.8877 61.0907 39.5515C61.2403 39.2152 61.3176 38.8516 61.3176 38.4839C61.3176 38.1163 61.2403 37.7526 61.0907 37.4164C60.941 37.0802 60.7223 36.7787 60.4486 36.5314C60.1748 36.2841 59.8521 36.0963 59.5011 35.9802C59.1501 35.8641 58.7786 35.8221 58.4103 35.8571H57.221V41.1108H58.4103ZM68.4537 33.3616H76.7792V35.8571H71.361V37.5645H76.2506V39.9287H71.361V43.7377H68.4537V33.3616ZM80.8758 33.3616H83.7831V41.2421H88.8048V43.7377H80.8758V33.3616ZM96.3374 33.2302H99.2447L103.738 43.7377H100.566L99.7733 41.8989H95.6766L94.8837 43.7377H91.8443L96.3374 33.2302ZM98.9804 39.666L97.791 36.7765L96.6017 39.666H98.9804ZM107.438 33.3616H112.327C112.951 33.3112 113.579 33.3903 114.17 33.5938C114.762 33.7973 115.304 34.1208 115.763 34.5436C116.142 34.9494 116.417 35.4398 116.564 35.9734C116.712 36.507 116.728 37.068 116.612 37.6091C116.495 38.1502 116.249 38.6555 115.894 39.0821C115.54 39.5087 115.087 39.8441 114.574 40.0601L117.085 43.7377H113.781L111.667 40.5854H110.345V43.7377H107.438V33.3616ZM112.195 38.3526C113.12 38.3526 113.781 37.8272 113.781 37.1705C113.781 36.3824 113.12 35.9884 112.195 35.9884H110.345V38.4839H112.195V38.3526ZM120.785 33.3616H129.243V35.7257H123.692V37.3018H128.714V39.666H123.692V41.2421H129.375V43.7377H120.785V33.3616ZM8.06123 39.7974C7.86192 40.2615 7.53074 40.6579 7.10824 40.9378C6.68575 41.2178 6.19029 41.3692 5.68253 41.3735C4.96994 41.3389 4.29803 41.0332 3.806 40.5198C3.31397 40.0063 3.03953 39.3244 3.03953 38.6153C3.03953 37.9062 3.31397 37.2243 3.806 36.7108C4.29803 36.1973 4.96994 35.8916 5.68253 35.8571C6.22297 35.8674 6.74858 36.0345 7.19468 36.3379C7.64079 36.6412 7.98793 37.0676 8.19338 37.5645H11.2328C10.9728 36.3064 10.2725 35.1806 9.25639 34.387C8.24023 33.5935 6.97398 33.1836 5.68253 33.2302C4.95204 33.2066 4.22413 33.3278 3.54127 33.5868C2.85842 33.8458 2.2343 34.2373 1.70534 34.7386C1.17637 35.2399 0.753152 35.8409 0.460374 36.5065C0.167596 37.1721 0.0111225 37.8889 8.51122e-05 38.6153C-0.00398264 39.3347 0.137796 40.0476 0.416963 40.7114C0.69613 41.3753 1.10696 41.9764 1.62496 42.479C2.14295 42.9815 2.75749 43.3753 3.43191 43.6366C4.10633 43.898 4.82682 44.0217 5.55038 44.0004C6.81302 44.0088 8.04283 43.6008 9.04719 42.8403C10.0516 42.0797 10.7738 41.0095 11.1007 39.7974H8.06123Z" fill="white"/>
</g>
<defs>
<clipPath id="clip0_65_10069">
<rect width="134" height="44" fill="white"/>
</clipPath>
</defs>
</svg>
