<svg width="100" height="32" viewBox="0 0 100 32" fill="none" xmlns="http://www.w3.org/2000/svg">
<g clip-path="url(#clip0_65_10062)">
<path d="M42.8681 31.953C42.0486 31.8244 40.7728 31.5351 40.2701 31.3638C39.3842 31.0618 38.3186 30.6049 38.3186 30.527C38.3186 30.4894 38.5355 30.0006 38.8006 29.4409L39.2827 28.4231L39.7016 28.6353C40.345 28.9612 41.9082 29.459 42.7483 29.6055C43.1636 29.6779 43.9263 29.7371 44.443 29.7371C47.7132 29.7371 49.9482 28.3567 50.7448 25.845C50.9147 25.3091 50.9467 24.955 51.0014 23.0025C51.0357 21.7759 51.0582 20.7635 51.0513 20.7528C51.0444 20.7421 50.8755 20.9815 50.676 21.2849C50.155 22.0771 49.2211 22.9237 48.4529 23.3004C47.3726 23.83 46.6096 23.9868 45.0992 23.9897C43.1229 23.9934 42.0181 23.6939 40.5933 22.7682C39.1178 21.8094 38.1428 20.5834 37.4014 18.7544C36.4245 16.3449 36.3589 12.889 37.24 10.2534C37.6905 8.90574 38.2629 7.97468 39.259 6.96916C40.1945 6.02476 41.2468 5.41143 42.5423 5.05544C43.4671 4.80131 45.5358 4.74155 46.5856 4.93863C47.5847 5.12621 48.4583 5.43098 49.0274 5.79052C49.6127 6.1603 50.6168 7.12418 50.8513 7.5413C50.9535 7.72296 51.0593 7.87165 51.0865 7.87172C51.1138 7.87179 51.1242 7.28142 51.1098 6.55979L51.0835 5.24773H53.5421V15.032C53.5421 23.232 53.5213 24.935 53.4139 25.5493C53.1173 27.2464 52.4096 28.6061 51.2543 29.699C50.6041 30.3141 50.2714 30.5435 49.3758 30.994C47.9129 31.73 46.507 32.0171 44.4534 31.9992C43.7018 31.9927 42.9884 31.9719 42.8681 31.953ZM46.9365 21.552C48.3706 21.2058 49.4564 20.3057 50.1504 18.8878C50.6501 17.8666 50.8898 16.9069 51.0069 15.4589C51.2368 12.6147 50.6281 10.1023 49.3836 8.75856C48.3263 7.61691 47.0514 7.1345 45.0992 7.13739C43.9007 7.13916 43.2511 7.28434 42.3432 7.75332C41.5616 8.15702 41.0288 8.63741 40.5213 9.39586C39.682 10.6503 39.371 11.7948 39.3076 13.8627C39.2549 15.583 39.3742 16.491 39.8121 17.7006C40.9073 20.7263 43.8242 22.3032 46.9365 21.552ZM8.48403 24.5237C6.57478 24.1754 5.47822 23.7747 4.28597 22.9895C1.55833 21.1931 -0.0119061 18.1657 6.79872e-05 14.7261C0.00989361 11.9038 0.942544 9.55279 2.79331 7.68486C4.72933 5.73088 7.02597 4.80995 9.96097 4.81069C12.2797 4.8113 14.2713 5.43193 15.9435 6.67508C16.9432 7.41824 16.9363 7.40459 16.5671 7.91929C16.3961 8.15763 16.1143 8.56909 15.9408 8.83367C15.7674 9.09824 15.6152 9.32904 15.6027 9.34656C15.5902 9.36407 15.2594 9.13692 14.8676 8.84176C11.8515 6.56985 8.03216 6.54413 5.27097 8.77714C2.68343 10.8697 1.86824 15.1296 3.45217 18.2815C4.36111 20.0903 6.06671 21.4761 8.09725 22.0556C9.03363 22.3229 10.913 22.3416 11.8962 22.0935C13.2468 21.7527 14.6386 21.0142 15.7161 20.0667L16.1676 19.6697L16.6442 20.4834C17.4188 21.8059 17.4089 21.6136 16.7315 22.1753C15.4848 23.209 14.0799 23.9084 12.4211 24.321C11.8473 24.4637 11.3377 24.5126 10.1901 24.5348C9.37206 24.5506 8.60433 24.5456 8.48403 24.5237ZM62.7049 24.4446C59.2126 23.8577 56.4346 21.5707 55.2691 18.3233C54.8409 17.1301 54.7257 16.3511 54.7257 14.6499C54.7257 12.9602 54.8294 12.2514 55.2688 10.9363C56.2334 8.0494 58.5224 5.89441 61.4712 5.09694C62.257 4.88445 62.4811 4.86298 63.9535 4.85914C65.3902 4.8554 65.6508 4.87758 66.2721 5.05644C68.3721 5.66107 69.9577 6.99311 70.9083 8.95144C71.6684 10.5172 72.0726 12.8217 71.8596 14.3753L71.804 14.7811H57.2801L57.3403 15.4589C57.4689 16.9052 57.8868 18.1369 58.6211 19.2343C59.8875 21.127 61.8124 22.1566 64.3035 22.2737C66.3623 22.3706 68.2587 21.7035 70.1801 20.2065L70.4135 20.0247L70.997 21.0046L71.5805 21.9845L71.376 22.1475C69.9052 23.3204 68.1151 24.1311 66.3223 24.4364C65.3433 24.6031 63.6704 24.6069 62.7049 24.4446ZM69.2532 12.0744C68.8811 8.29866 65.8377 6.19509 62.1453 7.16151C59.8374 7.7656 58.111 9.62731 57.5331 12.1354L57.4072 12.682H69.3131L69.2532 12.0744ZM97.9002 24.255C96.38 24.0987 95.0972 23.525 94.1271 22.5676C93.3407 21.7916 92.9257 21.0422 92.5791 19.7725L92.3506 18.9355L92.321 13.2724L92.2914 7.6092H89.851V5.42265H92.3007V0H94.838V5.42265H99.5625V7.6092H94.8281L94.8591 12.9663C94.8867 17.7351 94.9068 18.3802 95.0419 18.8417C95.6653 20.9698 96.9977 21.9891 99.1469 21.9821L100 21.9793V24.2051L99.7266 24.2598C99.4495 24.3152 98.4604 24.3126 97.9002 24.255ZM73.0526 14.6936V5.24772H75.617L75.5663 7.39054C75.5385 8.5691 75.5295 9.53337 75.5464 9.53337C75.5633 9.53337 75.6747 9.32023 75.794 9.05973C76.4434 7.64171 78.1718 6.07743 79.8347 5.4027C80.9379 4.95504 81.5581 4.8541 83.2016 4.85471C84.9314 4.85532 85.4281 4.94923 86.4995 5.47789C87.6454 6.04334 88.5921 7.24042 89.0149 8.65874C89.3855 9.90146 89.4125 10.4992 89.413 17.4705L89.4139 24.1395H86.8848L86.8534 17.4705C86.8189 10.111 86.8256 10.2056 86.2561 9.04923C85.597 7.71076 84.2173 7.06357 82.3272 7.20621C81.3351 7.28108 80.5446 7.51033 79.5415 8.01417C77.7756 8.90094 76.4198 10.6248 75.8355 12.7257C75.6459 13.4076 75.6402 13.562 75.6105 18.7825L75.5801 24.1395H73.0526V14.6936Z" fill="white"/>
<path d="M26.2713 24.9845C31.7736 24.9845 36.234 20.4219 36.234 14.7935C36.234 9.16521 31.7736 4.60254 26.2713 4.60254C20.7691 4.60254 16.3086 9.16521 16.3086 14.7935C16.3086 20.4219 20.7691 24.9845 26.2713 24.9845Z" fill="white"/>
</g>
<defs>
<clipPath id="clip0_65_10062">
<rect width="100" height="32" fill="white"/>
</clipPath>
</defs>
</svg>
