<svg width="117" height="32" viewBox="0 0 117 32" fill="none" xmlns="http://www.w3.org/2000/svg">
<path d="M61.8142 25.7885V30.9018L58.1116 25.7885H57.3926V31.9893H58.0275V26.7244L61.8484 31.9893H62.4502V25.7885H61.8142Z" fill="white"/>
<path d="M64.0234 25.7885V31.9893H68.1524V31.387H64.6834V29.0858H68.0351V28.4655H64.6834V26.4158H68.1191V25.7884L64.0234 25.7885Z" fill="white"/>
<path d="M69.1291 25.7885V26.4159H71.4522V31.9893H72.1129V26.4159H74.4369V25.7885H69.1291Z" fill="white"/>
<path d="M83.0689 25.7884L81.4312 30.9183L79.776 25.7884H79.2077L77.5437 30.9183L75.9138 25.7884H75.2363L77.2347 32.0312H77.8108L79.4748 26.868L81.1467 32.0312H81.715L83.7046 25.7884H83.0689Z" fill="white"/>
<path d="M89.8883 28.9153C89.8883 27.2416 89.1111 26.3381 87.4217 26.3381C85.7419 26.3381 84.9725 27.2416 84.9725 28.9153C84.9725 30.5978 85.7414 31.5013 87.4217 31.5013C89.1111 31.5013 89.8883 30.5969 89.8883 28.9153ZM84.3125 28.9072C84.3125 26.6971 85.4408 25.7104 87.4217 25.7104C89.4113 25.7104 90.5483 26.6971 90.5483 28.9072C90.5483 31.1251 89.4113 32.1118 87.4217 32.1118C85.4408 32.1118 84.3125 31.1242 84.3125 28.9072Z" fill="white"/>
<path d="M94.5719 28.8773C95.4499 28.8773 95.9934 28.6097 95.9934 27.6303C95.9934 26.6681 95.4661 26.4175 94.5474 26.4175H92.5324V28.8773H94.5719ZM94.3881 29.4796H92.5315V32.0068H91.8887V25.8061H94.5637C96.001 25.8061 96.6531 26.3832 96.6531 27.613C96.6531 28.6839 96.1431 29.3113 95.0652 29.4541L96.5612 32.0068H95.8585L94.3881 29.4796Z" fill="white"/>
<path d="M99.9436 28.7249L98.7059 30.0805V32.0137H98.0625V25.8129H98.7059V29.2358L101.84 25.8129H102.6L100.378 28.2482L102.902 32.0137H102.159L99.9436 28.7249Z" fill="white"/>
<path d="M103.448 31.3942L103.782 30.8932C104.525 31.3604 105.254 31.5201 105.997 31.5201C107.277 31.5201 107.845 31.1601 107.845 30.3064C107.845 29.4274 107.109 29.3021 105.997 29.1015C104.659 28.8663 103.756 28.6403 103.756 27.3856C103.756 26.1886 104.525 25.7198 105.997 25.7198C106.967 25.7198 107.661 25.9375 108.154 26.2723L107.803 26.8078C107.359 26.5146 106.699 26.3216 105.997 26.3216C104.885 26.3216 104.409 26.6323 104.409 27.3679C104.409 28.1556 105.053 28.3056 106.156 28.5054C107.511 28.7487 108.488 28.95 108.488 30.2799C108.488 31.5111 107.703 32.1035 106.014 32.1035C105.078 32.1035 104.233 31.912 103.447 31.3928" fill="white"/>
<path d="M114.952 0.16272C106.245 0.16272 105.875 4.06843 105.875 9.57428V23.1045H107.928V9.57428C107.928 5.42233 107.764 2.0906 114.952 2.0906C115.723 2.0906 116.406 2.13117 117.021 2.2025V0.243954C116.387 0.188307 115.702 0.157726 114.952 0.157726" fill="white"/>
<path d="M13.4004 14.3102V0.61352H15.4951V14.3453C15.4951 18.2931 15.4543 21.6239 22.6832 21.6239C29.8706 21.6239 29.7069 18.2939 29.7069 14.1402V0.610016H31.7604V14.1402C31.7604 19.6513 31.3901 23.5605 22.6832 23.5605C13.9343 23.5605 13.4048 19.6548 13.4048 14.3067" fill="white"/>
<path d="M53.5875 9.42915V23.1171H51.4919V9.38534C51.4919 5.43757 51.533 2.10672 44.3037 2.10672C37.1155 2.10672 37.2801 5.43757 37.2801 9.59039V23.1206H35.2266V9.59039C35.2266 4.07929 35.5968 0.170074 44.3037 0.170074C53.0526 0.170074 53.5822 4.07578 53.5822 9.4239" fill="white"/>
<path d="M57.3945 23.1192H59.4042V0.669922H57.3945V23.1192Z" fill="white"/>
<path d="M73.6988 13.3191C77.3262 13.3191 79.1285 11.5498 79.1285 7.97357C79.1285 4.39998 77.1835 2.70257 73.6096 2.70257H65.1801V13.3234L73.6988 13.3191ZM63.1686 0.691439H73.6638C78.8703 0.691439 81.231 3.28269 81.231 7.88681C81.231 12.5225 78.9009 15.3416 73.6349 15.3416H65.1758V23.1416H63.166V0.690563" fill="white"/>
<path d="M85.6203 10.3062H100.904C100.699 5.82472 100.411 2.00051 93.8799 2.00051C87.5959 2.00051 85.8716 5.41373 85.6247 10.3062M83.5703 11.8283C83.5703 5.2078 85.4601 0.112057 93.9254 0.112057C102.674 0.112057 102.959 5.99122 102.924 12.1964H85.5923C85.6333 17.6654 86.9876 21.7394 94.0944 21.7394C97.8732 21.7394 99.5993 20.7106 101.446 19.3541L102.596 20.8753C100.543 22.3966 98.12 23.5884 94.0944 23.5884C85.2186 23.5884 83.5817 18.4488 83.5817 11.8283" fill="white"/>
<path d="M0.792599 28.0005C9.50037 28.0005 9.86975 24.0939 9.86975 18.5802V0.633356H7.81623V18.5802C7.81623 22.7321 7.98071 26.0647 0.792599 26.0647C0.521247 26.0647 0.262763 26.0574 0.0117188 26.0477V27.9861C0.264339 27.9929 0.524399 27.9969 0.792599 27.9969" fill="white"/>
<path d="M112.436 20.5644C111.755 20.5644 111.201 21.1185 111.201 21.8C111.201 22.4809 111.755 23.0356 112.436 23.0356C113.116 23.0356 113.67 22.4811 113.67 21.8C113.67 21.1187 113.116 20.5644 112.436 20.5644ZM112.436 23.2188C111.654 23.2188 111.018 22.5819 111.018 21.7991C111.018 21.0163 111.654 20.3795 112.436 20.3795C113.217 20.3795 113.853 21.0168 113.853 21.7991C113.853 22.5815 113.217 23.2188 112.436 23.2188Z" fill="white"/>
<path d="M112.59 21.7844C112.812 21.7844 112.94 21.7197 112.94 21.482C112.94 21.2469 112.817 21.1919 112.584 21.1919H112.085V21.7844H112.59ZM112.539 21.9882H112.085V22.6152H111.867V20.9853H112.592C113.005 20.9853 113.164 21.1543 113.164 21.4757C113.164 21.7391 113.052 21.9214 112.772 21.9732L113.139 22.6151H112.903L112.539 21.9882Z" fill="white"/>
</svg>
