<svg width="131" height="32" viewBox="0 0 131 32" fill="none" xmlns="http://www.w3.org/2000/svg">
<g clip-path="url(#clip0_65_10151)">
<path d="M42.2627 7.63584H39.9249V11.639H42.2627C43.6106 11.639 44.453 10.8552 44.453 9.62668C44.453 8.22874 43.5263 7.63584 42.2627 7.63584ZM44.6216 19.7725L41.6518 14.435H39.9459V19.7725H36.1758V4.67021H42.7469C44.2423 4.67021 45.4009 4.98786 46.3485 5.68702C47.5068 6.53426 48.1177 7.9322 48.1177 9.43621C48.1177 11.279 47.2331 13.0793 45.2743 13.8842L48.7284 19.7725H44.6216Z" fill="white"/>
<path d="M50.4336 19.7715V4.66924H54.2037V19.7715H50.4336Z" fill="white"/>
<path d="M30.2182 26.6494L23.2169 30.7145L16.7602 26.9656L23.7703 22.8951V14.7753L30.2182 18.5192V26.6494ZM1.10667 26.6494L1.1066 18.5192L7.55453 14.7753V22.8951L14.5647 26.9656L8.1079 30.7145L1.10667 26.6494ZM8.66112 5.34947L15.6624 1.28415L22.6635 5.34947L22.6637 12.8371L15.6624 8.77197L8.66112 12.8371V5.34947ZM16.2157 18.5192L22.6637 14.7753V22.2525L16.2157 25.9964V18.5192ZM8.66112 14.7753L15.109 18.5192L15.1091 25.9964L8.6612 22.2525L8.66112 14.7753ZM15.6624 17.5447L9.21449 13.801L15.6624 10.0571L22.1101 13.801L15.6624 17.5447ZM23.7703 13.4901V4.70665L15.6623 -0.00094223L7.55446 4.70665L7.55453 13.4797V13.4901L0 17.8765V27.2922L8.1079 32L15.6624 27.6135L23.2169 32L31.3248 27.2922V17.8765L23.7703 13.4901Z" fill="white"/>
<path d="M36.7991 25.4537H37.3695C37.6634 25.4537 37.8789 25.3951 38.016 25.2777C38.1531 25.1603 38.2217 24.9841 38.2217 24.7494C38.2217 24.5113 38.152 24.3396 38.0123 24.2345C37.8727 24.1296 37.6488 24.0772 37.3403 24.0772H36.7991V25.4537ZM36.7991 25.8131V27.3105H36.3828V23.71H37.3646C37.8038 23.71 38.1282 23.7948 38.338 23.9638C38.5477 24.1328 38.6526 24.3873 38.6526 24.7272C38.6526 25.2032 38.4128 25.5251 37.9328 25.6926L38.9049 27.3105H38.4128L37.5458 25.8131H36.7991Z" fill="white"/>
<path d="M39.5 27.3105V23.71H39.9173V27.3105H39.5Z" fill="white"/>
<path d="M41.3284 25.5349H41.7029C42.0719 25.5349 42.3387 25.475 42.5037 25.3551C42.6686 25.2353 42.751 25.0431 42.751 24.7788C42.751 24.5408 42.6734 24.3636 42.5183 24.247C42.3632 24.1305 42.1217 24.0721 41.7935 24.0721H41.3284V25.5349ZM43.1819 24.7593C43.1819 25.1236 43.0582 25.4041 42.8109 25.6002C42.5637 25.7966 42.2098 25.8945 41.7495 25.8945H41.3284V27.3105H40.9121V23.71H41.84C42.7347 23.71 43.1819 24.0599 43.1819 24.7593Z" fill="white"/>
<path d="M45.9429 27.3105H43.9473V23.71H45.9429V24.0819H44.3637V25.2419H45.8474V25.6112H44.3637V26.936H45.9429V27.3105Z" fill="white"/>
<path d="M50.8647 27.3105H50.3896L48.4331 24.289H48.4136C48.4397 24.6433 48.4528 24.9685 48.4528 25.264V27.3105H48.0684V23.71H48.5384L50.49 26.7195H50.5097C50.5063 26.6753 50.499 26.5328 50.4876 26.2921C50.4762 26.0516 50.4721 25.8797 50.4752 25.7762V23.71H50.8647V27.3105Z" fill="white"/>
<path d="M53.859 27.3105H51.8633V23.71H53.859V24.0819H52.2795V25.2419H53.7634V25.6112H52.2795V26.936H53.859V27.3105Z" fill="white"/>
<path d="M62.9406 7.63487H60.5187V11.638H62.9406C64.2255 11.638 65.1311 10.9602 65.1311 9.6046C65.1311 8.29126 64.2884 7.63487 62.9406 7.63487ZM63.6358 14.5399H60.5187V19.7715H56.7695V4.66924H63.5515C66.8789 4.66924 68.8169 6.72394 68.8169 9.51982C68.8169 11.9981 67.3002 14.5399 63.6358 14.5399Z" fill="white"/>
<path d="M70.709 19.7715V4.66924H81.7665V7.74056H74.4581V10.6212H80.6082V13.6714H74.4581V16.6792H81.8084V19.7715H70.709Z" fill="white"/>
<path d="M98.8018 19.7715L92.9256 10.8965H92.8835V19.7715H89.4082V4.66924H93.0521L98.7596 13.2054H98.8018V4.66924H102.298V19.7715H98.8018Z" fill="white"/>
<path d="M110.866 20.0264C107.559 20.0264 104.463 18.3531 104.463 14.5828V9.98643C104.463 6.27982 107.454 4.41577 110.76 4.41577C113.688 4.41577 116.868 5.89849 116.868 9.39353V10.3548H113.33V9.75338C113.33 8.18606 112.003 7.5082 110.845 7.5082C109.518 7.5082 108.233 8.20735 108.233 9.92313V14.498C108.233 16.0444 109.349 16.934 110.887 16.934C112.045 16.934 113.33 16.2774 113.33 14.6888V14.0603H116.868V15.0699C116.868 18.5437 113.772 20.0264 110.866 20.0264Z" fill="white"/>
<path d="M124.997 20.0264C121.69 20.0264 118.594 18.3531 118.594 14.5828V9.98643C118.594 6.27982 121.585 4.41577 124.891 4.41577C127.819 4.41577 130.999 5.89849 130.999 9.39353V10.3548H127.461V9.75357C127.461 8.18606 126.134 7.5082 124.975 7.5082C123.648 7.5082 122.364 8.20735 122.364 9.92313V14.498C122.364 16.0444 123.48 16.934 125.017 16.934C126.176 16.934 127.461 16.2774 127.461 14.6888V14.1156H130.999V15.0699C130.999 18.5437 127.903 20.0264 124.997 20.0264Z" fill="white"/>
<path d="M55.7688 27.3105H55.3525V24.0819H54.2188V23.71H56.9025V24.0819H55.7688V27.3105Z" fill="white"/>
<path d="M60.5818 27.3105H60.1704L59.4481 24.8996C59.4138 24.7927 59.3754 24.6582 59.333 24.4956C59.2905 24.3332 59.2684 24.2355 59.2669 24.2027C59.2309 24.4193 59.1738 24.6567 59.0955 24.9142L58.395 27.3105H57.9838L57.0312 23.71H57.472L58.0376 25.9339C58.1161 26.2457 58.1731 26.5281 58.209 26.781C58.253 26.4805 58.3184 26.1868 58.405 25.8992L59.0464 23.71H59.4872L60.1607 25.9192C60.239 26.1735 60.3051 26.4608 60.3591 26.781C60.39 26.5479 60.4488 26.2638 60.5354 25.929L61.0985 23.71H61.5393L60.5818 27.3105Z" fill="white"/>
<path d="M62.3705 25.5052C62.3705 25.9925 62.4735 26.3624 62.6802 26.6145C62.8866 26.8665 63.1867 26.9924 63.5801 26.9924C63.9767 26.9924 64.2763 26.8669 64.4788 26.6156C64.6811 26.3645 64.7824 25.9942 64.7824 25.5052C64.7824 25.0208 64.6816 24.6534 64.4799 24.403C64.2783 24.1526 63.9799 24.0276 63.585 24.0276C63.1882 24.0276 62.8866 24.1535 62.6802 24.4054C62.4735 24.6575 62.3705 25.0239 62.3705 25.5052ZM65.223 25.5052C65.223 26.0813 65.0782 26.5344 64.7884 26.8643C64.4986 27.1944 64.0958 27.3594 63.5801 27.3594C63.0528 27.3594 62.6459 27.1974 62.3594 26.8729C62.0728 26.5489 61.9297 26.0911 61.9297 25.5001C61.9297 24.9139 62.0732 24.4597 62.3606 24.1372C62.6479 23.8144 63.0559 23.6532 63.585 23.6532C64.0992 23.6532 64.5007 23.8174 64.7897 24.1457C65.0786 24.474 65.223 24.9272 65.223 25.5052Z" fill="white"/>
<path d="M66.4514 25.4537H67.022C67.3158 25.4537 67.5314 25.3951 67.6685 25.2777C67.8059 25.1603 67.8742 24.9841 67.8742 24.7494C67.8742 24.5113 67.8044 24.3396 67.665 24.2345C67.5252 24.1296 67.3012 24.0772 66.9926 24.0772H66.4514V25.4537ZM66.4514 25.8131V27.3105H66.0352V23.71H67.0172C67.4563 23.71 67.7806 23.7948 67.9906 23.9638C68.2002 24.1328 68.3053 24.3873 68.3053 24.7272C68.3053 25.2032 68.0651 25.5251 67.5852 25.6926L68.5573 27.3105H68.0651L67.1983 25.8131H66.4514Z" fill="white"/>
<path d="M71.7344 27.3105H71.2447L69.9396 25.5644L69.5649 25.8992V27.3105H69.1484V23.71H69.5649V25.4955L71.1883 23.71H71.6805L70.2406 25.2739L71.7344 27.3105Z" fill="white"/>
<path d="M75.094 24.0324C74.7006 24.0324 74.39 24.1641 74.1622 24.4277C73.9346 24.6911 73.8207 25.0518 73.8207 25.51C73.8207 25.9813 73.9304 26.3452 74.15 26.6022C74.3696 26.859 74.6828 26.9877 75.0891 26.9877C75.339 26.9877 75.6238 26.9425 75.9437 26.852V27.219C75.6955 27.3125 75.3894 27.3594 75.0254 27.3594C74.4981 27.3594 74.0912 27.1985 73.8047 26.8767C73.5183 26.5549 73.375 26.0977 73.375 25.5052C73.375 25.134 73.4439 24.809 73.582 24.5298C73.7199 24.2507 73.919 24.0358 74.1794 23.8847C74.4398 23.7336 74.7463 23.658 75.0989 23.658C75.4743 23.658 75.8025 23.727 76.0833 23.8649L75.907 24.2246C75.636 24.0965 75.3649 24.0324 75.094 24.0324Z" fill="white"/>
<path d="M76.9953 25.5052C76.9953 25.9925 77.0987 26.3624 77.3053 26.6145C77.5116 26.8665 77.8117 26.9924 78.2049 26.9924C78.6019 26.9924 78.9012 26.8669 79.1038 26.6156C79.3061 26.3645 79.4072 25.9942 79.4072 25.5052C79.4072 25.0208 79.3065 24.6534 79.1049 24.403C78.9033 24.1526 78.6051 24.0276 78.21 24.0276C77.8134 24.0276 77.5116 24.1535 77.3053 24.4054C77.0987 24.6575 76.9953 25.0239 76.9953 25.5052ZM79.8482 25.5052C79.8482 26.0813 79.7034 26.5344 79.4136 26.8643C79.1238 27.1944 78.7208 27.3594 78.2049 27.3594C77.6778 27.3594 77.2709 27.1974 76.9844 26.8729C76.698 26.5489 76.5547 26.0911 76.5547 25.5001C76.5547 24.9139 76.6984 24.4597 76.9857 24.1372C77.2729 23.8144 77.6811 23.6532 78.21 23.6532C78.7242 23.6532 79.1259 23.8174 79.4147 24.1457C79.7036 24.474 79.8482 24.9272 79.8482 25.5052Z" fill="white"/>
<path d="M80.9152 25.5052C80.9152 25.9925 81.0186 26.3624 81.2251 26.6145C81.4315 26.8665 81.7316 26.9924 82.1249 26.9924C82.5216 26.9924 82.8212 26.8669 83.0237 26.6156C83.226 26.3645 83.3272 25.9942 83.3272 25.5052C83.3272 25.0208 83.2264 24.6534 83.0248 24.403C82.8232 24.1526 82.525 24.0276 82.1299 24.0276C81.7331 24.0276 81.4315 24.1535 81.2251 24.4054C81.0186 24.6575 80.9152 25.0239 80.9152 25.5052ZM83.7682 25.5052C83.7682 26.0813 83.6232 26.5344 83.3334 26.8643C83.0435 27.1944 82.6408 27.3594 82.1249 27.3594C81.5977 27.3594 81.1908 27.1974 80.9044 26.8729C80.6177 26.5489 80.4746 26.0911 80.4746 25.5001C80.4746 24.9139 80.6181 24.4597 80.9055 24.1372C81.1929 23.8144 81.6009 23.6532 82.1299 23.6532C82.6441 23.6532 83.0456 23.8174 83.3347 24.1457C83.6235 24.474 83.7682 24.9272 83.7682 25.5052Z" fill="white"/>
<path d="M84.9965 25.4537H85.567C85.8609 25.4537 86.0763 25.3951 86.2135 25.2777C86.3508 25.1603 86.4192 24.9841 86.4192 24.7494C86.4192 24.5113 86.3495 24.3396 86.2099 24.2345C86.0703 24.1296 85.8461 24.0772 85.5377 24.0772H84.9965V25.4537ZM84.9965 25.8131V27.3105H84.5801V23.71H85.5623C86.0012 23.71 86.3257 23.7948 86.5355 23.9638C86.7453 24.1328 86.8502 24.3873 86.8502 24.7272C86.8502 25.2032 86.61 25.5251 86.1303 25.6926L87.1024 27.3105H86.6101L85.7433 25.8131H84.9965Z" fill="white"/>
<path d="M90.1123 25.4906C90.1123 25.0211 89.9952 24.6673 89.7609 24.4293C89.5267 24.1912 89.1784 24.0721 88.7167 24.0721H88.1118V26.9485H88.6185C89.1149 26.9485 89.4879 26.8256 89.7376 26.5803C89.9876 26.3348 90.1123 25.9716 90.1123 25.4906ZM90.5529 25.4757C90.5529 26.0703 90.3928 26.5246 90.0718 26.839C89.7511 27.1534 89.2895 27.3105 88.6871 27.3105H87.6953V23.71H88.7925C89.3491 23.71 89.7817 23.8652 90.0904 24.1756C90.3988 24.4856 90.5529 24.9192 90.5529 25.4757Z" fill="white"/>
<path d="M91.3672 27.3105V23.71H91.7847V27.3105H91.3672Z" fill="white"/>
<path d="M95.5758 27.3105H95.1008L93.1442 24.289H93.1247C93.1506 24.6433 93.1639 24.9685 93.1639 25.264V27.3105H92.7793V23.71H93.2495L95.2012 26.7195H95.2207C95.2175 26.6753 95.2102 26.5328 95.1987 26.2921C95.1873 26.0516 95.1832 25.8797 95.1866 25.7762V23.71H95.5758V27.3105Z" fill="white"/>
<path d="M98.2511 25.7886L97.8346 24.6732C97.7809 24.5319 97.7254 24.3587 97.6683 24.1535C97.6323 24.311 97.581 24.4843 97.5141 24.6732L97.093 25.7886H98.2511ZM98.8264 27.3105L98.3809 26.1654H96.9457L96.5051 27.3105H96.084L97.4991 23.6953H97.8494L99.2575 27.3105H98.8264Z" fill="white"/>
<path d="M100.866 27.3105H100.45V24.0819H99.3164V23.71H102V24.0819H100.866V27.3105Z" fill="white"/>
<path d="M102.555 27.3105V23.71H102.972V27.3105H102.555Z" fill="white"/>
<path d="M104.222 25.5052C104.222 25.9925 104.325 26.3624 104.532 26.6145C104.738 26.8665 105.038 26.9924 105.431 26.9924C105.828 26.9924 106.128 26.8669 106.33 26.6156C106.533 26.3645 106.634 25.9942 106.634 25.5052C106.634 25.0208 106.533 24.6534 106.331 24.403C106.13 24.1526 105.832 24.0276 105.437 24.0276C105.04 24.0276 104.738 24.1535 104.532 24.4054C104.325 24.6575 104.222 25.0239 104.222 25.5052ZM107.075 25.5052C107.075 26.0813 106.93 26.5344 106.64 26.8643C106.35 27.1944 105.947 27.3594 105.431 27.3594C104.904 27.3594 104.497 27.1974 104.211 26.8729C103.924 26.5489 103.781 26.0911 103.781 25.5001C103.781 24.9139 103.925 24.4597 104.212 24.1372C104.499 23.8144 104.908 23.6532 105.437 23.6532C105.951 23.6532 106.352 23.8174 106.641 24.1457C106.93 24.474 107.075 24.9272 107.075 25.5052Z" fill="white"/>
<path d="M110.685 27.3105H110.21L108.254 24.289H108.234C108.26 24.6433 108.273 24.9685 108.273 25.264V27.3105H107.889V23.71H108.359L110.31 26.7195H110.33C110.327 26.6753 110.319 26.5328 110.308 26.2921C110.296 26.0516 110.293 25.8797 110.296 25.7762V23.71H110.685V27.3105Z" fill="white"/>
<path d="M114.535 24.0324C114.142 24.0324 113.831 24.1641 113.604 24.4277C113.376 24.6911 113.262 25.0518 113.262 25.51C113.262 25.9813 113.372 26.3452 113.591 26.6022C113.811 26.859 114.124 26.9877 114.531 26.9877C114.78 26.9877 115.065 26.9425 115.385 26.852V27.219C115.137 27.3125 114.831 27.3594 114.467 27.3594C113.939 27.3594 113.533 27.1985 113.246 26.8767C112.96 26.5549 112.816 26.0977 112.816 25.5052C112.816 25.134 112.885 24.809 113.023 24.5298C113.161 24.2507 113.361 24.0358 113.621 23.8847C113.881 23.7336 114.188 23.658 114.54 23.658C114.916 23.658 115.244 23.727 115.525 23.8649L115.348 24.2246C115.078 24.0965 114.806 24.0324 114.535 24.0324Z" fill="white"/>
<path d="M118.176 27.3105H116.18V23.71H118.176V24.0819H116.596V25.2419H118.08V25.6112H116.596V26.936H118.176V27.3105Z" fill="white"/>
<path d="M121.781 27.3105H121.306L119.349 24.289H119.33C119.356 24.6433 119.369 24.9685 119.369 25.264V27.3105H118.984V23.71H119.455L121.406 26.7195H121.426C121.423 26.6753 121.415 26.5328 121.404 26.2921C121.392 26.0516 121.388 25.8797 121.392 25.7762V23.71H121.781V27.3105Z" fill="white"/>
<path d="M123.882 27.3105H123.466V24.0819H122.332V23.71H125.016V24.0819H123.882V27.3105Z" fill="white"/>
<path d="M125.987 25.4537H126.557C126.851 25.4537 127.067 25.3951 127.204 25.2777C127.341 25.1603 127.409 24.9841 127.409 24.7494C127.409 24.5113 127.34 24.3396 127.2 24.2345C127.06 24.1296 126.836 24.0772 126.528 24.0772H125.987V25.4537ZM125.987 25.8131V27.3105H125.57V23.71H126.553C126.991 23.71 127.316 23.7948 127.526 23.9638C127.736 24.1328 127.84 24.3873 127.84 24.7272C127.84 25.2032 127.6 25.5251 127.121 25.6926L128.093 27.3105H127.6L126.733 25.8131H125.987Z" fill="white"/>
<path d="M130.681 27.3105H128.686V23.71H130.681V24.0819H129.102V25.2419H130.586V25.6112H129.102V26.936H130.681V27.3105Z" fill="white"/>
</g>
<defs>
<clipPath id="clip0_65_10151">
<rect width="131" height="32" fill="white"/>
</clipPath>
</defs>
</svg>
