<svg width="120" height="63" viewBox="0 0 120 63" fill="none" xmlns="http://www.w3.org/2000/svg">
<g clip-path="url(#clip0_65_10076)">
<path d="M111.61 9.36328C111.869 9.36328 112.076 9.41536 112.335 9.57158C112.543 9.67573 112.75 9.88403 112.853 10.0923C113.009 10.3527 113.06 10.561 113.06 10.8214C113.06 11.0818 113.009 11.3421 112.853 11.5504C112.75 11.7587 112.543 11.967 112.335 12.0712C112.128 12.1753 111.869 12.2795 111.61 12.2795C111.351 12.2795 111.092 12.2274 110.885 12.0712C110.678 11.967 110.471 11.7587 110.367 11.5504C110.264 11.3421 110.16 11.0818 110.16 10.8214C110.16 10.561 110.212 10.3006 110.367 10.0923C110.523 9.88403 110.678 9.67573 110.937 9.57158C111.144 9.41536 111.403 9.36328 111.61 9.36328ZM111.61 9.46743C111.403 9.46743 111.196 9.51951 110.937 9.62366C110.678 9.72781 110.574 9.88403 110.419 10.0923C110.316 10.3006 110.264 10.5089 110.264 10.7693C110.264 10.9776 110.316 11.238 110.419 11.4463C110.523 11.6546 110.678 11.8108 110.885 11.9149C111.092 12.0191 111.3 12.0712 111.559 12.0712C111.766 12.0712 112.025 12.0191 112.232 11.9149C112.439 11.8108 112.594 11.6546 112.698 11.4463C112.802 11.238 112.853 11.0297 112.853 10.7693C112.853 10.561 112.802 10.3006 112.698 10.0923C112.594 9.88403 112.439 9.72781 112.18 9.62366C111.921 9.51951 111.869 9.46743 111.61 9.46743ZM110.833 9.88403H111.61C111.817 9.88403 111.973 9.93611 112.076 10.0403C112.18 10.1444 112.232 10.2486 112.232 10.3527C112.232 10.4569 112.18 10.561 112.128 10.6131C112.076 10.7172 111.921 10.7693 111.766 10.7693L112.18 11.3942C112.232 11.4463 112.284 11.4984 112.335 11.5504C112.387 11.5504 112.387 11.6025 112.439 11.6025V11.6546H112.076L111.455 10.8214H111.3V11.4984C111.3 11.5504 111.351 11.6025 111.351 11.6025C111.403 11.6025 111.455 11.6546 111.559 11.6546V11.7066H110.782V11.6546C110.833 11.6546 110.885 11.6546 110.937 11.6546C110.989 11.6546 110.989 11.6025 110.989 11.6025C110.989 11.6025 110.989 11.4984 110.989 11.3942V10.3006C110.989 10.1965 110.989 10.1444 110.989 10.1444C110.989 10.0923 110.937 10.0923 110.937 10.0923C110.937 10.0923 110.885 10.0923 110.782 10.0923V9.88403H110.833ZM111.3 10.7693C111.455 10.7693 111.559 10.7693 111.662 10.7172C111.714 10.6652 111.817 10.6652 111.817 10.561C111.869 10.5089 111.869 10.4569 111.869 10.3527C111.869 10.2486 111.817 10.1444 111.766 10.0923C111.714 10.0403 111.61 9.98818 111.455 9.98818C111.403 9.98818 111.351 9.98818 111.3 10.0403V10.7693Z" fill="white"/>
<path d="M114.045 22.9021C116.064 39.2536 92.1369 55.6572 60.5961 59.5628C29.0553 63.4684 2.12397 53.3659 0.104116 37.0144C-1.91574 20.6629 21.8564 4.2593 53.3972 0.353684C84.9379 -3.55193 112.076 6.55059 114.045 22.9021ZM59.3013 2.07215C30.5573 4.62382 8.28711 18.4237 9.58189 32.9005C10.8767 47.3773 35.1667 57.0632 63.9108 54.5115C92.6548 51.9599 114.925 38.16 113.63 23.6832C112.335 9.15434 88.0454 -0.479513 59.3013 2.07215Z" fill="white"/>
<path d="M113.371 37.1185C116.689 37.1185 119.379 34.414 119.379 31.0778C119.379 27.7416 116.689 25.0371 113.371 25.0371C110.053 25.0371 107.363 27.7416 107.363 31.0778C107.363 34.414 110.053 37.1185 113.371 37.1185Z" fill="white"/>
<path d="M30.713 25.9745H30.9201C31.5934 26.0266 31.9042 26.2349 32.0077 26.339C32.1113 26.4432 32.2667 26.8077 32.2667 27.9013V32.2755C32.2667 33.317 32.1631 34.0982 31.9042 34.5668C31.4898 35.4 30.6612 35.8166 29.3664 35.8166C28.227 35.8166 27.4501 35.4 27.0358 34.6189C26.8286 34.1502 26.7251 33.5253 26.7251 32.6401V27.2243C26.7251 26.4952 26.8804 26.2869 26.9322 26.2349C27.0358 26.1828 27.2948 26.0266 28.0198 25.9745H28.227V25.1934H22.9961V25.9745H23.2033C23.9801 26.0266 24.1873 26.1828 24.2909 26.2349C24.3427 26.2869 24.498 26.4952 24.498 27.2243V32.4838C24.498 33.5774 24.7052 34.4627 25.0677 35.1397C25.7928 36.3895 27.0876 37.0664 29.0039 37.0664C30.9201 37.0664 32.2667 36.4415 32.94 35.1397C33.3025 34.4627 33.5097 33.4733 33.5097 32.2755V27.9013C33.5097 26.8077 33.6651 26.4952 33.7686 26.3911C33.8722 26.2349 34.1312 26.0786 34.8563 26.0266H35.0634V25.2454H30.6612V25.9745H30.713Z" fill="white"/>
<path d="M19.8372 28.7864L18.0245 27.6407C17.3513 27.2241 16.8851 26.8596 16.5744 26.4951C16.2636 26.1826 16.1601 25.766 16.1601 25.2974C16.1601 24.7766 16.3154 24.36 16.678 24.0996C17.0405 23.7872 17.5066 23.631 18.0245 23.631C18.6978 23.631 19.3711 23.8913 20.0962 24.36C20.7695 24.8287 21.2874 25.766 21.5981 27.0158L21.6499 27.2241H22.634L22.116 22.3291H21.2356V22.4853C21.1838 22.6936 21.132 22.7978 21.0284 22.9019C20.9766 22.954 20.8731 23.0061 20.7177 23.0061C20.7177 23.0061 20.5105 22.954 19.6301 22.6936C18.9568 22.4333 18.3353 22.3291 17.8692 22.3291C16.678 22.3291 15.6939 22.6936 14.9171 23.4227C14.192 24.1517 13.8295 25.0891 13.8295 26.2347C13.8295 27.0679 14.1402 27.849 14.7617 28.5781C15.0725 28.9426 15.5386 29.3071 16.0565 29.6717L17.8174 30.7652C18.8014 31.3901 19.4747 31.8588 19.7854 32.1713C20.2516 32.6399 20.4587 33.1607 20.4587 33.7856C20.4587 34.4625 20.2516 34.9833 19.8372 35.3478C19.4229 35.7123 18.905 35.9206 18.2835 35.9206C17.1441 35.9206 16.2119 35.452 15.435 34.5667C14.9689 34.0459 14.6063 33.3169 14.2438 32.4316L14.192 32.2754H13.2598L13.933 37.2225H14.8135L14.8653 37.0142C14.8653 36.858 14.9171 36.7538 15.0207 36.5976C15.0725 36.5455 15.176 36.4935 15.2796 36.4935C15.2796 36.4935 15.4868 36.4935 16.419 36.858C17.1441 37.1184 17.8692 37.2225 18.4907 37.2225C19.8372 37.2225 20.9248 36.8059 21.8053 36.0769C22.6857 35.2957 23.1001 34.3063 23.1001 33.1607C23.1001 32.2754 22.8411 31.5464 22.375 30.9215C21.8053 30.1403 21.0284 29.4634 19.8372 28.7864Z" fill="white"/>
<path d="M39.5699 31.9624C39.8289 31.9624 40.0879 31.9624 40.295 31.9624C41.5898 31.9624 42.6774 31.7021 43.5579 31.1292C44.4901 30.5564 44.9044 29.6711 44.9044 28.4213C44.9044 27.4319 44.4901 26.6508 43.6614 26.0259C42.8846 25.4531 41.7452 25.1406 40.2432 25.1406H35.582V25.9217H35.7892C36.5143 25.9738 36.7214 26.13 36.7732 26.1821C36.825 26.2342 36.9804 26.4946 36.9804 27.1715V34.462C36.9804 35.2952 36.8768 35.5556 36.825 35.6597C36.7732 35.7118 36.5661 35.868 35.7892 35.9722H35.582V36.7533H40.7611V35.9722H40.554C39.7253 35.9201 39.4664 35.7639 39.4146 35.7118C39.3628 35.6597 39.2074 35.4514 39.2074 34.7224V31.9104C39.311 31.9104 39.4146 31.9624 39.5699 31.9624ZM39.2074 26.5987C39.2074 26.3904 39.2592 26.3383 39.2592 26.3383C39.2592 26.3383 39.3628 26.2863 39.7253 26.2863C40.3986 26.2863 40.9683 26.3904 41.4344 26.5987C42.2113 26.9632 42.6256 27.5881 42.6256 28.4734C42.6256 29.4628 42.2631 30.1398 41.538 30.5043C41.1237 30.7126 40.554 30.8168 39.8289 30.8168C39.7253 30.8168 39.6735 30.8168 39.5699 30.8168C39.5182 30.8168 39.3628 30.8168 39.2074 30.7647V26.5987Z" fill="white"/>
<path d="M53.4504 33.4736L53.3986 33.6298C52.9843 34.5151 52.57 35.0879 52.0521 35.2962C51.5342 35.5045 50.7573 35.6607 49.6179 35.6607C48.2713 35.6607 47.9088 35.6086 47.8052 35.5566C47.7534 35.5566 47.6498 35.5045 47.6498 35.192V31.2864H49.9804C50.8091 31.2864 51.068 31.4427 51.1716 31.5468C51.2752 31.651 51.4306 31.9634 51.5859 32.7445L51.6377 32.9528H52.4664V28.5785H51.6377L51.5859 28.7868C51.4306 29.5159 51.2752 29.8283 51.1716 29.9325C51.068 30.0366 50.8091 30.1929 49.9804 30.1929H47.6498V26.5997C47.6498 26.3914 47.7016 26.3393 47.6498 26.3393C47.6498 26.3393 47.7534 26.2872 47.9088 26.2872H50.1876C51.3788 26.2872 51.7931 26.4435 51.9485 26.5476C52.1039 26.6518 52.311 27.0163 52.5182 27.8495L52.57 28.0578H53.4504L53.3986 25.1416H44.0244V25.9227H44.2316C44.9567 25.9748 45.2156 26.131 45.2674 26.1831C45.3192 26.2352 45.4746 26.4955 45.4746 27.1725V34.6713C45.4746 35.4524 45.3192 35.6086 45.2674 35.6607C45.1639 35.7128 44.9567 35.869 44.1798 35.9211H43.9727V36.7022H53.5022L54.3827 33.3694H53.4504V33.4736Z" fill="white"/>
<path d="M64.325 35.8169C64.1179 35.7128 63.9625 35.5566 63.7553 35.2962L60.5443 31.3385C61.3211 31.1823 61.9944 30.8698 62.4605 30.4532C63.082 29.9325 63.3928 29.2555 63.3928 28.3182C63.3928 26.9642 62.7195 26.0269 61.3729 25.5061C60.6996 25.2458 59.871 25.1416 58.887 25.1416H53.9668V25.9227H54.174C54.899 25.9748 55.1062 26.131 55.2098 26.1831C55.2616 26.2352 55.4169 26.4955 55.4169 27.1725V34.463C55.4169 35.3483 55.3134 35.5566 55.2616 35.6607C55.2098 35.7128 55.0026 35.869 54.2258 35.9732H54.0186V36.7543H59.1977V35.9732H58.9905C58.2137 35.9211 58.0065 35.7649 57.9029 35.7128C57.8511 35.6607 57.6958 35.4524 57.6958 34.7234V31.651H58.0583L62.2534 36.8584H65.3091V36.0773H65.1019C64.7911 35.9732 64.5322 35.9211 64.325 35.8169ZM57.644 30.5053V26.5997C57.644 26.3914 57.6958 26.3393 57.6958 26.3393C57.6958 26.3393 57.8511 26.2872 58.4208 26.2872C59.0941 26.2872 59.612 26.3914 60.0264 26.5476C60.7514 26.8601 61.0622 27.4329 61.0622 28.3182C61.0622 29.2034 60.6996 29.8283 59.871 30.1408C59.4567 30.3491 58.6798 30.5053 57.644 30.5053Z" fill="white"/>
<path d="M73.2353 33.2122L69.5581 25.1406H65.8291V25.9217H66.0881C66.9167 25.9738 67.1757 26.13 67.2275 26.1821C67.3311 26.2342 67.4347 26.4946 67.4347 27.1715V34.0454C67.4347 35.139 67.2793 35.4514 67.1757 35.6077C67.0721 35.7118 66.8132 35.9201 65.9845 35.9722H65.7773V36.7533H70.2314V35.9722H70.0242C69.2991 35.9201 69.092 35.7639 68.9884 35.6597C68.833 35.5035 68.6776 35.0869 68.6776 34.0454V28.5255L72.5102 36.8575H73.0799L76.9642 28.161V34.5662C76.9642 35.4514 76.8088 35.7118 76.7571 35.7639C76.7053 35.816 76.4981 35.9722 75.6694 36.0243H75.4623V36.8054H80.6414V36.0243H80.4342C79.7092 35.9722 79.4502 35.816 79.3984 35.7639C79.3466 35.7118 79.1912 35.5035 79.1912 34.7745V27.2236C79.1912 26.5466 79.2948 26.2863 79.3984 26.2342C79.4502 26.1821 79.7092 26.0259 80.4342 25.9738H80.6414V25.1927H76.9124L73.2353 33.2122Z" fill="white"/>
<path d="M85.1461 35.7646C85.0943 35.7125 84.939 35.5563 84.939 34.7751V27.2243C84.939 26.4952 85.0943 26.2869 85.1461 26.2349C85.2497 26.1307 85.5087 26.0266 86.3373 25.9745H86.5963V25.1934H81.1582V25.9745H81.4172C82.2458 26.0266 82.5048 26.1307 82.6084 26.2349C82.6601 26.2869 82.8155 26.4952 82.8155 27.2243V34.7231C82.8155 35.5042 82.6601 35.7125 82.6084 35.7125C82.5048 35.7646 82.2458 35.9208 81.4172 35.9729H81.21V36.754H86.6481V35.9729H86.4409C85.5087 35.9729 85.1979 35.8166 85.1461 35.7646Z" fill="white"/>
<path d="M95.4517 34.2019C94.9856 34.6706 94.5195 35.0351 94.1051 35.2434C93.4318 35.66 92.655 35.8163 91.8263 35.8163C90.6869 35.8163 89.7547 35.3997 89.0296 34.5665C88.3045 33.7333 87.8902 32.5876 87.8902 31.1295C87.8902 29.5673 88.2527 28.3175 88.9778 27.4322C89.7029 26.5469 90.5833 26.1303 91.671 26.1303C92.7586 26.1303 93.5872 26.5469 94.2605 27.3281C94.623 27.7447 94.882 28.3696 95.0892 29.0465L95.141 29.2028H95.9696L95.8142 24.9326H95.0374L94.9856 25.0888C94.9338 25.193 94.882 25.2971 94.7784 25.3492C94.6748 25.4013 94.5712 25.4534 94.4677 25.4534C94.4159 25.4534 94.2605 25.4013 93.4318 25.193C92.7586 24.9847 92.1371 24.9326 91.5156 24.9326C89.7029 24.9326 88.2009 25.5575 87.1133 26.7552C86.0257 27.9009 85.5078 29.359 85.5078 31.0774C85.5078 32.7438 86.0257 34.1499 87.0615 35.2434C88.1492 36.4412 89.6511 37.0661 91.5156 37.0661C92.655 37.0661 93.7426 36.7536 94.7266 36.1287C95.2963 35.7642 95.7624 35.2955 96.1768 34.8268L96.3322 34.6706L95.7107 34.0457L95.4517 34.2019Z" fill="white"/>
<path d="M107.364 36.0243C107.053 35.9722 106.846 35.9201 106.638 35.816C106.431 35.7118 106.276 35.5556 106.069 35.2952L102.858 31.3375C103.635 31.1813 104.308 30.8689 104.774 30.4523C105.395 29.9315 105.706 29.2545 105.706 28.3172C105.706 26.9632 105.033 26.0259 103.686 25.5051C103.013 25.2448 102.184 25.1406 101.2 25.1406H96.332V25.9217H96.5392C97.2643 25.9738 97.4714 26.13 97.575 26.1821C97.6268 26.2342 97.7822 26.4946 97.7822 27.1715V34.462C97.7822 35.3473 97.6786 35.5556 97.6268 35.6597C97.575 35.7118 97.3679 35.868 96.591 35.9722H96.3838V36.7533H101.563V35.9722H101.356C100.579 35.9201 100.372 35.7639 100.268 35.7118C100.216 35.6597 100.061 35.4514 100.061 34.7224V31.65H100.424L104.619 36.8575H107.674V36.0763L107.364 36.0243ZM99.9574 30.5043V26.5987C99.9574 26.3904 100.009 26.3383 100.009 26.3383C100.009 26.3383 100.165 26.2863 100.734 26.2863C101.408 26.2863 101.925 26.3904 102.34 26.5466C103.065 26.8591 103.376 27.4319 103.376 28.3172C103.376 29.2025 103.013 29.8274 102.184 30.1398C101.77 30.3481 100.993 30.5043 99.9574 30.5043Z" fill="white"/>
</g>
<defs>
<clipPath id="clip0_65_10076">
<rect width="120" height="64" fill="white" transform="translate(0 -1)"/>
</clipPath>
</defs>
</svg>
