<svg width="32" height="32" viewBox="0 0 32 32" fill="none" xmlns="http://www.w3.org/2000/svg">
<g clip-path="url(#clip0_2400_3753)">
<path fill-rule="evenodd" clip-rule="evenodd" d="M9.84005 10.1605C6.98615 10.1865 4.67969 12.1038 4.67969 15.3688C4.67969 17.4808 5.9367 19.2981 7.74373 20.1141C8.5039 20.4228 9.26149 20.5409 9.83615 20.5409H22.1532C22.7292 20.5409 23.4882 20.428 24.2587 20.1205C26.0644 19.3033 27.3175 17.4808 27.3175 15.3688C27.3175 12.1038 25.0124 10.1865 22.1584 10.1605C22.1584 8.10701 20.5474 4 15.9992 4C11.4512 4 9.84005 8.10701 9.84005 10.1605Z" stroke="#FB6306" stroke-width="2" stroke-linecap="round" stroke-linejoin="round"/>
<path fill-rule="evenodd" clip-rule="evenodd" d="M17.9736 26.027C17.9736 27.1181 17.0888 28.0027 15.9978 28.0027C14.9069 28.0027 14.0234 27.1181 14.0234 26.027C14.0234 24.9361 14.9069 24.0527 15.9978 24.0527C17.0888 24.0527 17.9736 24.9361 17.9736 26.027Z" stroke="#FB6306" stroke-width="2" stroke-linecap="round" stroke-linejoin="round"/>
<path d="M23.6743 26.0254H17.9471M14.0437 26.0254H8.32812" stroke="#FB6306" stroke-width="2" stroke-linecap="round" stroke-linejoin="round"/>
<path d="M16 24.0429V20.5625" stroke="#FB6306" stroke-width="2" stroke-linecap="round" stroke-linejoin="round"/>
</g>
<defs>
<clipPath id="clip0_2400_3753">
<rect width="32" height="32" fill="white"/>
</clipPath>
</defs>
</svg>
