<svg width="32" height="32" viewBox="0 0 32 32" fill="none" xmlns="http://www.w3.org/2000/svg">
<path d="M11.7071 14.2929C11.3166 13.9024 10.6834 13.9024 10.2929 14.2929C9.90237 14.6834 9.90237 15.3166 10.2929 15.7071L13.9533 19.3675C14.3438 19.7581 14.977 19.7581 15.3675 19.3675L22.028 12.7071C22.4185 12.3166 22.4185 11.6834 22.028 11.2929C21.6374 10.9024 21.0043 10.9024 20.6137 11.2929L14.6604 17.2462L11.7071 14.2929ZM7.44977 23.0639L7.44961 23.0637C5.88105 21.4944 5 19.3655 5 17.1449V5.6169C5 5.25457 5.22325 4.92991 5.56158 4.79997C5.5617 4.79992 5.56182 4.79988 5.56194 4.79983L15.0178 1.18152C15.0178 1.18151 15.0178 1.1815 15.0178 1.1815C15.6496 0.939795 16.3469 0.93946 16.9776 1.18074L16.9776 1.18075L26.4389 4.80015L26.4389 4.80017C26.7761 4.92912 27 5.25379 27 5.6169V17.1433C27 19.3638 26.1183 21.4935 24.5496 23.0637C24.5495 23.0638 24.5495 23.0638 24.5494 23.0639L17.0559 30.561L17.0558 30.5611C16.4712 31.1463 15.5249 31.1463 14.9403 30.5611L7.44977 23.0639Z" stroke="#FB6306" stroke-width="2" stroke-linecap="round" stroke-linejoin="round"/>
</svg>
