<svg width="580" height="1024" viewBox="0 0 580 1024" fill="none" xmlns="http://www.w3.org/2000/svg">
<g clip-path="url(#clip0_4002_53)">
<g opacity="0.16">
<path d="M1105.62 656.663C1105.67 656.749 1105.72 656.834 1105.76 656.92C1105.95 657.262 1106.13 657.607 1106.31 657.95C1331.08 1075.88 1016.85 1604.35 540.869 1604.35H477.711H101.962H38.8042C-444.575 1604.35 -759.2 1058.67 -517.03 640.333L-459.121 540.296C-459.116 540.29 -459.112 540.284 -459.107 540.277L-459.077 540.224L-329.555 316.486C-329.319 316.077 -329.078 315.671 -328.832 315.267C-328.745 315.123 -328.656 314.98 -328.569 314.837L-329.408 316.242C-214.71 118.342 -2.6268 -3.90603 226.11 -3.95663C268.525 -3.97237 310.958 -3.98476 353.403 -3.98476L353.412 -4C582.259 -4 794.481 118.318 909.187 316.379C909.2 316.404 909.214 316.429 909.228 316.453L909.276 316.536C909.347 316.651 909.311 316.597 909.336 316.64C909.345 316.655 909.353 316.669 909.362 316.684L909.385 316.725C909.408 316.766 909.431 316.806 909.454 316.846C909.494 316.916 909.535 316.985 909.575 317.055C909.575 317.066 909.575 317.066 909.575 317.066L909.588 317.091C921.432 337.608 930.787 354.095 940.972 371.323C940.983 371.343 940.995 371.362 941.007 371.381C941.006 371.392 941.007 371.392 941.007 371.392C941.156 371.644 941.633 372.444 942.199 373.423C942.199 373.427 942.199 373.431 942.199 373.435C942.409 373.797 942.586 374.177 942.792 374.542C942.93 374.75 943.066 374.958 943.201 375.168L993.078 461.322C993.097 461.355 993.115 461.389 993.133 461.423C1011.45 493.063 1030.42 525.824 1049.17 558.211C1049.2 558.263 1049.23 558.315 1049.26 558.367C1049.21 558.282 1049.42 558.638 1049.3 558.429C1063.14 582.336 1085.01 619.142 1104.77 655.076C1104.83 655.199 1104.9 655.322 1104.97 655.445C1105.07 655.633 1105.17 655.823 1105.27 656.012C1105.39 656.231 1105.51 656.451 1105.61 656.64L1105.62 656.663ZM1105.62 656.663C1105.6 656.616 1105.57 656.568 1105.54 656.521L1105.49 656.417C1105.39 656.236 1105.83 657.045 1105.59 656.601L1105.62 656.663ZM353.405 58.5251C310.973 58.5251 268.548 58.5375 226.136 58.5533C19.6594 58.596 -171.787 168.947 -275.323 347.588C-275.367 347.66 -275.411 347.732 -275.455 347.804L-405.007 571.594C-405.011 571.6 -405.015 571.606 -405.019 571.612L-462.928 671.649C-681.529 1049.27 -397.529 1541.84 38.8056 1541.84H101.963H477.713H540.87C970.598 1541.84 1254.12 1064.68 1051.23 687.516C1051.07 687.206 1050.91 686.897 1050.74 686.589L1050.8 686.69C1050.77 686.635 1050.75 686.605 1050.73 686.552L1050.71 686.528C1050.55 686.223 1050.41 685.964 1050.28 685.728C1050.18 685.548 1050.09 685.369 1049.99 685.19C1030.95 650.554 1009.39 614.255 995.199 589.746C995.188 589.73 995.174 589.701 995.165 589.684C976.378 557.232 957.36 524.393 939 492.677C938.994 492.665 938.987 492.654 938.981 492.642L889.104 406.488L889.993 408.282C889.398 407.08 888.763 405.897 888.091 404.736C887.7 404.059 887.377 403.514 887.217 403.244L887.196 403.209C876.599 385.286 867.113 368.559 855.312 348.116L855.294 348.086L855.27 348.044L855.259 348.03C855.208 347.942 855.159 347.853 855.107 347.765C855.099 347.751 855.091 347.737 855.084 347.723C751.542 168.939 559.976 58.5256 353.403 58.5256L353.405 58.5251ZM353.401 121.037C310.982 121.037 268.566 121.05 226.157 121.065C41.869 121.099 -129.003 219.625 -221.353 379.117L-350.905 602.908L-408.825 702.961C-603.858 1039.87 -350.483 1479.32 38.807 1479.32H101.965H477.714H540.872C924.495 1479.32 1177.38 1053.15 995.949 716.67C995.916 716.608 995.884 716.547 995.85 716.485C995.839 716.474 995.839 716.463 995.832 716.453V716.448L995.819 716.424C995.657 716.125 995.495 715.828 995.331 715.53C995.292 715.454 995.252 715.378 995.213 715.302C976.883 681.962 955.582 646.073 941.066 620.997C922.276 588.54 903.252 555.691 884.881 523.957L833.993 436.055L833.982 436.041C833.747 435.635 833.556 435.312 833.402 435.053C822.432 416.498 812.82 399.543 801.12 379.279L801.079 379.207C801.048 379.153 801.018 379.1 800.987 379.047C708.61 219.54 537.699 121.032 353.401 121.032L353.401 121.037ZM226.186 183.583C64.1682 183.607 -86.0569 270.226 -167.247 410.444L-296.799 634.235L-354.719 734.289C-526.182 1030.48 -303.436 1416.81 38.8079 1416.81H101.966H477.715H540.873C878.192 1416.81 1100.37 1042.05 940.925 746.348L940.911 746.324C940.751 746.027 940.591 745.732 940.428 745.436V745.427C922.84 713.435 901.783 677.931 886.96 652.325C868.173 619.872 849.151 587.023 830.777 555.284L779.883 467.369C779.787 467.204 779.69 467.039 779.593 466.875C768.26 447.706 758.517 430.515 746.936 410.455L746.894 410.382C665.682 270.154 515.428 183.553 353.406 183.553C311 183.553 268.593 183.567 226.186 183.583ZM289.808 246.07L226.2 246.091C86.452 246.109 -43.1278 320.82 -113.158 441.766L-242.711 665.557L-300.631 765.611C-448.528 1021.09 -256.409 1354.31 38.7979 1354.31H101.956H477.705H540.863C831.885 1354.31 1023.36 1030.92 885.883 775.999C885.803 775.85 885.722 775.702 885.641 775.555C868.81 744.939 847.959 709.753 832.847 683.647C814.063 651.199 795.041 618.349 776.665 586.606L725.77 498.691C714.095 478.944 704.221 461.515 692.787 441.712C622.739 320.761 493.14 246.067 353.392 246.067H289.83L289.808 246.07ZM226.222 308.6C108.743 308.612 -0.189209 371.416 -59.0599 473.088L-188.613 696.878L-246.533 796.932C-370.867 1011.71 -209.378 1291.8 38.7974 1291.8H101.955H477.705H540.862C785.56 1291.8 946.336 1019.79 830.864 805.673C814.811 776.474 794.129 741.539 778.747 714.967C759.966 682.525 740.945 649.676 722.566 617.928L639.312 474.116C639.296 474.086 639.257 474.014 639.244 473.995L639.233 473.977C638.996 473.56 638.825 473.267 638.708 473.065C579.828 371.378 470.875 308.58 353.391 308.58L289.83 308.581L226.222 308.6ZM353.384 371.09H289.834L226.236 371.108C131.03 371.108 42.7424 422.01 -4.96912 504.41L-134.895 728.842L-134.93 728.904L-134.943 728.923L-192.444 828.252C-293.225 1002.34 -162.371 1229.3 38.7898 1229.3H101.948H477.697H540.854C740.382 1229.3 871.023 1006.27 774.324 832.335L774.904 833.402C774.852 833.305 774.283 832.16 773.134 830.095L773.118 830.069C772.787 829.473 772.451 828.88 772.11 828.29L772.086 828.25L668.462 649.25L585.049 505.161C584.987 505.051 584.924 504.941 584.862 504.831C584.779 504.685 584.694 504.538 584.609 504.392C536.894 421.984 448.595 371.09 353.384 371.09ZM289.816 433.604L226.25 433.616C153.325 433.616 85.6742 472.614 49.1274 535.732L-80.8338 760.225V760.227C-80.8376 760.233 -80.8413 760.239 -80.845 760.245L-138.345 859.574C-215.599 993.023 -115.41 1166.79 38.7898 1166.79H101.948H477.697H540.854C693.85 1166.79 793.767 995.955 719.692 862.712C719.296 861.966 718.913 861.212 718.501 860.474C718.333 860.172 718.163 859.871 717.99 859.572L614.365 680.572L530.75 536.136C530.672 535.996 530.594 535.857 530.515 535.718C493.967 472.597 426.312 433.602 353.384 433.602H289.827C289.823 433.602 289.819 433.602 289.815 433.602L289.816 433.604ZM226.262 496.117C175.53 496.117 128.647 523.14 103.223 567.049L-26.7386 791.543V791.545L-84.25 890.891C-138.199 984.084 -68.8928 1104.29 38.7911 1104.29H101.949H477.698H540.856C647.723 1104.29 716.726 985.911 665.035 893.028C664.669 892.308 664.29 891.595 663.897 890.889L560.272 711.889L476.424 567.051C476.424 567.047 476.424 567.044 476.424 567.04C451 523.131 404.117 496.107 353.385 496.107H289.828L226.262 496.117ZM226.263 558.629C197.938 558.629 171.517 573.858 157.322 598.373L27.3611 822.867L-30.1503 922.213C-59.3827 972.71 -19.5597 1041.78 38.7901 1041.78H101.948H477.697H540.855C599.207 1041.78 639.028 972.713 609.795 922.215V922.213L506.171 743.213L422.323 598.373C408.128 573.858 381.707 558.629 353.382 558.629H289.825L226.263 558.629ZM477.69 979.276H38.7828C25.5735 979.276 17.3244 964.969 23.9424 953.537L81.4544 854.192L211.417 629.697C214.483 624.401 220.138 621.14 226.257 621.14H289.815H353.373C359.492 621.14 365.147 624.401 368.214 629.697L452.062 774.537L555.688 953.537C562.305 964.969 554.056 979.276 540.847 979.276H477.69Z" stroke="url(#paint0_linear_4002_53)" stroke-width="1.5"/>
</g>
</g>
<rect opacity="0.15" width="580" height="1024" fill="#242222"/>
<defs>
<linearGradient id="paint0_linear_4002_53" x1="289.957" y1="-4" x2="289.957" y2="622" gradientUnits="userSpaceOnUse">
<stop stop-color="white" stop-opacity="0"/>
<stop offset="1" stop-color="white"/>
</linearGradient>
<clipPath id="clip0_4002_53">
<rect width="580" height="1028" fill="white" transform="translate(0 -4)"/>
</clipPath>
</defs>
</svg>
