<svg width="16" height="16" viewBox="0 0 16 16" fill="none" xmlns="http://www.w3.org/2000/svg">
<g clip-path="url(#clip0_2391_1059)">
<path d="M15.7606 9.93524C14.692 14.221 10.3508 16.8292 6.06404 15.7605C1.77909 14.692 -0.829432 10.351 0.239615 6.06558C1.30772 1.77935 5.64899 -0.82907 9.9344 0.239387C14.2208 1.30784 16.8292 5.64936 15.7605 9.93531L15.7606 9.93524H15.7606Z" fill="#06A3FB"/>
<path d="M11.5295 6.86022C11.6888 5.7956 10.8781 5.22332 9.76968 4.84156L10.1293 3.39943L9.2513 3.18068L8.90125 4.58484C8.67044 4.52728 8.43341 4.47305 8.19782 4.41928L8.55042 3.00585L7.673 2.78711L7.31321 4.22877C7.1222 4.18529 6.9346 4.14231 6.7526 4.09703L6.75361 4.09249L5.54288 3.79019L5.30933 4.7278C5.30933 4.7278 5.96071 4.8771 5.94698 4.88629C6.30251 4.97501 6.3668 5.21034 6.35612 5.39686L5.94651 7.03978C5.97099 7.046 6.00275 7.055 6.03779 7.06907C6.0085 7.0618 5.97733 7.05386 5.94499 7.04612L5.37085 9.34762C5.3274 9.45562 5.21711 9.61771 4.96855 9.55616C4.97734 9.56891 4.33043 9.39693 4.33043 9.39693L3.89453 10.4018L5.03706 10.6866C5.24961 10.7399 5.4579 10.7957 5.66302 10.8481L5.29971 12.3068L6.17666 12.5255L6.53645 11.0823C6.77602 11.1473 7.00852 11.2073 7.23613 11.2639L6.87755 12.7003L7.75555 12.919L8.11882 11.4631C9.61594 11.7464 10.7417 11.6321 11.2155 10.2782C11.5973 9.18804 11.1965 8.55926 10.4089 8.14922C10.9825 8.01694 11.4146 7.63967 11.5298 6.86034L11.5296 6.86014L11.5295 6.86022ZM9.52357 9.67276C9.25224 10.7629 7.41661 10.1736 6.82147 10.0258L7.30359 8.09334C7.89869 8.2419 9.80714 8.53587 9.52361 9.67276H9.52357ZM9.7951 6.84442C9.54758 7.836 8.01976 7.33224 7.52415 7.20871L7.96126 5.45606C8.45687 5.57959 10.0529 5.81014 9.79517 6.84442H9.7951Z" fill="white"/>
</g>
<defs>
<clipPath id="clip0_2391_1059">
<rect width="16" height="16" fill="white"/>
</clipPath>
</defs>
</svg>
