<svg width="16" height="16" viewBox="0 0 16 16" fill="none" xmlns="http://www.w3.org/2000/svg">
<g clip-path="url(#clip0_2391_1064)">
<path d="M8 16C12.4183 16 16 12.4183 16 8C16 3.58172 12.4183 0 8 0C3.58172 0 0 3.58172 0 8C0 12.4183 3.58172 16 8 16Z" fill="#0AC18E"/>
<path d="M10.497 5.31421C10.0949 4.40253 9.17107 4.20761 8.04011 4.39644L7.67665 2.9873L6.8198 3.20862L7.17716 4.6137C6.95178 4.67055 6.72031 4.71928 6.49087 4.78426L6.13351 3.3873L5.27665 3.60862L5.64011 5.01776C5.45533 5.07055 3.91016 5.46649 3.91016 5.46649L4.14569 6.38426C4.14569 6.38426 4.77513 6.20761 4.76904 6.22182C5.11828 6.13045 5.28274 6.30507 5.3599 6.46954L6.35889 10.3315C6.37107 10.4431 6.35077 10.634 6.11117 10.699C6.12538 10.7071 5.48782 10.8594 5.48782 10.8594L5.58122 11.9294C5.58122 11.9294 7.11219 11.5376 7.3132 11.4868L7.68071 12.9122L8.53757 12.6909L8.17005 11.2553C8.40559 11.2005 8.63503 11.1437 8.85838 11.0848L9.22386 12.5122L10.0807 12.2909L9.7132 10.8675C11.033 10.5467 11.965 9.71421 11.7741 8.44111C11.6523 7.6736 10.8137 7.04416 10.1173 6.97309C10.5457 6.5934 10.7629 6.03908 10.497 5.31421ZM10.0848 8.67461C10.2553 9.93553 8.50305 10.0898 7.92437 10.2421L7.42082 8.35583C8.00153 8.20355 9.79645 7.56395 10.0848 8.67461ZM9.02894 6.10609C9.20965 7.2269 7.71117 7.35685 7.22792 7.48071L6.76904 5.76903C7.25432 5.64923 8.66143 5.06852 9.02894 6.10609Z" fill="white"/>
</g>
<defs>
<clipPath id="clip0_2391_1064">
<rect width="16" height="16" fill="white"/>
</clipPath>
</defs>
</svg>
