<svg width="16" height="16" viewBox="0 0 16 16" fill="none" xmlns="http://www.w3.org/2000/svg">
<g clip-path="url(#clip0_2391_1065)">
<path d="M8 16C12.4183 16 16 12.4183 16 8C16 3.58172 12.4183 0 8 0C3.58172 0 0 3.58172 0 8C0 12.4183 3.58172 16 8 16Z" fill="#988430"/>
<path d="M7.99765 15.7433C12.2744 15.7433 15.7414 12.2764 15.7414 7.9996C15.7414 3.72285 12.2744 0.255859 7.99765 0.255859C3.7209 0.255859 0.253906 3.72285 0.253906 7.9996C0.253906 12.2764 3.7209 15.7433 7.99765 15.7433Z" fill="#7A6A2A"/>
<path d="M7.99855 15.5811C12.1852 15.5811 15.5791 12.1872 15.5791 8.00051C15.5791 3.81387 12.1852 0.419922 7.99855 0.419922C3.81191 0.419922 0.417969 3.81387 0.417969 8.00051C0.417969 12.1872 3.81191 15.5811 7.99855 15.5811Z" fill="#BA9F33"/>
<path fill-rule="evenodd" clip-rule="evenodd" d="M3.49658 7.14532C3.45127 7.10393 3.4034 7.06246 3.35937 7.02108C3.31534 6.97969 3.27011 6.93822 3.2248 6.89683L3.09014 6.76883C3.06813 6.74681 3.04483 6.72744 3.02281 6.70534C3.0008 6.68597 2.97494 6.66396 2.95293 6.6445C2.77424 6.47494 2.59453 6.30538 2.41831 6.13574C2.60084 6.30274 2.77953 6.46854 2.96206 6.63801L3.02546 6.7015C3.04747 6.72343 3.07077 6.74289 3.09279 6.7649L3.22736 6.88915C3.27267 6.93054 3.3167 6.97201 3.36201 7.01715C3.40733 7.06229 3.45136 7.10385 3.49667 7.14515L3.49658 7.14532ZM1.12509 7.11972C1.12509 7.11972 1.7749 7.18696 2.09208 7.23228C2.38589 7.27375 3.30501 7.4148 3.30501 7.4148L1.12509 7.11972ZM1.12509 7.11972C1.30761 7.13525 1.49014 7.15462 1.67267 7.17408C1.76585 7.18312 1.8552 7.19345 1.94454 7.20249L2.08167 7.21811C2.12698 7.22451 2.17102 7.231 2.21633 7.23748L2.76007 7.32418L3.03186 7.36949C3.1212 7.38502 3.21055 7.40192 3.30373 7.41745C3.21439 7.4084 3.1212 7.39543 3.03186 7.38246L2.76007 7.34364L2.21633 7.26342C2.17102 7.25694 2.12698 7.24781 2.08167 7.24141L1.94446 7.22562C1.85511 7.21657 1.76193 7.2036 1.67258 7.19319C1.49006 7.17126 1.30753 7.14788 1.125 7.11946L1.12509 7.11972ZM3.24033 7.5841C3.24033 7.5841 2.54648 7.76023 2.31216 7.82756C2.08176 7.89096 1.38399 8.10327 1.38399 8.10327L3.24024 7.58419L3.24033 7.5841Z" fill="#CFB66C"/>
<path fill-rule="evenodd" clip-rule="evenodd" d="M3.24168 7.58398C3.08765 7.6293 2.93448 7.67333 2.77823 7.7148L2.31479 7.83905C2.16076 7.88436 2.00759 7.92839 1.85399 7.9737L1.62359 8.0371C1.54721 8.05912 1.46956 8.07849 1.39062 8.10059C1.46691 8.07499 1.54465 8.0488 1.62103 8.02678L1.85143 7.95305C2.00545 7.90509 2.15863 7.85978 2.31223 7.81191C2.46881 7.77308 2.62292 7.73161 2.77951 7.69406C2.92833 7.65652 3.085 7.61906 3.24168 7.58407V7.58398ZM1.48253 8.53033C1.55882 8.50183 2.43912 8.09155 2.64366 7.99572C2.74606 7.94776 3.0437 7.84212 3.0437 7.84212L1.48253 8.53033Z" fill="#CFB66C"/>
<path fill-rule="evenodd" clip-rule="evenodd" d="M1.48055 8.53048C1.5478 8.50488 1.61128 8.47357 1.67597 8.44379L1.86754 8.35444L2.25205 8.16935C2.38005 8.10851 2.50447 8.04135 2.63648 7.98418C2.70381 7.95576 2.77114 7.93247 2.83838 7.91045L2.94078 7.87811C2.97568 7.86907 3.00811 7.85865 3.04318 7.84961C2.91518 7.91045 2.78044 7.96225 2.65227 8.02173C2.52427 8.08522 2.39336 8.13701 2.26127 8.19393L1.87036 8.36605C1.73911 8.41921 1.61111 8.47613 1.48047 8.53048H1.48055ZM1.56589 8.88888C1.56589 8.88888 2.36324 8.4216 2.63767 8.27141C2.78138 8.1912 3.2461 7.96071 3.2461 7.96071L1.56589 8.88888Z" fill="#CFB66C"/>
<path fill-rule="evenodd" clip-rule="evenodd" d="M1.56641 8.88971C1.70098 8.80686 1.83819 8.72272 1.97541 8.6373L2.18021 8.51297C2.2501 8.47158 2.31742 8.43275 2.38868 8.39137C2.45857 8.3499 2.52589 8.30851 2.59706 8.26968C2.63094 8.24876 2.66644 8.23059 2.70322 8.21533L2.81193 8.16097C2.95563 8.09108 3.09933 8.01983 3.2508 7.95898C3.11358 8.04577 2.97244 8.11958 2.83139 8.19587C2.7615 8.2347 2.69025 8.26968 2.62036 8.30851C2.55047 8.34734 2.48314 8.38881 2.41189 8.42635C2.342 8.46774 2.27467 8.50657 2.2035 8.54411L1.99248 8.65931L1.56658 8.88971H1.56641ZM3.24013 8.06377C3.24013 8.06377 2.74435 8.44436 2.58384 8.56605C2.42332 8.68773 1.95083 9.02949 1.95083 9.02949L3.24013 8.06377Z" fill="#CFB66C"/>
<path fill-rule="evenodd" clip-rule="evenodd" d="M6.08963 11.1325L5.83594 10.6523L5.98348 10.0516L7.03589 9.64516L6.58798 8.72612L6.80933 7.79795L7.22491 6.9668L8.50909 6.7649L9.45271 5.86523L11.4903 6.01926L11.8903 8.19791L11.12 10.9409L10.6812 12.3611L8.90256 12.4284L8.07671 11.8562L7.10971 11.4523L6.08963 11.1325Z" fill="#E2CC85"/>
<path fill-rule="evenodd" clip-rule="evenodd" d="M9.20406 11.1173C9.20406 11.1173 8.95805 11.23 8.53846 11.204C8.41704 11.0409 7.5666 10.9646 7.5666 10.9646C7.5666 10.9646 7.46045 10.9322 7.27272 11.0099C7.08379 11.0867 6.9051 11.0772 6.7381 11.1186C6.5711 11.16 6.4053 10.9426 6.2773 10.8972C6.1493 10.8494 5.97957 10.7342 5.97957 10.7342L5.62117 10.6992L4.90147 10.395L3.75809 9.25586L3.44739 9.74226L3.35156 10.3442L3.69725 11.0575L4.62798 11.9054L6.44285 12.3662L7.51856 12.0492L8.86614 11.4796L9.20406 11.1172V11.1173Z" fill="#F1D789"/>
<path fill-rule="evenodd" clip-rule="evenodd" d="M2.75682 7.0912L2.98722 6.39351L3.26174 5.94295L4.14579 5.86914L3.88041 6.64328L3.14133 7.95853L3.44811 9.13263L2.90445 9.40441L2.73737 9.14816L2.6028 8.56047L2.59375 7.90024L2.75682 7.0912Z" fill="#F4ECB4"/>
<path fill-rule="evenodd" clip-rule="evenodd" d="M3.74878 11.0697L3.57923 10.8328C3.57923 10.8328 3.53391 10.7201 3.55985 10.6217C3.58545 10.5221 3.58179 10.5156 3.5689 10.478C3.55601 10.4405 3.44721 10.311 3.4537 10.1997C3.4601 10.087 3.44465 10.0495 3.52743 9.96023C3.61413 9.87354 3.58827 9.72335 3.58827 9.72335L3.70091 9.79324L3.72651 9.75441C3.72651 9.75441 3.7679 9.78675 3.7679 9.83727C3.77694 9.76738 3.7394 9.44371 3.82481 9.36998C3.91023 9.29626 4.0617 9.71558 4.0617 9.71558L3.96852 9.10716L3.72899 8.48329L3.30309 7.91369L3.27749 7.2858V7.23145C3.27749 7.23145 3.08199 7.53182 3.02763 7.76905C2.9888 7.93212 3.08199 8.13018 3.06262 8.3645C3.047 8.59755 3.02763 8.57937 3.08455 8.6717C3.14147 8.76403 3.28005 8.9539 3.22569 9.09111C3.17782 9.20896 3.01466 9.1261 3.01466 9.1261C3.01466 9.1261 2.98232 9.22185 2.93829 9.25683C2.92276 9.19991 2.90595 9.16365 2.87488 9.12883C2.87224 9.15085 2.86584 9.18063 2.86584 9.18063C2.86584 9.18063 2.83734 9.09129 2.80884 8.97865C2.77009 8.82854 2.72862 8.63049 2.69108 8.52433C2.67555 8.58517 2.63672 8.77026 2.63672 8.77026L2.65873 9.0551L2.76489 9.44602L2.86729 9.70202L2.96696 10.0153L3.05357 10.2257L3.12346 10.3862L3.1843 10.7474L3.47811 11.058L3.63478 11.128L3.74861 11.0697L3.74878 11.0697Z" fill="#F3E19D"/>
<path fill-rule="evenodd" clip-rule="evenodd" d="M2.91218 6.52218C2.91218 6.52218 2.70115 6.88058 2.6404 7.24188C2.57964 7.60318 2.5252 7.98496 2.5636 8.47682C2.60242 8.9727 2.67624 9.27682 2.7358 9.49434C2.8382 9.85555 3.10342 10.3578 3.10342 10.3578L3.11246 10.3384C3.06788 10.2539 3.0323 10.1649 3.00631 10.073C2.97132 9.93577 2.95835 9.7727 2.92601 9.69888C2.89751 9.62515 2.84963 9.56167 2.82634 9.47104C2.80432 9.38434 2.80074 9.24713 2.73315 9.1449C2.70465 9.10343 2.66967 8.99471 2.65934 8.886C2.64637 8.72284 2.66583 8.54031 2.6503 8.39021C2.62179 8.14035 2.60242 7.9708 2.62828 7.83998C2.65414 7.70916 2.78888 7.33779 2.87174 7.04263C2.92609 6.85361 2.89367 6.69438 2.99334 6.52994C3.093 6.36687 3.15393 6.22317 3.17586 6.1235C3.20146 6.03288 2.91184 6.52218 2.91184 6.52218H2.91218Z" fill="#F2E8B0"/>
<path fill-rule="evenodd" clip-rule="evenodd" d="M3.91363 6.37793C3.91363 6.37793 3.80492 6.41036 3.75312 6.46727C3.70133 6.52163 3.67931 6.56694 3.60942 6.65885C3.53953 6.75075 3.53561 6.82584 3.47861 6.94104C3.42169 7.05368 3.29608 7.22324 3.28055 7.28408C3.26502 7.34493 3.23916 7.62968 3.20682 7.76434C3.17832 7.899 3.23916 8.06471 3.23916 8.06471L3.31289 8.0491C3.31289 8.0491 3.31289 8.14493 3.3867 8.2097C3.46043 8.2731 3.4734 7.99474 3.4734 7.99474L3.74911 7.06401L4.1646 6.78181L4.20991 6.55397L3.91346 6.37793H3.91363Z" fill="#F5EEC0"/>
<path fill-rule="evenodd" clip-rule="evenodd" d="M4.11445 6.80001C4.11445 6.80001 3.91895 6.81289 3.82321 6.88287C3.78438 6.91128 3.76885 6.93458 3.72747 6.96956C3.65109 7.03297 3.57335 7.09125 3.53589 7.17436C3.49442 7.25714 3.44911 7.38275 3.41805 7.61963C3.40508 7.7193 3.40508 7.81121 3.39603 7.89151C3.38306 8.00022 3.36369 8.08692 3.37401 8.14751C3.38699 8.27175 3.51516 8.33652 3.52761 8.47758L3.793 8.343L4.04286 7.35783L4.57363 7.02503L4.27326 6.68848L4.11411 6.79941L4.11445 6.80001Z" fill="#E6DB9D"/>
<path fill-rule="evenodd" clip-rule="evenodd" d="M2.71493 13.4341C2.71604 13.4244 2.71715 13.4146 2.71826 13.4046C2.757 13.0718 2.76357 12.8196 2.79198 12.6617C2.83337 12.4377 2.86187 12.3545 2.85539 12.2707C2.84634 12.1361 2.83602 12.0377 2.84899 11.9341C2.86836 11.7969 3.00301 11.6338 2.99917 11.5212C2.99653 11.4318 2.95122 11.3736 2.91239 11.3193C2.87356 11.2649 2.8425 11.2196 2.8425 11.2196C2.8425 11.2196 3.10789 11.0371 3.10533 10.3018C3.11075 10.3033 3.11596 10.3055 3.12086 10.3082L3.25159 10.6797L3.34093 10.7884L3.68397 11.4279L4.1254 11.8564L4.77778 12.2952L5.18686 12.7404L5.22825 13.9275L4.69364 14.6213L4.60609 14.7799C3.91051 14.4307 3.27267 13.9768 2.71484 13.434L2.71493 13.4341Z" fill="#E5CB7A"/>
<path fill-rule="evenodd" clip-rule="evenodd" d="M4.34766 14.5694C4.34766 14.5694 4.3567 14.4218 4.47839 14.326C4.49784 14.3583 4.51073 14.3895 4.50689 14.4127C4.5289 14.374 4.68293 14.1254 5.03118 14.0606C5.37942 13.9972 5.46356 13.7435 5.46356 13.7435L6.20263 13.0717L7.04794 12.2937L8.07578 11.9325L8.55613 11.8146C8.55613 11.8146 8.56517 11.8496 8.54708 11.9273C8.63634 11.9209 8.8344 11.8756 9.04022 11.803C9.12308 11.7707 9.20082 11.7577 9.24221 11.8005C9.30305 11.8574 9.31209 11.992 9.31593 12.0723C9.4156 12.0502 9.5308 11.9545 9.62313 11.9635C9.77076 11.9791 9.90149 12.1526 10.0517 12.1526C10.2497 12.1526 10.339 12.0309 10.4776 11.935C10.5604 11.8781 10.6795 11.807 10.7468 11.759C10.9073 11.6412 12.6057 11.1221 12.6057 11.1221L13.2012 11.1609L13.297 11.8004L13.2458 13.4721C13.2395 13.4781 13.2332 13.4844 13.2268 13.4905L10.5193 14.9046L6.76634 15.4799C5.92567 15.3425 5.1144 15.0635 4.36711 14.6546L4.34791 14.5693L4.34766 14.5694Z" fill="#D8C173"/>
<path fill-rule="evenodd" clip-rule="evenodd" d="M2.94531 13.6464C2.99865 13.5348 3.0466 13.4416 3.05505 13.4082C3.06171 13.4754 3.07391 13.623 3.09849 13.7798C3.04689 13.736 2.99583 13.6915 2.94531 13.6463V13.6464Z" fill="#F1D789"/>
<path fill-rule="evenodd" clip-rule="evenodd" d="M5.68419 15.2199L6.16957 15.0849L6.21095 15.0978C6.21095 15.0978 6.23297 15.1108 6.23297 15.1548C6.29381 15.1198 6.34561 15.1262 6.38316 15.103C6.40253 15.1444 6.4219 15.2816 6.5074 15.2985C6.59666 15.3179 6.69249 15.2596 6.7896 15.1859C6.88534 15.1095 6.9944 15.0137 7.07692 14.9749C7.10719 15.0305 7.13401 15.088 7.15721 15.147C7.26593 15.0603 7.45494 14.7082 7.72417 14.7146C7.80199 14.5307 7.93199 14.3737 8.0981 14.2628C8.34796 14.0933 8.50454 14.0803 8.70004 14.0958C8.77769 13.995 8.87337 13.9094 8.98224 13.8434C9.01458 13.8564 9.10392 13.9108 9.21528 13.859C9.32792 13.8073 9.45473 13.6065 9.62173 13.5807C9.71172 13.5683 9.80322 13.5875 9.88063 13.635C9.88063 13.635 10.367 13.1521 10.7026 12.9916C10.6897 12.9528 10.6638 12.8065 11.0573 12.4829C11.0793 12.5023 11.0638 12.5567 11.0793 12.5597C11.0857 12.5597 11.1817 12.5183 11.3032 12.425C11.4534 12.3125 11.6333 12.1946 11.742 12.1623C11.9468 12.1014 12.1641 12.2257 12.1641 12.2257C12.1825 12.2127 12.2031 12.2031 12.2249 12.1972C12.2766 12.1881 12.3142 12.1817 12.3427 12.1716C12.3401 12.2389 12.3777 12.3541 12.3427 12.4538C12.3832 12.4766 12.4261 12.4948 12.4707 12.5081C12.4487 12.556 12.4008 12.6777 12.3206 12.736C12.3878 12.7683 12.3969 12.8059 12.4927 12.8384C12.4539 12.8927 12.3903 12.986 12.362 13.0432C12.3334 13.104 12.2311 13.3564 12.1858 13.4522C12.138 13.548 12.0733 13.7241 12.0421 13.7594C12.011 13.7947 11.8984 13.9445 11.8117 14.0182C11.8885 13.9897 12.2027 13.894 12.336 13.8577C12.2963 13.9159 12.0952 14.2143 11.9018 14.5013C10.976 15.0562 9.94255 15.4074 8.87032 15.5315C7.79809 15.6557 6.71171 15.5499 5.68359 15.2211L5.68419 15.2199Z" fill="#E0CD81"/>
<path fill-rule="evenodd" clip-rule="evenodd" d="M4.1448 6.7651C4.1448 6.7651 4.03224 6.7651 4.01023 6.78063C3.98821 6.79616 4.12287 6.82859 4.16425 6.84412C4.20564 6.85965 4.29498 6.93082 4.31828 6.98782C4.3403 7.04218 5.12733 7.35927 5.12733 7.35927L5.68396 7.33077L5.87587 7.06564L5.51081 6.7459L5.76681 5.99121L5.4277 6.04557L4.61217 6.53197L4.20308 6.68864L4.1448 6.7651Z" fill="#DFC57C"/>
<path fill-rule="evenodd" clip-rule="evenodd" d="M5.36889 7.0152C5.37694 7.02823 5.38827 7.03891 5.40175 7.04617C5.41523 7.05344 5.43039 7.05703 5.44569 7.05658C5.56089 7.05658 5.66696 7.08508 5.711 7.14328C5.78481 7.23655 5.98935 7.53428 5.98935 7.53428L6.47865 7.71032L6.51023 7.13415L5.97561 6.7627L5.36719 6.98661V7.01511H5.36855L5.36889 7.0152Z" fill="#E5CC7C"/>
<path fill-rule="evenodd" clip-rule="evenodd" d="M5.27113 7.22853C5.27113 7.22853 5.36039 7.23502 5.47303 7.19354C5.58567 7.15207 5.77076 7.06281 5.85106 7.0978C5.96361 7.14567 5.94032 7.29586 6.06209 7.4306C6.13582 7.51346 6.27047 7.5109 6.34685 7.60024C6.42322 7.68959 6.68596 7.64812 6.68596 7.64812L6.78563 8.18572L6.38567 8.6984L6.25486 9.33524H5.71401L5.21993 9.13923L4.97656 8.55043L5.09825 7.95497L5.27113 7.22853Z" fill="#D2C281"/>
<path fill-rule="evenodd" clip-rule="evenodd" d="M6.31885 7.25412C6.33227 7.25825 6.3462 7.26044 6.36024 7.26061C6.34471 7.27358 6.31228 7.30199 6.32525 7.37581C6.33822 7.44962 6.37961 7.5428 6.34471 7.59972C6.37257 7.63018 6.39335 7.66644 6.40555 7.70587C6.42757 7.76936 6.43405 7.82756 6.57767 7.83669C6.55694 7.84945 6.53783 7.86466 6.52075 7.882C6.52075 7.882 6.62042 7.9687 6.67094 8.04891C6.72265 8.0467 6.85987 8.00403 6.85987 8.00403L6.88837 8.02349L6.94921 7.99789C6.94921 7.99789 6.89229 7.97587 6.93368 7.83737C6.97251 7.71569 7.00749 7.72217 7.01048 7.71313C7.01347 7.70408 7.03898 7.57591 7.03898 7.52411C7.05835 7.45687 7.07388 7.25233 7.07388 7.25233L7.0325 6.80057L6.79954 6.65943L6.6101 6.47656L6.43141 6.81312L6.31373 6.93045L6.30469 7.22169L6.31885 7.25412Z" fill="#E2C270"/>
<path fill-rule="evenodd" clip-rule="evenodd" d="M6.88281 6.8766C6.88281 6.8766 6.9242 6.99436 6.93982 7.08499C6.94532 7.06737 6.94836 7.04908 6.94886 7.03063C6.94886 7.03063 6.9812 7.20932 6.9876 7.28313C7.00057 7.28049 7.0132 7.27665 7.0161 7.28953C7.019 7.30242 7.04853 7.4462 7.0417 7.52642C7.09561 7.43749 7.1702 7.36289 7.25913 7.30899C7.31093 7.27656 7.37177 7.24166 7.43526 7.23901C7.53493 7.23645 7.60738 7.3025 7.7265 7.3025C8.01382 7.3025 8.27409 7.09147 8.46566 7.02679C8.60672 6.97883 8.7284 6.94393 8.81382 6.86619C8.85529 6.83129 8.92911 6.75364 8.99635 6.63835C9.08569 6.48475 9.17888 6.35104 9.27215 6.33423C9.22995 6.34198 9.18702 6.34501 9.14415 6.34327C9.14415 6.34327 9.17265 6.31477 9.22095 6.27594C9.26924 6.23712 9.3271 6.18924 9.40987 6.18924C9.5575 6.18924 9.63123 6.21117 9.71409 6.21117C9.79695 6.20861 9.84482 6.18924 9.84482 6.18924C9.84482 6.18924 9.9316 6.25009 10.127 6.25009C10.3225 6.25265 10.4532 6.26946 10.5556 6.27859C10.6579 6.28772 11.0008 6.25009 11.0992 6.25299C11.1634 6.25546 11.2264 6.27087 11.2844 6.2983L10.9672 5.3767L9.82784 4.38086L9.14952 4.86112L8.10607 5.90449L7.0964 6.27859L6.88537 6.51547V6.8766H6.88281Z" fill="#CCB360"/>
<path fill-rule="evenodd" clip-rule="evenodd" d="M9.1447 6.34829C9.1447 6.34829 9.1732 6.31987 9.22098 6.28104C9.26877 6.24222 9.32722 6.19426 9.41 6.19426C9.55754 6.19426 9.63135 6.21628 9.71421 6.21628C9.79707 6.21372 9.84494 6.19426 9.84494 6.19426C9.84494 6.19426 9.93181 6.25502 10.1271 6.25502C10.3226 6.25758 10.4534 6.27439 10.5557 6.28343C10.658 6.29248 11.001 6.25502 11.0993 6.25783C11.1635 6.26025 11.2264 6.27566 11.2844 6.30315L11.1407 5.88757L10.9738 5.57047L10.4974 5.04875C10.4974 5.04875 9.92567 4.71219 9.92131 4.70963C9.91875 4.70707 9.72326 4.65527 9.72326 4.65527L9.20545 4.96853L8.73561 6.18411L8.72656 6.44011L9.03069 6.58381C9.10706 6.45581 9.19129 6.35341 9.27022 6.34044C9.19897 6.3482 9.14461 6.3482 9.14461 6.3482L9.1447 6.34829Z" fill="#D5B457"/>
<path fill-rule="evenodd" clip-rule="evenodd" d="M9.13833 6.43485C9.09302 6.43741 9.05556 6.42837 9.04515 6.39602C9.00632 6.28731 8.97526 6.27178 8.94275 6.27178C8.91023 6.27178 8.86637 6.34167 8.84035 6.34807C8.81432 6.35447 8.78343 6.26785 8.78343 6.26785L8.75493 6.25488C8.75493 6.25488 8.58793 6.3636 8.47017 6.49177C8.35241 6.61994 8.15947 6.83745 8.07277 6.87619C7.98607 6.91494 7.68826 6.92799 7.58637 6.95001C7.48449 6.97202 7.3715 7.04584 7.35597 7.06265C7.34044 7.07946 7.40137 7.09755 7.41042 7.11436C7.41946 7.12989 7.31066 7.12341 7.30162 7.13996C7.29522 7.15293 7.32722 7.22666 7.34309 7.26421C7.37086 7.2504 7.40134 7.24288 7.43235 7.24219C7.53202 7.23963 7.60455 7.30568 7.72359 7.30568C8.01099 7.30568 8.27117 7.09465 8.46275 7.02988C8.60389 6.98201 8.72557 6.94702 8.81099 6.86937C8.85238 6.83447 8.92619 6.75673 8.99352 6.64153C9.04267 6.56259 9.09063 6.48878 9.13859 6.43442L9.13833 6.43485Z" fill="#D2B257"/>
<path fill-rule="evenodd" clip-rule="evenodd" d="M5.01833 12.8418C5.01833 12.8418 4.99273 12.746 4.75551 12.4988C4.68818 12.4289 4.64679 12.3708 4.60148 12.3292C4.48884 12.223 4.42279 12.1946 4.34258 12.1337C4.16654 12.003 3.97496 12.003 3.82742 11.8425C3.67988 11.682 3.50793 11.3753 3.38847 11.0619C3.27071 10.7486 3.23828 10.6489 3.23828 10.6399C3.23828 10.6308 3.27071 10.57 3.31209 10.579C3.35348 10.5881 3.35348 10.6683 3.36389 10.6878C3.38451 10.7195 3.4079 10.7494 3.43378 10.777C3.49462 10.847 3.58132 10.9306 3.62535 11.0554C3.61631 10.9492 3.58004 10.8315 3.58004 10.8315C3.58004 10.8315 3.80788 10.9752 4.00201 11.1253C4.19751 11.2754 4.27773 11.3272 4.33481 11.423C4.3919 11.5187 4.52639 11.7712 4.59081 11.845C4.65524 11.9189 5.53801 12.1971 5.53801 12.1971L5.95794 12.5102L6.16641 12.9672L6.00325 13.2232L5.68999 13.2905L5.18124 13.0627L5.01833 12.8417V12.8418Z" fill="#D2B159"/>
<path fill-rule="evenodd" clip-rule="evenodd" d="M3.88672 11.2671C3.88672 11.2671 3.99287 11.4367 4.25177 11.5972C4.48482 11.7383 4.85372 11.8665 5.18259 11.9429C5.37152 11.9882 5.56053 12.0231 5.73009 12.0257C6.18705 12.0321 6.50159 11.9015 6.89131 11.8587C7.10234 11.8367 7.36124 11.8199 7.63046 11.7563C7.97606 11.6735 8.18061 11.5802 8.45896 11.4491C8.66086 11.3559 8.84604 11.2861 8.99614 11.1967C9.20717 11.0725 9.36119 10.934 9.53988 10.8926C9.51787 10.9534 9.49457 11.0621 9.31853 11.1748C9.41171 11.1721 9.53988 11.1657 9.53988 11.1657C9.53988 11.1657 9.41564 11.2395 9.19684 11.4052C9.06219 11.5076 8.88358 11.6809 8.70105 11.7961C8.58321 11.8699 8.45504 11.9241 8.3709 11.9683C8.1661 12.0809 8.0835 12.1378 7.94893 12.2755C7.9968 12.2729 8.00072 12.2755 8.00072 12.2755C8.00072 12.2755 7.83108 12.2975 7.70948 12.3622C7.68388 12.3622 7.63951 12.3531 7.56185 12.3752C7.50101 12.3945 7.42071 12.4386 7.33794 12.4619C7.22009 12.4968 7.18135 12.4813 7.18135 12.4813L7.20072 12.5201C7.20072 12.5201 7.04712 12.5175 6.99592 12.5227C7.00497 12.5253 7.00241 12.5292 7.00241 12.5292C6.99342 12.5307 6.98475 12.5338 6.97681 12.5382C6.95217 12.5542 6.92507 12.566 6.8966 12.5731C6.88107 12.5757 6.8681 12.5757 6.84864 12.5796C6.85512 12.5951 6.90564 12.682 6.92894 12.7332C6.90957 12.7462 6.61824 12.9663 6.61824 12.9663C6.62727 12.9805 6.63466 12.9957 6.64025 13.0116C6.6493 13.04 6.65323 13.0815 6.66227 13.1008C6.6842 13.1397 6.69717 13.1461 6.69717 13.1461C6.69717 13.1461 6.66227 13.1526 6.60134 13.1682C6.54963 13.1811 6.48614 13.2031 6.39654 13.216C6.36905 13.2196 6.3414 13.2218 6.31368 13.2225C6.32666 13.251 6.38357 13.3597 6.2787 13.4853C6.17382 13.6108 6.14148 13.629 6.10914 13.7093C6.09286 13.697 6.07553 13.6861 6.05734 13.6768C6.02244 13.6613 5.97448 13.6381 5.95767 13.6069C5.94787 13.6484 5.93489 13.6891 5.91885 13.7286C5.88651 13.8153 5.83863 13.9008 5.82959 13.9655C5.7946 13.9267 5.72992 13.8503 5.64058 13.8658C5.55123 13.8814 5.48006 14.0031 5.46453 14.0381C5.46453 14.016 5.449 13.9992 5.44516 14.0251C5.44252 14.0536 5.39336 14.3512 5.11893 14.592C5.11637 14.5312 5.11637 14.3965 5.10989 14.3526C5.08429 14.3782 5.05297 14.416 4.86652 14.4963C4.68399 14.5765 4.71292 14.6568 4.71292 14.6568C4.71292 14.6568 4.69739 14.5288 4.79578 14.394C4.89544 14.2594 4.95629 14.1959 4.95629 14.1856C4.95468 14.1751 4.95019 14.1652 4.94332 14.1571C4.93035 14.1441 4.90449 14.1286 4.90449 14.1183C4.92002 14.1119 5.07405 14.038 5.065 13.8852C5.05596 13.7481 4.99776 13.6768 4.95629 13.6264C4.94989 13.6199 5.01722 13.572 5.00808 13.5565C5.0016 13.5475 4.91883 13.4865 4.90842 13.4541C4.91086 13.4348 4.91521 13.4157 4.92139 13.3972C4.93043 13.3687 4.93692 13.3492 4.93436 13.3299C4.92787 13.2975 4.89288 13.2082 4.88256 13.1991C4.8916 13.2017 4.95629 13.1991 4.95629 13.1991C4.95629 13.1991 4.90457 13.1163 4.89544 13.0775C4.88631 13.0386 4.86694 12.9363 4.85662 12.9169C4.87863 12.9195 4.93299 12.9233 4.93299 12.9169C4.93564 12.8975 4.88512 12.8651 4.90739 12.8401C4.92292 12.8427 4.9527 12.8557 4.98112 12.8919C4.96559 12.8505 4.93973 12.7703 4.88529 12.7379C4.91089 12.7289 4.99793 12.7055 5.0743 12.7508C5.15068 12.7961 5.1767 12.8595 5.1767 12.8595C5.1767 12.8595 5.22201 12.8945 5.29199 12.9463C5.3722 13.0097 5.47443 13.0999 5.63759 13.1637C5.67257 13.1832 5.76183 13.1832 5.8266 13.1702C5.8548 13.1635 5.88184 13.1526 5.90682 13.1379C5.91583 13.1326 5.92539 13.1282 5.93532 13.1249C5.9214 13.097 5.9054 13.0701 5.88744 13.0446C5.90946 13.0446 5.93532 13.0472 5.93532 13.0472C5.93532 13.0472 5.95085 13.0123 5.88096 12.9448C5.89649 12.9293 5.91595 12.9192 5.91595 12.893C5.89393 12.8905 5.8551 12.8581 5.84606 12.8452C5.85894 12.8361 5.8784 12.8063 5.90042 12.7973C5.88096 12.7818 5.83309 12.717 5.81107 12.7106C5.8321 12.7028 5.85245 12.6933 5.87191 12.6821C5.87191 12.6821 5.7632 12.6536 5.72821 12.6303C5.69323 12.6047 5.64151 12.5604 5.61045 12.5474C5.57803 12.5345 5.52111 12.5281 5.49781 12.5021C5.51974 12.5086 5.55473 12.5021 5.58067 12.5021C5.60004 12.5021 5.60917 12.5047 5.61557 12.5047C5.61301 12.4957 5.61301 12.4762 5.66353 12.4698C5.68783 12.4661 5.71141 12.4587 5.73342 12.4478C5.73342 12.4478 5.68546 12.4452 5.63102 12.3934C5.57658 12.3416 5.53135 12.3002 5.50029 12.2938C5.46795 12.2873 5.4071 12.3158 5.36956 12.3131C5.31776 12.3067 5.29574 12.2808 5.29574 12.2808C5.29574 12.2808 5.12363 12.2963 4.74176 12.0634C4.4116 11.8614 4.2679 11.6828 4.2679 11.6828C4.23701 11.6716 4.20714 11.6577 4.17864 11.6413C4.0544 11.5766 3.8822 11.442 3.8874 11.2658L3.88672 11.2671Z" fill="#C2A44D"/>
<path fill-rule="evenodd" clip-rule="evenodd" d="M8.6495 3.49814C8.67945 3.50787 8.70606 3.52581 8.7263 3.54993C8.78714 3.61982 8.82597 3.75183 8.68747 3.89297C8.74183 3.91235 8.76427 3.91857 8.81172 3.91235C8.76385 3.96935 8.65513 4.09103 8.64865 4.19719C8.64216 4.28389 8.69652 4.30983 8.69652 4.30983C8.69652 4.30983 8.61366 4.40557 8.60982 4.56583C8.64895 4.5217 8.69177 4.48099 8.73782 4.44414C8.83365 4.36777 8.96566 4.28107 9.05501 4.22671C9.05379 4.2495 9.05686 4.2723 9.06405 4.29396C9.06405 4.29396 9.23096 4.15674 9.37125 4.21767C9.43465 4.24617 9.40615 4.33543 9.40615 4.33543C9.40615 4.33543 9.49294 4.30309 9.55378 4.36393C9.61462 4.42477 9.70064 4.5817 9.74475 4.64254C9.76412 4.67104 9.81464 4.7254 9.86635 4.80954C9.937 4.92734 9.99599 5.05175 10.0425 5.181C10.045 5.11367 10.0619 5.00888 10.2535 5.07484C10.4451 5.14217 10.6625 5.28331 10.845 5.56124C11.0276 5.83917 11.0728 6.15294 11.1647 6.27241C11.2579 6.38761 11.3537 6.57918 11.3602 6.65948C11.3667 6.73978 11.3317 6.9986 11.5233 7.69893C11.5776 7.4815 11.6605 6.9986 11.6605 6.9986L11.7058 6.5727L11.7576 5.2549L10.3815 4.11168L9.3058 3.33105L8.60547 3.39838L8.64942 3.49805L8.6495 3.49814Z" fill="#CAA13E"/>
<path fill-rule="evenodd" clip-rule="evenodd" d="M11.2054 5.45846C11.2054 5.45846 11.1859 5.33046 10.8623 5.11286C10.5387 4.89799 10.2863 4.89799 10.0533 4.71546C9.87462 4.57176 9.68825 4.2416 9.5669 4.13289C9.44906 4.02545 9.42969 3.71476 9.42969 3.71476L9.82708 3.38196L10.4181 2.52768L10.9177 1.97754L11.1572 2.31034L11.49 2.70125L11.6751 3.48572L11.7424 4.63397L11.2048 5.45854L11.2054 5.45846Z" fill="#B59544"/>
<path fill-rule="evenodd" clip-rule="evenodd" d="M11.6064 6.8353C11.6162 6.66117 11.5947 6.48669 11.5429 6.32014C11.4575 6.05476 11.2711 5.58355 11.1845 5.40708C11.1495 5.21158 11.1754 5.19605 11.213 5.17403C11.2505 5.15202 11.3917 5.07163 11.469 4.78961C11.5463 4.50758 11.7862 4.49836 11.7862 4.49836L11.9337 4.38965L12.1577 4.95012L12.3531 5.45631L12.414 5.84339L12.4593 6.17346L12.3531 6.87123L11.8289 7.345L11.6063 6.8353H11.6064Z" fill="#C89D3A"/>
<path fill-rule="evenodd" clip-rule="evenodd" d="M4.28906 14.6125V14.5982C4.29996 14.5914 4.30957 14.5827 4.31748 14.5726C4.32652 14.5596 4.33309 14.5441 4.33949 14.5402C4.35246 14.5337 4.41331 14.5146 4.44565 14.5208C4.47799 14.5269 4.56349 14.5622 4.60881 14.5596C4.70199 14.557 4.81071 14.4858 4.98291 14.5182C5.24181 14.5661 5.30265 14.7421 5.45284 14.8418C5.55524 14.9118 5.66122 14.8806 5.67675 14.8806H5.71165C5.71814 14.8806 5.76601 14.8263 5.79195 14.8289C5.84375 14.8315 5.84887 14.8742 5.88121 14.8768C5.95758 14.8858 6.10521 14.838 6.17902 14.8574C6.20091 14.8643 6.22082 14.8763 6.23704 14.8925C6.25327 14.9087 6.26533 14.9286 6.27221 14.9505C6.28774 14.9984 6.27477 15.0592 6.23722 15.0942C6.15701 15.1679 6.08064 15.2379 6.06511 15.299C6.08486 15.3141 6.10383 15.3301 6.12194 15.3471C5.48144 15.1839 4.8652 14.9372 4.28906 14.6133V14.6125Z" fill="#CEB052"/>
<path fill-rule="evenodd" clip-rule="evenodd" d="M11.1875 12.0262C11.1875 12.0262 11.3894 11.757 11.4594 11.6236C11.5293 11.4862 11.238 9.74536 11.238 9.74536L11.8231 7.82826L11.8075 7.2043C11.8075 7.2043 11.836 6.62822 11.9034 6.37836C11.9837 6.52206 12.2335 6.69555 12.2879 6.78745C12.3135 6.61132 12.4004 6.23987 12.3875 5.84375C12.4354 5.91748 12.5506 6.65928 12.5506 6.65928L12.6658 7.15891L12.816 7.68968L12.983 8.25023L13.0827 8.63731L13.1396 8.73049L13.1875 8.89356L13.2329 9.06969L13.3636 9.48262L13.4404 9.82173L13.5012 10.4366C13.5145 10.4837 13.524 10.5318 13.5297 10.5803C13.5323 10.6477 13.5207 10.6865 13.5207 10.6982C13.5207 10.7099 13.5427 10.8457 13.5337 10.948C13.5207 11.0504 13.5207 11.1306 13.4404 11.204C13.3601 11.2775 13.3097 11.7166 13.3097 11.7166L13.166 11.6209C13.166 11.6209 13.1945 11.4901 13.1271 11.371C13.0598 11.252 12.9291 11.2273 12.8553 11.2468C12.7815 11.2623 12.634 11.2855 12.586 11.327C12.5407 11.3684 12.4294 11.4966 12.3271 11.5549C12.1991 11.6317 11.9906 11.6377 11.8793 11.6636C11.7667 11.6892 11.6424 11.766 11.5116 11.8551C11.409 11.9215 11.3007 11.9787 11.188 12.0258L11.1875 12.0262Z" fill="#CCA847"/>
<path fill-rule="evenodd" clip-rule="evenodd" d="M11.1875 14.8541C11.1875 14.8541 11.196 14.8596 11.2125 14.8686C12.1322 14.4378 12.9562 13.827 13.636 13.0724C13.6285 12.8104 13.6189 12.5419 13.6083 12.4424C13.5864 12.2313 13.6019 12.0165 13.5954 11.8922C13.589 11.768 13.5191 11.2618 13.4867 11.131C13.4517 11.0003 13.3843 10.9355 13.3741 10.9355C13.365 10.9382 13.3106 11.1816 13.3106 11.2427C13.3106 11.3039 13.2976 11.4512 13.2976 11.4888C13.2886 11.4861 13.2847 11.4632 13.2847 11.4538C13.2718 11.4861 13.2562 11.5431 13.2498 11.5496C13.2433 11.5561 13.2588 11.4952 13.2498 11.4823C13.2407 11.4693 13.2242 11.4758 13.2277 11.4435C13.2293 11.4243 13.2323 11.4052 13.2368 11.3865C13.2368 11.3865 13.198 11.4435 13.1695 11.5884C13.141 11.7321 13.141 11.7361 13.1307 11.7489C13.1217 11.7646 13.0699 11.8163 13.0672 11.8357C13.0647 11.8706 13.1152 11.9056 13.119 11.925C13.1216 11.9574 13.0737 12.1075 13.0582 12.181C13.0426 12.2545 13.0491 12.3984 13.0326 12.4722C13.0196 12.5396 13.007 12.5784 12.9627 12.6068C12.995 12.6133 13.0261 12.6223 13.0261 12.6223C13.0261 12.6223 13.0714 12.8139 12.9562 12.9771C12.9148 13.034 12.9045 13.0599 12.8605 13.1117C12.7737 13.2075 12.7063 13.3165 12.6999 13.3874C12.6954 13.3665 12.6924 13.3453 12.6908 13.3239C12.6908 13.3239 12.5562 13.4806 12.4992 13.57C12.4255 13.6852 12.3232 13.6787 12.2944 13.7072C12.2657 13.7357 12.2595 13.7874 12.2688 13.8289C12.2432 13.8353 12.1951 13.8444 12.1627 13.9441C12.1472 13.9958 12.1083 14.0465 12.0475 14.0813C11.9866 14.1161 11.9128 14.1266 11.8753 14.1356C11.9076 14.1447 11.9206 14.1447 11.9361 14.155C11.9168 14.1873 11.8274 14.2379 11.7277 14.3026C11.6281 14.3635 11.5801 14.4527 11.5555 14.511C11.5299 14.5654 11.4921 14.6004 11.4313 14.6068C11.4569 14.6224 11.4948 14.6586 11.5142 14.6702C11.4857 14.6767 11.4374 14.6767 11.3511 14.7505C11.2605 14.8256 11.2294 14.8477 11.1879 14.8541L11.1875 14.8541Z" fill="#C39D3C"/>
<path fill-rule="evenodd" clip-rule="evenodd" d="M9.38324 15.4546C9.43281 15.4199 9.48649 15.3914 9.54307 15.3699C9.74497 15.2897 9.95856 15.2741 10.0427 15.2483C10.123 15.2227 10.1864 15.1873 10.2861 15.168C10.2834 15.1907 10.2812 15.212 10.2788 15.2321C9.98497 15.3245 9.68574 15.3988 9.38281 15.4546H9.38324Z" fill="#D2BA6B"/>
<path fill-rule="evenodd" clip-rule="evenodd" d="M13.1078 10.1435C13.1078 10.1435 13.0664 10.3675 12.9926 10.5086C12.9187 10.6497 12.839 10.8452 12.839 10.8452C12.8394 10.8011 12.8446 10.7573 12.8545 10.7143C12.7613 10.7687 12.5347 10.8995 12.4705 10.9577C12.4096 11.0121 12.3073 11.1079 12.2815 11.1532C12.3423 10.9746 12.4057 10.8141 12.4161 10.7403C12.3229 10.8076 11.8879 11.1662 11.6614 11.4031L10.9559 11.9739C10.8745 12.0179 10.7906 12.0571 10.7048 12.0915C10.5832 12.1432 10.4395 12.1873 10.3333 12.2287C10.3618 12.1524 10.407 12.085 10.4705 12.0203C10.5379 11.9569 10.7398 11.7381 10.7708 11.6363C10.7993 11.5301 10.8058 11.4667 10.7683 11.3774C10.7333 11.3864 10.6531 11.3903 10.5987 11.4059C10.5443 11.4214 10.4861 11.4796 10.4861 11.4796C10.4861 11.4796 10.5274 11.2427 10.6168 11.0188C10.5495 11.0214 10.4343 11.0407 10.4343 11.0407C10.4343 11.0407 10.5948 10.7715 10.8695 10.5839C10.7853 10.6018 10.703 10.6273 10.6235 10.6602C10.463 10.7275 10.287 10.8271 10.1562 10.8815C10.23 10.7791 10.7478 10.0401 11.0559 9.35139C11.3631 8.66403 11.4779 8.48799 11.5452 8.11909C11.5801 7.93657 11.5708 7.66683 11.5801 7.42525C11.5892 7.18572 11.6189 6.97085 11.5996 6.82715C11.6798 6.92682 11.9802 7.20773 11.9905 7.83562C11.9995 8.46341 11.7032 9.31137 11.3885 9.76825C11.4653 9.79026 11.6643 9.8162 11.8688 9.46105C12.0733 9.10589 12.0708 9.00673 12.1446 8.85911C12.1536 8.93292 12.151 8.95877 12.151 8.95877C12.151 8.95877 12.4488 8.59764 12.5899 8.14324C12.6184 8.33874 12.7025 8.51095 12.5704 8.86952C12.4527 9.1931 12.2986 9.27212 12.2986 9.27212C12.2986 9.27212 12.375 9.25915 12.4876 9.19182C12.507 9.23969 12.5032 9.29422 12.5355 9.3135C12.5679 9.33279 12.6119 9.3653 12.6184 9.39636C12.6533 9.34457 12.7076 9.27852 12.7245 9.22937C12.7116 9.33177 12.7025 9.77951 12.7501 10.0074C12.8499 9.99831 12.9521 9.99182 13.022 9.81185C12.9741 9.98798 12.9741 10.094 13.0065 10.2442C13.0595 10.2081 13.1074 10.1433 13.1074 10.1433L13.1078 10.1435Z" fill="#C0993A"/>
<path fill-rule="evenodd" clip-rule="evenodd" d="M9.74247 3.00869C9.74247 3.00869 9.6428 3.05008 9.47324 3.05008C9.3257 3.05008 9.36709 2.99316 9.13669 2.99316C8.78204 2.99316 7.54317 3.19796 7.32566 3.19506C7.18452 3.1925 7.80199 3.25591 7.80199 3.25591L9.38006 3.27792L9.69716 3.25232L9.815 3.01253L9.74247 3.00869Z" fill="#A88F33"/>
<path fill-rule="evenodd" clip-rule="evenodd" d="M5.65196 6.09361C5.65196 6.09361 5.44998 6.24763 5.36456 6.36548C5.27914 6.48332 5.23383 6.56089 5.13672 6.65672C5.15951 6.65759 5.18229 6.65453 5.20405 6.64768C5.20405 6.64768 5.20405 6.67328 5.18852 6.68002C5.20194 6.67852 5.21552 6.68004 5.22828 6.68447C5.24104 6.6889 5.25264 6.69612 5.26224 6.70562C5.23374 6.72115 5.15609 6.79889 5.21693 6.89079C5.26224 6.96068 5.35807 6.96708 5.35807 6.96708C5.35807 6.96708 5.33606 7.03057 5.42796 7.02408C5.62602 7.01504 5.84737 6.92825 5.9496 6.95027C6.052 6.97587 6.1102 6.98525 6.18265 7.11087C6.25945 7.23511 6.32635 7.25457 6.32635 7.25457C6.32635 7.25457 6.37166 7.13928 6.36134 6.96716C6.39849 6.87439 6.41908 6.77581 6.42218 6.67592L6.35485 6.18013L6.06105 5.80859L5.68046 6.01962L5.65196 6.09335V6.09361Z" fill="#E3C571"/>
<path fill-rule="evenodd" clip-rule="evenodd" d="M6.01172 6.01953C6.01172 6.01953 6.04022 6.08685 6.15935 6.09325C6.14637 6.12175 6.14637 6.12568 6.1503 6.14761C6.15286 6.16963 6.1567 6.20197 6.1567 6.20197C6.16982 6.19562 6.18167 6.18695 6.19169 6.17637C6.19817 6.20487 6.1852 6.2501 6.19169 6.28252C6.19569 6.30224 6.2022 6.32137 6.21106 6.33944C6.21295 6.33501 6.21511 6.33071 6.21754 6.32655C6.2201 6.32007 6.24314 6.39644 6.30689 6.45455C6.30683 6.44562 6.30903 6.43681 6.31329 6.42895C6.31426 6.44519 6.31963 6.46085 6.32882 6.47427C6.32405 6.47199 6.31969 6.46894 6.31593 6.46522C6.31593 6.46522 6.32233 6.67002 6.35732 6.77592C6.36317 6.76908 6.36836 6.76171 6.37285 6.7539C6.37285 6.7475 6.37029 6.81091 6.3638 6.8563C6.35476 6.90162 6.36124 6.96502 6.36124 6.96502C6.38458 6.94664 6.41023 6.93141 6.43753 6.91971C6.47636 6.90409 6.53993 6.85622 6.57867 6.75006C6.60115 6.68995 6.61848 6.62803 6.63047 6.56498C6.64299 6.58907 6.65163 6.61499 6.65607 6.64178C6.65872 6.67412 6.71956 6.65731 6.71956 6.65731L6.73253 6.51617L6.80933 6.19642L6.87922 5.99836L7.21577 5.47416L7.82386 5.00585L8.35463 5.12754L8.80246 4.51911L8.03096 4.05566L7.30085 4.13204L6.63824 5.0498L6.10755 5.88222L6.01172 6.01944V6.01953Z" fill="#D8B65B"/>
<path fill-rule="evenodd" clip-rule="evenodd" d="M9.83622 4.69093C9.83622 4.69093 9.79091 4.69998 9.66018 4.76773C9.52945 4.83549 9.43882 4.85699 9.38831 4.95666C9.33779 5.05633 9.33395 5.13535 9.33395 5.13535C9.33395 5.13535 9.42329 5.09652 9.47509 5.08355C9.52945 5.07067 9.59029 5.07451 9.58381 5.09652C9.57758 5.11162 9.56893 5.1256 9.55821 5.13791C9.55821 5.13791 9.6606 5.13535 9.65787 5.18587C9.65514 5.23638 9.6385 5.29202 9.61913 5.3166C9.59968 5.3422 9.51946 5.38008 9.51042 5.40987C9.4884 5.47071 9.51946 5.47327 9.50777 5.52242C9.49873 5.57038 9.45606 5.66356 9.3162 5.82663C9.1725 5.98979 9.1114 6.10499 9.1114 6.10499C9.1114 6.10499 9.04151 5.97426 9.00524 5.86162C8.97964 5.87451 8.84217 5.95088 8.84217 5.95088L8.52371 4.84155L8.53011 4.76773C8.53011 4.76773 8.55861 4.73283 8.5651 4.66806C8.51722 4.65253 8.51074 4.63956 8.44725 4.5788C8.38376 4.51805 8.33205 4.44415 8.22598 4.39363C8.21045 4.36513 8.19099 4.32639 8.11334 4.31077C8.03569 4.29516 7.9891 4.28236 7.9891 4.28236C7.9891 4.28236 8.03048 4.26674 8.04994 4.2344C8.00198 4.24088 7.96324 4.25642 7.85836 4.25386C7.75221 4.25121 7.74052 4.24737 7.68232 4.25642C7.62412 4.26546 7.55432 4.2914 7.5283 4.20206C7.49979 4.18004 7.43895 4.1995 7.38715 4.27579C7.33536 4.35207 7.31727 4.413 7.2176 4.44278C7.21059 4.48672 7.19521 4.5289 7.17229 4.56703C7.14378 4.61499 7.09847 4.66286 7.03763 4.73403C6.9418 4.84667 6.95733 5.03175 6.80458 5.1729C6.65056 5.31395 6.83018 4.7819 6.83018 4.7819L7.07611 4.1931L7.77645 3.5083L8.86385 3.43457L8.97 3.99777L9.50077 4.1803L9.83605 4.69162L9.83622 4.69093Z" fill="#D3AE4D"/>
<path fill-rule="evenodd" clip-rule="evenodd" d="M10.0086 4.81508L9.55163 4.15622L9.23188 3.91021C9.23188 3.91021 9.00404 3.49088 8.98851 3.47791C8.97554 3.46886 8.76067 3.44557 8.62346 3.43652L8.64906 3.49993C8.679 3.50965 8.70561 3.5276 8.72586 3.55172C8.7867 3.62161 8.82552 3.75362 8.68703 3.89476C8.74139 3.91413 8.76383 3.92036 8.81127 3.91413C8.7634 3.97114 8.65469 4.09282 8.6482 4.19898C8.64172 4.28568 8.69607 4.31153 8.69607 4.31153C8.69607 4.31153 8.61321 4.40736 8.60938 4.56753C8.6485 4.5234 8.69133 4.4827 8.73737 4.44585C8.8332 4.36905 8.96522 4.28269 9.05456 4.22833C9.05334 4.25114 9.05641 4.27398 9.0636 4.29566C9.0636 4.29566 9.23052 4.15844 9.3708 4.21929C9.43421 4.24779 9.40571 4.33713 9.40571 4.33713C9.40571 4.33713 9.49249 4.30479 9.55333 4.36563C9.61417 4.42648 9.70087 4.58306 9.74491 4.64399C9.76428 4.67249 9.81479 4.72685 9.86651 4.8109C9.93717 4.92872 9.99616 5.05316 10.0426 5.18244C10.0452 5.13065 10.0556 5.0582 10.145 5.0582L10.0091 4.81483L10.0086 4.81508Z" fill="#CAA13E"/>
<path fill-rule="evenodd" clip-rule="evenodd" d="M3.15891 6.68762C3.15891 6.68762 3.12656 6.60732 3.15891 6.45073C3.19125 6.29415 3.24176 6.22033 3.25857 5.98993C3.27539 5.75953 3.42557 5.47213 3.42557 5.47213L3.84106 5.2832L4.13495 5.36342L4.22165 5.75697L3.85011 5.96177C3.85011 5.96177 3.83073 6.04847 3.72586 6.11836C3.62099 6.18825 3.476 6.24261 3.4411 6.31386C3.42024 6.35749 3.40501 6.4036 3.39579 6.45108C3.39579 6.45108 3.28964 6.42906 3.22623 6.49895C3.15891 6.5702 3.16147 6.6336 3.15891 6.68796V6.68762Z" fill="#F4EFC8"/>
<path fill-rule="evenodd" clip-rule="evenodd" d="M3.99611 6.5829C3.99611 6.5829 3.96112 6.60492 3.93527 6.6597C3.90967 6.61831 3.84848 6.3723 3.84592 6.15094C3.84336 5.92959 3.83014 5.87472 3.88134 5.79843C3.93254 5.72214 4.13333 5.64176 4.10482 5.50437C4.07632 5.37364 3.9572 5.31929 3.81094 5.35683C3.70854 5.38243 3.63233 5.6002 3.52618 5.70892C3.44588 5.79178 3.35014 5.7788 3.32428 5.82412C3.28929 5.88496 3.32163 5.9458 3.31131 5.98463C3.30866 5.9976 3.27632 6.06749 3.21804 6.15163C3.10028 6.32118 2.90094 6.56071 2.875 6.77558C2.88405 6.6539 2.87765 6.65134 2.90999 6.51668L2.89053 6.48434L3.01853 6.06493L3.10139 5.71933L3.28656 5.1406L3.61271 4.54907L3.92989 4.19434L4.25996 4.21635L4.29879 4.71214L4.4878 5.64295L4.8852 6.13226L4.24827 6.56089L3.99585 6.5829H3.99611Z" fill="#EBCC73"/>
<path fill-rule="evenodd" clip-rule="evenodd" d="M4.1964 6.75862C4.1964 6.75862 4.14204 6.77159 4.12259 6.76127C4.10313 6.75094 4.08385 6.73925 4.09025 6.72628C4.09665 6.71331 4.13163 6.69138 4.13163 6.68097C4.13235 6.67156 4.12938 6.66224 4.12334 6.65499C4.1173 6.64774 4.10867 6.64313 4.09929 6.64214C4.06951 6.6383 4.06047 6.65767 4.06047 6.65767C4.06047 6.65767 4.03196 6.63574 4.00875 6.63207C4.02249 6.63039 4.0363 6.62951 4.05014 6.62943C4.01437 6.61322 3.97642 6.60233 3.9375 6.59708C3.96984 6.57771 4.03333 6.52071 4.07472 6.52071C4.1161 6.52071 4.14204 6.51431 4.13556 6.49229C4.12907 6.47028 4.09673 6.43794 4.06183 6.42497C4.07472 6.40944 4.08385 6.38614 4.05279 6.32257C4.02036 6.25916 4.03333 6.21641 4.04374 6.20097C4.05279 6.18151 4.08513 6.14661 4.10066 6.12459C4.11619 6.10258 4.12916 6.0728 4.15501 6.05727C4.16799 6.04822 4.20937 6.03167 4.25084 6.01588C4.29616 6.00035 4.3337 5.98089 4.35956 6.00035C4.38806 6.01972 4.37509 6.04566 4.37509 6.04566C4.37509 6.04566 4.46443 6.01323 4.54465 6.05471C4.62495 6.09345 4.82044 6.11811 4.82044 6.11811L4.8905 6.25925L4.42706 6.65665L4.23548 6.75248L4.19666 6.75888L4.1964 6.75862Z" fill="#E5C66B"/>
<path fill-rule="evenodd" clip-rule="evenodd" d="M4.83871 6.10874C4.83871 6.10874 4.69501 6.20457 4.66266 6.23947C4.68203 6.24212 4.71438 6.25509 4.70141 6.27446C4.68588 6.29383 4.59269 6.36116 4.54089 6.42464C4.48654 6.48805 4.43474 6.56835 4.41665 6.60717C4.39728 6.64207 4.24965 6.74439 4.19922 6.75727C4.30537 6.75727 4.51896 6.62654 4.59918 6.62654C4.59662 6.66537 4.62119 6.7094 4.6665 6.71324C4.71182 6.71708 4.84255 6.74174 5.01859 6.63303C5.19463 6.52687 5.13643 6.44785 5.21016 6.39614C5.3513 6.30287 5.40822 6.22001 5.48587 6.1683C5.56353 6.11659 5.60372 6.10481 5.60372 6.10481C5.60372 6.10481 5.60628 6.06599 5.62932 6.06991C5.63563 6.07064 5.64161 6.07307 5.64664 6.07695C5.65166 6.08083 5.65553 6.08601 5.65782 6.09193C5.65782 6.09193 5.79248 5.9961 5.96502 5.97024C5.961 5.96844 5.95778 5.96522 5.95598 5.9612C5.95598 5.9612 5.96886 5.95471 5.97151 5.94823C5.97151 5.94823 5.98055 5.93526 5.98704 5.94174C5.99352 5.94823 6.00257 5.9961 6.01554 6.01556C6.04404 6.00259 6.0984 5.8809 6.0984 5.8809L6.22921 5.5068V5.16504L6.12681 5.18449L5.35881 5.51064L4.89272 5.99354L4.83837 6.10874H4.83871Z" fill="#E6BD62"/>
<path fill-rule="evenodd" clip-rule="evenodd" d="M7.047 4.43241C7.08854 4.42233 7.12837 4.40617 7.16519 4.38445C7.14966 4.42592 7.14966 4.47123 7.08233 4.56962C7.015 4.66801 7.01244 4.68226 6.95808 4.78449C6.90373 4.89065 6.89724 5.04339 6.84544 5.11064C6.86866 5.09936 6.89357 5.09195 6.91917 5.08871C6.91917 5.08871 6.86746 5.13402 6.84544 5.18189C6.82343 5.22976 6.7846 5.32943 6.68886 5.39036C6.59311 5.45129 6.47134 5.49003 6.34061 5.63373C6.2098 5.77479 6.07523 5.95347 6.00781 6.01773C6.0428 5.95689 6.09067 5.8352 6.10364 5.75499C6.11661 5.67478 6.101 5.57886 6.12301 5.47279C6.14503 5.36672 6.14503 5.29026 6.25101 5.10509C6.357 4.91992 6.53842 4.27659 6.53842 4.27659L6.92933 4.15234L7.04717 4.43198L7.047 4.43241Z" fill="#B6933F"/>
<path fill-rule="evenodd" clip-rule="evenodd" d="M6.76674 4.19547C6.76674 4.19547 6.64898 4.36503 6.61664 4.51521C6.5843 4.6654 6.614 4.65243 6.59463 4.72624C6.58304 4.77125 6.58304 4.81845 6.59463 4.86346C6.63541 4.79776 6.69125 4.74271 6.75753 4.70286C6.86889 4.63562 6.95951 4.58766 7.01353 4.53074C7.06789 4.4699 7.1132 4.37023 7.23096 4.29386C7.18309 4.28737 7.11576 4.26536 7.10296 4.26826C7.15091 4.2139 7.29453 4.13104 7.43951 4.03137C7.58321 3.92897 7.57417 3.88767 7.80721 3.78544C7.73084 3.79841 7.69457 3.77896 7.63109 3.78544C7.65669 3.73109 7.74629 3.70514 7.83589 3.61589C7.92549 3.52663 7.77897 3.39453 7.77897 3.39453L7.0963 3.80746L6.76623 4.19581L6.76674 4.19547Z" fill="#C49937"/>
<path fill-rule="evenodd" clip-rule="evenodd" d="M4.91406 3.88782L4.92959 3.76358L5.12509 3.45032L5.32964 2.90017V2.14805L5.31411 1.7131L5.34645 1.42826L5.37102 1.33772L5.39696 1.30273L5.56388 1.38943L5.79436 1.70269L5.81638 2.30728L5.59238 3.2613L4.95289 3.95908L4.91406 3.88782Z" fill="#DFC068"/>
<path fill-rule="evenodd" clip-rule="evenodd" d="M5.42251 1.26688C5.42251 1.26688 5.32011 1.26953 5.29827 1.69542C5.27642 2.12132 5.26584 2.34524 5.25031 2.55627C5.23478 2.7673 5.1986 2.89538 5.18042 3.01971C5.16225 3.14404 5.15192 3.31351 5.09372 3.41711C5.06812 3.46498 5.01343 3.61517 4.88525 3.72781C4.74155 3.85205 4.52685 3.93884 4.49434 3.94532C4.43734 3.95821 4.14866 3.98671 4.0309 4.05148C3.98951 4.07349 3.91826 4.09935 3.83932 4.17316C3.68265 4.31422 3.47427 4.56663 3.32408 4.87085C3.09368 5.32525 2.86328 6.60806 2.86328 6.60806L2.91508 6.52137C2.91508 6.52137 2.92156 6.40617 3.03676 6.20418C3.1494 6.00228 3.11706 5.77572 3.27365 5.38865C3.33449 5.24111 3.41087 5.04954 3.50405 4.88638C3.65168 4.62099 3.83028 4.39315 4.01025 4.26891C4.30405 4.06701 4.62772 4.02298 4.62772 4.02298L4.97596 3.79258C4.97596 3.79258 5.03681 3.67482 5.11711 3.54016C5.22966 3.35123 5.37311 3.1402 5.40442 2.83343C5.45238 2.37903 5.33709 2.0813 5.34358 1.81207C5.35007 1.54285 5.35263 1.34479 5.40707 1.29683C5.46151 1.24888 5.4226 1.26705 5.4226 1.26705L5.42251 1.26688Z" fill="#A88F33"/>
<path fill-rule="evenodd" clip-rule="evenodd" d="M5.42204 3.29931C5.42204 3.29931 5.57564 2.92128 5.64596 2.58601C5.65893 2.51868 5.68479 2.45144 5.69127 2.39708C5.72361 2.0799 5.73266 1.94917 5.69127 1.77568C5.65893 1.64768 5.53468 1.53231 5.46992 1.44288C5.40651 1.34962 5.37673 1.31488 5.3897 1.29526C5.40267 1.27563 5.45311 1.24355 5.50226 1.24739C5.55451 1.24891 5.6059 1.26104 5.65331 1.28304C5.70072 1.30505 5.74316 1.33647 5.77805 1.37539C5.87772 1.49059 5.95666 1.88158 5.95666 1.88158L6.03969 2.39751L6.25072 3.04732L5.42221 3.29982L5.42204 3.29931Z" fill="#C99E3D"/>
<path fill-rule="evenodd" clip-rule="evenodd" d="M6.86531 2.90575C6.86531 2.90575 6.83681 2.91863 6.7851 2.90575C6.7873 2.92688 6.78363 2.94821 6.77449 2.96739C6.76536 2.98658 6.7511 3.00286 6.7333 3.01446C6.67894 2.99245 6.1701 3.03648 6.1701 3.03648C6.1701 3.03648 5.93321 2.99501 5.8594 2.68175C5.80769 2.47328 5.89823 2.18596 5.86845 1.99695C5.82313 1.71859 5.75973 1.66415 5.75325 1.57754C5.74676 1.49092 5.74027 1.46882 5.74027 1.41446C5.71177 1.40798 5.69496 1.39893 5.66655 1.39893C5.66006 1.37333 5.67295 1.35098 5.64453 1.30566C5.66006 1.31215 5.76622 1.32512 5.89046 1.44288C5.99286 1.53871 5.99286 1.57361 6.00831 1.59307C6.02768 1.61244 6.18435 1.74667 6.25168 1.88047C6.31901 2.01427 6.44974 2.44094 6.47952 2.51083C6.48856 2.53933 6.50802 2.56783 6.55632 2.63251C6.63141 2.72578 6.74141 2.87998 6.86565 2.90558L6.86531 2.90575Z" fill="#B58634"/>
<path fill-rule="evenodd" clip-rule="evenodd" d="M6.02734 1.59961C6.10576 1.72629 6.17621 1.85773 6.23829 1.99317C6.31466 2.16528 6.35997 2.30643 6.4558 2.42163C6.40401 2.27152 6.3121 1.97636 6.25774 1.87148C6.1969 1.76055 6.07266 1.64108 6.02734 1.59969V1.59961Z" fill="#A88F33"/>
<path fill-rule="evenodd" clip-rule="evenodd" d="M5.14699 3.7286C5.14699 3.7286 5.01626 3.76094 4.77289 3.88911C4.69259 3.9305 4.6163 3.9654 4.54249 3.99783C4.35074 4.08453 4.14509 4.16465 3.98193 4.20886C3.9949 4.22439 4.0013 4.23079 4.0013 4.23079C4.0013 4.23079 4.0013 4.29428 4.03629 4.33046C4.01692 4.34991 3.75793 4.52596 3.83439 5.11493C3.8861 5.09556 3.94695 5.06961 3.95599 5.06961C3.97161 5.07226 3.97545 5.11493 3.99482 5.11493C4.01419 5.11493 4.07768 5.08933 4.145 5.00229C4.14244 5.03727 4.10362 5.38936 4.312 5.62624C4.35083 5.58093 4.44922 5.43074 4.44922 5.43074L4.45178 5.38287C4.45178 5.38287 4.46082 5.21588 4.51527 5.06313C4.56971 4.91038 4.67578 4.79774 4.67578 4.79774L5.22968 4.00679L5.14682 3.72852L5.14699 3.7286Z" fill="#E6C367"/>
<path fill-rule="evenodd" clip-rule="evenodd" d="M4.62887 4.8895C4.60351 4.90742 4.57557 4.92137 4.54601 4.93088C4.53696 4.89854 4.52399 4.78718 4.60036 4.67847C4.68971 4.54765 4.88512 4.37809 4.93948 4.24327C4.97447 4.15648 4.95894 3.93905 5.26963 3.6607C5.58033 3.38234 5.70193 3.2866 5.70193 3.2866L6.2042 3.03418L6.82168 3.27755L6.5149 4.4799L6.27674 5.0431L5.32954 4.86449L4.62878 4.8895H4.62887Z" fill="#DCBA5A"/>
<path fill-rule="evenodd" clip-rule="evenodd" d="M4.99219 4.56296L5.11003 4.41542V4.31054C5.11003 4.31054 5.24076 4.27555 5.38182 4.13185C5.52288 3.98815 5.71837 3.71244 5.89058 3.72925C6.06278 3.74871 6.07959 4.10335 6.08608 4.20311C6.09256 4.30286 6.11458 4.52925 6.14948 4.65102C6.1883 4.77271 5.73006 5.23351 5.73006 5.23351L5.41885 5.47039L4.99219 4.56296Z" fill="#E9CE77"/>
<path fill-rule="evenodd" clip-rule="evenodd" d="M5.35547 5.79161C5.35547 5.79161 5.4513 5.64142 5.38107 5.60908C5.42246 5.51589 5.49883 5.4175 5.49883 5.4175C5.49883 5.4175 5.55319 5.28293 5.72923 5.11722C5.90527 4.9515 6.01407 4.84142 6.04257 4.73014C6.06014 4.65762 6.0697 4.58339 6.07107 4.50879C6.09011 4.52434 6.11046 4.53819 6.13192 4.55018C6.16042 4.56315 6.29499 4.67442 6.27562 4.89842C6.25625 5.12242 6.17322 5.21561 6.17322 5.21561C6.17322 5.21561 6.093 5.29582 6.03609 5.33729C5.97516 5.37868 5.95323 5.42655 5.85091 5.43047C5.86143 5.42211 5.87325 5.41554 5.8859 5.41102C5.8859 5.41102 5.77975 5.39813 5.72274 5.44985C5.66574 5.50156 5.54457 5.66087 5.48372 5.70883C5.42288 5.74766 5.35572 5.79169 5.35572 5.79169L5.35547 5.79161Z" fill="#CDAE50"/>
<path fill-rule="evenodd" clip-rule="evenodd" d="M9.65964 3.27327C9.5067 3.21753 9.34598 3.18609 9.18331 3.18009C8.91144 3.17104 8.51404 3.18657 8.12441 3.18913C7.70499 3.19169 7.32441 3.04543 6.79628 3.01957C6.70958 2.96778 6.48908 2.74122 5.80078 3.22147C5.84217 3.21891 6.30049 3.11532 6.45964 3.31474C6.62015 3.5128 6.57484 3.84936 6.55291 3.92957C6.51144 4.10826 6.37678 4.36844 6.32251 4.55097C6.26824 4.73349 6.28104 4.82941 6.24221 4.95741C6.20338 5.08541 6.11797 5.14898 6.1684 5.29652C6.23573 5.25514 6.2708 5.25514 6.38327 5.00272C6.49574 4.75031 6.47261 4.57034 6.65906 4.35675C6.84159 4.14188 7.14546 3.84799 7.26101 3.77418C7.37655 3.70036 8.29397 3.22403 9.25456 3.67843C9.48624 3.65386 9.65973 3.27319 9.65973 3.27319L9.65964 3.27327Z" fill="#D2A83E"/>
<path fill-rule="evenodd" clip-rule="evenodd" d="M6.18864 3.09761C6.18769 3.08789 6.18554 3.07831 6.18224 3.06911C6.17326 3.05018 6.16146 3.03272 6.14726 3.01732C6.14726 3.01732 5.91942 2.97593 5.80422 2.98881C5.60223 3.01083 5.4197 3.26069 5.33428 3.38886C5.24887 3.51703 5.14271 3.715 5.02751 3.81732C5.02877 3.80735 5.02648 3.79726 5.02103 3.78881C5.02103 3.78881 5.02751 3.79786 5.01463 3.81083C5.00174 3.8238 5.00166 3.8302 5.00814 3.83643L5.0276 3.8558C5.034 3.8558 5.21268 3.7755 5.45606 3.5486C5.71496 3.31172 5.91302 3.1902 6.01661 3.14856C6.07186 3.12508 6.1296 3.10799 6.18873 3.09761H6.18864Z" fill="#C29637"/>
<path fill-rule="evenodd" clip-rule="evenodd" d="M10.6103 2.12402C10.6103 2.12402 10.5688 2.17574 10.517 2.23274C10.4018 2.35442 10.2517 2.49155 10.1235 2.6327C10.0019 2.76735 9.86468 2.87223 9.71056 3.04827C9.55645 3.22431 9.37776 3.41972 9.33254 3.47673C9.29115 3.53373 9.25881 3.62691 9.25881 3.67479C9.23679 3.65926 9.21094 3.64244 9.21094 3.64244C9.22182 3.66277 9.23484 3.68188 9.24976 3.69945C9.28211 3.74476 9.33254 3.80185 9.35848 3.83666C9.39031 3.88099 9.41315 3.93111 9.42572 3.9842C9.44125 3.98676 9.54092 4.00622 9.66525 3.80168C9.78958 3.59713 9.95257 3.37322 9.95257 3.37322L10.2115 2.98871L10.3746 2.66256L10.5794 2.29751L10.6106 2.12402H10.6103Z" fill="#AC8132"/>
<path fill-rule="evenodd" clip-rule="evenodd" d="M10.8754 1.86328C10.8754 1.86328 10.7188 1.99128 10.6579 2.06808C10.5971 2.14488 10.4531 2.34644 10.4531 2.34644L10.5049 2.33995L10.7677 2.10699L10.8701 1.92447L10.8754 1.86362L10.8754 1.86328Z" fill="#A88F33"/>
<path fill-rule="evenodd" clip-rule="evenodd" d="M10.8249 12.1501C10.8249 12.1501 10.8223 12.0439 10.8819 11.9805C10.9427 11.917 11.0968 11.8239 11.247 11.4743C11.3971 11.1248 11.4139 11.0459 11.4139 11.0459C11.4139 11.0459 11.1446 11.2763 10.9787 11.3306C11.0175 11.2503 11.0395 11.1934 11.059 11.152C11.037 11.1326 10.9438 11.1106 10.9347 11.1002C10.9864 11.0484 11.0149 10.9216 11.1198 10.8374C11.2545 10.735 11.5004 10.5591 11.6915 10.4022C11.8827 10.2454 12.2585 9.88057 12.3065 9.77441C12.335 9.8158 12.3414 9.84166 12.3414 9.84166C12.3414 9.84166 12.1524 10.0877 12.054 10.2443C11.9673 10.3789 11.9737 10.4553 11.9737 10.4553L12.1524 10.3785C12.1524 10.3785 12.2041 10.5701 11.9699 10.8614C12.0723 10.8226 12.1136 10.8459 12.1718 10.8134C12.076 10.8744 11.944 10.9572 11.8197 11.185C11.698 11.4128 11.5323 11.6782 11.2528 11.8438C10.9809 12.0186 10.8242 12.1493 10.8242 12.1493L10.8249 12.1501Z" fill="#A67A2E"/>
<path fill-rule="evenodd" clip-rule="evenodd" d="M10.1235 3.40844C10.1235 3.40844 10.0173 3.62971 10.0018 3.80191C9.99923 3.84338 9.98882 3.87572 9.98882 3.9236C9.98626 4.07762 9.99786 4.24983 9.96322 4.33004C9.95025 4.2977 9.94376 4.27568 9.93079 4.2628C9.91142 4.31715 9.87643 4.48671 9.84793 4.55011C9.83505 4.50873 9.80654 4.36503 9.80919 4.19547C9.81184 4.02591 9.81559 3.99348 9.81559 3.95858C9.80919 4.0103 9.7742 4.08027 9.76123 4.12166C9.74186 4.08675 9.71985 4.04144 9.6939 4.0039C9.67837 4.0295 9.659 4.0673 9.64219 4.08675C9.63955 4.07122 9.63315 4.02975 9.62922 3.97155C9.62666 3.90423 9.62274 3.81753 9.62666 3.79935C9.63306 3.76445 9.6875 3.62723 9.8027 3.50162C9.93992 3.35144 10.0811 3.06284 10.1224 2.9735C10.1638 2.88415 10.3399 2.5127 10.3399 2.5127H10.4745L10.279 2.95796C10.279 2.95796 10.1613 3.20134 10.1004 3.29076C10.0396 3.38019 9.91142 3.63645 9.85442 3.73612C9.8958 3.68176 9.93079 3.65326 9.97226 3.60146C10.0124 3.5652 10.1236 3.40861 10.1236 3.40861L10.1235 3.40844Z" fill="#8C6228"/>
<path fill-rule="evenodd" clip-rule="evenodd" d="M10.8751 1.8457C10.8531 1.9134 10.8183 1.97626 10.7727 2.03088C10.6924 2.12671 10.5202 2.25479 10.4361 2.35702C10.3593 2.45669 10.2057 2.72856 10.2755 3.05087C10.3011 2.98098 10.3494 2.84248 10.4775 2.68581C10.6057 2.52914 10.7429 2.34926 10.8103 2.20948C10.8776 2.06834 10.8866 1.95706 10.8866 1.95706L10.9122 1.92472L10.8967 1.85091L10.8747 1.8457H10.8751Z" fill="#CBA94C"/>
<path fill-rule="evenodd" clip-rule="evenodd" d="M13.496 10.4321C13.496 10.4321 13.4442 10.291 13.4287 10.1628C13.4132 10.0347 13.4543 10.0092 13.4067 9.86256C13.3782 9.77322 13.3265 9.78576 13.3135 9.77322C13.3005 9.76067 13.2915 9.62568 13.2941 9.55186C13.2966 9.47805 13.2915 9.38231 13.2785 9.34083C13.2592 9.3253 13.2462 9.31233 13.2177 9.21659C13.1853 9.12076 13.1698 9.07289 13.1543 9.04447C13.1387 9.01605 13.0934 8.99011 13.0934 8.96161C13.0934 8.90461 13.1451 8.87491 13.1451 8.85921C13.1426 8.82687 13.1038 8.85281 13.0934 8.84368C13.0805 8.82815 13.1258 8.73497 13.109 8.722C13.1025 8.7156 13.0572 8.76995 13.0455 8.75442C13.0325 8.73881 13.017 8.58478 12.9937 8.48255C12.9718 8.38288 12.9484 8.31043 12.9458 8.28065C12.9433 8.25215 12.7671 7.74988 12.7245 7.62819C12.6901 7.52537 12.6611 7.4208 12.6378 7.31493C12.6248 7.25409 12.6157 7.12976 12.6093 7.14273C12.6028 7.1557 12.6067 7.2191 12.5963 7.21654C12.5872 7.2139 12.5549 6.99263 12.5446 6.95764C12.5355 6.92266 12.4811 6.80404 12.4678 6.7182C12.4548 6.63141 12.4264 6.40485 12.4069 6.25083C12.3875 6.0968 12.3784 6.0334 12.3784 5.99483C12.3816 5.90049 12.3764 5.80605 12.3629 5.71263C12.3373 5.54947 12.2861 5.35141 12.2412 5.2363C12.1545 5.01878 11.924 4.46216 11.8828 4.32366C11.8828 4.28867 11.9281 4.30813 11.9281 4.30813C11.9281 4.30813 12.0407 4.59033 12.1235 4.80776C12.2038 5.02527 12.2802 5.21684 12.2997 5.2363C12.3152 5.25567 12.4369 5.46926 12.4912 5.81878C12.5456 6.16831 12.565 6.49061 12.5974 6.70548C12.6129 6.80788 12.6259 6.91651 12.6582 7.02523C12.6931 7.14307 12.7475 7.26476 12.8187 7.45113C12.8796 7.6078 12.9249 7.73853 12.9495 7.85117C12.978 7.99487 12.978 8.10358 12.9948 8.17484C13.0104 8.23568 13.0336 8.35728 13.0881 8.53324C13.1425 8.7092 13.2226 8.93584 13.277 9.0769C13.3832 9.35909 13.4306 9.5947 13.4466 9.72031C13.4608 9.84976 13.5088 10.2977 13.4958 10.4322L13.496 10.4321Z" fill="#A88F33"/>
<path fill-rule="evenodd" clip-rule="evenodd" d="M10.8819 1.83018L10.8754 1.84571C10.8754 1.84571 10.8948 1.8522 10.891 1.87814C10.8912 1.91363 10.8891 1.9491 10.8845 1.98429C10.8781 2.02961 10.8651 2.06451 10.8625 2.09301C10.8625 2.15385 10.8716 2.22374 10.7857 2.39722C10.7601 2.44509 10.7444 2.48648 10.7314 2.51498C10.699 2.58487 10.6926 2.59528 10.6641 2.62762C10.7094 2.60202 10.8725 2.49962 10.9553 2.51498C10.8984 2.54732 10.8116 2.61081 10.7572 2.69367C10.7702 2.69623 10.8246 2.70664 10.9108 2.69367C11.0545 2.67165 11.2151 2.61986 11.3561 2.63018C11.5102 2.63923 11.4494 2.44509 11.4494 2.44509L11.2716 2.05418L10.935 1.81738L10.8819 1.83027V1.83018Z" fill="#BE9C44"/>
<path fill-rule="evenodd" clip-rule="evenodd" d="M11.7592 4.7585C11.7592 4.7585 11.609 4.60831 11.5482 4.0929C11.4873 3.57509 11.5003 2.8129 11.5003 2.8129L11.3786 2.51517C11.3786 2.51517 11.353 2.31711 11.2893 2.24338C11.2255 2.16965 11.1003 2.04532 11.0433 1.98448C10.9863 1.92364 10.9216 1.84078 10.8828 1.82781C10.9022 1.79547 10.989 1.61294 11.3216 1.61038C11.6542 1.60782 11.7568 1.79291 11.7915 1.86023C11.8263 1.92756 11.9831 2.21863 12.0413 2.7733C12.0957 3.32728 12.0983 3.36876 12.0893 3.56033C12.0828 3.66648 12.0478 3.91242 11.9869 4.17516C11.9312 4.39788 11.8704 4.64645 11.759 4.75901L11.7592 4.7585Z" fill="#A17C34"/>
<path fill-rule="evenodd" clip-rule="evenodd" d="M11.2896 5.20011C11.3397 5.20372 11.3897 5.19244 11.4333 5.16768C11.4812 5.16512 11.6547 5.18714 11.788 5.01758C11.797 5.05632 11.8204 5.16128 11.7595 5.25446C11.7919 5.22204 11.8398 5.20915 11.8462 5.20011C11.8488 5.24798 11.8941 5.39552 11.7025 5.75409C11.7543 5.69717 11.8151 5.69973 11.8695 5.69325C11.8721 5.76058 11.9083 5.98705 11.8125 6.10882C11.7491 6.19168 11.6455 6.16574 11.6455 6.16574C11.6471 6.14765 11.6471 6.12947 11.6455 6.11138C11.643 6.07639 11.63 6.04149 11.6391 6.0182C11.5891 5.99533 11.5435 5.96375 11.5045 5.92493C11.3918 5.81877 11.2456 5.63761 11.2353 5.50295C11.2223 5.35277 11.3569 5.32043 11.3569 5.32043C11.3457 5.31033 11.336 5.29853 11.3284 5.28544C11.322 5.26351 11.3155 5.22852 11.2896 5.20011Z" fill="#8C6228"/>
<path fill-rule="evenodd" clip-rule="evenodd" d="M10.2914 3.57155C10.2914 3.57155 10.2849 3.5625 10.25 3.60389C10.2565 3.5625 10.263 3.52359 10.2655 3.48604C10.2821 3.45128 10.3034 3.41905 10.329 3.3903C10.3096 3.42904 10.2966 3.46403 10.2966 3.46403C10.2966 3.46403 10.3445 3.37469 10.4144 3.32033C10.4623 3.2815 10.5232 3.26341 10.549 3.22714C10.5775 3.18832 10.571 3.18183 10.5775 3.17535C10.5775 3.17535 10.641 3.13396 10.7381 3.01219C10.751 2.99666 10.7704 2.97985 10.7834 2.96432C10.8053 2.95527 10.8571 2.93198 10.918 2.90083C10.9815 2.86593 11.0526 2.81806 11.0967 2.79843C11.1834 2.7596 11.2754 2.76353 11.318 2.7026C11.3504 2.69355 11.3853 2.59645 11.3789 2.51367C11.4267 2.53304 11.6727 2.68579 11.7569 3.01978C11.8177 3.25667 11.7089 3.62173 11.6636 3.79785C11.6183 3.97398 11.6119 4.10463 11.5484 4.18484C11.4681 4.29108 11.2093 4.44084 11.1458 4.51499C11.0915 4.57584 10.9284 4.72986 10.9348 4.84114C10.9413 4.924 11.0435 4.96914 11.0656 4.98484C11.0877 5.00054 11.0875 5.01983 11.129 5.01044C11.1705 5.00105 11.1859 4.98194 11.2028 4.98194C11.2222 4.9845 11.2222 4.98842 11.2312 4.98842C11.2378 4.98823 11.2443 4.98734 11.2507 4.98578C11.2507 4.98578 11.2442 5.10362 10.9685 5.13938C10.9491 5.14202 10.9297 5.14842 10.905 5.15235C10.9374 5.13682 10.9568 5.13682 10.9918 5.08895C10.953 5.08246 10.8416 5.07598 10.8131 5.06693C10.8222 5.0514 10.8519 5.00993 10.8765 4.99056C10.8985 4.97119 10.874 4.96496 10.8546 4.97503C10.8212 4.99772 10.7892 5.02233 10.7588 5.04875C10.7264 5.07726 10.6979 5.11608 10.6461 5.15115C10.6306 5.09936 10.6331 5.00097 10.6941 4.9298C10.6785 4.93236 10.6487 4.97767 10.6203 4.96863C10.6151 4.92141 10.6182 4.87366 10.6293 4.82748C10.6448 4.7692 10.729 4.66697 10.729 4.66697L11.1354 3.9407L11.2221 3.39056L10.2914 3.57138V3.57155Z" fill="#92723A"/>
<path fill-rule="evenodd" clip-rule="evenodd" d="M10.2676 3.60281C10.2676 3.60281 10.2456 3.61834 10.2896 3.64812C10.2831 3.65717 10.2676 3.68951 10.2481 3.71152C10.2262 3.73712 10.2028 3.75299 10.1938 3.77501C10.1744 3.82032 10.1589 3.85138 10.1589 3.87084C10.1589 3.8903 10.1524 4.01454 10.098 4.09475C10.0786 4.12326 10.0566 4.17113 10.041 4.20347C10.0087 4.26039 9.98019 4.30587 9.9737 4.33147C9.96081 4.37678 9.95177 4.50103 9.95177 4.50103C9.95177 4.50103 9.98027 4.46604 9.9906 4.45315C9.97498 4.4855 9.95817 4.5204 9.93359 4.54634C9.94912 4.53337 9.99444 4.50103 10.0708 4.4337C10.177 4.34444 10.3427 4.19425 10.5447 4.0753C10.4837 4.09731 10.432 4.09731 10.3906 4.1038C10.423 4.07146 10.7142 3.7297 10.867 3.69736C10.8762 3.6856 10.8809 3.67083 10.8799 3.65589L10.7491 3.643L10.4837 3.69992L10.445 3.49512L10.2676 3.60255V3.60281Z" fill="#B18E3E"/>
<path fill-rule="evenodd" clip-rule="evenodd" d="M10.6889 4.76802C10.6889 4.76802 10.6539 4.80292 10.6216 4.88971C10.5967 4.86371 10.5754 4.83453 10.5581 4.80292C10.5102 4.72271 10.4365 4.6204 10.2643 4.67868C10.2618 4.62432 10.2578 4.59582 10.2643 4.55699C10.2928 4.55059 10.3795 4.4807 10.4662 4.37839C10.5271 4.3085 10.5841 4.2282 10.6229 4.12597C10.6485 4.10652 10.6928 4.07418 10.7509 4.03663C10.8337 3.97971 10.9334 3.90197 10.9489 3.81528C10.9101 3.83081 10.8273 3.86963 10.7029 3.86323C10.7509 3.84122 10.8246 3.81792 10.8156 3.72209C10.835 3.70912 10.8506 3.70008 10.8506 3.70008C10.836 3.69521 10.8206 3.69301 10.8052 3.69359C10.8026 3.68454 10.7988 3.67166 10.7767 3.67806C10.7547 3.68446 10.7511 3.68454 10.7482 3.69359C10.7392 3.69624 10.7094 3.69359 10.6874 3.70921C10.6654 3.72482 10.6045 3.77645 10.5812 3.78549C10.5903 3.76996 10.6032 3.74675 10.6032 3.74675C10.6032 3.74675 10.5398 3.75315 10.4945 3.77235C10.4116 3.80085 10.3159 3.85265 10.2188 3.90308C10.2278 3.88755 10.2317 3.87748 10.2381 3.87458C10.2445 3.87168 10.2601 3.86818 10.2601 3.86554C10.2601 3.86289 10.2537 3.83994 10.2576 3.83064C10.2866 3.76913 10.3209 3.71023 10.36 3.65459C10.4053 3.59366 10.4143 3.50697 10.4143 3.50697L10.6124 3.4073L11.169 3.2793L11.5302 3.30131L11.4849 3.55117L11.2716 3.98739L11.0891 4.38479L10.8806 4.62825L10.689 4.76802H10.6889Z" fill="#543E26"/>
<path fill-rule="evenodd" clip-rule="evenodd" d="M11.5918 3.68595C11.5918 3.68595 11.3742 3.95517 11.3134 3.99664C11.3522 3.91379 11.5918 3.42056 11.6785 3.28334C11.6591 3.26781 11.6331 3.26781 11.694 3.02734C11.6423 3.14894 11.6241 3.21243 11.5814 3.24477C11.5388 3.27711 11.5335 3.26679 11.5046 3.26679C11.5101 3.25694 11.5123 3.24563 11.511 3.23445C11.511 3.23445 11.3285 3.21243 11.2038 3.21243C11.0792 3.21243 10.8324 3.27976 10.6951 3.33412C10.5864 3.37943 10.5255 3.37943 10.4867 3.40785C10.4479 3.44019 10.4258 3.47517 10.4064 3.48422C10.3909 3.49326 10.3171 3.51656 10.3002 3.54114C10.2847 3.56674 10.2589 3.59549 10.2589 3.60198C10.2589 3.60846 10.2524 3.61759 10.2718 3.61102C10.2782 3.60846 10.3262 3.58252 10.3805 3.55018C10.4543 3.50879 10.5436 3.46092 10.6084 3.43242C10.7935 3.35861 10.8517 3.37158 10.9345 3.35605C11.0212 3.34052 11.1455 3.30425 11.2283 3.30425C11.3112 3.30169 11.4679 3.30425 11.5041 3.31074C11.4886 3.32371 11.4756 3.33924 11.4821 3.39359C11.4821 3.40912 11.4691 3.42594 11.4565 3.46348C11.4178 3.56964 11.3439 3.74568 11.3029 3.83502C11.246 3.95662 11.1813 4.05894 11.1493 4.12234C11.1173 4.18574 11.0469 4.35274 10.9772 4.44208C10.9075 4.53143 10.871 4.58579 10.8492 4.60524C10.8273 4.6247 10.6705 4.73981 10.6822 4.78128C10.7107 4.77224 10.8907 4.70448 11.0213 4.55737C11.1519 4.41026 11.178 4.32048 11.2802 4.24019C11.3824 4.15989 11.4627 4.02532 11.5106 3.91404C11.5507 3.81045 11.5417 3.77811 11.5921 3.6862L11.5918 3.68595Z" fill="#806031"/>
<path fill-rule="evenodd" clip-rule="evenodd" d="M6.9046 5.69623C6.9046 5.69623 6.8761 5.81399 6.81133 5.87228C6.74792 5.92928 6.63528 5.97843 6.6224 6.07426C6.60687 6.17 6.73504 6.21796 6.73504 6.21796C6.73504 6.21796 6.66507 6.33316 6.66507 6.41986C6.66507 6.5092 6.66251 6.52601 6.67155 6.61143C6.66129 6.61804 6.65256 6.62677 6.64595 6.63703C6.64595 6.63703 6.65235 6.71989 6.71584 6.7716C6.77933 6.82332 6.8336 6.85446 6.86594 6.84149C6.87088 6.85204 6.87521 6.86287 6.87891 6.87392C6.87891 6.87392 6.92687 6.75223 6.95921 6.64608C6.99155 6.53736 7.02005 6.55281 7.03294 6.40655C7.04582 6.26029 7.18654 6.00915 7.18654 6.00915L7.28254 5.79454L7.12595 5.67285L6.9046 5.69615V5.69623Z" fill="#B6903C"/>
<path fill-rule="evenodd" clip-rule="evenodd" d="M7.19874 5.90723C7.16645 5.94037 7.13665 5.97586 7.10957 6.01338C7.06818 6.07038 7.03584 6.1221 6.975 6.1442C6.91415 6.1663 6.87533 6.16613 6.87917 6.22706C6.88301 6.28798 6.94001 6.31375 6.97235 6.34482C7.00734 6.37716 7.03584 6.43151 7.02031 6.49244C7.03968 6.4834 7.07467 6.47299 7.10701 6.4031C7.13935 6.33321 7.36557 5.90731 7.36557 5.90731H7.19874V5.90723Z" fill="#685026"/>
<path fill-rule="evenodd" clip-rule="evenodd" d="M8.0908 4.92401C8.0908 4.92401 8.11017 4.8723 8.0908 4.83475C8.07135 4.79593 7.95359 4.78296 7.89531 4.73893C7.83446 4.69361 7.76065 4.66213 7.69981 4.68201C7.70885 4.65999 7.74512 4.61203 7.71534 4.60171C7.68684 4.59266 7.58077 4.64054 7.55227 4.66255C7.52376 4.68457 7.459 4.71042 7.44611 4.72604C7.43323 4.74166 7.41112 4.77135 7.39815 4.75838C7.38518 4.74934 7.37878 4.72604 7.35677 4.73893C7.33475 4.75181 7.22877 4.83859 7.20923 4.88911C7.18968 4.93963 7.14574 5.05227 7.01373 5.18035C6.88172 5.30844 6.82471 5.39138 6.86354 5.43926C6.90237 5.48713 6.92054 5.45223 6.92703 5.49361C6.93202 5.53424 6.92982 5.57543 6.92054 5.6153C6.90501 5.68263 6.87916 5.74603 6.91406 5.759C7.0034 5.7875 7.09019 5.7334 7.10956 5.74995C7.14838 5.78486 7.08754 5.91047 7.17944 5.93504C7.27271 5.96064 7.36462 5.91303 7.36462 5.91303L7.70373 5.7305L8.02996 5.55838L8.19687 5.22823L8.10736 4.95252L8.09029 4.92401H8.0908Z" fill="#D4B968"/>
<path fill-rule="evenodd" clip-rule="evenodd" d="M7.76798 5.71252C7.76798 5.71252 7.71098 5.62582 7.78095 5.54937C7.85093 5.47291 7.95051 5.44065 7.98934 5.39278C7.98195 5.38366 7.97203 5.37693 7.96084 5.37341C7.98661 5.32729 8.02593 5.2902 8.07348 5.26717C8.0541 5.2478 8.02816 5.23227 7.99975 5.23227C7.93626 5.23227 7.89735 5.27109 7.83915 5.27109C7.78223 5.27109 7.77575 5.24259 7.77575 5.24259C7.77575 5.24259 7.87158 5.23355 7.86245 5.1908C7.8534 5.14548 7.83685 5.14548 7.83685 5.14548C7.83685 5.14548 8.02193 5.06868 8.05428 5.02772C8.08662 4.98676 8.08278 4.93838 8.08926 4.91901C8.11119 4.91901 8.23936 4.85168 8.29116 4.88018C8.34296 4.90868 8.30669 4.98634 8.30669 4.98634C8.30669 4.98634 8.46345 4.86849 8.54332 4.75295C8.61321 4.75944 8.64572 4.70508 8.69692 4.70508C8.76041 4.70508 8.86008 4.79178 8.87945 4.97686C8.89242 5.08302 8.91179 5.14386 8.89242 5.3316C8.88337 5.43775 8.88593 5.6644 8.91802 5.77686C8.93995 5.86621 8.99175 5.85716 8.99175 5.85716C8.9838 5.88439 8.96805 5.90869 8.94644 5.92705C8.91145 5.95939 8.90761 6.0449 8.91145 6.07724C8.91661 6.10088 8.9231 6.12422 8.9309 6.14713C8.9309 6.14713 8.88952 6.195 8.87911 6.22742C8.87006 6.25977 8.8274 6.28178 8.79625 6.28178C8.7651 6.28178 8.78072 6.27914 8.73933 6.28178C8.69794 6.28443 8.68497 6.29083 8.65903 6.28178C8.63309 6.27274 8.61372 6.26233 8.62413 6.17938C8.63318 6.09652 8.30439 5.90367 8.30439 5.90367L7.76679 5.7121L7.76798 5.71252Z" fill="#CCA849"/>
<path fill-rule="evenodd" clip-rule="evenodd" d="M7.15277 6.53083C7.15277 6.53083 7.27053 6.6875 7.75471 6.6875C7.98511 6.6875 8.06541 6.66549 8.11311 6.65252C8.16491 6.63954 8.35904 6.56326 8.55454 6.33277C8.73058 6.12439 8.69176 6.03897 8.69176 6.03897L8.58936 6.02344L8.25656 6.06875L7.27181 6.48816L7.15234 6.53083H7.15277Z" fill="#585136"/>
<path fill-rule="evenodd" clip-rule="evenodd" d="M7.51316 6.56996C7.51316 6.56996 7.09375 6.66323 7.09375 6.39784C7.09375 6.13894 7.35265 5.86707 7.41742 5.8192C7.48475 5.77124 7.64526 5.7168 7.64526 5.7168H8.03233L8.10606 5.9123L8.07372 6.33427L7.51316 6.56987V6.56996Z" fill="#252211"/>
<path fill-rule="evenodd" clip-rule="evenodd" d="M7.89921 5.79589C7.89921 5.79589 7.819 5.72208 7.63647 5.82149C7.45394 5.9209 7.30632 6.12869 7.29727 6.31736C7.28823 6.48427 7.43449 6.6086 7.66233 6.61509C7.83188 6.62149 7.9342 6.60212 7.986 6.58949C7.97303 6.57396 7.9057 6.48982 7.9057 6.48982L7.8993 5.79598L7.89921 5.79589Z" fill="#C3B378"/>
<path fill-rule="evenodd" clip-rule="evenodd" d="M7.82078 5.83689C7.82078 5.83689 7.80141 5.82136 7.74398 5.85242C7.6961 5.87802 7.62622 5.94569 7.57186 5.99356C7.53687 6.02206 7.51486 6.03495 7.49506 6.05696C7.41476 6.15279 7.34743 6.30947 7.38634 6.38712C7.42526 6.46477 7.55334 6.55412 7.87957 6.49327L7.81984 5.83698L7.82078 5.83689Z" fill="#E6D89C"/>
<path fill-rule="evenodd" clip-rule="evenodd" d="M7.71572 5.99708C7.71572 5.99708 7.66392 6.07738 7.66392 6.20555C7.66392 6.33628 7.73773 6.54467 8.0096 6.5602C8.21799 6.57317 8.35776 6.25991 8.50923 6.13822C8.62443 6.04504 8.69432 6.04239 8.69432 6.04239C8.69432 6.04239 8.57656 5.91439 8.26202 5.74859C7.95132 5.58159 7.60308 5.55958 7.41406 5.81592C7.50341 5.80943 7.79209 5.73562 7.79209 5.73562L7.93323 5.78093L7.71572 5.99717V5.99708Z" fill="#252211"/>
<path fill-rule="evenodd" clip-rule="evenodd" d="M8.11993 6.16652C8.11088 6.14715 8.10439 6.12121 8.14194 6.11481C8.17949 6.10841 8.1963 6.11217 8.20927 6.14041C8.22224 6.16866 8.23487 6.19221 8.21567 6.2039C8.1963 6.21423 8.14578 6.2039 8.11984 6.16635L8.11993 6.16652ZM8.05908 5.984C8.05908 5.984 8.04611 5.99304 8.0526 5.97495C8.05516 5.95302 8.07205 5.91411 8.11344 5.92324C8.15483 5.93237 8.14587 5.9776 8.13904 5.99057C8.13221 6.00354 8.09765 6.02547 8.07171 6.01617C8.06842 6.01533 8.06538 6.01372 8.06283 6.01148C8.06027 6.00925 8.05829 6.00644 8.05702 6.00329C8.05576 6.00014 8.05526 5.99673 8.05555 5.99335C8.05585 5.98997 8.05695 5.98671 8.05874 5.98383L8.05908 5.984Z" fill="#6F674D"/>
<path fill-rule="evenodd" clip-rule="evenodd" d="M4.55469 6.06755C4.55469 6.06755 4.65709 6.14435 4.77604 6.14136C4.8938 6.13872 5.04527 6.01712 5.11516 5.93938C5.15654 5.89406 5.19196 5.84619 5.23036 5.80865C5.26278 5.7763 5.28471 5.76077 5.30024 5.73876C5.32226 5.71316 5.34556 5.66503 5.35725 5.64941C5.32875 5.67143 5.28736 5.71034 5.24461 5.7362C5.20322 5.7618 5.11388 5.80993 5.07761 5.8229C5.04271 5.83587 4.68021 6.0277 4.68021 6.0277L4.55469 6.06755Z" fill="#AC924C"/>
<path fill-rule="evenodd" clip-rule="evenodd" d="M4.71094 5.11075C4.71094 5.11075 4.76785 5.07193 4.87793 5.04727C4.98409 5.02167 5.19768 5.00195 5.19768 5.00195L5.37372 5.07875L5.44361 5.34414L5.31561 5.61994L5.15254 5.72234L4.96736 5.42461L4.71136 5.11127L4.71094 5.11075Z" fill="#9F8E57"/>
<path fill-rule="evenodd" clip-rule="evenodd" d="M4.4828 5.3475L4.42188 5.39299C4.42188 5.39299 4.43749 5.36449 4.45038 5.27779C4.46326 5.19109 4.53067 4.98006 4.62906 4.85837C4.72745 4.73669 4.72489 4.74317 4.72489 4.74317C4.71584 4.74152 4.70654 4.74181 4.69761 4.74403C4.68867 4.74625 4.68032 4.75035 4.6731 4.75606C4.68607 4.72739 4.76893 4.62499 4.85178 4.57379C4.93464 4.52259 4.96698 4.50646 5.05368 4.54819C5.14038 4.58992 5.1624 4.61159 5.22589 4.60903C5.28937 4.60647 5.34365 4.53914 5.34365 4.53914C5.34365 4.53914 5.35662 4.58053 5.30874 4.67636C5.26087 4.77219 5.07186 4.9676 5.07186 4.9676L4.6783 5.23683L4.4828 5.34776V5.3475Z" fill="#EAC970"/>
<path fill-rule="evenodd" clip-rule="evenodd" d="M4.77378 5.07849C4.77378 5.07849 5.05862 5.11731 5.14532 5.0371C5.14788 5.04615 5.15829 5.04615 5.15829 5.05263C5.15759 5.05752 5.15532 5.06204 5.15181 5.06552C5.16124 5.06401 5.17076 5.06316 5.18031 5.06296C5.19171 5.06635 5.20343 5.06852 5.21529 5.06944C5.22484 5.06924 5.23437 5.06835 5.24379 5.0668C5.2429 5.07323 5.24071 5.07942 5.23737 5.08499C5.23402 5.09056 5.22959 5.0954 5.22434 5.09922C5.23731 5.09922 5.24994 5.10178 5.24994 5.11211C5.24994 5.12243 5.2525 5.15358 5.23697 5.16007C5.2241 5.16362 5.21041 5.16269 5.19814 5.15742C5.19917 5.18193 5.20583 5.20587 5.2176 5.22739C5.2432 5.27527 5.29781 5.32979 5.3712 5.31409C5.3712 5.31409 5.40994 5.40728 5.24687 5.61438C5.22494 5.64288 5.20156 5.68171 5.17314 5.71405C5.16191 5.73852 5.15333 5.76413 5.14754 5.79042C5.14754 5.79042 5.42334 5.68427 5.50227 5.44218C5.58257 5.19881 5.5981 4.95936 5.58257 4.73545C5.57992 4.67196 5.5696 4.62673 5.55407 4.59431C5.51524 4.51401 5.40644 4.52698 5.36249 4.57229C5.29901 4.63578 5.19285 4.79364 5.04531 4.90236C4.89512 5.01107 4.88872 5.03036 4.77344 5.07849H4.77378Z" fill="#D7BC6B"/>
<path fill-rule="evenodd" clip-rule="evenodd" d="M4.43074 5.42803C4.43074 5.42803 4.37638 5.46037 4.34788 5.58163C4.31938 5.70587 4.37348 5.85734 4.40479 5.90521C4.43611 5.95309 4.50719 6.0839 4.65465 6.09039C4.69115 6.09019 4.72724 6.08271 4.7608 6.06837C4.81228 6.04477 4.86056 6.01475 4.90451 5.97903C4.96799 5.93115 5.01971 5.88977 5.01322 5.88584C4.99769 5.87936 4.62231 5.56866 4.62231 5.56866L4.48117 5.41113L4.43065 5.4282L4.43074 5.42803Z" fill="#585136"/>
<path fill-rule="evenodd" clip-rule="evenodd" d="M4.78823 5.94275C4.78823 5.94275 4.86461 5.93635 4.90992 5.90784C4.95523 5.87934 4.64453 5.57129 4.64453 5.57129L4.66655 5.90409L4.78823 5.94275Z" fill="#453A25"/>
<path fill-rule="evenodd" clip-rule="evenodd" d="M4.45417 5.40404C4.45417 5.40404 4.41534 5.47785 4.41534 5.49731C4.40886 5.56071 4.42832 5.76005 4.44385 5.82345C4.45938 5.89078 4.54352 5.99301 4.65232 5.99301C4.71956 5.99301 4.81283 5.95162 4.81283 5.9413C4.81283 5.92832 4.717 5.9157 4.69114 5.86748C4.67561 5.84188 4.66913 5.77822 4.66554 5.71388C4.66298 5.6725 4.66298 5.62718 4.67851 5.61148C4.7135 5.57266 4.7199 5.4613 4.7199 5.4613L4.84414 5.23047H4.68073L4.48523 5.35215L4.45417 5.40404Z" fill="#84754B"/>
<path fill-rule="evenodd" clip-rule="evenodd" d="M4.41016 5.47583C4.41016 5.47583 4.53816 5.30627 4.65353 5.26736C4.7689 5.22844 4.82052 5.25183 4.82052 5.25183L4.7532 5.42403L4.65737 5.53018L4.66385 5.58454C4.66385 5.58454 4.64824 5.72824 4.74407 5.82791C4.83989 5.92758 4.91106 5.92374 4.95253 5.92374C4.99401 5.92374 5.11305 5.88875 5.17389 5.74505C5.22825 5.61048 5.27356 5.43785 5.16484 5.2648C5.0586 5.09259 4.87096 5.08594 4.83469 5.08594C4.79842 5.08594 4.51367 5.10019 4.41016 5.47557V5.47583Z" fill="#252211"/>
<path fill-rule="evenodd" clip-rule="evenodd" d="M7.69615 6.05188C7.64828 6.02987 7.69359 5.8953 7.74147 5.85383C7.78934 5.81235 7.85018 5.76457 7.95642 5.758C7.99516 5.75544 8.03271 5.78001 8.02631 5.80595C8.01726 5.85383 7.94994 5.92115 7.88909 5.96903C7.80495 6.03507 7.75051 6.07646 7.69615 6.05188Z" fill="#F7F7E7"/>
<path fill-rule="evenodd" clip-rule="evenodd" d="M5.1061 5.31754C5.14101 5.31499 5.18621 5.34308 5.19524 5.38088C5.20426 5.42217 5.17327 5.50484 5.1061 5.50484C5.05187 5.50484 5.02344 5.43767 5.02344 5.41834C5.02405 5.40245 5.02849 5.38694 5.03638 5.37314C5.03893 5.36922 5.0454 5.32401 5.1061 5.31754Z" fill="#F8F6DE"/>
<path fill-rule="evenodd" clip-rule="evenodd" d="M4.59959 5.34766C4.59959 5.34766 4.51024 5.38904 4.46886 5.47566C4.43928 5.53961 4.43034 5.61119 4.44326 5.68046C4.44974 5.7128 4.48208 5.79301 4.5041 5.82151C4.52612 5.85001 4.5559 5.86947 4.57791 5.86682C4.59993 5.86418 4.64516 5.80598 4.64516 5.77108C4.64516 5.73618 4.6478 5.58855 4.69047 5.50825C4.72801 5.42804 4.59984 5.34774 4.59984 5.34774L4.59959 5.34766Z" fill="#D4C38B"/>
<path fill-rule="evenodd" clip-rule="evenodd" d="M4.61411 5.34129C4.59858 5.35033 4.57272 5.36331 4.57912 5.38012C4.58561 5.39565 4.63997 5.40572 4.65942 5.4436C4.68144 5.48243 4.68144 5.52382 4.67495 5.54327C4.69186 5.53524 4.70721 5.52426 4.72026 5.51085C4.74877 5.47851 4.78367 5.43456 4.81345 5.43456C4.8329 5.43456 4.85228 5.4436 4.87045 5.4436C4.89895 5.4436 4.92737 5.43456 4.93129 5.40478C4.93769 5.36595 4.87694 5.33096 4.84195 5.33745C4.84844 5.31185 4.85748 5.27405 4.82898 5.2481C4.80048 5.22216 4.71122 5.26756 4.69176 5.28053C4.67231 5.2935 4.61411 5.34137 4.61411 5.34137V5.34129Z" fill="#E2D59D"/>
<path fill-rule="evenodd" clip-rule="evenodd" d="M6.67081 8.06048L6.86238 8.00391L6.91674 8.04273C6.91674 8.04273 6.95548 8.12559 7.01641 8.13592C6.99695 8.1773 6.94644 8.21272 6.94908 8.24207C6.95173 8.27143 6.97758 8.29387 6.97758 8.29387C6.97758 8.29387 6.80538 8.57863 7.14458 8.8656C7.06428 8.89794 6.96205 8.9424 6.9077 8.968C6.94644 8.97705 7.0293 8.9936 7.06428 9.02501C7.09927 9.05641 7.09927 9.06639 7.13161 9.08585C7.16395 9.1053 7.18332 9.13116 7.17692 9.14276C7.15491 9.12979 7.08109 9.09105 7.06821 9.12723C7.05532 9.16342 6.74846 9.14925 6.74846 9.14925L6.23066 9.24892C6.23066 9.24892 6.25003 9.19712 6.19567 9.14925C6.13227 9.09233 6.05462 9.15181 5.97176 9.08841C5.86305 9.00555 5.85912 8.90972 5.82422 8.87354C5.85912 8.85152 5.93037 8.81918 6.09993 8.79674C6.09345 8.78377 6.07143 8.74494 6.0844 8.71004C6.09993 8.66473 6.16461 8.63623 6.14524 8.58204C6.17374 8.57555 6.18663 8.57555 6.25788 8.48621C6.32521 8.39687 6.3666 8.3775 6.41839 8.37101C6.47019 8.36453 6.50125 8.37101 6.59708 8.28167C6.66432 8.21826 6.64239 8.16391 6.64239 8.16391C6.64239 8.16391 6.68634 8.14966 6.6709 8.06031L6.67081 8.06048Z" fill="#CBAC5A"/>
<path fill-rule="evenodd" clip-rule="evenodd" d="M6.10577 8.08977C6.10833 8.0768 6.11874 8.07032 6.18863 8.0768C6.25852 8.08329 6.70122 8.03542 6.82163 8.02893C6.94332 8.01989 7.37177 8.02629 7.58024 8.07032C7.78871 8.11435 7.99966 8.16615 8.10189 8.192C8.20429 8.22051 8.23654 8.23075 8.23262 8.24372C8.23006 8.25669 8.20702 8.26932 8.19379 8.26573C8.1809 8.26317 7.8417 8.15958 7.73691 8.13773C7.63213 8.11589 7.26954 8.05743 7.07131 8.06093C6.88623 8.06358 6.81241 8.05837 6.65583 8.07646C6.49916 8.09592 6.24025 8.12177 6.1626 8.11145C6.0858 8.1024 6.10167 8.1024 6.1056 8.08943L6.10577 8.08977Z" fill="#D6BC6F"/>
<path fill-rule="evenodd" clip-rule="evenodd" d="M7.14838 9.10396C7.14838 9.10396 7.41377 9.24766 7.50959 9.42371C7.57948 9.55444 7.46821 9.61921 7.46821 9.61921C7.46821 9.61921 7.61839 9.6192 7.59894 9.70206C7.58989 9.75378 7.34004 9.89355 7.17304 9.96736C7.00348 10.0412 7.00997 10.0373 6.92711 10.0502C6.84681 10.0632 6.62674 10.0246 6.58142 10.089C6.53611 10.1535 6.55582 10.2199 6.56845 10.2302C6.58142 10.2392 6.6863 10.2522 6.6863 10.2522C6.6863 10.2522 6.66428 10.313 6.44685 10.3195C6.22942 10.326 6.17498 10.3415 6.16201 10.3648C6.14904 10.3868 6.2034 10.3739 6.30315 10.3904C6.40282 10.406 6.5426 10.416 6.5426 10.416C6.5426 10.416 6.49729 10.4549 6.37953 10.4859C6.24487 10.5208 6.03384 10.5533 5.97044 10.5921C6.00278 10.6141 6.05074 10.6464 6.07284 10.649C6.01848 10.662 5.94202 10.6905 5.92914 10.7008C5.94851 10.7138 5.97445 10.7293 5.97445 10.7293C5.97445 10.7293 5.86565 10.86 5.80225 10.8925C5.73884 10.9249 5.37379 11.0944 5.24818 11.062C4.93492 10.9792 4.89609 10.6361 4.81972 10.6103C4.70452 10.5714 4.65016 10.649 4.54785 10.5946C4.59316 10.5623 4.61782 10.5429 4.66569 10.5209C4.61389 10.4953 4.34595 10.3254 4.34595 10.3254C4.31793 10.2644 4.28683 10.2047 4.25276 10.1468C4.20097 10.0575 4.12476 9.93835 4.06759 9.83348C3.94334 9.60308 3.93686 9.49692 3.82422 9.36619C3.84367 9.34059 3.91092 9.34418 3.91092 9.34418L4.8547 9.65487L6.52818 9.70334L6.96338 9.08203L7.14846 9.10405L7.14838 9.10396Z" fill="#DFC677"/>
<path fill-rule="evenodd" clip-rule="evenodd" d="M4.66797 10.0517C4.67807 10.063 4.68984 10.0726 4.70287 10.0802C4.7353 10.1023 4.78317 10.1282 4.81551 10.1669C4.82848 10.1476 4.86082 10.1126 4.91791 10.1669C4.975 10.2213 5.04591 10.1826 5.09003 10.1954C5.13534 10.2111 5.1379 10.2175 5.1379 10.2175C5.1379 10.2175 5.1635 10.1954 5.22076 10.1721C5.25575 10.1592 5.29713 10.1501 5.34244 10.1372C5.38383 10.1282 5.42914 10.1152 5.46029 10.1152C5.48879 10.1346 5.59102 10.2432 6.00139 10.0829C6.38846 9.93269 6.47772 9.91588 6.54249 9.93909C6.54897 9.92356 6.55546 9.89378 6.65513 9.89771C6.65513 9.85632 6.57227 9.71518 6.57227 9.71518L6.11531 9.55859H5.86537L5.11588 9.69581L4.70057 9.93278L4.66823 10.0522L4.66797 10.0517Z" fill="#C4A859"/>
<path fill-rule="evenodd" clip-rule="evenodd" d="M4.41797 9.78929C4.41797 9.78929 4.42701 9.85918 4.53061 9.93299C4.63301 10.0067 4.66518 10.0508 4.66518 10.0508C4.66518 10.0508 4.68463 10.0252 4.70017 9.99904C4.7157 9.97054 4.72867 9.9382 4.75452 9.92915C4.80632 9.90714 4.92408 9.94852 4.95002 9.94204C4.97204 9.93564 4.96555 9.89032 4.98885 9.89032C5.04321 9.88768 5.07811 9.92523 5.09756 9.92523C5.11702 9.92523 5.16481 9.92266 5.17129 9.91234C5.17778 9.90201 5.18034 9.79449 5.25415 9.7427C5.33445 9.68578 5.43284 9.71036 5.45895 9.72333C5.45895 9.7427 5.46151 9.79065 5.51331 9.79321C5.5651 9.79577 5.57022 9.78673 5.61571 9.80226C5.66119 9.81779 5.71538 9.7997 5.73995 9.87599C5.76197 9.86959 5.81377 9.8631 5.8008 9.78929C5.8264 9.76992 5.84875 9.75695 5.9032 9.68058C5.91617 9.6612 5.9381 9.63919 5.95499 9.61069C6.0003 9.61069 6.05466 9.60164 6.12711 9.66504C6.10509 9.68057 6.09212 9.69064 6.08572 9.70643C6.10467 9.72519 6.12197 9.74555 6.13744 9.76727C6.15689 9.79287 6.16986 9.82428 6.19444 9.83076C6.2488 9.84629 6.33814 9.82428 6.43781 9.83076C6.53364 9.83725 6.61385 9.87215 6.64884 9.89416C6.66181 9.88776 6.66181 9.88512 6.69415 9.8916C6.72649 9.89809 6.75107 9.90065 6.71617 9.85926C6.73554 9.86831 6.75755 9.88776 6.77701 9.86831C6.79646 9.84885 6.81191 9.82044 6.86627 9.81395C6.92062 9.80747 6.94008 9.81651 6.9621 9.75959C6.9906 9.68971 6.89221 9.68971 6.89221 9.68971C6.89221 9.68971 6.93752 9.64823 6.98804 9.59388C7.04888 9.53696 7.11877 9.46315 7.13558 9.37252C7.16408 9.20552 7.00101 9.18359 7.00101 9.18359L6.21005 9.42696L5.24306 9.37901L4.41848 9.78938L4.41797 9.78929Z" fill="#927D49"/>
<path fill-rule="evenodd" clip-rule="evenodd" d="M3.70884 7.50451C3.70884 7.50451 3.68324 7.53685 3.66745 7.61323C3.65167 7.6896 3.65841 7.68056 3.64544 7.73491C3.63247 7.78927 3.47315 8.33037 3.53288 8.5129C3.59261 8.69542 3.69604 8.76275 3.76072 8.91029C3.77369 8.94264 3.78632 8.96209 3.79306 8.99059C3.81508 9.08634 3.79571 9.16015 3.82156 9.25598C3.83061 9.28832 3.85399 9.32587 3.88889 9.36469C3.96569 9.44491 4.09088 9.52128 4.14489 9.57564C4.22118 9.65594 4.32998 9.81909 4.46848 9.83454C4.54229 9.84358 4.64716 9.81252 4.73386 9.76081C4.81066 9.71285 4.85811 9.64561 4.93866 9.60721C4.99558 9.57871 5.05642 9.56838 5.11078 9.55541C5.22342 9.5334 5.32573 9.52981 5.38658 9.54244C5.47976 9.5619 5.69984 9.62923 5.82178 9.62923C5.91706 9.62769 6.01181 9.61465 6.10397 9.5904C6.28906 9.53604 6.51298 9.44277 6.6606 9.40139C6.7473 9.37579 6.81719 9.36905 6.88844 9.35351C7.01013 9.32501 7.11236 9.28619 7.17064 9.21237C7.13181 9.16706 7.08394 9.09717 6.82496 9.09973C6.53115 9.10622 6.19195 9.26929 6.02496 9.29523C5.85796 9.32117 5.78551 9.3431 5.59906 9.27578C5.41627 9.20777 5.41021 9.16279 5.41021 9.16279C5.41021 9.16279 5.2183 9.02857 5.138 8.68638C5.0577 8.34419 5.138 8.09485 5.34647 7.85788C5.40083 7.79703 5.38786 7.74268 5.38786 7.74268C5.38786 7.74268 5.52507 7.55759 5.48753 7.38428C5.44614 7.21207 5.18075 7.24706 5.18075 7.24706L3.70892 7.50451H3.70884Z" fill="#6E6342"/>
<path fill-rule="evenodd" clip-rule="evenodd" d="M3.92977 8.08008C3.91836 8.10154 3.91299 8.12569 3.91424 8.14997C3.9168 8.18487 3.92721 8.23018 4.032 8.33249C4.12134 8.42175 4.10189 8.52142 4.10189 8.52142C4.10189 8.52142 4.14686 8.53047 4.26889 8.47338C4.36471 8.42807 4.39689 8.50837 4.39689 8.50837C4.42478 8.49374 4.45502 8.48409 4.48623 8.47987C4.51451 8.47726 4.54188 8.46852 4.56644 8.45427C4.56644 8.45427 4.67908 8.56947 4.77747 8.62382C4.86682 8.67178 4.91861 8.70412 4.96265 8.67178C5.00403 8.64328 5.00403 8.585 5.00139 8.55914C4.99112 8.53528 4.97812 8.51268 4.96265 8.49181C4.93414 8.45042 4.88883 8.40247 4.88585 8.36381C4.87936 8.27455 4.95317 8.16831 4.93756 8.14246C4.92194 8.1166 4.86383 8.11012 4.72013 8.16191C4.57131 8.21107 3.92917 8.08033 3.92917 8.08033L3.92977 8.08008Z" fill="#39331F"/>
<path fill-rule="evenodd" clip-rule="evenodd" d="M4.26821 8.65913C4.26821 8.65913 4.19449 8.58924 4.22034 8.25004C4.25164 8.24959 4.2829 8.25262 4.31353 8.25909C4.31353 8.25909 4.35372 8.52192 4.26821 8.65913Z" fill="#292311"/>
<path fill-rule="evenodd" clip-rule="evenodd" d="M3.74385 7.2451C3.75413 7.23749 3.76368 7.22892 3.77235 7.2195C3.74675 7.26738 3.62856 7.45895 3.72439 7.7606C3.82022 8.06089 4.06095 8.28481 4.35739 8.29522C4.65384 8.30563 4.80966 8.16056 4.98784 7.94313C5.05772 7.85643 5.13802 7.74763 5.20919 7.6739C5.31535 7.55862 5.3982 7.52628 5.3982 7.415C5.3982 7.18716 5.16516 7.08485 4.82212 6.98262C4.47908 6.88039 4.16966 6.89302 4.00915 6.96299C3.85256 7.03928 3.78523 7.11958 3.74376 7.24519L3.74385 7.2451Z" fill="#252211"/>
<path fill-rule="evenodd" clip-rule="evenodd" d="M4.84401 8.76149L4.86969 8.74848C4.86969 8.74848 4.87611 8.64575 4.91771 8.64849C4.95923 8.655 4.97875 8.70961 4.97481 8.72905C4.97224 8.74848 4.96189 8.78101 4.92028 8.77707C4.86575 8.77836 4.84375 8.76149 4.84375 8.76149H4.84401Z" fill="#3F3824"/>
<path fill-rule="evenodd" clip-rule="evenodd" d="M4.73047 8.32642C4.73047 8.32642 4.75607 8.31738 4.78739 8.34844C4.81299 8.34844 4.9246 8.33547 4.95959 8.35748C4.99458 8.3795 5.0049 8.39887 5.0049 8.39887C5.0049 8.39887 4.87417 8.42737 4.80292 8.39887C4.73047 8.37429 4.73047 8.32642 4.73047 8.32642Z" fill="#2D2815"/>
<path fill-rule="evenodd" clip-rule="evenodd" d="M5.30664 8.34507C5.30664 8.3386 5.23692 8.29084 5.16328 8.27526C5.15034 8.27271 5.1477 8.28173 5.13774 8.28173C5.13127 8.27918 5.12871 8.25977 5.12871 8.25977L5.08683 8.28182C5.08683 8.28182 5.08036 8.29084 5.10232 8.30736C5.12165 8.32285 5.154 8.33579 5.16302 8.36158C5.17204 8.38738 5.17204 8.3964 5.17596 8.40032C5.17851 8.40287 5.22372 8.40032 5.24568 8.38738C5.26765 8.37444 5.30902 8.35333 5.30638 8.34481L5.30664 8.34507Z" fill="#82764F"/>
<path fill-rule="evenodd" clip-rule="evenodd" d="M4.65234 8.60796C4.65234 8.60796 4.6652 8.51891 4.75178 8.51499C4.84083 8.50852 4.85768 8.59502 4.85768 8.59502L4.80601 8.64669C4.80601 8.64542 4.76727 8.59119 4.65277 8.60796H4.65234Z" fill="#2D2816"/>
<path fill-rule="evenodd" clip-rule="evenodd" d="M5.21543 8.22403C5.21543 8.22403 5.16759 8.27571 5.06177 8.2912C5.05274 8.27826 5.03333 8.25247 5.06177 8.21118C5.0902 8.16989 5.12247 8.15695 5.15473 8.16981C5.16897 8.17211 5.18225 8.17844 5.193 8.18805C5.20376 8.19766 5.21154 8.21015 5.21543 8.22403Z" fill="#574F35"/>
<path fill-rule="evenodd" clip-rule="evenodd" d="M5.41256 8.28716C5.4152 8.27419 5.40616 8.27163 5.41256 8.26515C5.41896 8.25866 5.45403 8.24578 5.46051 8.25218C5.46307 8.25482 5.46051 8.26515 5.46051 8.27778C5.46051 8.2904 5.46051 8.30337 5.45403 8.31268C5.44498 8.32565 5.41913 8.33213 5.40616 8.32829C5.39318 8.32445 5.39062 8.30628 5.39062 8.30269C5.39703 8.30013 5.41256 8.29365 5.41256 8.28716ZM5.63357 8.14739C5.63357 8.1409 5.65558 8.12793 5.66856 8.12793C5.68793 8.12793 5.68793 8.14346 5.69057 8.14739C5.69697 8.14995 5.69697 8.14474 5.70346 8.15643C5.70994 8.16812 5.71907 8.18877 5.7125 8.20174C5.70593 8.21471 5.68016 8.22367 5.67376 8.22111C5.66472 8.21463 5.63621 8.15643 5.63357 8.14739Z" fill="#82764F"/>
<path fill-rule="evenodd" clip-rule="evenodd" d="M5.1875 8.31747C5.1875 8.31747 5.21609 8.32389 5.25504 8.35642C5.24203 8.36549 5.22251 8.37585 5.22251 8.37585C5.22251 8.37585 5.21994 8.34598 5.1875 8.31738V8.31747Z" fill="#6E6342"/>
<path fill-rule="evenodd" clip-rule="evenodd" d="M5.12602 8.03259C5.11954 8.02619 5.14539 8.01065 5.16092 8.01321C5.17646 8.01577 5.18294 8.02619 5.19975 8.02875C5.21656 8.03131 5.21921 8.02226 5.22535 8.01577C5.2315 8.00929 5.25385 8.01321 5.25769 8.01577C5.26008 8.01862 5.26225 8.02164 5.26418 8.02482C5.26445 8.0199 5.26573 8.01508 5.26795 8.01068C5.27017 8.00627 5.27327 8.00237 5.27706 7.99922C5.28203 7.99557 5.28776 7.99309 5.29381 7.99197C5.29987 7.99085 5.30611 7.99111 5.31205 7.99273C5.31461 8.00178 5.32758 8.03412 5.32502 8.04061C5.32246 8.04709 5.28363 8.05622 5.27706 8.04965C5.28355 8.06527 5.31205 8.09761 5.31589 8.10401C5.31973 8.11041 5.28739 8.12603 5.2745 8.12347C5.25641 8.12219 5.14505 8.05742 5.12568 8.03284L5.12602 8.03259ZM5.29558 7.81772C5.29318 7.81119 5.2886 7.80571 5.28261 7.80219C5.27356 7.79963 5.24378 7.80219 5.24378 7.81772C5.24378 7.83325 5.26938 7.92012 5.29814 7.96534C5.33057 8.01065 5.3525 8.04812 5.37451 8.05853C5.38143 8.06167 5.38927 8.06209 5.39648 8.05968C5.40368 8.05727 5.40971 8.05223 5.41334 8.04556C5.4159 8.03907 5.42239 7.9912 5.41983 7.87856C5.41727 7.76592 5.41334 7.6572 5.40686 7.65072C5.40037 7.64423 5.37451 7.64432 5.36547 7.6572C5.35642 7.67009 5.29814 7.79835 5.2955 7.81772H5.29558Z" fill="#585136"/>
<path fill-rule="evenodd" clip-rule="evenodd" d="M5.17939 8.48074C5.17939 8.48074 5.13394 8.45214 5.08976 8.47166C5.04824 8.49118 5.05081 8.5678 5.05081 8.5678C5.06015 8.57145 5.07025 8.57277 5.08021 8.57164C5.09018 8.57051 5.09972 8.56695 5.108 8.56129C5.13659 8.54186 5.17289 8.50941 5.17939 8.48082V8.48074Z" fill="#574F35"/>
<path fill-rule="evenodd" clip-rule="evenodd" d="M5.26388 8.58304C5.26132 8.55744 5.23828 8.55744 5.23828 8.54422C5.23987 8.5379 5.24353 8.53229 5.24868 8.5283C5.25384 8.5243 5.26018 8.52216 5.2667 8.5222C5.27967 8.5222 5.2923 8.53773 5.30817 8.5478C5.3237 8.55685 5.347 8.5734 5.34956 8.59311C5.35212 8.61283 5.32396 8.66684 5.29264 8.66684C5.26132 8.66684 5.27062 8.60856 5.26414 8.5827L5.26388 8.58304ZM5.51374 8.54806C5.51374 8.54806 5.46194 8.56359 5.46578 8.54806C5.46962 8.53253 5.4814 8.52869 5.49821 8.52869C5.50675 8.51975 5.51824 8.5142 5.53055 8.51307C5.53759 8.51272 5.54451 8.51504 5.54992 8.51956C5.54992 8.51956 5.58491 8.50403 5.59523 8.51307C5.60556 8.52212 5.59788 8.52212 5.60428 8.53253C5.61243 8.54408 5.61777 8.55737 5.61989 8.57135C5.61989 8.58168 5.58107 8.60369 5.54992 8.59985C5.51374 8.59209 5.52014 8.55454 5.51374 8.54806ZM5.81531 8.48977C5.81531 8.48977 5.83084 8.49882 5.81795 8.50923C5.80891 8.51828 5.76359 8.53483 5.72468 8.53773C5.68585 8.53773 5.65095 8.54413 5.65095 8.53125C5.65095 8.51836 5.68329 8.49242 5.70267 8.48593C5.70655 8.48107 5.71148 8.47715 5.7171 8.47446C5.72272 8.47177 5.72887 8.47038 5.73509 8.4704C5.75062 8.4704 5.81138 8.46392 5.82828 8.46136C5.84381 8.45871 5.85678 8.46776 5.84765 8.48073C5.84381 8.48977 5.81531 8.48977 5.81531 8.48977ZM5.90465 8.09007C5.90465 8.09007 5.88519 8.13146 5.86326 8.13146C5.84125 8.1289 5.84125 8.12242 5.84125 8.11593C5.84125 8.10688 5.86326 8.08359 5.86062 8.0771C5.85422 8.0771 5.8386 8.0771 5.84125 8.06157C5.84125 8.0486 5.86326 8.03307 5.88263 8.03597C5.89727 8.02394 5.91549 8.01713 5.93443 8.0166C5.95645 8.0166 5.97582 8.023 5.97582 8.03597C5.97582 8.04894 5.95022 8.07736 5.94083 8.08393C5.93051 8.09426 5.91753 8.101 5.90465 8.09033V8.09007ZM5.60948 8.85509C5.60948 8.85509 5.58388 8.85773 5.58388 8.87062C5.58388 8.8771 5.59028 8.8771 5.59941 8.87326C5.60467 8.87297 5.60988 8.87208 5.61494 8.87062C5.6175 8.87326 5.6175 8.88615 5.63696 8.88615C5.65293 8.88399 5.66833 8.87871 5.68227 8.87062C5.6978 8.86422 5.71077 8.85765 5.71077 8.84502C5.70429 8.823 5.69132 8.81259 5.67195 8.81259C5.66202 8.81196 5.65212 8.81421 5.64344 8.81908C5.64344 8.81908 5.63696 8.80611 5.61494 8.81908C5.59293 8.83205 5.59549 8.83205 5.60197 8.83853C5.61358 8.84886 5.60974 8.8556 5.60974 8.8556L5.60948 8.85509ZM5.46322 8.98974C5.46322 8.98326 5.49556 8.97029 5.50461 8.97421C5.51365 8.97677 5.53951 9.02592 5.53951 9.03113C5.53951 9.03761 5.50717 9.05315 5.4942 9.05315C5.48123 9.05315 5.45929 9.03113 5.45929 9.02755C5.45929 9.02499 5.47483 9.02115 5.47483 9.0185C5.47867 9.0121 5.46322 8.99648 5.46322 8.99V8.98974ZM5.36082 8.80073C5.36731 8.79817 5.36731 8.79168 5.37635 8.7852C5.37918 8.78331 5.38241 8.7821 5.38578 8.78166C5.38915 8.78122 5.39258 8.78155 5.39581 8.78264C5.39809 8.77857 5.40125 8.77505 5.40506 8.77235C5.40886 8.76965 5.41322 8.76783 5.41782 8.76702C5.43335 8.76446 5.44632 8.76702 5.44342 8.77351C5.44342 8.79296 5.45639 8.80585 5.45639 8.82138C5.45639 8.83691 5.44735 8.85637 5.41501 8.86934C5.38267 8.87838 5.33863 8.87838 5.33215 8.87582C5.32566 8.87326 5.31918 8.84732 5.32566 8.83435C5.33215 8.82138 5.35024 8.80721 5.36065 8.80073H5.36082Z" fill="#82764F"/>
<path fill-rule="evenodd" clip-rule="evenodd" d="M5.40361 8.80859C5.40361 8.80859 5.38152 8.82161 5.38152 8.82811C5.37956 8.83439 5.37869 8.84097 5.37895 8.84754C5.37895 8.8514 5.40754 8.84498 5.4114 8.84104C5.41268 8.83847 5.40361 8.81536 5.40361 8.80859Z" fill="#6E6342"/>
<path fill-rule="evenodd" clip-rule="evenodd" d="M5.20966 8.748C5.22259 8.75065 5.24468 8.748 5.26154 8.75451C5.27455 8.76101 5.28363 8.77402 5.27062 8.78961C5.2576 8.80519 5.24493 8.82856 5.21608 8.82462C5.18364 8.82205 5.15248 8.80518 5.15248 8.79217C5.15193 8.78394 5.15303 8.77568 5.15571 8.76788C5.15838 8.76008 5.16258 8.75288 5.16806 8.74672C5.18107 8.73636 5.18749 8.74286 5.20958 8.748H5.20966Z" fill="#585136"/>
<path fill-rule="evenodd" clip-rule="evenodd" d="M5.19327 8.76074C5.19327 8.76074 5.15188 8.79308 5.14147 8.8087C5.1285 8.82423 5.0651 8.90444 5.04573 8.92125C5.05216 8.9099 5.05949 8.89909 5.06766 8.88891C5.04206 8.90528 5.02287 8.92996 5.0133 8.9588C4.99777 9.00676 5.10008 9.03261 5.16733 9.05207C5.23457 9.07153 5.2606 9.07767 5.2606 9.07767C5.23584 9.04046 5.21459 9.00104 5.19711 8.95991C5.17151 8.89907 5.15828 8.89258 5.17509 8.86408C5.18806 8.83558 5.20752 8.81621 5.20752 8.79419C5.19975 8.77371 5.19327 8.76074 5.19327 8.76074Z" fill="#574F35"/>
<path fill-rule="evenodd" clip-rule="evenodd" d="M3.71501 8.86391C3.72444 8.86565 3.73409 8.86565 3.74352 8.86391C3.76289 8.86127 3.96487 8.78711 4.1759 8.80043C4.33388 8.80997 4.49046 8.83571 4.64319 8.87723C4.90857 8.94711 5.23864 9.08561 5.45223 9.16463C5.50915 9.18656 5.56487 9.22547 5.60583 9.24092C5.76899 9.3044 5.77539 9.30441 5.87122 9.32122C5.98386 9.33675 6.09906 9.2992 6.21946 9.27334C6.367 9.24092 6.61942 9.22539 6.84077 9.19304C6.91235 9.18312 6.98295 9.16711 7.0518 9.14517C7.0518 9.14517 6.87576 9.32122 6.4537 9.38462C6.2831 9.41052 6.10974 9.41271 5.93855 9.3911C5.80389 9.37813 5.71463 9.35868 5.6473 9.33931C5.57093 9.31729 5.41426 9.25901 5.2214 9.21131C5.08675 9.17632 4.93656 9.15046 4.76444 9.11812C4.33982 9.04038 3.87903 8.95112 3.71484 8.86443L3.71501 8.86391Z" fill="#252211"/>
<path fill-rule="evenodd" clip-rule="evenodd" d="M3.23862 8.06348C3.13622 8.15018 3.0276 8.23303 2.92153 8.31325L2.60178 8.55892C2.49307 8.63914 2.38691 8.72199 2.27811 8.80229C2.16931 8.88259 2.06068 8.95888 1.94531 9.03269C2.04771 8.94599 2.15634 8.86569 2.26506 8.78676C2.37377 8.70783 2.4865 8.63043 2.59137 8.55039L2.91112 8.30437C3.02111 8.22416 3.12726 8.1413 3.23862 8.06365V8.06348ZM2.67295 8.96963C2.67295 8.96963 2.78815 8.8738 2.93185 8.73923C3.11045 8.57232 3.32925 8.35864 3.39914 8.3199L2.67286 8.96972L2.67295 8.96963Z" fill="#CFB66C"/>
<path fill-rule="evenodd" clip-rule="evenodd" d="M2.67578 8.96984C2.73278 8.91292 2.79363 8.85729 2.85447 8.80284L2.94765 8.72263C2.97615 8.69703 3.00858 8.66827 3.037 8.63977C3.09391 8.58286 3.14964 8.52193 3.20655 8.46373C3.23477 8.43446 3.26459 8.4068 3.2959 8.38087C3.31155 8.36702 3.32893 8.35526 3.34761 8.34588C3.36323 8.33684 3.38004 8.32028 3.40197 8.31738C3.38908 8.33684 3.37355 8.34588 3.36058 8.36269C3.34505 8.37567 3.33208 8.3912 3.31919 8.40408C3.29069 8.43258 3.25835 8.45844 3.22985 8.48438C3.16901 8.53618 3.10561 8.58678 3.04476 8.64097C2.98392 8.69515 2.927 8.75361 2.86607 8.80796C2.80011 8.86369 2.73927 8.91804 2.67578 8.9701V8.96984ZM3.44993 8.45204C3.44993 8.45204 3.02795 8.86505 2.94117 8.93229L3.44993 8.45204Z" fill="#CFB66C"/>
<path fill-rule="evenodd" clip-rule="evenodd" d="M3.45016 8.45215C3.4122 8.49609 3.3715 8.53759 3.32831 8.57639L3.20031 8.69808C3.15892 8.73947 3.12001 8.78094 3.07606 8.82232C3.03075 8.86115 2.98936 8.89912 2.94141 8.93496L3.06565 8.81328C3.10712 8.77189 3.15244 8.73699 3.19647 8.69552L3.32071 8.57383C3.36338 8.53117 3.40485 8.4897 3.45016 8.45215ZM3.46953 8.67606C3.43064 8.78462 3.38481 8.89057 3.33232 8.99325C3.2236 9.21076 3.06053 9.48255 2.98928 9.62113L3.46953 8.67606Z" fill="#CFB66C"/>
<path fill-rule="evenodd" clip-rule="evenodd" d="M3.46726 8.67578C3.46726 8.72365 3.45429 8.76513 3.43876 8.80651C3.42362 8.84793 3.40636 8.88855 3.38704 8.9282C3.36759 8.96702 3.34557 9.0085 3.32356 9.04604C3.30154 9.08359 3.27568 9.12233 3.25623 9.16124L3.1255 9.39164C3.08019 9.46844 3.03615 9.54567 2.98828 9.61948C3.02062 9.53662 3.06465 9.45897 3.10613 9.3826C3.15144 9.3058 3.19283 9.229 3.23413 9.14955C3.25429 9.10996 3.27243 9.06938 3.28848 9.02795C3.30785 8.98648 3.32723 8.94765 3.34284 8.91011C3.36221 8.86872 3.37774 8.82981 3.3972 8.79235C3.41913 8.75215 3.43731 8.71333 3.46709 8.67578H3.46726Z" fill="#CFB66C"/>
<path fill-rule="evenodd" clip-rule="evenodd" d="M3.9286 9.7373C3.9286 9.7373 3.8006 9.90686 3.8134 10.1217C3.8483 10.0092 3.89233 9.83697 3.9286 9.7373ZM4.05029 9.90729C4.05029 9.90729 4.00497 10.3681 3.96743 10.5946C4.0205 10.3328 4.03083 10.3548 4.05029 9.90729ZM4.89816 10.6219C4.89816 10.6219 4.70658 11.1851 4.70266 11.3416C4.74413 11.1806 4.82434 10.8518 4.89816 10.6214V10.6219Z" fill="#DEC270"/>
<path fill-rule="evenodd" clip-rule="evenodd" d="M5.34766 9.70215C5.34766 9.70215 5.65836 10.2147 5.8914 10.6522C5.82834 10.4321 5.68327 10.0283 5.34766 9.70215Z" fill="#CBAF59"/>
<path fill-rule="evenodd" clip-rule="evenodd" d="M6.17969 10.457C6.35028 10.7586 6.50411 11.0693 6.64049 11.3878C6.61463 11.1677 6.54466 10.791 6.17969 10.457Z" fill="#E3C677"/>
<path fill-rule="evenodd" clip-rule="evenodd" d="M8.63781 11.2125C8.68952 11.1801 8.79183 11.004 8.88118 10.96C8.97044 10.9147 9.03776 10.9057 9.11806 10.8163C9.19828 10.7231 9.22046 10.6662 9.39633 10.5924C9.64235 10.4862 9.47313 10.349 9.47313 10.349C9.50023 10.3223 9.52921 10.2977 9.55983 10.2752C9.62332 10.2274 9.69705 10.1691 9.69065 10.0668C9.6816 9.89465 9.64926 9.6448 9.50812 9.49981C9.64534 9.47131 9.90808 9.45194 10.0713 9.41056C10.2602 9.3626 10.347 9.29527 10.347 9.29527C10.347 9.29527 10.2383 9.11018 10.4144 8.92381C10.5904 8.73745 10.7341 8.62609 10.8403 8.41762C10.7186 8.40209 10.5331 8.3374 10.0596 8.51729C10.0852 8.52931 10.1099 8.54314 10.1334 8.55867C10.1334 8.55867 9.8422 8.63897 9.73605 8.72832C9.55087 8.8849 9.52758 9.01307 9.32696 9.1089C9.12634 9.20473 8.92436 9.17879 8.75744 9.25644C8.59053 9.3341 8.56587 9.40014 8.50494 9.42865C8.51791 9.44418 8.50238 9.47003 8.52696 9.49205C8.51143 9.51407 8.4208 9.66161 8.3289 9.66161C8.33794 9.69659 8.4156 9.72245 8.4156 9.72245C8.4156 9.72245 8.35868 9.76392 8.2137 9.77425C8.28743 9.85105 8.3574 9.93476 8.55025 10.0564C8.53472 10.0888 8.46996 10.1367 8.4959 10.1976C8.5244 10.2584 8.5983 10.3413 8.89329 10.4086C8.74311 10.415 8.56715 10.45 8.33009 10.4177C8.09321 10.3892 8.05438 10.3723 7.90812 10.4086C7.92365 10.4241 7.96504 10.4241 8.0013 10.4655C7.96248 10.4681 7.71911 10.437 7.63625 10.5458C7.54955 10.6584 7.512 10.8436 7.51849 10.9678C7.47318 10.9898 7.42914 11.0286 7.45116 11.1089C7.47318 11.1892 7.58838 11.2151 7.66219 11.2655C7.73592 11.3199 7.7424 11.3393 7.81238 11.3264C7.8861 11.3108 7.99482 11.2371 8.05831 11.2371C8.12179 11.2371 8.16702 11.285 8.16702 11.285C8.16702 11.285 8.33922 11.2021 8.35604 11.2177C8.37157 11.2332 8.3586 11.3329 8.37541 11.3484C8.39247 11.3601 8.58644 11.2449 8.63823 11.2125H8.63781Z" fill="#ECD592"/>
<path fill-rule="evenodd" clip-rule="evenodd" d="M12.3981 6.03204C11.5891 3.94274 9.58905 3.55566 9.58905 3.55566H3.8829L3.90491 5.68379H5.0413V10.4359H3.88281V12.5602H9.4311C10.7683 12.5602 11.8401 11.2165 11.8401 11.2165C13.5566 8.78028 12.3981 6.03204 12.3981 6.03204H12.3981ZM9.46088 9.78474C9.46088 9.78474 9.02568 10.4126 8.55217 10.4126H7.60497L7.58252 5.689H8.7981C8.7981 5.689 9.3613 5.80676 9.75477 6.9213C9.75477 6.9213 10.2764 8.51703 9.46088 9.78474Z" fill="white" fill-opacity="0.8"/>
</g>
<defs>
<clipPath id="clip0_2391_1065">
<rect width="16" height="16" fill="white"/>
</clipPath>
</defs>
</svg>
