<svg width="16" height="16" viewBox="0 0 16 16" fill="none" xmlns="http://www.w3.org/2000/svg">
<g style="mix-blend-mode:luminosity" clip-path="url(#clip0_2391_1062)">
<path d="M8.00133 15.1345C11.9414 15.1345 15.1355 11.9404 15.1355 8.00035C15.1355 4.06027 11.9414 0.866211 8.00133 0.866211C4.06125 0.866211 0.867188 4.06027 0.867188 8.00035C0.867188 11.9404 4.06125 15.1345 8.00133 15.1345Z" fill="white"/>
<path d="M8 0C6.41775 0 4.87103 0.469192 3.55544 1.34824C2.23985 2.22729 1.21447 3.47672 0.608967 4.93853C0.00346625 6.40034 -0.15496 8.00888 0.153721 9.56072C0.462403 11.1126 1.22433 12.538 2.34315 13.6569C3.46197 14.7757 4.88743 15.5376 6.43928 15.8463C7.99113 16.155 9.59966 15.9965 11.0615 15.391C12.5233 14.7855 13.7727 13.7602 14.6518 12.4446C15.5308 11.129 16 9.58225 16 8C16.0031 6.95248 15.7998 5.91461 15.4017 4.94565C15.0037 3.9767 14.4187 3.09563 13.6801 2.35276C12.9416 1.60989 12.0639 1.01977 11.0973 0.616081C10.1307 0.212393 9.09402 0.00304807 8.04649 0H8ZM8.1356 8.27119L7.30267 11.0799H11.7579C11.7874 11.0789 11.8168 11.0837 11.8445 11.094C11.8721 11.1044 11.8975 11.12 11.9191 11.1402C11.9407 11.1603 11.9581 11.1846 11.9703 11.2114C11.9825 11.2383 11.9893 11.2673 11.9903 11.2969V11.3705L11.6029 12.707C11.5858 12.7702 11.5478 12.8258 11.495 12.8645C11.4422 12.9032 11.3778 12.9228 11.3124 12.9201H4.49395L5.63681 9.02663L4.35836 9.41404L4.64891 8.523L5.92736 8.13559L7.53511 2.67312C7.55281 2.61027 7.59103 2.55515 7.64369 2.51654C7.69634 2.47792 7.7604 2.45804 7.82567 2.46005H9.54964C9.57915 2.45901 9.60858 2.46381 9.63624 2.47415C9.6639 2.4845 9.68924 2.50019 9.71083 2.52034C9.73242 2.54049 9.74982 2.5647 9.76205 2.59158C9.77428 2.61846 9.78109 2.64748 9.78209 2.677V2.75061L8.42615 7.36078L9.7046 6.97337L9.43342 7.90315L8.1356 8.27119Z" fill="#345D9D"/>
</g>
<defs>
<clipPath id="clip0_2391_1062">
<rect width="16" height="16" fill="white"/>
</clipPath>
</defs>
</svg>
