<svg width="16" height="16" viewBox="0 0 16 16" fill="none" xmlns="http://www.w3.org/2000/svg">
<g clip-path="url(#clip0_2391_1063)">
<path fill-rule="evenodd" clip-rule="evenodd" d="M2.92936 1.06876L0.0119939 7.23261C0.000892527 7.25554 -0.00262544 7.28143 0.00195451 7.30651C0.00653445 7.3316 0.018972 7.35455 0.0374484 7.37201L7.91654 14.9663C7.93892 14.9879 7.96873 15 7.99974 15C8.03075 15 8.06056 14.9879 8.08294 14.9663L15.962 7.37248C15.9805 7.35502 15.9929 7.33207 15.9975 7.30699C16.0021 7.28191 15.9986 7.25601 15.9875 7.23308L13.0701 1.06923C13.0607 1.04853 13.0456 1.031 13.0265 1.01872C13.0074 1.00645 12.9853 0.999949 12.9626 1.00001H3.03777C3.01503 0.999725 2.9927 1.00606 2.97346 1.01826C2.95422 1.03046 2.9389 1.048 2.92936 1.06876Z" fill="#50AF95"/>
<path fill-rule="evenodd" clip-rule="evenodd" d="M9.00981 7.86533C8.95324 7.8696 8.66099 7.88714 8.00907 7.88714C7.49056 7.88714 7.12241 7.8715 6.99325 7.86533C4.98942 7.77667 3.49374 7.4258 3.49374 7.00571C3.49374 6.58562 4.98942 6.23523 6.99325 6.14514V7.51589C7.1243 7.52537 7.49951 7.54766 8.01803 7.54766C8.64025 7.54766 8.95183 7.52158 9.00792 7.51636V6.14609C11.0075 6.23571 12.4999 6.58657 12.4999 7.00571C12.4999 7.42485 11.008 7.77572 9.00792 7.86486L9.00981 7.86533ZM9.00981 6.00432V4.77772H11.8004V2.90723H4.20269V4.77772H6.99278V6.00385C4.72498 6.10864 3.01953 6.56049 3.01953 7.10196C3.01953 7.64343 4.72498 8.09482 6.99278 8.20008V12.1307H9.00934V8.19866C11.272 8.09387 12.9746 7.64249 12.9746 7.10149C12.9746 6.56049 11.2734 6.10911 9.00934 6.00385L9.00981 6.00432Z" fill="white"/>
</g>
<defs>
<clipPath id="clip0_2391_1063">
<rect width="16" height="14" fill="white" transform="translate(0 1)"/>
</clipPath>
</defs>
</svg>
